<svg xmlns="http://www.w3.org/2000/svg" viewBox="0 0 1000 1000">
  <polyline
    points="237.39,715.91 240.65,728.78 246.13,749.64 251.23,768.86 255.07,783.28 258.91,797.6 263.24,813.46 266.99,827.49 273.81,852.86 279.0,871.98 283.61,888.32 286.3,897.74 293.13,920.33 296.68,931.09 301.87,945.22 307.35,957.9 312.64,968.28 318.21,977.22 326.19,987.12 331.86,992.22 336.09,995.1 343.78,998.46 351.27,999.9 358.1,999.71 364.92,997.98 370.3,995.58 373.38,993.75 375.2,992.5 381.26,987.89 384.81,984.91 389.52,980.78 390.68,979.82 399.71,971.94 403.84,968.67 417.11,960.5 419.99,959.35 425.47,957.81 439.12,958.19 445.36,959.92 454.4,963.38 459.78,965.59 470.16,969.92 483.42,975.01 491.4,977.8 499.57,980.11 507.74,981.84 521.96,983.95 538.78,983.95 553.77,982.51 568.48,979.53 583.37,974.44 592.02,970.59 601.63,965.5 615.67,956.27 618.45,954.16 636.71,937.43 644.69,928.3 655.65,913.21 662.66,901.2 671.02,883.71 681.21,852.38 686.11,833.93 690.05,817.78 694.86,798.85 700.14,778.09 702.55,768.38 707.35,748.49 710.04,737.05 712.73,725.52 715.52,713.98 720.42,693.51 724.36,677.37 727.34,665.55 730.23,654.11 737.05,627.1 739.36,618.07 745.99,592.22 751.08,572.42 757.52,547.81 757.9,546.18 762.33,529.17 766.84,512.06 773.09,488.61 778.18,469.58 784.33,446.32 792.22,417.2 797.69,397.41 804.42,373.47 806.82,364.82 809.9,353.29 812.69,340.89 814.51,323.5 814.32,312.83 813.74,307.45 811.15,294.76 809.8,290.73 807.11,284.57 803.94,279.38 797.41,271.79 793.75,268.62 787.89,264.3 784.72,262.37 776.93,258.34 770.98,255.93 763.96,253.72 755.89,251.61 744.55,249.11 729.26,246.61 716.67,245.75 710.43,245.65 699.18,245.65 688.52,246.04 673.23,247.96 659.78,250.84 649.5,254.3 632.0,262.66 622.1,268.91 612.3,276.02 592.7,292.94 577.61,309.95 570.69,319.46 565.4,327.05 550.79,347.72 542.24,359.92 535.03,370.11 528.59,379.14 518.12,394.04 510.72,404.42 502.55,416.15 492.07,431.81 484.77,442.67 470.83,463.43 461.7,476.98 453.53,489.09 445.17,501.49 431.72,521.19 421.62,534.55 413.55,543.78 407.11,549.83 399.81,555.79 382.89,565.69 371.36,569.63 358.77,572.42 341.57,573.95 335.99,573.76 319.75,571.36 303.51,565.31 291.69,558.77 282.75,551.95 277.37,546.85 269.68,538.3 261.51,526.77 257.28,519.37 250.94,504.85 248.05,496.2 242.86,476.02 239.79,459.59 238.15,447.77 237.1,435.37 237.39,420.09 239.31,407.21 241.04,400.77 243.15,394.91 245.56,390.0 249.88,384.24 254.49,380.68 261.32,378.38 267.47,377.99 273.33,378.76 276.89,379.72 280.06,380.87 283.52,382.32 291.11,386.06 295.05,388.08 299.18,390.29 307.64,394.52 312.35,396.64 321.67,399.9 327.82,401.15 332.24,401.63 338.3,401.63 345.99,400.38 351.56,398.17 355.89,395.58 361.08,391.16 364.34,387.12 367.8,380.59 369.82,373.19 370.4,368.28 370.4,364.25 369.63,356.85 368.77,353.1 367.71,349.26 364.82,342.05 362.23,336.67 359.73,332.24 357.52,328.69 352.14,321.19 347.72,315.62 344.16,311.68 340.03,307.16 334.45,301.11 326.77,293.13 322.25,288.23 312.35,276.6 298.99,258.63 288.23,240.56 283.04,229.6 282.08,227.29 279.1,219.7 274.68,204.71 273.33,196.64 273.04,190.39 273.33,182.03 274.77,173.09 276.02,169.34 279.38,163.19 281.69,160.6 284.29,158.48 289.09,156.27 294.28,155.5 298.51,155.79 302.35,156.56 308.6,158.87 312.25,160.79 315.91,163.0 318.31,164.73 321.58,167.32 324.56,169.92 327.82,172.99 330.32,175.49 336.09,181.93 338.59,184.91 346.28,194.91 351.37,201.73 355.21,206.73 362.42,215.38 373.38,227.2 381.64,234.21 387.51,237.96 398.08,242.96 406.82,245.65 416.91,247.86 429.89,249.59 444.59,249.98 458.24,248.53 465.64,247.0 475.83,243.92 483.13,241.13 495.53,234.98 504.85,229.02 514.37,221.43 526.09,209.32 530.9,203.27 539.93,190.49 549.64,174.63 550.79,172.61 565.11,148.39 574.44,132.63 579.43,124.17 583.28,117.64 589.52,106.39 594.33,97.36 599.71,86.59 602.59,79.29 605.09,67.66 605.38,62.95 605.0,56.42 603.46,50.94 601.44,46.04 599.52,42.38 595.58,36.71 590.1,31.43 583.28,26.53 576.65,22.59 572.42,20.47 567.42,18.16 558.77,14.7 549.54,11.34 544.64,9.61 535.61,6.82 528.69,4.9 521.29,3.27 511.2,1.54 505.43,0.86 489.57,0.0 472.56,0.29 460.55,1.44 451.51,2.69 443.15,4.04 431.33,6.34 417.01,9.71 397.98,15.19 374.15,23.74 363.86,28.06 339.93,40.17 329.84,46.13 309.08,60.55 296.59,71.02 278.14,89.76 262.66,109.47 254.11,122.54 249.11,131.19 241.81,145.22 231.33,169.25 222.49,193.95 217.01,212.49 210.96,237.39 206.73,256.7 198.75,292.74 193.37,321.86 190.68,340.51 188.66,357.81 186.64,383.57 186.06,393.27 192.02,511.48 196.44,539.07 201.54,566.65 206.73,590.97 211.15,610.38 216.91,634.6 221.72,654.01 224.99,666.99 225.85,670.45 229.12,683.33 237.39,715.62 243.54,739.74 248.63,758.96 254.97,782.89 259.68,800.19 264.87,819.61 269.01,834.98 273.62,852.47 277.56,866.51 281.31,880.15 285.44,894.47 289.28,907.83 295.34,927.25 298.51,936.38 302.16,945.8 305.53,953.96 308.79,960.98 313.5,969.82 316.29,974.44 324.07,984.81 327.63,988.56 330.99,991.45 338.97,996.54 344.16,998.56 348.58,999.62 356.85,999.9 366.46,997.41 369.05,996.25 373.47,993.66 380.3,988.76 386.26,983.66 389.91,980.39 395.77,975.3 397.41,973.86 404.13,968.48 439.31,958.29 448.73,961.17 454.01,963.19 459.88,965.69 469.68,969.73 487.17,976.36 501.2,980.59 521.29,983.85 532.44,984.24 542.14,983.66 552.52,982.6 572.22,978.47 587.51,972.61 590.39,971.36 600.58,966.07 611.44,959.25 628.74,945.41 642.29,931.28 652.38,918.12 657.66,909.95 663.82,899.09 674.0,875.73 681.69,850.74 684.38,840.37 689.0,821.91 691.98,809.9 695.82,795.1 700.05,778.57 705.43,756.27 707.16,749.16 711.87,729.26 714.66,717.64 718.79,700.24 725.61,672.37 731.19,650.36 734.55,636.91 738.4,621.91 742.24,606.73 747.72,585.49 753.68,562.52 757.71,547.04 762.13,530.03 765.4,517.64 770.98,496.88 776.65,475.06 780.97,458.91 782.12,454.69 786.45,438.25 791.35,420.37 797.5,398.17 799.9,389.43 806.73,365.21 807.98,360.6 811.53,346.37 812.11,343.87 814.51,324.56 814.03,309.47 812.97,302.45 810.86,293.7 809.03,288.71 805.86,282.36 803.08,278.14 799.04,273.33 789.33,265.35 780.68,260.16 774.24,257.18 766.17,254.4 757.71,252.09 741.76,248.53 728.21,246.52 717.54,245.84 707.83,245.65 701.68,245.75 695.15,245.75 686.21,246.23 671.6,248.15 663.14,249.88 653.72,252.76 639.02,258.91 630.85,263.33 616.91,272.56 608.27,279.19 598.08,287.94 590.0,295.63 576.93,310.81 563.96,329.07 560.21,334.45 548.68,350.89 543.3,358.48 534.84,370.4 523.5,386.35 512.06,402.5 503.89,414.32 495.82,426.24 482.08,446.71 469.97,464.78 459.97,479.48 453.53,489.09 442.67,505.14 439.5,509.85 425.95,529.07 421.72,534.55 416.05,541.09 399.52,555.98 387.7,563.38 379.24,567.13 371.94,569.53 358.0,572.51 342.72,573.86 324.84,572.51 311.68,568.77 304.57,565.79 294.38,560.5 284.96,553.87 273.43,542.72 266.22,533.78 259.01,522.54 254.4,513.41 251.71,506.97 246.23,489.86 242.38,473.71 240.17,461.89 238.54,450.94 237.39,439.88 237.1,424.89 238.15,413.55 239.6,406.25 241.81,398.56 245.75,389.81 251.32,382.89 253.63,381.26 256.42,379.82 261.12,378.47 266.31,377.99 269.2,378.09 274.48,379.05 281.88,381.64 286.88,383.95 290.63,385.78 296.2,388.66 299.09,390.2 302.64,392.12 311.39,396.25 316.87,398.46 321.38,399.81 325.32,400.77 330.9,401.54 336.47,401.73 348.68,399.42 350.99,398.46 356.56,395.1 360.69,391.54 363.77,387.89 367.04,382.32 368.38,378.95 369.73,373.67 370.4,367.32 370.4,362.61 369.34,355.31 367.9,349.93 365.11,342.53 362.42,337.05 356.37,326.96 350.31,318.89 341.85,309.08 337.43,304.37 332.34,298.99 326.48,292.84 312.16,276.41 307.16,270.06 300.62,260.93 296.3,254.59 291.01,245.75 284.48,232.96 282.46,228.26 279.48,220.86 275.35,207.5 274.0,201.44 273.23,194.52 273.43,181.07 274.48,174.44 275.73,170.3 278.52,164.63 281.69,160.6 285.25,157.9 288.13,156.56 293.9,155.5 298.03,155.69 305.14,157.42 311.48,160.31 315.14,162.42 318.12,164.54 320.52,166.36 323.88,169.25 327.82,172.99 331.28,176.55 334.55,180.11 339.84,186.45 342.91,190.39 345.7,194.14 349.64,199.42 352.81,203.56 354.93,206.25 360.88,213.55 367.52,221.05 378.47,231.81 390.49,239.5 407.02,245.75 422.1,248.73 426.72,249.3 442.58,250.07 454.97,249.11 468.52,246.32 477.08,243.54 497.36,233.83 504.37,229.31 517.44,218.55 523.5,212.3 533.3,200.1 542.24,186.74 551.37,171.65 553.1,168.67 566.75,145.7 570.4,139.45 577.99,126.67 586.45,111.87 590.49,104.66 593.75,98.61 597.98,90.34 601.73,81.79 604.32,73.23 605.29,65.26 605.09,57.66 603.36,50.65 599.71,42.67 596.44,37.77 588.76,30.37 583.85,26.91 579.14,23.93 575.88,22.2 568.28,18.55 563.96,16.72 558.29,14.51 547.24,10.48 536.57,7.02 526.57,4.42 513.21,1.83 506.39,0.96 489.86,0.0 478.14,0.1 464.97,0.96 454.3,2.31 444.59,3.75 428.16,7.02 418.07,9.42 396.54,15.57 383.85,19.99 365.4,27.39 349.35,35.08 338.01,41.23 328.98,46.61 314.66,56.32 303.99,64.68 295.72,71.89 286.79,80.54 275.54,92.84 268.43,101.68 256.22,119.08 246.9,135.22 239.21,150.79 233.93,162.9 226.05,183.37 219.61,203.17 218.36,207.5 212.01,232.29 208.75,247.19 205.86,260.64 201.15,281.69 200.19,286.21 197.31,299.95 192.98,324.65 191.06,337.15 189.52,349.74 186.74,382.6 186.16,392.5 185.49,413.46 185.49,429.6 187.41,471.02 188.47,482.36 190.29,498.61 192.5,514.85 195.68,534.36 198.46,550.6 201.35,565.21 206.44,589.62 211.63,612.4 218.45,640.65 221.24,651.99 226.14,671.5 231.91,694.19 235.18,707.16 240.17,726.57 245.17,745.99 248.63,758.96 252.96,775.11 259.88,800.96 266.79,826.91 271.98,846.13 274.96,856.9 278.14,868.62 283.81,889.0 287.75,902.55 290.44,911.77 294.19,923.59 296.78,931.48 299.86,940.03 302.64,947.04 306.49,955.98 312.45,967.9 314.94,972.22 321.86,982.12 328.21,989.14 337.63,995.96 345.8,999.04 354.16,1000.0 363.86,998.37 369.15,996.16 372.42,994.33 376.26,991.83 383.57,985.97 387.12,982.89 392.31,978.28 395.87,975.2 404.61,968.09 410.09,964.34 421.24,958.96 430.18,957.42 437.1,957.9 443.92,959.54 448.82,961.17 455.45,963.86 460.93,966.17 467.08,968.67 473.04,971.07 486.59,976.17 492.94,978.28 502.26,980.78 508.02,981.93 520.13,983.76 530.03,984.33 539.36,983.85 552.91,982.6 555.89,982.22 573.28,978.09 589.72,971.65 597.31,967.8 610.48,959.92 623.93,949.74 634.98,939.36 645.27,927.63 650.36,920.9 658.63,908.41 668.04,890.44 675.25,872.27 680.06,856.51 693.32,804.71 697.84,787.03 702.35,768.96 706.1,753.48 711.87,729.26 714.27,719.17 718.12,703.32 721.29,690.15 725.23,673.91 730.13,654.59 735.8,632.1 738.88,619.99 743.1,603.36 747.81,585.01 755.41,555.79 763.48,524.75 768.96,504.08 776.74,474.77 784.33,446.32 787.31,434.98 790.29,424.12 795.29,406.05 797.98,396.35 801.15,384.91 805.38,369.92 807.88,360.88 809.23,356.08 812.59,341.28 814.13,330.23 814.51,315.71 814.32,313.41 813.65,306.58 810.09,291.49 807.78,285.92 799.81,274.2 794.71,269.39 788.66,264.87 780.49,260.07 777.7,258.72 766.75,254.59 756.17,251.71 748.58,249.98 742.05,248.63 728.98,246.61 717.16,245.84 708.99,245.65 702.93,245.65 699.76,245.75 675.16,247.67 657.09,251.61 639.02,258.91 624.6,267.18 599.23,286.88 591.83,293.8 572.8,316.39 565.21,327.25 557.52,338.2 551.37,347.04 532.34,373.95 527.44,380.78 518.5,393.46 508.7,407.3 498.99,421.53 489.38,435.85 476.5,455.07 465.93,470.64 457.09,483.81 447.19,498.51 444.98,501.78 429.31,524.65 423.35,532.53 415.95,541.18 409.03,548.01 395.77,558.67 381.45,566.27 379.05,567.23 369.82,570.11 351.75,573.38 337.72,573.86 333.49,573.57 326.09,572.71 308.6,567.61 300.24,563.77 291.01,558.39 284.48,553.48 277.08,546.66 266.22,533.88 258.53,521.77 255.07,514.85 249.01,499.18 242.77,475.44 240.75,465.06 238.73,452.47 237.67,443.25 237.0,432.39 237.29,420.47 237.58,417.3 239.02,408.75 240.08,404.23 242.1,397.6 243.63,393.85 245.84,389.62 251.23,382.99 257.76,379.34 263.05,378.18 270.25,378.18 273.81,378.86 278.33,380.2 283.23,382.22 284.38,382.7 292.74,386.93 296.4,388.85 306.58,394.14 307.54,394.62 321.96,400.0 324.75,400.67 334.84,401.73 340.8,401.44 348.29,399.62 351.08,398.37 359.25,392.89 361.65,390.58 366.46,383.66 369.53,374.53 370.3,369.63 370.21,361.27 368.77,353.0 367.61,349.06 365.11,342.72 362.33,336.95 359.06,331.09 351.85,320.81 347.04,314.85 343.49,310.81 338.68,305.72 334.74,301.49 325.04,291.3 316.29,281.4 305.91,268.24 304.18,266.03 296.59,254.97 287.17,238.54 281.79,226.62 280.25,222.78 277.75,216.05 275.64,208.75 273.33,196.73 273.04,190.2 273.04,186.35 274.0,176.65 274.96,172.42 276.5,168.19 278.81,164.06 281.11,161.17 286.98,156.94 291.69,155.69 298.7,155.79 300.24,155.98 313.98,161.75 316.67,163.48 322.25,167.9 326.19,171.36 330.32,175.59 332.15,177.51 338.11,184.33 343.1,190.68 348.1,197.31 352.33,202.88 359.15,211.44 364.92,218.26 369.73,223.35 381.74,234.31 397.02,242.48 406.63,245.65 415.76,247.67 423.07,248.82 434.31,249.88 444.88,249.98 462.18,247.86 474.68,244.4 494.19,235.75 499.57,232.58 520.04,215.86 528.21,206.73 536.47,195.68 540.99,188.76 547.24,178.66 555.12,165.31 560.79,155.69 567.42,144.55 572.51,135.99 577.22,127.92 582.7,118.6 588.66,107.83 593.66,98.7 596.54,93.22 600.67,84.38 602.79,78.81 604.32,72.85 605.38,61.03 604.13,53.05 602.69,48.82 598.37,40.46 591.54,32.68 586.06,28.45 583.57,26.72 578.86,23.83 571.36,19.99 566.94,17.97 561.75,15.86 557.42,14.13 552.23,12.3 538.59,7.69 532.53,5.96 520.9,3.17 508.89,1.25 493.7,0.19 483.42,0.0 471.5,0.38 456.32,2.02 441.52,4.32 423.93,7.98 399.14,14.8 384.33,19.8 371.65,24.8 353.29,33.06 336.18,42.29 322.73,50.65 311.97,58.34 303.51,65.06 289.38,77.94 275.25,93.22 265.74,105.24 256.9,118.12 245.56,137.91 240.37,148.29 234.98,160.21 231.62,168.38 225.95,183.37 219.22,204.61 214.9,220.57 211.73,233.83 206.54,257.66 201.15,281.69 198.56,293.9 194.52,315.33 194.23,316.87 190.68,340.22 188.56,359.06 187.03,376.55 186.93,381.64 185.58,409.23 185.49,431.81 185.87,444.69 188.47,483.13 193.08,518.69 196.83,541.37 202.69,572.03 204.32,580.11 211.63,612.3 214.7,625.18 217.2,635.75 225.47,668.81 232.77,697.74"
    fill="none"
    stroke="#888"
    stroke-width="4"
    stroke-linejoin="round"
    stroke-linecap="round"
  />
</svg>
