<svg xmlns="http://www.w3.org/2000/svg" viewBox="0 0 1000 1000">
  <polyline
    points="551.32,768.02 549.46,762.96 545.92,753.3 542.17,743.06 541.73,741.89 538.6,733.29 535.21,724.07 532.04,715.47 529.3,708.0 525.62,697.72 524.27,693.09 522.52,686.57 520.66,679.53 518.3,670.86 516.25,663.35 514.54,657.12 513.3,652.71 510.1,641.15 508.67,636.34 507.54,633.14 506.01,629.38 503.46,624.86 500.91,622.13 498.91,620.89 498.72,620.78 494.68,619.98 491.11,620.6 487.94,621.22 485.13,621.4 480.61,620.02 479.44,618.96 477.59,615.57 477.18,613.78 477.08,611.89 477.08,610.25 477.26,607.41 477.29,606.82 477.51,604.56 478.13,600.12 478.61,597.27 479.26,593.99 480.03,590.46 481.27,584.99 481.81,582.26 482.47,578.69 483.13,574.2 483.49,570.78 483.75,563.89 483.56,560.17 482.98,553.54 481.92,544.5 481.38,540.35 480.14,530.91 478.64,519.32 478.21,515.89 477.55,510.97 476.13,500.0 474.63,488.48 473.76,481.12 473.47,478.39 473.1,473.69 472.85,470.19 472.48,466.32 471.03,461.59 469.71,459.73 465.67,456.92 462.32,455.5 459.55,454.37 456.23,452.8 453.9,451.45 451.09,449.38 447.74,446.06 446.53,444.57 442.6,438.37 440.48,433.67 439.14,429.4 437.79,422.48 437.53,419.13 437.46,415.7 437.75,409.69 438.37,405.82 439.43,401.6 441.29,396.89 445.22,389.68 447.88,384.72 449.23,381.37 450.65,375.03 450.98,369.27 450.29,361.11 448.47,353.01 447.7,350.21 444.93,341.06 443.36,337.71 440.08,333.33 434.87,330.09 429.48,326.99 424.81,321.2 423.21,317.08 421.71,308.55 421.35,300.17 421.42,293.83 421.71,288.47 422.33,283.29 423.5,277.94 426.67,270.25 430.46,265.07 434.25,261.57 438.92,258.36 443.58,255.74 445.55,254.65 450.18,251.95 456.63,246.15 460.13,239.78 462.1,232.45 462.79,228.55 463.77,222.87 464.61,218.6 466.62,210.47 467.82,206.1 470.3,197.75 471.61,193.27 473.32,186.68 474.09,183.03 475.29,175.09 476.09,168.6 476.78,162.62 476.97,160.98 477.88,151.07 478.35,144.91 478.68,139.81 478.97,133.57 479.08,129.02 479.08,123.84 478.93,118.05 478.75,111.71 478.5,104.75 478.24,98.37 477.73,87.91 477.33,79.78 477.22,78.03 476.71,67.61 476.27,58.39 475.84,51.46 475.18,44.06 474.27,37.39 473.43,32.25 472.41,26.64 470.66,19.24 469.06,14.61 466.62,9.91 462.75,5.32 457.72,1.9 455.1,0.84 450.32,0.0 449.19,0.04 443.18,1.82 438.19,5.5 435.53,8.67 432.43,14.54 430.94,20.01 430.35,23.62 430.1,26.28 430.02,34.37 430.57,40.93 431.23,45.08 431.7,47.2 433.27,52.63 435.05,57.11 436.84,60.43 440.12,65.71 442.49,69.43 446.28,75.81 448.36,79.82 450.87,85.9 451.38,87.36 453.93,97.93 454.84,104.78 455.54,112.8 455.68,116.59 455.14,131.35 453.93,139.0 452.95,143.34 449.78,153.47 446.53,161.24 442.42,170.17 438.84,178.33 436.58,184.53 434.8,190.65 433.56,196.41 432.58,202.49 432.07,205.77 430.35,213.06 429.04,215.98 427.14,218.89 423.9,221.99 421.46,223.41 416.5,224.8 410.74,225.64 407.17,227.02 404.37,229.13 401.12,233.07 399.34,235.99 398.35,237.92 395.98,245.32 394.56,254.54 394.05,262.3 394.02,263.69 393.94,273.23 394.16,281.11 394.56,287.08 395.0,291.13 395.91,297.22 396.68,301.3 399.15,310.99 400.98,316.6 404.29,325.24 406.44,330.34 408.19,334.43 412.35,344.27 412.79,345.29 414.79,350.61 416.83,356.59 418.47,362.09 420.15,368.87 422.04,378.89 422.81,384.69 423.39,391.17 423.79,398.9 423.9,403.09 424.27,412.06 424.85,419.82 426.2,430.61 428.49,442.49 429.73,447.19 431.77,453.57 434.69,460.97 440.08,471.75 443.29,477.11 448.1,485.06 451.64,491.54 454.01,496.54 455.97,501.09 459.98,512.76 462.21,521.72 463.96,530.8 465.01,538.05 465.56,542.93 466.21,550.19 466.65,559.95 466.58,568.23 466.14,577.05 465.78,581.64 464.98,588.82 463.74,597.42 462.9,602.85 462.57,604.96 461.88,610.54 461.66,613.64 461.8,618.52 462.5,621.4 464.9,626.14 467.24,628.84 470.95,631.97 473.69,634.19 476.67,636.64 484.11,643.09 487.57,647.86 488.19,648.99 490.2,653.98 492.13,664.12 492.6,668.89 492.93,674.21 493.04,679.57 492.46,688.02 490.78,697.06 488.37,704.39 486.04,709.75 483.49,715.03 480.83,720.28 478.86,724.14 475.65,730.48 473.43,734.89 468.8,744.41 465.85,751.11 463.15,758.0 460.71,765.65 458.93,772.91 458.05,777.5 456.85,787.34 456.59,792.04 456.52,796.71 456.92,807.17 458.05,817.19 459.51,825.42 461.4,834.24 464.57,847.18 467.42,858.41 469.42,866.1 472.34,876.12 474.67,883.15 477.51,890.63 481.19,898.46 483.89,903.38 488.41,910.78 493.4,917.85 499.16,925.14 505.32,932.03 512.32,939.03 515.93,942.38 520.19,946.35 523.73,949.67 525.04,950.91 531.27,956.74 537.61,962.35 543.22,966.94 547.45,970.22 554.49,975.51 558.53,978.57 563.2,982.03 566.29,984.36 570.96,987.83 575.95,991.54 578.72,993.62 584.77,998.03 586.89,999.09 590.09,999.93 595.2,999.56 597.16,998.91 598.95,997.96 601.5,995.99 602.89,994.46 604.13,992.53 604.6,991.62 605.69,988.16 606.06,985.24 605.98,982.58 605.36,978.35 604.67,975.0 602.96,967.42 601.76,961.88 600.92,957.98 599.97,953.5 598.62,946.5 597.78,942.23 595.78,932.68 594.39,926.49 593.48,922.41 592.65,918.73 590.31,908.34 589.26,903.49 587.54,896.09 586.63,892.08 584.34,881.88 582.29,872.51 581.16,867.19 578.72,855.89 576.35,845.54 574.71,838.98 573.07,832.93 571.65,827.98 570.16,823.02 566.84,812.49 563.93,803.56 560.46,793.32 557.48,784.82 556.45,782.02 554.6,776.99 550.66,766.31 548.4,760.08 546.29,754.36 543.37,746.37 539.58,736.06 535.17,724.0 531.6,714.23 528.21,705.04 525.4,697.06 522.52,686.53 519.24,674.32 517.97,669.66 515.49,660.54 514.69,657.74 512.61,650.19 511.01,644.29 510.35,641.99 508.93,637.25 507.29,632.48 505.5,628.29 503.17,624.46 500.84,622.06 497.01,620.23 494.97,619.98 492.6,620.31 490.05,620.85 484.69,621.36 482.83,621.04 480.43,619.87 478.86,618.23 477.91,616.44 477.11,613.13 477.08,610.94 477.11,609.37 477.4,605.73 477.84,601.98 478.39,598.55 479.01,595.27 479.74,591.77 480.32,589.26 481.78,582.51 482.51,578.65 483.2,573.51 483.49,570.45 483.75,565.35 483.67,561.67 483.42,557.84 482.94,553.07 482.51,549.13 481.7,542.75 481.08,538.09 479.95,529.48 479.19,523.65 478.35,517.24 477.66,511.81 476.75,504.81 476.09,499.78 475.11,492.24 474.12,484.26 473.43,477.91 472.85,469.82 472.23,464.94 470.99,461.44 469.39,459.4 466.65,457.43 462.1,455.43 458.12,453.75 454.26,451.67 451.93,450.07 449.78,448.21 446.79,444.89 444.38,441.47 442.67,438.44 440.67,434.11 438.73,427.95 438.12,424.74 437.64,420.99 437.46,415.48 437.57,412.06 437.9,408.63 439.35,401.82 440.92,397.77 444.78,390.37 448.14,384.21 450.58,375.32 450.94,369.12 450.47,362.38 449.7,358.08 448.9,354.73 446.5,345.72 444.97,341.13 441.54,334.97 437.57,331.44 430.72,327.9 429.91,327.36 425.98,323.24 423.43,317.88 422.12,311.94 421.5,305.05 421.39,302.61 421.35,297.76 421.46,292.88 421.75,287.99 422.59,281.91 423.39,278.34 424.96,273.71 426.49,270.57 431.77,263.76 436.95,259.64 441.94,256.61 447.45,253.59 452.07,250.71 455.28,247.8 459.84,240.43 462.28,231.58 463.3,225.71 464.14,220.93 465.78,213.75 467.85,205.96 469.42,200.56 472.08,191.56 473.25,186.97 474.82,178.55 475.11,176.43 475.95,169.91 477.26,157.88 477.8,151.76 478.39,144.47 478.68,139.95 478.93,134.27 479.08,125.08 478.9,116.15 478.46,103.98 478.31,100.52 477.84,90.06 477.73,88.31 477.37,80.76 477.08,74.39 476.82,69.72 476.46,62.21 475.91,52.41 475.33,45.56 474.45,38.81 473.29,31.49 472.77,28.57 471.65,23.07 470.01,17.13 468.33,12.97 466.8,10.2 462.93,5.5 460.67,3.64 447.88,0.18 443.22,1.79 440.08,3.83 436.47,7.4 434.43,10.35 432.54,14.29 430.72,21.14 429.95,30.21 430.1,35.83 430.83,42.82 432.17,49.13 433.38,52.88 434.65,56.2 435.82,58.64 438.7,63.49 443.11,70.45 446.35,75.95 449.23,81.75 450.73,85.5 452.15,89.88 454.11,99.06 455.14,107.48 455.68,116.01 455.75,121.44 455.35,129.05 454.88,133.43 453.24,142.1 451.31,149.06 449.05,155.37 445.95,162.55 443.58,167.61 441.32,172.53 438.92,178.15 436.62,184.34 435.53,187.95 434.51,191.96 433.45,197.14 432.65,202.02 431.59,208.47 431.19,210.29 428.68,216.67 427.11,218.97 424.08,221.88 421.31,223.49 416.28,224.83 411.62,225.45 405.9,227.82 400.32,234.24 398.13,238.46 395.98,245.35 394.82,252.17 394.67,253.55 394.23,259.02 393.98,264.6 395.55,295.17 397.48,304.91 398.86,310.01 400.47,315.11 403.49,323.27 405.39,327.83 410.02,338.58 413.22,346.42 415.19,351.74 416.5,355.53 418.0,360.49 420.04,368.32 421.13,373.46 422.19,379.8 422.73,383.85 423.25,389.13 423.68,396.24 423.83,400.98 424.08,408.12 424.37,414.1 425.87,428.42 426.53,432.61 428.13,440.92 428.97,444.46 432.47,455.46 438.26,468.33 444.13,478.5 448.9,486.48 452.37,493.04 454.7,498.07 456.37,502.08 458.67,508.49 462.21,521.61 464.14,531.93 465.3,540.42 466.18,549.53 466.62,557.99 466.62,567.28 466.07,578.1 464.79,590.28 463.44,599.28 462.57,604.89 461.77,611.56 461.59,615.21 462.1,620.05 463.04,622.93 466.83,628.44 474.23,634.63 476.93,636.85 482.54,641.52 486.81,646.59 488.85,650.38 490.23,654.17 492.2,664.7 492.46,667.07 492.93,673.77 493.04,679.64 492.82,684.09 491.47,694.11 489.5,701.47 487.79,705.85 485.82,710.22 484.22,713.57 480.87,720.28 478.64,724.58 476.42,728.95 473.21,735.33 472.01,737.81 469.57,742.84 467.24,747.94 463.59,756.83 460.27,767.18 458.49,775.09 457.61,780.27 456.7,790.15 456.56,794.81 457.32,811.58 457.94,816.28 458.67,821.01 460.16,828.67 462.75,839.82 464.17,845.69 465.81,852.18 467.45,858.63 468.84,863.95 472.96,878.09 475.8,886.25 477.37,890.26 479.66,895.33 483.09,901.96 485.9,906.81 491.76,915.63 495.12,920.11 498.65,924.48 501.9,928.24 507.36,934.14 510.9,937.64 515.85,942.34 525.18,951.09 529.08,954.73 533.6,958.85 538.2,962.83 546.72,969.64 554.38,975.44 558.17,978.28 564.95,983.34 568.7,986.15 571.76,988.45 577.34,992.6 578.98,993.8 582.66,996.57 584.15,997.63 587.65,999.38 589.15,999.78 592.39,1000.0 594.58,999.71 597.06,998.94 598.84,998.03 600.63,996.79 602.01,995.48 603.51,993.55 604.42,991.95 605.62,988.41 605.91,986.77 606.02,985.86 605.95,982.11 605.66,980.03 604.75,975.44 604.13,972.59 602.34,964.61 601.03,958.6 599.31,950.25 598.11,943.87 596.73,937.28 595.56,931.66 595.27,930.35 594.07,925.03 592.94,920.04 591.08,911.62 588.67,900.98 586.74,892.56 584.92,884.47 582.88,875.17 581.97,870.98 580.51,864.24 579.01,857.28 578.29,854.03 575.88,843.68 574.2,837.12 571.25,826.66 569.76,821.71 567.68,815.04 565.68,808.95 563.93,803.48 562.07,797.94 560.68,793.94 556.89,783.15 553.58,774.18 549.82,764.01 547.96,758.87 544.39,749.18 540.42,738.28 538.52,733.11 537.03,729.1 533.86,720.42 532.18,715.83 530.07,710.07 528.17,704.9 525.55,697.5 523.87,691.63 522.3,685.69 519.64,675.78 516.95,665.94 514.91,658.47 513.67,654.02 512.94,651.32 511.12,644.8 509.91,640.5 508.78,636.67 507.58,633.21 506.89,631.5 505.18,627.71 502.99,624.21 501.31,622.46 499.05,620.96 494.61,620.02 490.82,620.67 488.45,621.15 487.79,621.26 485.13,621.4 481.01,620.31 479.74,619.32 479.37,618.92 477.84,616.34 477.37,614.84 477.08,612.98 477.11,609.81 477.26,607.22 477.51,604.64 478.02,600.74 478.35,598.84 479.34,593.67 479.85,591.37 480.65,587.73 481.59,583.46 482.25,579.96 483.13,574.09 483.64,568.63 483.75,564.98 483.67,561.7 482.72,551.13 482.18,546.65 481.78,543.44 480.57,534.15 479.52,526.06 478.5,518.3 477.22,508.49 476.46,502.55 475.22,493.04 474.63,488.52 474.09,484.0 473.43,477.77 473.1,473.72 472.59,467.38 471.79,463.48 470.92,461.33 465.89,457.03 460.67,454.84 456.19,452.8 452.44,450.43 448.68,447.15 446.32,444.27 443.98,440.78 441.94,436.99 440.52,433.71 439.61,431.08 438.33,425.98 437.6,420.18 437.79,409.54 438.3,406.08 440.56,398.5 443.14,393.25 445.81,388.77 448.5,383.34 450.76,373.75 450.98,369.85 450.76,364.97 449.92,359.14 447.77,350.5 445.62,342.92 443.11,337.27 439.97,333.22 433.45,329.43 428.09,325.79 424.78,321.12 423.03,316.46 421.39,304.36 421.35,300.35 421.39,295.87 421.86,287.05 422.55,281.94 424.74,274.25 426.6,270.39 427.73,268.57 432.47,263.1 436.91,259.64 444.49,255.23 453.79,249.33 456.96,245.72 459.25,241.82 461.29,236.1 462.57,229.83 464.06,221.3 464.28,220.35 466.69,210.26 468.73,202.97 470.52,197.03 471.39,194.04 473.39,186.42 474.89,178.07 475.98,169.44 476.49,165.1 477.15,159.05 477.84,151.32 478.57,141.77 478.97,133.25 478.13,96.25 477.88,91.04 477.55,84.66 477.37,80.62 476.93,71.98 476.53,63.34 475.91,52.41 475.29,45.05 474.34,37.9 472.99,29.81 471.65,23.07 470.92,20.19 469.9,16.8 467.53,11.48 466.07,9.11 463.44,5.98 459.87,3.1 456.12,1.2 452.26,0.18 447.19,0.33 441.1,3.06 438.01,5.69 436.69,7.11 434.65,10.02 432.68,13.89 430.86,20.3 430.32,23.94 430.06,26.93 430.06,34.77 430.72,42.13 431.15,44.61 431.88,47.96 433.27,52.55 435.64,58.31 438.22,62.72 440.27,65.97 442.6,69.61 445.84,75.04 447.74,78.54 450.18,84.01 452.91,92.79 454.48,101.57 455.03,106.31 455.39,110.58 455.72,121.87 455.1,131.68 453.97,138.79 452.98,143.12 449.09,155.26 443.4,168.05 439.94,175.67 435.96,186.46 433.3,197.83 432.5,203.0 431.99,206.25 431.15,210.47 429.73,214.59 427.22,218.82 425.1,221.08 422.19,223.05 418.84,224.4 414.43,225.05 409.58,225.96 405.2,228.41 401.78,232.12 398.32,238.06 395.95,245.43 394.71,253.12 394.27,258.62 394.16,260.48 393.94,266.64 394.02,277.24 394.34,284.24 394.78,289.27 395.29,293.35 395.95,297.43 396.64,301.01 397.81,306.14 399.37,311.79 400.87,316.39 403.16,322.47 406.77,331.11 408.78,335.7 410.53,339.82 413.3,346.64 414.9,350.9 417.6,359.03 419.82,367.45 421.17,373.75 421.97,378.38 423.03,386.54 423.39,391.25 423.86,401.96 424.08,408.56 424.63,417.52 424.89,420.51 425.87,428.27 426.71,433.67 427.69,439.03 429.4,446.1 431.99,454.22 437.93,467.75 441.61,474.34 445.81,481.23 448.36,485.49 450.73,489.8 453.97,496.43 457.25,504.37 460.57,514.94 462.32,522.12 464.57,534.81 465.56,542.68 466.32,551.86 466.65,559.95 466.58,567.9 466.47,570.89 466.07,578.03 465.23,586.81 464.65,591.33 463.92,596.22 463.37,599.68 462.1,608.54 461.66,613.89 461.7,617.54 462.24,620.56 464.87,626.1 469.09,630.51 472.63,633.32 474.05,634.49 477.22,637.07 482.07,641.08 486.77,646.51 488.59,649.83 490.01,653.51 491.22,657.88 492.16,664.33 492.78,670.89 493.0,676.62 493.0,680.99 492.27,689.37 490.52,697.94 487.9,705.59 485.75,710.37 483.2,715.61 479.34,723.23 473.98,733.84 471.06,739.74 467.49,747.32 462.5,759.9 460.16,767.55 459.36,770.9 457.5,781.18 456.59,792.84 456.56,799.29 456.92,806.98 458.42,819.37 459.95,827.61 462.35,838.18 463.77,844.05 465.12,849.37 467.82,859.98 469.71,867.08 471.39,872.99 474.6,882.94 476.31,887.6 479.23,894.38 482.29,900.5 485.06,905.39 488.01,910.16 490.45,913.77 495.26,920.29 501.2,927.47 504.92,931.59 510.13,936.91 513.7,940.34 517.79,944.13 519.9,946.06 527.12,952.91 532.33,957.72 538.3,962.9 542.53,966.36 549.2,971.54 552.55,974.05 557.29,977.62 560.97,980.39 565.38,983.67 574.09,990.2 577.3,992.57 583.21,996.97 585.47,998.43 588.64,999.64 590.9,1000.0 593.59,999.89 597.97,998.51 600.04,997.23 601.94,995.55 603.69,993.26 605.88,987.17 606.06,984.69 605.84,981.3 605.36,978.46 604.93,976.27 604.42,974.01 602.89,967.05 602.27,964.14 601.36,960.02 599.83,952.77 598.62,946.57 597.67,941.65 596.44,935.82 595.12,929.7 594.83,928.38 593.7,923.43 591.22,912.31 589.62,905.13 588.75,901.23 586.56,891.79 585.17,885.71 584.04,880.6 583.02,875.9 582.0,871.2 579.42,859.14 577.37,849.95 576.86,847.77 575.7,842.85 572.16,829.65 570.85,825.24 568.63,818.06 567.21,813.65 564.51,805.31 562.87,800.28 561.12,795.25 559.55,790.69 556.78,782.86"
    fill="none"
    stroke="#888"
    stroke-width="4"
    stroke-linejoin="round"
    stroke-linecap="round"
  />
</svg>
