<svg xmlns="http://www.w3.org/2000/svg" viewBox="0 0 1000 1000">
  <polyline
    points="406.14,741.14 394.6,730.18 387.37,723.28 385.19,721.22 372.04,708.76 366.18,703.13 357.39,694.8 351.54,689.18 344.88,682.92 334.08,672.7 323.51,662.65 316.68,656.16 309.1,649.1 299.68,640.08 291.59,631.18 290.9,630.32 284.87,621.42 281.94,614.7 280.85,609.19 281.14,601.32 282.29,594.95 283.55,589.49 284.81,584.44 286.59,577.03 287.68,568.13 286.88,554.87 285.96,549.24 280.85,533.96 276.77,526.73 273.5,522.02 269.94,517.43 263.68,510.42 252.94,500.43 245.31,493.94 236.98,486.71 229.23,479.64 222.62,473.5 211.71,462.99 205.0,456.39 197.07,448.29 191.62,442.55 183.69,434.11 171.06,420.1 165.72,413.95 159.8,406.95 155.15,401.32 141.83,384.61 135.63,376.4 124.55,361.24 116.97,350.5 112.72,344.36 104.79,332.53 101.23,327.07 97.85,321.96 94.69,317.2 91.01,311.69 85.67,303.07 81.31,295.38 78.67,288.31 77.63,282.34 77.63,278.21 77.69,277.58 79.3,270.69 81.14,267.41 82.57,265.69 85.27,263.57 88.66,261.96 91.53,261.1 94.63,260.41 97.22,260.01 100.95,259.43 103.7,259.09 107.03,258.63 115.7,257.71 121.5,257.13 123.4,256.85 129.49,255.7 137.98,252.83 144.42,249.1 149.18,244.9 151.82,241.63 154.01,237.96 155.84,233.65 157.22,228.19 157.74,224.46 157.97,219.18 157.74,214.64 157.22,208.9 156.53,203.5 155.04,193.22 154.18,187.83 153.09,181.05 151.25,169.39 151.02,167.38 150.33,159.63 150.39,144.88 152.23,132.59 153.55,127.71 155.56,122.31 158.77,115.88 163.19,109.33 170.2,101.69 174.73,97.67 180.53,92.85 186.56,88.14 191.44,84.47 202.99,76.2 213.72,69.19 220.1,65.4 226.59,61.84 239.28,55.53 250.76,50.36 261.61,45.59 270.8,41.63 277.23,38.82 288.03,34.05 298.19,29.46 308.35,24.75 318.4,19.81 324.32,16.65 332.93,11.6 339.65,7.35 346.54,3.27 349.87,1.78 356.19,0.17 362.85,0.11 373.36,3.27 379.9,7.18 389.43,14.36 403.96,22.22 413.49,25.21 425.61,28.02 441.17,31.07 454.84,33.88 465.63,36.86 471.78,38.82 484.64,44.1 486.88,45.13 495.49,50.07 501.64,54.38 515.3,67.24 520.87,73.84 530.4,87.45 534.77,95.03 538.27,102.15 542.06,111.11 543.9,116.16 547.63,128.05 549.53,135.0 553.66,153.6 555.1,160.78 557.68,177.15 558.66,197.53 557.68,216.31 556.7,229.46 555.96,238.01 554.52,249.27 550.9,263.97 545.22,279.47 541.72,289.52 539.19,296.93 534.02,312.78 527.48,331.5 521.62,345.22 516.51,356.19 511.69,369.16 507.84,387.14 506.52,402.41 506.69,416.94 507.26,425.27 509.1,443.87 509.96,450.01 512.37,463.28 516.45,478.38 521.33,492.22 523.28,497.1 527.94,507.67 532.53,517.14 539.94,530.92 544.76,538.96 550.04,546.66 556.36,554.92 563.19,562.85 570.37,570.49 584.5,584.27 592.99,592.02 599.2,597.47 605.51,602.87 615.62,611.2 627.51,620.33 642.49,630.09 651.56,633.76 658.46,634.86 664.31,634.86 679.47,633.13 685.56,632.27 693.02,631.41 704.51,630.61 715.19,630.89 720.36,631.58 728.34,633.88 736.61,638.24 742.87,642.72 749.41,648.12 759.8,657.08 765.95,662.36 774.68,669.6 780.02,673.96 791.44,683.49 804.88,695.03 817.05,705.43 823.66,711.4 834.22,721.79 838.99,727.07 847.32,737.64 854.44,748.21 859.66,756.93 864.03,765.09 867.36,771.81 874.3,788.4 878.27,799.08 883.72,814.41 888.08,827.16 891.13,836.29 895.89,851.05 899.17,861.15 901.52,868.5 903.88,875.85 908.01,888.54 910.54,896.41 913.58,906.29 914.84,910.94 916.68,918.23 918.92,930.0 920.76,939.36 921.62,943.84 922.31,949.81 922.42,953.03 922.14,956.47 921.05,961.01 918.58,965.2 913.12,968.99 910.65,970.03 907.84,971.06 901.18,973.18 896.81,974.45 890.09,976.34 879.47,979.27 875.45,980.3 869.37,981.8 864.77,982.89 857.59,984.5 846.97,987.08 843.35,988.06 830.84,991.39 822.39,993.4 816.54,995.06 808.5,997.47 797.93,999.48 790.41,1000.0 785.59,999.71 780.94,998.85 776.46,997.42 770.71,994.49 765.89,991.1 761.41,987.19 754.18,979.04 750.16,973.47 745.68,966.41 742.81,961.24 736.95,949.76 734.54,944.82 729.83,935.06 723.23,920.7 719.21,912.66 718.69,911.69 714.79,905.48 710.48,898.94 708.47,896.3 705.2,892.97 701.46,890.38 696.93,889.12 692.33,889.35 689.92,889.98 686.08,891.76 683.72,893.43 681.31,895.55 679.36,897.62 677.46,899.97 675.8,902.21 672.87,906.86 670.74,910.48 668.45,914.44 664.89,919.49 661.33,923.34 653.46,929.54 649.04,932.01 643.99,934.25 638.24,935.97 633.82,936.66 629.29,936.72 621.65,935.75 608.44,931.5 605.51,930.12 596.9,924.55 592.59,921.05 585.01,914.21 580.25,909.73 575.83,905.48 569.8,899.68 558.37,888.43 554.64,884.75 548.61,878.84 539.08,869.48 533.85,864.43 526.84,857.54 518.52,849.38 508.81,839.85 502.61,833.82 494.46,825.84 486.25,817.69 472.64,804.36 463.34,795.46 455.81,788.4 444.56,777.66 437.38,770.83 431.18,764.92 421.36,755.61 414.99,749.53 409.3,744.13 402.18,737.35 395.06,730.58 386.45,722.42 379.96,716.28 369.85,706.63 359.0,696.3 351.71,689.41 343.73,681.77 337.81,676.2 329.83,668.62 322.37,661.56 314.38,654.03 309.56,649.5 287.8,626.13 284.01,619.87 281.25,612.12 280.79,605.86 281.48,599.02 282.46,594.14 283.61,589.2 284.87,584.21 285.67,581.11 286.59,576.86 287.68,566.24 287.34,559.0 286.02,549.64 284.52,543.38 282.57,537.81 275.28,524.49 269.14,516.45 262.65,509.39 257.02,504.05 250.7,498.54 245.36,494.0 231.64,481.88 224.46,475.22 219.58,470.63 208.1,459.43 198.33,449.55 189.84,440.65 181.4,431.58 172.95,422.28 165.83,414.07 156.53,403.04 150.73,395.92 144.42,387.94 138.79,380.59 130.4,369.39 125.01,361.87 119.04,353.43 114.21,346.54 104.22,331.61 101.58,327.59 97.85,321.96 89.52,309.33 85.96,303.59 83.09,298.65 81.77,296.24 79.47,290.84 78.27,286.42 77.63,281.83 78.04,274.82 78.84,271.83 79.99,269.14 82.52,265.75 83.55,264.83 87.28,262.53 89.58,261.61 92.28,260.87 98.31,259.83 103.36,259.14 113.29,257.94 117.2,257.59 124.72,256.68 135.34,253.92 142.58,250.3 146.6,247.37 148.03,246.05 153.49,238.93 156.47,231.52 157.39,227.33 157.97,218.95 157.85,215.91 157.28,209.42 156.65,204.36 155.04,193.28 153.49,183.35 152.63,178.24 151.25,168.93 150.67,164.17 150.1,153.26 150.5,143.9 152.11,133.05 156.36,120.53 164.74,107.49 176.34,96.24 188.57,86.59 197.3,80.22 205.51,74.53 215.22,68.27 221.76,64.48 229.17,60.47 239.91,55.24 249.33,50.99 258.86,46.8 268.56,42.61 276.77,39.05 283.95,35.83 296.7,30.15 307.84,24.98 314.15,21.99 328.11,14.47 335.06,10.22 340.91,6.55 349.3,2.01 352.05,1.03 363.65,0.23 368.88,1.44 373.87,3.5 380.65,7.75 383.23,9.65 395.12,18.03 401.03,21.02 411.54,24.69 418.43,26.47 431.29,29.17 437.9,30.43 447.6,32.33 463.62,36.23 468.22,37.67 481.83,42.78 483.32,43.47 492.79,48.41 508.18,60.01 513.12,64.89 525.52,80.05 530.29,87.28 535.46,96.41 541.31,109.27 543.84,115.93 546.08,122.71 548.09,129.6 551.77,144.47 553.6,153.32 554.52,157.8 556.47,168.59 558.02,180.42 558.66,191.56 558.66,198.97 558.37,205.57 557.74,215.85 556.88,227.1 555.04,245.82 551.65,261.5 549.18,268.79 544.19,282.4 541.31,290.61 537.35,302.61 534.31,311.92 528.91,327.82 525.29,337.01 519.04,350.67 514.56,360.72 510.88,371.98 507.9,386.97 506.52,402.24 506.63,415.68 507.84,432.27 509.1,443.58 511.86,460.92 514.33,471.03 517.94,482.97 522.31,494.75 525.58,502.44 530.0,511.97 536.66,525.06 541.26,533.22 545.68,540.28 551.59,548.84 560.15,559.46 567.21,567.21 574.73,574.96 586.22,585.87 593.91,592.88 607.87,604.88 614.64,610.39 623.83,617.57 631.12,622.91 636.81,626.76 644.85,631.24 650.88,633.53 655.93,634.57 661.27,634.91 668.91,634.45 674.94,633.76 681.42,632.85 693.77,631.29 704.57,630.61 713.35,630.72 719.32,631.41 723.23,632.16 736.78,638.3 742.0,642.09 749.87,648.52 759.29,656.68 773.82,668.85 781.05,674.82 785.87,678.84 797.53,688.77 808.96,698.48 816.71,705.2 824.58,712.26 835.14,722.83 843.87,733.05 847.14,737.41 853.8,747.17 857.65,753.49 865.98,768.99 869.54,776.69 870.63,779.33 875.51,791.62 879.13,801.49 882.97,812.29 885.79,820.44 891.36,836.98 897.33,855.41 901.35,867.93 905.71,881.48 909.16,891.99 911.57,899.68 913.92,907.61 915.76,914.44 917.14,920.41 918.4,927.13 920.3,937.01 921.33,942.35 922.31,949.76 922.42,953.26 922.14,956.53 920.47,962.39 917.14,966.52 914.73,968.13 911.74,969.57 908.99,970.6 906.12,971.58 902.21,972.84 899.4,973.7 895.38,974.85 890.55,976.23 887.11,977.15 883.03,978.29 876.2,980.07 870.46,981.51 865.06,982.83 857.71,984.5 849.55,986.45 840.54,988.8 836.86,989.84 823.49,993.17 814.99,995.58 807.01,997.82 797.24,999.6 788.69,999.94 779.62,998.51 772.32,995.41 765.66,990.93 762.16,987.88 757.68,983.29 755.38,980.53 750.27,973.64 746.54,967.84 742.12,959.92 739.71,955.27 734.6,944.99 731.61,938.79 726.1,927.02 723.17,920.59 718.4,911.28 715.93,907.26 712.09,901.29 708.58,896.41 704.79,892.62 700.83,890.09 696.47,889.06 693.54,889.12 690.78,889.69 688.43,890.5 686.53,891.47 684.24,892.97 681.48,895.38 678.5,898.65 676.03,901.92 674.48,904.22 672.81,906.98 670.0,911.8 668.22,914.79 664.2,920.36 661.15,923.51 652.83,929.89 643.12,934.6 634.63,936.61 632.56,936.78 625.21,936.38 619.87,935.34 615.1,934.02 609.42,931.9 604.42,929.54 599.94,926.73 595.0,923.05 584.44,913.7 580.59,910.02 575.65,905.31 570.08,899.91 563.36,893.37 558.6,888.66 551.02,881.19 546.02,876.31 541.54,871.89 535.23,865.69 528.8,859.43 518.06,848.92 510.77,841.75 502.04,833.25 492.62,824.0 483.72,815.22 473.33,805.11 467.41,799.31 464.03,796.15 451.11,783.86 440.08,773.41 430.38,764.17 418.43,752.8 406.37,741.37 396.38,731.84 390.01,725.75 379.96,716.22 369.16,705.94 355.38,692.85 343.1,681.19 333.74,672.29 327.36,666.26 321.91,661.1 317.37,656.85 311.23,651.11 302.44,642.72 298.13,638.47 292.33,632.04 287.34,625.44 284.93,621.48 281.65,613.78 280.85,609.07 280.85,604.65 281.31,600.17 282.52,593.74 283.61,589.32 284.87,584.27 286.76,576.17 287.68,568.19 287.63,562.73 286.48,551.94 285.27,546.2 282.11,536.72 276.83,526.9 273.61,522.14 267.64,514.73 262.59,509.33 255.35,502.61 251.28,499.05 244.21,492.97 240.02,489.35 234.63,484.58 227.96,478.5 221.94,472.81 214.01,465.29 208.56,459.89 203.62,454.95 190.18,441.06 181.11,431.24 175.65,425.21 166.06,414.36 158.77,405.8 152.45,398.05 144.42,387.94 138.21,379.84 133.16,373.13 127.65,365.6 117.94,351.88 112.72,344.3 107.72,336.95 100.43,325.87 97.5,321.45 91.87,312.89 88.43,307.55 84.47,301.06 80.22,292.85 78.38,287.05 77.98,284.81 77.58,279.87 77.81,276.2 78.32,273.44 79.41,270.34 82.17,266.15 86.88,262.7 89.81,261.56 92.39,260.87 95.15,260.35 99.05,259.72 102.1,259.32 108.3,258.51 115.53,257.71 119.49,257.36 128.4,255.93 133.16,254.67 136.95,253.29 140.51,251.56 146.2,247.72 150.27,243.7 153.43,239.05 155.1,235.72 156.07,233.02 157.97,220.1 157.74,214.41 157.16,208.79 156.82,205.51 156.3,201.61 155.27,194.6 153.83,185.53 152.8,179.33 152.11,174.96 151.13,168.3 150.45,161.47 150.1,151.65 150.33,146.02 150.73,141.66 151.82,134.42 154.87,123.97 157.97,117.31 162.79,109.91 167.73,104.16 172.15,99.86 183.52,90.44 191.04,84.75 196.21,80.96 209.65,71.78 220.21,65.35 226.07,62.13 234.28,57.94 241.92,54.32 253.57,49.15 267.76,42.95 273.61,40.42 287.11,34.45 295.03,30.89 303.7,26.93 316.28,20.9 323.92,16.88 333.05,11.54 339.42,7.46 348.03,2.53 357.74,0.0 365.89,0.57 371.86,2.53 381.45,8.33 395.46,18.2 399.66,20.38 412.98,25.04 420.16,26.87 428.94,28.71 437.96,30.43 447.09,32.21 460.29,35.31 470.4,38.36 487.86,45.65 500.6,53.63 510.31,61.96 516.74,68.85 525.35,79.82 531.15,88.66 539.65,105.25 542.64,112.66 547.17,126.39 549.35,134.25 551.25,142.18 553.55,152.91 555.33,161.99 557.91,179.33 558.66,196.1 558.25,207.41 557.57,217.74 556.13,235.77 555.21,244.33 551.54,261.96 548.26,271.2 543.27,284.93 540.45,293.25 535.52,308.24 528.8,328.05 521.39,345.68 515.48,358.54 510.94,371.81 508.53,382.83 506.92,395.06 506.46,403.27 506.57,413.67 507.21,424.98 508.13,435.37 510.71,454.9 513.52,467.99 517.6,482.0 521.56,492.85 529.08,510.08 537.58,526.79 546.14,541.03 549.01,545.28 561.99,561.58 574.96,575.14 580.94,580.94 591.56,590.81 603.22,600.92 612.92,609.02 619.18,614.01 626.3,619.41 631.7,623.31 641.52,629.51 654.84,634.4 664.37,634.8 670.23,634.34 677.17,633.42 682.74,632.67 685.79,632.27 699.68,630.84 706.12,630.61 713.7,630.78 719.38,631.41 729.77,634.45 744.07,643.7 749.99,648.64 757.05,654.72 761.99,658.97 769.39,665.23 774.05,669.08 785.47,678.5 794.6,686.25 802.12,692.68 804.02,694.29 810.39,699.68 818.09,706.35 826.99,714.56 833.13,720.7 842.49,731.38 853.06,746.02 861.5,760.26 862.36,761.93 866.55,770.26 870.8,779.62 874.65,789.2 879.18,801.61 884.87,817.69 887.91,826.64 894.46,846.63 898.88,860.24 902.67,871.95 908.87,891.07 911.51,899.4 914.44,909.5 916.28,916.57 918.35,926.73 919.27,931.96 920.3,937.12 921.85,945.39 922.42,953.26 921.5,959.58 920.01,963.19 917.71,966.01 913.75,968.65 912.6,969.22 909.85,970.31 906.69,971.4 903.82,972.32 896.7,974.5 896.3,974.56 891.53,975.94 886.25,977.43 881.54,978.7 876.08,980.13 870.86,981.45 858.57,984.27 847.43,986.97 840.71,988.75 828.71,991.9 815.68,995.35 804.77,998.33 798.85,999.37 793.17,999.94 784.61,999.6 779.44,998.45 777.78,997.93 771.92,995.18 761.13,986.91 753.95,978.7 750.62,974.1 746.43,967.61 743.84,963.14 740.4,956.59 735.17,946.2 732.76,941.2 728.05,931.21 725.47,925.58 724.09,922.6 720.59,915.25 717.31,909.45 713.24,903.13 710.08,898.42 706.17,893.88 702.61,891.01 698.71,889.41 694.63,889.06 690.44,889.81 687.97,890.73 685.67,891.99 682.86,894.11 680.45,896.41 678.32,898.82 675.57,902.61 672.58,907.32 669.19,913.18 665.75,918.4 661.33,923.34 658.97,925.52 653.12,929.77 648.58,932.24 640.48,935.4 638.07,936.03 630.09,936.78 624.0,936.2 619.93,935.34 614.36,933.74 610.28,932.3 602.47,928.4 594.72,922.77 590.41,919.15 580.88,910.31 576.46,906.12 570.43,900.26 563.25,893.25 558.48,888.54 550.96,881.14 545.97,876.26 539.76,870.17 534.02,864.54 529.37,860.01 522.88,853.63 516.22,847.14 503.99,835.14 495.26,826.59 485.73,817.23 481.88,813.44 469.48,801.32 467.53,799.43 455.99,788.52 447.55,780.48 434.91,768.48 432.16,765.83 420.21,754.46"
    fill="none"
    stroke="#888"
    stroke-width="4"
    stroke-linejoin="round"
    stroke-linecap="round"
  />
</svg>
