<svg xmlns="http://www.w3.org/2000/svg" viewBox="0 0 1000 1000">
  <polyline
    points="175.84,150.71 197.37,154.31 216.68,157.56 227.55,159.29 248.25,162.69 259.33,164.49 273.24,166.63 295.47,170.02 309.17,172.1 330.98,175.42 353.96,178.89 374.25,181.93 393.15,184.77 403.39,186.29 422.5,189.06 441.26,191.55 462.31,194.18 482.31,196.47 503.77,198.89 530.29,201.87 543.51,203.46 567.6,206.23 581.79,207.89 598.68,209.83 615.09,211.7 641.88,214.88 660.78,217.31 681.48,220.01 695.81,221.95 709.52,223.75 717.13,224.71 735.2,227.14 744.41,228.31 759.16,230.25 775.42,232.33 793.42,234.68 803.25,236.0 814.26,237.45 822.01,238.49 831.22,239.67 840.91,240.98 850.05,242.16 861.61,243.68 870.89,244.86 877.26,245.69 882.73,246.38 889.86,247.28 895.47,247.98 908.97,249.71 917.13,250.88 925.3,252.13 933.96,253.72 941.16,255.52 946.9,257.53 951.68,259.67 959.99,265.07 965.39,270.54 968.36,275.53 971.27,283.97 971.96,289.24 971.96,294.08 971.34,299.76 969.96,307.3 969.12,314.16 969.12,319.49 970.92,326.34 974.11,331.6 976.67,334.58 981.59,338.32 987.05,341.92 991.35,345.24 996.12,350.57 999.31,358.74 1000.0,365.8 999.38,374.52 998.34,379.85 996.61,387.26 993.63,397.78 991.35,404.64 988.3,413.22 983.66,424.58 980.34,432.12 975.35,442.44 969.12,454.14 966.36,458.91 962.41,465.63 958.39,472.14 954.72,478.09 949.74,485.98 943.93,494.98 937.56,504.6 929.8,516.3 923.02,526.96 916.72,537.14 913.12,543.03 908.13,551.4 904.26,557.77 898.86,567.12 893.39,576.39 888.06,585.46 883.97,592.45 880.58,598.13 875.32,607.06 869.57,616.68 864.04,625.96 860.37,631.91 851.44,646.59 846.04,655.24 839.74,665.21 836.48,670.2 830.94,678.44 824.37,688.13 815.23,701.7 806.78,713.88 801.94,720.6 793.49,732.43 788.85,739.01 783.39,747.87 780.48,753.89 778.47,760.06 777.57,766.29 779.23,776.19 783.94,782.69 787.54,785.53 794.18,789.2 797.92,791.35 804.43,796.4 807.89,801.38 809.28,808.1 807.13,815.37 803.6,819.66 798.96,823.68 791.62,828.87 783.04,834.89 774.04,841.33 765.52,847.91 750.36,856.49 742.96,857.46 737.14,856.84 731.33,854.41 727.93,851.44 724.26,845.69 721.98,837.94 721.43,832.88 721.56,825.41 722.19,818.0 723.36,810.04 724.68,802.56 726.0,795.43 729.18,778.47 731.05,767.81 733.82,752.44 735.69,742.4 739.91,720.53 744.13,698.79 747.59,679.13 749.6,664.11 749.6,652.54 748.36,641.61 744.69,631.43 740.88,624.65 735.34,618.07 727.93,611.63 721.91,607.48 717.27,604.43 704.88,595.5 699.07,590.38 693.46,584.56 683.84,571.96 677.74,561.99 669.64,549.74 660.85,539.98 649.71,531.19 630.88,522.26 618.62,519.14 607.48,517.76 595.5,517.27 584.98,517.13 571.55,516.37 561.65,514.78 548.56,510.7 541.5,506.68 533.75,499.76 527.73,492.42 524.54,487.57 520.94,481.14 516.23,470.47 512.29,460.64 507.44,451.02 502.8,443.54 495.47,435.17 487.92,428.87 474.14,420.15 457.46,411.21 436.83,401.66 420.91,395.29 409.62,391.55 391.28,386.15 376.46,382.35 361.09,379.02 347.59,376.46 331.95,373.76 315.33,371.34 299.48,369.19 281.07,367.05 264.24,365.18 230.46,361.51 214.81,359.78 192.87,357.22 177.29,355.49 165.11,353.82 152.16,350.36 143.58,345.86 139.15,342.33 134.44,337.42 131.46,333.19 127.38,323.43 125.58,312.98 125.03,306.2 125.16,295.88 126.27,279.34 126.62,270.96 127.03,254.48 125.23,239.88 121.08,231.01 114.3,226.51 105.09,226.45 101.0,228.52 98.79,230.11 94.84,233.3 91.66,235.86 87.78,238.56 83.28,240.91 79.2,242.23 73.38,243.06 67.84,243.13 63.07,242.71 57.18,241.68 55.59,241.33 38.84,238.35 24.3,236.41 15.02,234.54 7.06,230.39 2.15,223.12 0.28,215.78 -0.0,210.11 1.11,201.45 2.49,195.98 4.92,189.55 10.25,180.06 15.51,173.35 18.97,169.61 27.83,161.92 36.28,156.46 54.34,148.63 72.97,144.34 87.85,142.82 103.01,142.61 130.7,144.55 141.57,145.86 159.36,148.22 173.97,150.43 186.85,152.51 203.88,155.42 221.05,158.26 243.2,161.86 259.19,164.49 277.33,167.26 298.79,170.58 315.4,173.07 328.76,175.08 346.97,177.85 361.09,179.99 387.26,183.94 405.95,186.71 437.45,191.07 454.21,193.22 471.65,195.22 494.91,197.85 509.38,199.52 527.31,201.52 548.98,204.08 568.43,206.3 585.19,208.31 599.93,209.97 610.73,211.21 624.92,212.88 638.01,214.4 660.16,217.24 677.33,219.45 698.17,222.22 718.31,224.85 733.61,226.93 750.57,229.15 767.05,231.29 784.49,233.51 791.0,234.41 802.01,235.86 810.87,237.04 823.33,238.63 839.25,240.78 847.14,241.81 862.17,243.75 873.87,245.28 885.08,246.73 896.23,248.11 910.21,249.91 918.59,251.02 925.58,252.13 931.39,253.17 938.04,254.69 943.99,256.49 951.75,259.74 956.25,262.31 962.82,267.64 966.29,271.86 970.16,279.89 971.34,284.25 972.1,291.24 971.48,299.07 970.51,304.47 969.19,312.98 969.06,319.35 970.58,325.44 974.8,332.57 980.34,337.49 985.88,341.16 993.56,347.32 997.51,352.92 999.86,362.55 999.72,371.82 998.55,378.89 996.95,385.74 995.29,392.04 990.86,406.16 986.09,418.83 980.13,432.47 976.67,439.81 972.86,447.28 969.75,453.03 966.91,458.01 962.13,465.97 956.39,475.39 950.71,484.46 946.07,491.66 940.81,499.76 936.03,506.89 930.77,514.85 926.69,521.15 921.63,529.25 917.9,535.27 913.6,542.26 910.97,546.69 904.33,557.7 900.93,563.52 896.37,571.41 891.87,579.02 887.71,586.09 881.69,596.19 876.7,604.78 870.06,615.92 859.05,634.2 852.47,644.86 843.89,658.57 836.34,670.4 829.28,680.93 821.6,692.35 817.24,698.79 811.7,706.82 805.54,715.54 797.78,726.41 789.75,737.69 786.02,743.37 781.65,751.26 779.02,758.12 777.71,764.56 777.85,771.06 778.47,774.04 779.85,777.43 782.28,780.96 786.64,784.91 791.28,787.68 795.57,789.96 802.22,794.32 806.09,798.34 808.52,802.98 809.28,808.79 807.82,814.12 805.54,817.45 802.77,820.42 798.06,824.3 791.48,828.94 784.29,833.99 772.72,842.3 759.85,851.99 751.47,856.14 739.63,857.32 734.93,856.21 728.21,851.85 725.3,847.77 722.6,840.84 721.84,837.31 721.36,830.11 721.91,820.98 722.74,813.85 723.71,808.03 726.2,794.18 728.21,783.52 730.84,769.06 733.13,756.39 735.48,743.23 738.11,729.6 743.23,703.77 745.93,688.61 748.22,675.25 749.6,652.13 748.77,643.41 745.73,633.64 740.6,624.3 736.45,619.25 729.11,612.53 723.23,608.31 717.48,604.57 709.87,599.38 704.67,595.29 695.12,586.36 684.87,573.49 678.85,563.86 668.33,548.08 659.05,538.32 640.15,525.86 622.08,519.76 604.57,517.55 596.68,517.27 581.79,517.0 572.31,516.44 563.93,515.2 552.37,512.15 545.73,509.31 536.38,502.46 528.9,494.08 524.2,487.09 521.36,481.97 517.41,473.38 514.5,465.97 511.53,459.05 507.58,451.23 504.33,445.69 498.1,437.66 490.0,430.46 474.84,420.56 462.86,413.98 437.18,401.73 415.51,393.42 395.5,387.26 369.19,380.69 352.92,377.36 326.76,373.0 305.3,369.96 276.22,366.49 251.3,363.79 235.24,361.99 216.06,359.92 197.23,357.77 181.03,355.9 162.55,353.34 148.98,348.98 141.71,344.55 136.73,340.05 130.43,331.39 128.0,325.65 126.41,319.21 125.44,311.87 125.03,302.04 125.16,296.02 125.72,286.81 126.48,274.14 126.83,265.97 127.03,253.1 125.23,239.94 122.6,233.09 119.14,229.21 114.92,226.79 110.0,225.82 105.78,226.31 103.43,227.14 99.76,229.42 95.95,232.33 92.63,235.1 87.57,238.7 83.14,240.98 77.19,242.64 68.95,243.2 61.27,242.44 57.25,241.68 47.28,239.74 38.84,238.42 30.25,237.24 21.67,236.0 11.63,233.3 4.92,228.18 0.83,218.97 -0.0,209.42 1.94,197.85 5.33,188.72 9.35,181.52 13.5,175.7 22.22,166.56 25.61,163.72 31.01,159.71 38.21,155.42 48.53,150.71 62.72,146.35 76.43,143.86 98.51,142.54 118.17,143.37 138.11,145.45 158.81,148.15 175.91,150.71 191.55,153.27 225.75,159.02 245.28,162.2 262.72,165.04 283.9,168.29 315.54,173.07 334.23,175.91 356.32,179.23 384.63,183.52 409.07,187.12 429.42,190.03 449.43,192.59 468.54,194.88 485.5,196.82 505.09,199.03 528.35,201.66 542.19,203.25 555.97,204.92 574.73,207.06 596.82,209.62 612.6,211.42 628.87,213.29 648.18,215.71 663.21,217.58 678.16,219.59 689.65,221.11 701.97,222.71 721.29,225.27 739.56,227.69 757.42,230.04 789.27,234.2 806.44,236.41 815.37,237.59 834.06,240.08 849.91,242.16 858.22,243.27 869.44,244.72 885.01,246.73 895.74,248.04 910.83,249.98 919.97,251.3 932.99,253.51 941.57,255.66 951.26,259.47 961.37,266.18 966.08,271.51 969.4,278.02 970.79,281.9 971.96,289.3 971.75,296.78 970.72,303.29 969.47,310.42 969.06,318.73 969.96,323.64 972.52,329.32 975.35,333.26 978.12,335.83 982.35,338.8 988.09,342.68 994.95,348.84 997.72,353.62 1000.0,366.49 999.45,373.76 997.92,381.72 996.26,388.51 993.7,397.65 990.31,407.55 988.23,413.22 985.46,420.35 981.59,429.28 978.12,436.76 975.35,442.37 970.51,451.64 966.36,458.91 961.44,467.22 957.01,474.49 951.82,482.73 946.69,490.69 943.23,496.02 940.39,500.31 937.69,504.33 934.58,509.03 930.29,515.54 925.58,522.88 921.56,529.32 919.21,533.13 914.02,541.57 910.42,547.53 907.23,552.79 902.87,560.26 898.37,567.88 893.25,576.67 888.06,585.46 882.87,594.25 875.8,606.23 871.37,613.64 863.27,627.14 858.64,634.75 852.06,645.55 848.11,651.92 842.85,660.23 835.79,671.24 828.66,681.83 820.01,694.63 812.67,705.43 800.14,723.23 791.83,734.72 784.7,745.66 779.92,755.42 777.71,764.83 777.71,770.37 779.23,776.25 780.96,779.37 784.01,782.83 787.82,785.74 792.04,788.09 796.33,790.38 803.12,795.08 806.85,799.45 809.14,805.88 809.07,810.38 807.06,815.44 803.32,819.87 796.26,825.55 788.72,830.88 779.51,837.31 768.99,845.21 759.64,852.13 754.03,855.17 744.89,857.46 739.77,857.32 733.26,855.52 729.39,852.89 726.76,850.05 723.57,843.96 722.19,839.04 721.5,832.81 721.43,827.35 721.91,820.77 723.09,811.63 725.86,796.47 728.35,782.76 732.64,758.81 735.2,744.96 737.9,730.84 741.64,711.8 746.14,687.44 749.05,669.64 749.67,654.0 744.27,630.39 740.05,623.4 730.56,613.64 723.64,608.58 718.31,605.12 711.46,600.48 704.74,595.36 695.81,587.12 691.59,582.42 685.5,574.45 680.17,566.15 668.33,548.08 656.56,536.24 644.58,528.14 632.12,522.67 618.55,519.14 610.87,518.03 601.59,517.48 593.98,517.27 578.82,516.93 568.43,515.96 554.45,512.84 545.38,509.1 538.66,504.47 534.44,500.52 530.7,496.3 526.34,490.48 523.92,486.54 520.39,479.96 516.58,471.37 511.25,458.43 504.88,446.52 497.89,437.66 496.02,435.79 489.44,430.04 477.12,421.95 466.94,416.13 454.14,409.62 427.83,397.92 414.88,393.22 388.85,385.46 359.5,378.68 338.73,374.87 318.52,371.75 298.37,369.06 267.64,365.52 251.71,363.79 232.74,361.72 214.95,359.78 199.1,357.98 186.5,356.52 178.54,355.62 165.59,353.89 159.85,352.72 152.72,350.5 146.63,347.73 140.81,343.79 136.03,339.36 131.74,333.75 128.76,327.73 125.51,312.77 125.03,303.84 125.37,290.97 126.48,274.7 127.03,260.92 125.93,243.06 123.78,235.38 118.93,229.01 114.99,226.79 110.76,225.89 104.67,226.65 102.87,227.41 100.24,229.08 97.27,231.29 94.5,233.58 91.31,236.14 86.33,239.46 80.24,241.95 72.76,243.13 65.63,242.99 49.84,240.22 40.84,238.7 32.19,237.45 21.25,235.93 10.11,232.54 4.98,228.25 1.45,221.25 -0.0,211.91 0.42,205.33 1.59,199.45 2.77,195.22 5.12,189.27 8.65,182.62 12.74,176.74 18.69,169.89 24.37,164.69 30.88,159.85 37.59,155.76 44.17,152.51 58.01,147.53 69.78,144.83 85.98,142.96 95.67,142.54 111.25,142.89 127.03,144.2 151.82,147.18"
    fill="none"
    stroke="#888"
    stroke-width="4"
    stroke-linejoin="round"
    stroke-linecap="round"
  />
</svg>
