<svg xmlns="http://www.w3.org/2000/svg" viewBox="0 0 1000 1000">
  <polyline
    points="439.91,381.61 448.78,387.15 465.53,397.7 477.08,404.97 496.7,417.18 503.9,421.59 517.45,429.73 527.39,435.67 541.88,444.08 559.16,453.35 578.58,463.36 591.19,469.97 597.53,473.31 606.27,478.04 613.48,482.52 617.95,485.79 621.35,488.66 626.56,494.86 629.36,503.34 629.36,506.27 628.43,510.41 627.03,513.61 625.76,515.62 621.55,521.02 617.08,525.69 616.02,526.76 611.81,530.9 607.07,535.5 602.8,539.97 600.2,543.18 596.0,549.38 593.93,553.25 590.66,562.6 589.66,569.0 589.39,576.54 589.39,585.82 588.52,594.69 585.99,605.77 582.72,614.51 577.31,624.06 571.57,631.0 565.83,636.2 556.76,642.61 550.35,646.28 543.74,649.62 536.07,652.89 520.65,657.76 509.11,660.16 502.04,661.03 493.03,661.7 480.28,661.56 471.07,660.69 453.45,657.16 434.43,650.02 420.42,642.68 403.2,632.2 389.46,623.46 379.91,617.32 376.38,615.12 366.77,608.98 357.02,602.77 345.95,595.63 335.47,588.96 316.52,577.54 304.37,571.0 297.03,567.13 291.62,564.4 272.74,557.32 260.59,555.32 249.65,555.06 242.58,555.52 228.43,558.79 218.28,563.4 212.15,566.87 202.47,572.74 196.26,576.08 188.99,579.21 180.05,581.68 173.31,582.55 168.77,582.62 154.89,580.61 145.75,577.08 135.2,570.8 126.93,564.86 117.12,556.12 106.04,547.71 93.43,542.04 84.75,539.77 68.07,539.11 52.79,542.11 36.97,548.05 26.49,554.19 24.09,555.92 13.21,566.33 8.41,572.87 3.14,583.22 2.34,585.55 0.2,596.36 0.07,604.44 0.8,610.04 3.07,617.58 5.07,621.32 7.54,624.72 11.41,628.46 16.35,631.53 21.09,633.4 24.82,634.33 28.7,635.0 33.77,635.47 45.71,635.87 50.98,635.94 58.19,636.07 63.13,636.2 70.87,636.67 84.62,638.14 91.89,639.14 103.3,640.87 113.58,642.68 123.39,644.54 130.0,645.95 136.74,647.41 147.75,649.82 155.56,651.08 167.23,652.22 182.05,652.55 197.2,652.22 205.81,651.75 213.55,651.35 235.7,650.42 248.65,650.02 256.72,649.82 265.87,649.68 283.28,649.42 294.63,649.28 315.52,649.02 327.13,648.88 337.74,649.02 358.83,650.68 370.3,652.89 392.19,659.49 401.47,662.76 420.95,669.64 430.3,672.77 438.57,675.51 454.32,680.38 460.59,682.25 477.61,686.92 489.49,689.66 503.57,692.33 526.79,695.13 550.22,696.0 561.36,695.8 569.24,695.46 584.52,694.39 595.66,693.26 610.14,691.39 624.56,688.79 630.03,687.65 651.79,681.98 661.53,678.98 673.27,675.18 684.02,671.57 701.1,665.77 715.05,661.03 731.2,655.56 751.48,648.68 773.71,640.67 790.39,634.07 795.6,631.93 803.8,628.46 822.16,620.39 832.23,615.78 853.19,605.84 865.93,599.77 877.28,594.09 888.02,588.62 893.03,585.89 901.7,581.08 916.25,572.27 922.66,567.73 929.93,561.53 933.87,557.26 936.54,553.59 938.34,550.32 939.81,546.65 940.74,542.11 940.34,538.3 939.07,535.37 937.67,533.03 935.67,530.43 932.0,526.69 928.73,523.82 925.53,521.15 918.05,515.02 914.51,511.68 911.98,508.94 906.71,501.27 904.37,495.2 903.57,490.66 903.5,486.99 908.44,471.57 911.85,467.03 916.52,462.76 922.26,459.49 922.59,459.36 928.4,457.49 937.34,456.42 940.61,456.36 947.21,456.29 951.48,456.22 956.56,456.09 968.03,453.95 979.65,447.88 989.92,437.2 993.99,430.93 994.46,430.06 996.8,425.13 998.26,421.19 999.53,416.18 1000.0,411.51 999.8,408.91 998.26,406.11 994.39,403.44 989.19,400.3 987.52,395.76 988.59,387.95 989.32,384.88 991.39,377.01 994.66,366.67 997.53,359.06 998.67,355.59 999.33,352.72 999.47,348.45 998.53,345.18 998.06,344.44 993.99,340.37 990.86,338.37 988.72,337.24 986.19,336.1 979.85,334.1 975.38,333.1 970.64,332.37 964.5,331.83 959.89,331.63 952.22,331.36 950.02,331.3 904.37,329.9 897.63,329.7 881.88,329.23 863.66,328.7 844.58,328.16 833.83,327.96 821.02,327.63 804.14,327.29 797.46,327.16 776.11,326.69 763.3,326.43 751.02,326.16 738.0,325.83 725.73,325.56 721.59,325.49 712.31,325.29 697.7,324.96 685.02,324.56 678.61,324.36 666.87,323.96 658.32,323.62 645.38,323.16 635.57,322.82 621.42,322.36 602.74,321.69 589.46,321.22 579.45,320.89 562.7,320.29 548.08,319.75 534.53,319.29 512.98,318.55 503.84,318.22 493.56,317.82 474.67,317.22 463.13,316.75 451.58,316.35 429.5,315.62 415.55,315.28 402.67,315.08 388.59,314.81 364.03,314.35 352.42,314.15 337.27,313.81 327.93,313.68 305.84,313.28 289.69,312.95 273.47,312.61 260.73,312.41 244.98,311.95 232.37,311.28 221.22,310.34 212.21,309.48 203.4,308.54 179.85,306.21 172.31,305.47 159.83,304.4 153.49,304.07 148.62,304.0 143.08,304.2 134.0,305.41 128.8,306.81 124.86,308.81 121.52,311.95 119.72,315.22 120.85,327.89 122.32,330.5 125.19,334.17 126.93,335.97 128.86,337.7 131.33,339.64 136.6,343.51 139.81,345.31 143.41,347.11 151.95,352.19 156.09,354.85 160.49,357.66 168.84,362.73 181.51,368.13 195.33,370.34 204.27,369.2 213.28,366.87 230.63,359.66 243.44,353.45 257.39,346.78 264.53,343.44 272.81,340.31 282.35,337.64 296.76,335.17 306.17,334.37 323.26,333.9 331.8,334.37 347.01,336.84 356.49,339.37 371.64,344.31 374.44,345.31 393.73,353.65 402.67,358.53 414.95,365.8 428.9,374.74 441.24,382.48 449.25,387.49 458.99,393.63 463.46,396.43 474.14,403.17 485.75,410.44 494.76,416.05 511.91,426.39 532.87,438.87 542.48,444.41 582.78,465.57 589.92,469.3 597.93,473.51 612.81,482.05 618.82,486.45 623.16,490.39 624.62,492.13 627.43,496.4 629.36,502.94 629.16,507.67 628.16,511.08 626.63,514.28 624.69,517.22 622.22,520.29 620.09,522.69 616.95,525.83 612.75,530.03 610.34,532.37 604.54,538.1 600.07,543.38 595.93,549.52 591.19,560.59 589.52,571.34 589.39,576.21 589.39,585.15 588.32,595.76 588.19,596.43 585.65,606.71 583.45,612.78 577.64,623.66 575.84,625.99 566.97,635.27 558.16,641.74 550.55,646.21 545.48,648.75 529.4,655.29 514.51,659.16 507.64,660.36 504.17,660.83 491.62,661.7 478.81,661.49 465.0,659.76 453.85,657.29 439.37,652.22 419.95,642.41 411.28,637.27 402.74,631.87 394.13,626.46 382.85,619.25 339.47,591.49 331.4,586.42 322.32,580.88 316.85,577.68 299.03,568.2 283.48,560.79 279.88,559.46 271.74,557.06 257.72,555.12 241.37,555.66 234.5,556.92 219.02,563.0 205.07,571.2 197.73,575.34 186.65,580.01 176.84,582.15 161.16,582.02 152.55,579.88 142.21,575.21 128.73,566.2 122.12,560.79 116.45,555.59 104.77,547.05 94.36,542.31 76.08,538.84 68.87,539.04 50.78,542.71 40.44,546.51 36.24,548.38 30.36,551.65 18.89,560.33 13.68,565.8 9.28,571.54 5.34,578.28 3.4,582.68 0.73,592.16 0.13,597.1 0.0,599.23 0.27,606.51 2.2,615.18 4.07,619.65 7.14,624.32 12.15,629.06 17.35,632.0 20.82,633.33 22.69,633.87 31.36,635.27 40.24,635.74 45.51,635.87 55.46,636.0 66.07,636.34 72.01,636.74 79.55,637.47 85.22,638.2 89.56,638.81 97.03,639.94 107.64,641.61 115.58,643.01 118.79,643.61 129.4,645.81 141.14,648.42 153.15,650.75 175.71,652.49 185.92,652.55 193.46,652.35 207.74,651.69 211.61,651.48 221.29,650.95 231.43,650.55 258.53,649.82 269.6,649.62 280.81,649.48 292.16,649.35 302.5,649.15 312.98,649.02 320.32,648.95 338.27,649.02 349.88,649.62 372.84,653.49 384.25,656.82 395.66,660.69 406.87,664.7 423.76,670.64 444.18,677.24 458.79,681.72 466.2,683.85 482.15,688.05 495.1,690.86 503.84,692.39 519.25,694.46 523.66,694.86 545.95,696.0 558.22,695.93 575.64,695.06 585.52,694.33 595.6,693.33 620.02,689.66 635.37,686.39 644.04,684.18 656.99,680.38 667.73,676.98 680.55,672.71 688.02,670.24 698.7,666.57 721.19,658.96 729.73,656.09 744.74,650.95 766.1,643.48 774.57,640.34 788.19,635.0 797.6,631.13 806.87,627.13 825.36,618.92 836.5,613.78 850.58,607.11 865.6,599.9 877.28,594.09 889.29,587.89 900.03,582.02 906.04,578.61 918.12,571.0 922.86,567.6 931.46,559.93 936.6,553.45 938.2,550.52 939.81,546.58 940.47,544.11 939.94,537.24 937.4,532.7 934.73,529.43 934.53,529.23 931.26,526.03 927.93,523.16 925.79,521.42 923.26,519.35 919.45,516.15 915.05,512.21 912.25,509.21 909.64,506.01 906.51,500.93 905.44,498.53 903.97,493.59 903.5,486.45 904.04,482.58 905.04,478.98 906.31,475.58 908.58,471.3 909.51,470.04 912.65,466.1 916.85,462.5 919.59,460.83 924.92,458.43 929.0,457.36 935.34,456.56 941.94,456.29 947.15,456.29 953.95,456.16 962.76,455.36 970.57,452.95 971.71,452.49 982.98,445.21 992.19,433.93 995.06,428.93 997.0,424.66 998.87,419.19 999.67,415.25 999.93,409.91 998.53,406.37 995.13,403.84 992.13,402.37 988.59,399.63 987.59,393.76 988.19,389.76 989.32,385.02 990.39,380.88 991.86,375.68 993.73,369.27 996.06,362.86 996.8,360.99 998.0,357.52 999.13,353.59 999.47,348.52 998.4,345.11 990.86,338.37 988.86,337.3 985.12,335.77 982.85,334.9 979.45,333.97 974.71,332.97 969.5,332.23 965.83,331.9 960.96,331.63 955.16,331.43 943.01,331.1 931.2,330.76 919.19,330.36 909.24,330.1 900.37,329.83 894.29,329.63 888.09,329.43 876.08,329.03 869.47,328.83 854.25,328.43 843.78,328.16 832.23,327.89 824.02,327.69 810.14,327.43 801.67,327.23 787.32,326.89 774.71,326.63 766.83,326.49 757.96,326.29 744.54,325.96 733.4,325.76 717.98,325.43 704.5,325.09 685.62,324.56 673.94,324.22 668.67,324.02 654.79,323.49 645.05,323.16 632.03,322.69 616.75,322.16 603.6,321.69 583.72,321.02 574.84,320.69 559.16,320.15 537.8,319.42 526.53,319.02 515.18,318.62 498.03,318.02 487.69,317.62 475.88,317.22 456.26,316.55 450.52,316.35 424.96,315.48 406.41,315.15 397.06,314.95 386.52,314.75 359.56,314.28 351.35,314.08 332.67,313.75 326.79,313.61 316.25,313.48 304.57,313.21 284.88,312.88 275.54,312.68 255.86,312.28 241.98,311.81 228.43,310.94 213.15,309.61 198.87,308.14 185.92,306.81 172.91,305.54 165.23,304.8 164.56,304.74 156.42,304.2 150.28,304.0 145.41,304.07 140.67,304.4 134.67,305.27 131.0,306.14 126.66,307.81 124.52,309.08 122.32,311.01 120.52,313.41 119.39,316.35 118.99,319.15 118.92,319.42 119.19,322.76 120.65,327.36 121.99,329.9 123.59,332.3 127.13,336.1 130.26,338.77 133.87,341.51 137.14,343.78 142.21,346.51 150.55,351.32 155.56,354.52 164.03,359.86 174.37,365.53 180.65,367.87 187.39,369.47 200.27,369.87 209.48,368.0 216.15,365.87 230.63,359.66 241.98,354.19 259.06,345.98 269.47,341.44 276.28,339.17 286.09,336.84 298.03,335.04 306.44,334.37 319.79,333.9 321.72,333.9 334.07,334.57 345.55,336.5 359.89,340.44 363.7,341.64 372.24,344.51 381.51,348.05 391.59,352.59 400.53,357.39 416.08,366.6 424.02,371.6 432.83,377.14 444.38,384.42 463.13,396.23 472.14,401.9 491.16,413.85 507.64,423.86 518.65,430.46 531.53,438.14 540.67,443.34 555.56,451.42 568.44,458.09 578.98,463.56 588.59,468.57 595.8,472.37 602.4,475.84 608.01,479.05 616.42,484.58 619.95,487.39 626.43,494.59 628.16,498.0 629.36,503.67 628.76,509.28 626.89,513.75 623.36,518.95 621.02,521.69 617.95,524.89 614.95,527.89 610.48,532.23 605.61,536.9 602.94,539.84 599.27,544.38 593.46,554.25 589.79,567.6 589.39,576.54 589.32,587.02 588.92,591.56 587.52,599.83 583.92,611.64 579.05,621.45 571.57,631.0 563.9,637.74 557.22,642.34 549.35,646.81 541.07,650.82 534.0,653.69 526.66,656.16 508.78,660.23 494.43,661.63 483.48,661.7 475.14,661.16 464.86,659.76 453.72,657.22 439.11,652.09 429.3,647.55 420.49,642.74 407.54,634.93 405.81,633.8 386.79,621.79 370.17,611.18 362.3,606.11 357.02,602.77 349.08,597.63 333.13,587.49 321.45,580.35 313.18,575.68 293.96,565.6 286.89,562.26 271.87,557.12 262.73,555.52 251.52,554.99 241.78,555.66 233.3,557.26 226.76,559.39 214.81,565.27 198.26,575.14 184.12,580.75 174.17,582.48 168.03,582.62 153.89,580.35 150.28,579.08 141.27,574.67 131.33,568.13 124.46,562.93 108.98,549.65 102.04,545.58 89.62,540.84 71.74,538.84 57.86,540.77 49.32,543.18 43.38,545.31 35.64,548.72 29.7,552.05 20.35,558.99 13.01,566.6 10.94,569.27 6.34,576.41 3.87,581.48 2.27,585.95 0.33,594.89 0.0,598.7 0.07,604.04 0.53,608.64 2.07,614.91 4.87,621.05 8.14,625.46 11.14,628.26 14.61,630.6 19.35,632.8 23.56,634.07 27.03,634.73 34.7,635.54 42.24,635.8 50.18,635.94 53.12,636.0 61.26,636.14 69.74,636.54 75.14,637.0 82.88,637.87 92.83,639.27 104.44,641.07 111.51,642.28 119.52,643.74 128.53,645.61 135.2,647.08 144.48,649.15 153.15,650.75 167.43,652.22 172.97,652.42 187.85,652.49 201.13,652.02 209.81,651.55 219.49,651.02 230.3,650.55 250.18,649.95 265.33,649.68 277.61,649.55 290.02,649.35 299.23,649.22 313.91,649.02 323.39,648.95 330.8,648.88 350.82,649.68 364.5,651.62 369.7,652.75 386.45,657.49 402.94,663.3 417.28,668.37 425.56,671.17 439.04,675.64 448.45,678.58 460.06,682.12 471.81,685.39 477.14,686.79 490.09,689.79 499.97,691.73 508.71,693.13 526.53,695.13 537.67,695.8 555.69,696.0 571.37,695.33 592.86,693.59 595.06,693.33 607.34,691.79 625.09,688.66 640.51,685.12 658.93,679.78 672.94,675.24 681.55,672.37 703.1,665.1 710.64,662.56 734.4,654.49 742.01,651.89 759.23,645.95 767.77,642.88 787.72,635.2 797.2,631.26 819.95,621.39 832.23,615.78 851.58,606.64 874.47,595.56 884.88,590.22 903.44,580.08 909.18,576.74 917.32,571.54 923.19,567.4 928.46,562.93 933.4,557.79 936.14,554.12 937.94,551.18 940.54,543.78 940.61,539.37 939.61,536.44 936.94,532.03 935.07,529.76 933.2,527.89 929.33,524.29 927.99,523.22 923.66,519.69 920.79,517.28 918.12,515.02 914.45,511.54 910.31,506.94 907.17,502.14 904.84,496.73 904.37,495.2 903.5,489.26 903.84,483.85 904.64,480.25 905.91,476.51 907.44,473.31 909.38,470.1 911.24,467.63 913.91,464.9 917.52,462.03 920.99,460.09 928.53,457.42 933.4,456.69 940.54,456.36 945.48,456.29 953.42,456.22 959.63,455.82 965.77,454.62 974.31,451.22 979.98,447.61 988.59,439.01 991.73,434.53 994.59,429.86 997.06,424.52 998.2,421.39 999.53,416.18 1000.0,412.51 999.93,409.51 998.53,406.37 994.66,403.64 993.46,402.97 990.46,401.37 987.92,398.23 987.52,393.76 988.05,390.29 989.26,385.22 990.39,380.88 992.66,372.81 993.53,370.07 994.93,365.93 996.66,361.33 998.73,355.32 999.4,352.05 999.47,351.45 998.93,346.18 996.6,342.58 995.2,341.24 991.79,338.91 987.79,336.84 984.52,335.5 981.58,334.57 978.18,333.63 970.97,332.43 966.9,332.03 960.16,331.63 952.55,331.36 942.94,331.1 935.6,330.9 933.2,330.83 926.66,330.63 918.45,330.36 907.64,330.03 900.1,329.76 893.16,329.56 882.88,329.3 870.54,328.9 864.66,328.7 853.45,328.36 840.17,328.09 827.43,327.83 811.61,327.43 800.2,327.23 779.78,326.76 763.96,326.43 758.96,326.29 744.68,325.96 735.54,325.83 712.78,325.29 696.03,324.89 684.35,324.56 673.67,324.16 657.59,323.62 640.31,323.02 588.66,321.22 573.04,320.62 559.56,320.15 542.68,319.55 523.39,318.89 503.97,318.22 480.95,317.42 470.6,317.02 453.25,316.42 435.9,315.82 427.76,315.62 416.15,315.28 398.67,315.02 382.32,314.68 370.64,314.48 361.36,314.28 343.88,313.95 330.0,313.68 309.11,313.35 305.64,313.28 283.82,312.81 267.67,312.55 255.06,312.28 242.51,311.81 227.09,310.88 210.48,309.34 198.6,308.07 192.53,307.47 172.64,305.54 166.7,304.94 157.96,304.27 150.08,304.0 143.14,304.2 133.47,305.54 127.59,307.34 121.65,311.75 119.79,314.88 119.25,316.68 118.99,321.69 119.39,323.96 120.65,327.43 121.25,328.7 123.92,332.77 128.13,337.04 129.93,338.57 134.67,342.11 137.34,343.91 140.21,345.51 147.61,349.45 152.02,352.19 154.29,353.72 159.16,356.79 163.7,359.66 174.77,365.67 188.59,369.67 202.94,369.47 215.75,366.07 231.3,359.33 244.18,353.12 251.12,349.78 256.59,347.11 263.0,344.18 270.4,341.11 286.22,336.84 299.1,334.9 317.18,333.9 332.4,334.43 337.2,335.04 347.75,337.04 356.36,339.31 370.7,343.98 379.11,347.11 388.46,351.12 395.66,354.65 405.67,360.19 411.08,363.4"
    fill="none"
    stroke="#888"
    stroke-width="4"
    stroke-linejoin="round"
    stroke-linecap="round"
  />
</svg>
