<svg xmlns="http://www.w3.org/2000/svg" viewBox="0 0 1000 1000">
  <polyline
    points="216.77,755.03 218.2,738.79 219.17,728.14 219.72,721.5 221.34,703.1 222.08,694.71 223.69,676.03 224.11,670.86 225.58,653.66 227.1,636.32 228.16,624.1 228.9,615.25 230.29,599.43 231.02,590.62 232.04,579.14 233.37,563.32 234.2,553.63 235.36,540.4 236.19,530.71 237.39,516.65 238.77,500.83 240.57,479.8 241.77,465.83 242.51,457.11 243.38,447.01 243.8,441.98 245.23,425.15 245.73,419.2 246.66,408.04 247.03,403.48 248.04,391.67 248.55,385.45 248.96,380.23 249.61,373.09 250.16,368.24 250.76,364.19 251.64,360.4 252.65,357.64 253.9,355.29 255.37,353.21 256.57,351.96 257.68,351.09 261.32,349.57 265.66,348.69 268.29,347.72 270.36,346.2 271.97,343.39 272.48,341.31 272.8,338.96 272.9,337.48 272.67,333.61 272.25,331.03 271.74,328.49 270.82,324.8 269.62,320.42 268.56,316.32 267.64,312.81 265.84,305.71 263.95,297.68 262.47,290.58 261.74,286.43 261.18,282.6 260.35,275.0 260.03,269.78 259.75,261.44 259.71,254.52 259.71,251.01 259.85,245.02 260.49,231.46 260.95,225.1 261.92,215.37 262.98,207.43 265.2,195.4 266.12,191.34 270.22,177.23 272.67,170.59 275.48,163.95 280.64,153.52 284.7,146.51 288.81,140.33 294.11,133.09 297.98,128.53 305.87,120.32 313.9,113.22 325.65,104.45 330.82,101.04 340.0,95.69 353.46,89.14 362.23,85.59 370.53,82.73 379.8,80.2 393.17,77.29 405.9,75.12 409.08,74.66 419.46,73.23 428.27,72.27 440.3,71.16 449.99,70.42 458.01,69.73 465.25,69.08 476.6,68.16 490.75,67.19 497.99,66.73 504.4,66.36 518.61,65.67 529.22,65.21 537.15,64.93 543.28,64.66 550.84,64.38 557.25,64.15 560.99,64.01 568.69,63.73 572.24,63.55 576.53,63.18 578.88,62.81 581.6,62.3 584.09,61.66 590.23,59.49 592.58,58.2 595.72,55.62 598.07,51.7 599.59,48.42 601.48,45.52 604.25,42.66 607.38,40.4 612.18,37.91 617.81,35.97 622.05,34.96 626.34,34.08 630.44,33.34 635.24,32.51 640.96,31.31 648.98,29.15 653.13,27.85 660.88,25.5 664.89,24.26 673.15,21.49 685.41,16.79 689.84,15.08 695.97,12.77 702.85,10.33 709.21,8.16 719.77,4.61 727.06,2.4 731.81,1.15 738.86,0.14 747.3,0.32 750.9,0.92 754.73,1.94 760.03,4.1 766.26,8.12 770.13,11.58 774.42,17.02 780.18,30.02 781.75,36.66 782.35,40.17 783.09,45.29 783.69,50.64 784.38,57.74 784.7,62.26 785.03,66.27 785.99,81.58 786.27,85.22 786.78,92.0 787.56,100.21 788.07,105.75 788.85,113.59 789.45,120.83 789.78,127.42 789.73,132.03 789.13,138.49 787.93,143.33 786.73,146.38 784.15,150.89 780.0,155.83 775.99,159.24 773.17,161.13 765.56,165.61 760.95,168.0 756.16,170.4 747.44,174.78 735.82,180.92 728.72,184.74 726.13,186.17 714.93,192.17 706.12,196.97 698.88,201.12 690.9,205.73 684.49,209.37 671.26,216.8 661.99,222.01 651.33,228.09 641.19,234.09 633.62,238.89 622.42,246.68 615.73,251.94 606.69,259.32 603.05,262.27 595.76,268.31 582.48,279.88 577.59,284.13 569.01,291.64 566.52,293.76 545.22,312.3 537.56,318.94 531.2,324.48 524.83,330.01 518.42,335.59 510.77,342.28 497.9,353.44 490.2,360.13 481.71,367.51 475.17,373.18 464.19,382.72 452.71,392.73 447.59,397.16 441.92,402.09 432.83,409.98 422.96,418.56 418.49,422.48 416.6,424.18 407.1,433.04 401.66,439.31 399.03,444.11 397.14,451.67 396.77,457.53 396.77,460.8 396.81,467.26 396.72,472.24 396.08,479.66 395.38,483.21 394.14,487.69 392.2,493.04 388.47,500.37 387.08,502.44 383.72,506.87 380.26,510.79 375.69,515.4 372.65,518.59 366.93,526.79 363.93,533.8 361.3,543.86 360.38,548.7 359.37,557.46 359.18,559.35 358.03,572.27 357.2,580.84 355.91,593.62 355.35,599.8 354.8,606.02 353.74,617.97 352.13,635.26 351.34,644.02 350.79,649.93 349.54,663.3 348.02,679.9 347.56,685.25 346.55,696.04 346.04,701.48 344.75,715.55 343.73,726.57 342.95,735.24 342.3,742.39 341.2,754.38 340.0,767.25 339.17,776.19 338.75,780.94 337.41,795.66 336.49,805.52 335.34,817.84 334.97,821.94 333.68,835.96 332.57,848.28 331.51,859.8 329.85,877.93 329.02,886.92 328.1,896.74 327.32,904.91 326.3,915.51 325.33,925.06 323.72,939.22 323.44,941.57 322.24,949.78 319.57,963.15 317.86,969.33 316.06,974.59 313.02,981.09 308.87,987.13 306.06,990.18 303.24,992.53 298.72,995.53 290.33,998.85 283.97,999.91 278.29,999.95 272.9,999.26 268.42,998.25 264.5,997.0 259.06,994.7 253.16,991.47 248.96,988.56 243.66,984.18 234.48,974.27 232.36,971.36 228.67,965.74 224.7,958.63 219.86,947.52 217.51,940.69 214.56,929.76 213.08,922.48 212.07,915.74 211.05,905.88 210.64,898.87 210.32,888.86 210.22,880.19 210.27,874.33 210.32,868.43 210.36,862.53 210.55,855.05 210.82,846.02 211.01,840.71 211.84,822.31 212.39,813.0 212.9,805.16 213.91,790.49 214.7,780.16 215.25,773.47 215.9,765.45 217.19,750.09 218.43,736.3 219.22,727.31 219.91,719.89 220.97,707.43 222.35,691.57 223.78,674.74 223.87,673.91 224.57,665.47 225.81,651.03 226.5,643.38 227.56,630.56 228.16,623.73 229.36,609.8 230.61,595.28 231.53,585.09 232.41,574.85 234.16,554.37 235.17,542.43 235.91,533.9 236.51,527.07 237.11,520.25 238.12,508.3 239.37,493.87 240.52,480.26 241.91,464.21 242.55,456.6 244.17,437.65 244.77,430.5 245.37,423.58 246.15,413.99 247.07,403.11 247.95,392.32 248.46,386.41 248.59,384.85 248.96,380.05 249.47,374.79 250.3,366.91 250.85,363.72 251.59,360.63 252.47,358.1 253.44,356.07 254.82,353.9 258.32,350.67 261.14,349.61 263.03,349.2 264.55,348.92 266.03,348.6 267.41,348.18 270.22,346.34 271.28,344.91 272.25,342.51 272.8,338.82 272.85,336.28 272.48,332.13 271.84,328.86 271.1,325.95 270.41,323.28 269.48,319.82 268.61,316.64 267.46,312.12 265.89,305.94 264.69,300.96 263.26,294.64 262.47,290.58 261.46,284.45 260.54,277.02 259.98,268.17 259.85,263.97 259.71,258.53 259.75,249.26 259.85,243.96 260.12,237.87 260.49,231.0 261.78,216.89 262.47,210.99 263.58,203.65 264.96,196.32 268.19,183.55 271.79,172.8 276.91,160.9 281.94,151.17 287.79,141.81 296.32,130.42 303.47,122.67 310.76,115.89 316.66,111.0 325.42,104.59 337.97,96.85 343.5,93.89 350.6,90.44 356.37,87.9 363.01,85.32 372.05,82.32 379.75,80.2 389.9,77.94 395.38,76.88 414.38,73.93 426.33,72.45 435.14,71.62 436.75,71.48 446.34,70.7 453.58,70.1 462.39,69.31 472.81,68.48 480.01,67.93 494.35,66.96 506.29,66.27 511.92,65.99 522.94,65.49 529.86,65.21 538.02,64.89 544.99,64.56 552.78,64.29 556.89,64.15 563.9,63.92 572.38,63.55 577.55,63.04 581.1,62.44 586.58,60.92 590.97,59.12 597.38,53.17 598.85,49.9 601.25,45.79 602.96,43.86 604.94,42.15 607.15,40.54 609.5,39.15 612.23,37.91 615.45,36.71 620.57,35.28 623.25,34.68 628.69,33.67 629.06,33.57 634.59,32.6 644.0,30.58 653.22,27.85 659.54,25.92 665.03,24.26 672.27,21.81 674.39,21.08 681.91,18.17 687.95,15.82 692.42,14.07 699.85,11.39 705.06,9.59 712.11,7.19 717.42,5.44 725.26,2.91 730.47,1.48 733.01,0.92 739.97,0.05 746.56,0.28 753.67,1.61 756.2,2.44 761.78,5.07 765.8,7.75 769.16,10.61 773.5,15.63 774.23,16.74 777.55,22.78 780.92,32.79 781.57,35.74 782.9,43.95 783.78,51.42 784.66,61.52 785.21,69.08 785.81,78.58 786.13,83.43 786.92,93.2 787.93,104.36 788.3,108.05 789.13,116.77 789.64,123.64 789.68,124.65 789.78,130.42 788.9,139.5 787.42,144.71 783.5,151.82 782.21,153.43 777.46,158.09 774.33,160.39 770.91,162.61 767.78,164.41 761.46,167.77 755.65,170.68 754.27,171.37 748.73,174.14 739.97,178.7 732.45,182.76 727.79,185.25 720.65,189.13 710.59,194.48 705.06,197.57 693.16,204.39 689.15,206.74 677.3,213.38 672.5,216.1 668.21,218.46 661.48,222.28 655.9,225.47 649.67,229.02 644.05,232.34 635.93,237.36 622.83,246.4 618.5,249.68 613.19,254.01 606.65,259.36 599.45,265.17 593.55,270.25 585.25,277.49 576.3,285.28 575.7,285.79 568.46,292.1 555.73,303.13 549.69,308.43 539.31,317.42 532.58,323.28 523.4,331.26 516.03,337.67 509.89,343.02 501.87,349.98 492.0,358.56 484.9,364.74 472.68,375.39 464.61,382.4 456.63,389.32 452.34,393.01 440.16,403.62 427.34,414.78 420.93,420.31 412.95,427.46 407.37,432.76 404.38,435.9 401.56,439.49 398.06,446.83 396.86,454.71 396.77,458.96 396.81,464.03 396.77,469.66 396.67,473.25 396.31,477.82 395.34,483.44 394.18,487.64 392.29,492.81 388.37,500.46 386.39,503.46 380.21,510.84 377.08,513.97 372.79,518.45 368.36,524.3 364.76,531.54 363.24,536.11 361.26,543.95 360.2,550.08 359.23,558.98 358.08,571.99 357.43,578.54 355.77,595.37 354.57,608.56 353.56,619.81 353.05,625.58 352.31,633.51 351.71,640.1 350.6,651.86 349.91,659.29 349.31,666.02 348.76,672.06 347.65,684.24 347.01,691.15 346.22,699.64 345.3,709.74 344.56,717.63 343.78,726.3 342.07,744.56 341.52,750.92 339.72,770.25 338.98,778.36 337.74,792.01 337.28,796.9 336.45,805.89 335.34,818.16 334.05,832.04 333.08,842.7 332.25,851.73 331.88,855.84 331.24,862.43 330.5,870.64 329.39,882.91 328.38,893.56 328.1,896.84 327.22,905.83 325.98,918.79 324.46,932.9 323.3,942.26 322.47,948.26 320.63,958.49 319.34,964.17 317.72,969.84 316.2,974.22 314.45,978.28 312.0,982.89 305.78,990.41 300.71,994.33 294.2,997.65 290.24,998.89 286.09,999.68 281.34,1000.0 277.42,999.86 271.38,998.99 264.78,997.09 253.99,992.07 243.52,984.09 239.79,980.4 236.23,976.39 228.16,964.95 224.89,958.91 220.69,949.59 219.54,946.55 217.83,941.62 214.19,928.1 212.9,921.42 211.93,914.68 211.19,907.81 210.73,900.8 210.45,893.01 210.27,885.17 210.27,874.24 210.32,866.12 210.55,854.22 210.73,847.63 211.01,840.02 211.47,830.15 212.07,818.62 212.67,808.52 213.45,796.81 214.05,788.92 215.39,771.54 216.03,763.56 217.14,750.65 218.76,732.71 219.54,723.71 220.65,711.26 221.43,702.08 222.35,691.2 223.74,675.15 224.2,670.03 225.12,658.97 226.41,644.39 227.43,632.31 228.03,625.39 228.62,618.43 229.55,608.01 230.65,594.95 230.98,591.45 231.71,582.73 232.45,574.02 233.19,565.35 234.62,548.79 235.4,540.08 236.14,531.36 237.11,520.06 238.17,507.89 238.54,503.55 239.28,494.88 240.15,484.55 241.58,468.18 242.69,455.31 243.24,448.53 244.49,434.05 245.46,422.52 246.15,413.99 246.89,405.46 247.26,400.57 247.67,395.96 248.27,388.81 248.55,385.21 249.05,379.4 249.42,375.02 249.88,370.6 250.44,366.21 250.85,363.63 251.73,360.17 252.65,357.68 253.85,355.29 255.05,353.58 258.32,350.72 259.98,349.94 262.43,349.29 265.29,348.78 266.72,348.41 269.35,347.08 271.56,344.36 272.21,342.7 272.53,341.17 272.8,339.28 272.9,336.15 272.71,334.07 272.16,330.43 271.7,328.26 270.82,324.76 270.27,322.77 269.44,319.77 268.84,317.42 266.86,309.86 266.07,306.59 265.01,302.34 263.9,297.45 262.2,288.97 261.18,282.7 260.21,272.92 259.98,268.68 259.75,260.93 259.71,256.32 259.75,249.95 260.08,238.1 260.4,232.61 261.37,220.62 262.8,208.86 264.6,198.26 267.27,186.87 272.57,170.77 278.85,156.98 281.57,151.82 286.55,143.65 289.91,138.72 296.74,129.91 301.81,124.33 310.11,116.45 318.41,109.62 328.56,102.52 338.34,96.62 353.19,89.28 365.68,84.35 374.82,81.49 381.78,79.69 390.36,77.85 405.34,75.22 425.18,72.59 437.17,71.44 443.58,70.93 454.0,70.05 465.2,69.08 473.69,68.39 482.45,67.75 495.23,66.87 504.82,66.36 511.18,65.99 517.55,65.72 526.17,65.3 534.56,65.02 547.29,64.52 556.7,64.19 565.14,63.87 570.67,63.64 578.47,62.9 584.65,61.52 589.07,60.0 591.2,58.98 595.07,56.22 595.81,55.48 597.38,53.17 598.44,50.96 599.59,48.38 603.51,43.35 607.52,40.31 612.0,38.0 617.9,35.97 622.19,34.91 627.49,33.9 634.04,32.7 644.28,30.48 650.13,28.82 659.22,26.01 663.69,24.67 674.07,21.17 681.54,18.31 692.56,14.02 697.08,12.36 703.4,10.15 715.71,6.0 723.09,3.6 731.53,1.25 742.14,0.0 747.3,0.32 752.28,1.25 757.03,2.77 761.88,5.12 766.26,8.12 771.38,13.0 773.59,15.82 777.65,23.01 780.41,30.85 781.61,35.79 782.63,41.97 783.69,50.54 784.15,55.57 784.7,62.4 785.49,73.51 786.27,85.59 787.19,96.75 787.56,100.44 788.25,107.27 788.81,113.36 789.68,124.42 789.5,135.86 788.25,142.18 787.01,145.78 785.58,148.68 781.71,154.03 777.74,157.86 771.65,162.15 768.15,164.22 763.54,166.67 754.63,171.19 749.93,173.54 745.18,175.94 733.79,182.02 727.06,185.67 721.34,188.76 712.53,193.46 706.95,196.5 701.32,199.69 692.15,204.99 683.43,209.97 670.15,217.4 659.63,223.3 653.41,226.9 647.78,230.12 642.76,233.12 635.88,237.41 630.26,241.1 621.13,247.65 614.02,253.32 607.48,258.72 601.48,263.51 592.03,271.58 585.52,277.26 577.13,284.54 569.29,291.37 560.25,299.25 554.76,304.0 545.63,311.94 537.7,318.81 531.57,324.16 523.59,331.07 516.26,337.48 508.23,344.45 503.94,348.18 495.92,355.15 490.38,359.99 478.72,370.09 468.57,378.94 462.44,384.25 455.7,390.1 447.13,397.57 439.24,404.4 430.39,412.1 420.66,420.59 414.01,426.49 411.06,429.21 406.54,433.59 403.32,437.14 400.59,441.06 397.97,447.15 397.23,450.84 396.77,458.17 396.77,461.68 396.81,465.23 396.77,470.62 396.4,476.71 395.75,481.51 395.01,484.83 393.17,490.55 389.34,498.85 385.7,504.38 378.14,512.96 373.71,517.39 370.8,520.84 367.62,525.55 362.41,539.01 361.53,542.61 359.78,553.17 359.23,558.94 359.04,560.92 357.84,574.02 356.09,591.91 355.31,600.17 354.66,607.87 354.06,614.19 353.09,624.88 352.96,626.31 352.17,634.98 351.2,645.22 350.42,654.12 349.31,666.07 348.67,672.89 347.28,688.16 345.99,701.99 345.62,705.91 344.84,714.49 343.82,725.51 342.76,737.36 341.84,746.96 340.32,763.88 339.4,773.61 338.61,782.47 338.24,786.52 337.28,797.13 335.85,812.63 334.79,824.06 334.32,828.95 333.49,837.99 332.53,848.64 331.93,855.19 330.87,866.68 329.94,876.5 329.21,884.66 328.15,896.1 327.13,906.71 326.53,913.21 325.89,919.71 324.46,933.22 323.53,940.69 322.29,949.46 321.83,952.08 320.4,959.56 319.34,964.12 317.49,970.53 315.46,975.97 310.53,985.06 307.81,988.38 304.35,991.7 300.89,994.24 292.91,998.11 285.07,999.82 277.28,999.86 270.78,998.85 264.87,997.09 259.89,995.07 255.46,992.81 250.25,989.49 246.15,986.35 242.69,983.26 237.34,977.73 232.13,971.08 229.41,966.98 225.95,961.03 220.6,949.41 218.76,944.48 215.53,933.64 214.1,927.73 211.88,914.18 210.92,903.71 210.36,890.84 210.22,876.31 210.27,868.94 210.59,851.41 210.92,843.53 211.38,831.3 211.52,829.0 212.3,814.33 213.08,802.57 213.78,792.57 214.24,786.52 215.11,775.0 215.62,768.63"
    fill="none"
    stroke="#888"
    stroke-width="4"
    stroke-linejoin="round"
    stroke-linecap="round"
  />
</svg>
