<svg xmlns="http://www.w3.org/2000/svg" viewBox="0 0 1000 1000">
  <polyline
    points="176.88,573.98 177.72,556.85 178.91,528.91 179.75,507.39 180.26,493.96 180.76,483.08 181.35,470.92 182.03,455.98 183.38,427.7 183.97,412.68 184.39,401.71 184.81,390.82 185.32,377.06 186.0,359.25 186.5,345.49 187.35,320.67 187.77,308.26 188.36,291.72 189.12,268.0 189.79,248.59 190.39,230.52 190.89,215.33 191.31,202.84 191.65,191.78 192.58,157.42 193.26,132.95 193.93,106.52 194.78,81.37 195.7,59.0 196.21,49.38 196.55,43.72 196.72,40.85 197.48,31.23 198.24,24.56 198.83,21.44 199.92,16.97 203.22,9.37 208.53,3.38 211.74,1.43 215.96,0.08 217.48,0.0 223.73,1.18 228.54,3.71 230.14,4.81 235.12,8.95 238.84,12.41 242.64,16.38 243.9,17.73 247.36,21.44 255.04,28.78 259.94,32.33 264.83,35.11 270.24,37.48 280.96,40.26 291.17,40.85 298.09,40.35 306.87,39.0 317.59,37.06 326.12,35.11 337.34,31.91 345.28,29.29 348.06,28.36 359.04,25.24 367.56,23.89 382.42,23.3 397.86,23.8 413.65,25.15 428.67,27.18 443.87,29.97 460.5,33.43 468.35,35.03 486.58,38.66 496.96,40.77 513.34,44.06 535.79,48.62 545.41,50.56 556.13,52.76 566.94,54.95 581.37,57.82 593.53,60.27 607.12,62.97 620.79,65.67 639.53,69.3 667.13,74.62 688.57,78.59 703.68,81.46 706.21,81.88 722.59,84.92 742.34,88.55 751.96,90.23 765.72,92.77 776.44,94.71 793.66,97.92 801.26,99.6 812.15,103.06 822.11,107.79 828.44,111.84 837.55,121.89 839.83,128.05 840.76,134.72 840.42,142.99 838.9,151.09 838.14,153.71 836.63,157.93 834.18,162.99 830.13,169.33 825.15,175.49 822.53,178.19 813.08,186.8 806.32,192.12 797.54,198.45 792.9,201.65 787.41,205.45 778.89,211.45 770.87,217.27 761.25,224.61 755.17,229.34 748.42,234.91 739.39,243.02 731.45,251.12 724.45,258.97 719.89,264.62 715.24,270.62 701.74,290.2 688.74,311.47 684.86,317.3 674.9,329.7 670.51,334.01 663.16,340.0 652.36,346.25 645.52,348.7 631.85,350.97 625.09,351.31 609.82,351.14 602.81,350.97 590.23,351.06 580.36,351.73 565.0,354.69 549.97,360.09 540.6,364.82 534.1,368.79 520.51,379.76 507.09,395.12 502.11,401.96 500.34,404.66 490.38,420.11 485.9,427.53 479.32,438.68 474.59,446.78 469.44,455.22 464.29,462.99 460.33,468.47 452.82,478.1 449.1,482.65 442.69,489.24 439.56,491.77 435.43,494.22 428.17,496.67 424.88,497.17 420.15,497.09 417.36,496.24 414.83,494.81 411.71,491.69 409.94,489.32 407.23,484.6 405.38,480.71 403.35,475.06 402.34,470.92 401.58,448.97 402.34,441.21 403.6,432.68 404.7,426.02 407.07,413.94 410.19,399.85 412.89,387.19 415.93,373.09 418.71,360.18 422.34,344.9 425.13,333.08 429.6,312.65 431.71,302.1 434.33,288.09 437.62,267.07 439.39,252.3 440.24,242.0 440.15,223.01 438.8,212.46 435.0,197.69 430.87,187.05 426.23,177.77 422.01,171.01 418.29,166.29 413.06,160.46 406.39,154.47 402.51,151.77 397.78,149.15 387.9,146.28 385.79,146.2 380.81,147.13 378.37,148.31 372.96,153.37 370.94,156.75 369.5,159.96 367.65,165.36 366.46,170.0 365.28,175.23 364.78,178.36 363.76,184.94 362.83,191.69 362.07,197.94 361.65,201.57 361.15,206.72 360.47,213.56 359.46,224.53 358.78,231.62 358.28,238.03 357.52,249.18 357.09,256.27 355.91,274.92 354.9,293.66 354.14,305.9 353.63,315.35 352.79,332.4 352.11,345.49 351.44,359.75 351.02,369.97 350.26,384.99 349.5,400.27 349.08,409.72 348.48,421.63 347.56,443.4 347.13,453.28 346.04,478.1 345.61,486.87 344.77,505.87 344.26,516.08 343.67,527.64 342.83,544.44 342.24,557.44 341.23,578.29 340.72,588.76 340.21,597.87 339.03,621.42 337.93,641.01 336.84,660.25 336.08,678.48 335.99,686.33 336.25,698.49 337.34,709.12 338.95,718.07 342.07,729.3 345.61,737.06 349.58,742.72 357.01,749.3 365.11,753.86 373.05,757.15 379.72,759.18 384.53,760.28 396.51,761.12 403.35,760.53 412.64,758.76 428.51,753.19 441.67,745.93 448.43,741.12 455.43,735.21 461.59,729.13 471.64,717.06 477.29,708.62 484.64,694.94 487.76,688.19 491.98,678.32 497.13,665.15 500.68,655.86 507.6,640.67 510.8,634.68 522.2,617.46 530.81,606.74 542.63,595.51 548.03,591.37 559.76,584.2 571.07,578.8 593.44,571.2 616.49,568.25 634.3,569.51 646.2,572.13 663.16,578.37 679.62,586.14 687.81,590.28 703.17,597.87 715.41,603.61 730.44,611.04 740.23,616.7 748.67,622.6 758.8,632.06 761.84,635.94 766.4,644.38 769.77,656.71 770.53,663.21 770.11,673.67 769.86,675.45 764.88,689.46 759.22,698.24 753.23,704.82 749.09,708.79 743.27,713.6 735.76,719.09 727.99,723.9 718.62,729.13 704.78,736.47 697.27,740.44 687.81,745.34 680.81,748.97 671.77,753.61 665.44,756.9 658.01,760.78 638.09,771.33 587.11,799.02 578.84,803.58 555.54,816.49 540.43,824.85 526.34,832.78 510.89,841.31 492.99,851.27 483.96,856.33 469.27,864.52 457.8,870.94 442.52,879.46 421.58,891.11 409.94,897.61 397.02,904.79 388.75,909.43 375.83,916.6 366.38,921.92 357.01,927.24 342.91,935.26 321.81,947.24 310.33,953.91 295.56,962.27 283.32,969.27 273.02,975.1 263.57,980.5 245.08,990.46 240.61,992.57 232.08,996.03 225.84,997.81 213.94,999.83 207.18,1000.0 198.57,998.73 194.35,997.13 187.77,992.66 182.45,987.34 174.85,977.13 171.56,971.55 166.75,961.17 164.39,954.42 161.43,942.18 159.41,923.61 159.24,913.06 159.32,903.94 160.08,885.96 160.5,878.11 161.18,867.14 162.53,846.29 163.37,831.27 164.05,819.28 164.56,810.42 165.23,796.74 166.75,770.15 167.51,756.06 167.85,748.88 168.44,739.26 169.79,713.68 170.63,698.49 171.22,687.26 171.9,674.69 172.58,660.76 173.76,638.81 174.26,628.51 174.69,620.75 176.12,590.87 176.96,572.47 177.72,556.6 178.57,536.68 178.99,525.96 179.83,505.87 180.34,492.45 181.35,470.92 182.96,437.16 183.97,412.68 185.07,383.89 185.57,370.22 186.25,352.33 186.67,341.35 187.35,320.67 187.85,306.83 188.44,290.2 188.61,284.63 189.04,272.22 190.13,238.88 190.89,215.24 191.31,202.75 191.99,181.9 192.75,151.43 193.09,138.26 193.68,116.74 194.35,94.96 195.11,72.68 195.62,62.38 196.21,49.46 196.38,45.67 197.22,33.34 198.24,24.73 199.5,18.49 200.09,16.29 202.71,10.3 204.4,7.77 208.87,3.21 213.77,0.59 218.66,0.0 220.69,0.25 224.74,1.6 228.62,3.8 232.17,6.42 235.8,9.45 238.58,12.15 243.65,17.47 248.71,22.87 251.84,26.0 260.11,32.5 261.71,33.51 268.72,36.89 280.62,40.18 291.51,40.85 296.15,40.52 304.09,39.5 313.12,37.9 323.08,35.87 340.38,30.98 356.67,25.83 359.46,25.15 367.05,23.97 379.13,23.3 388.41,23.38 404.11,24.23 422.09,26.17 435.09,28.19 444.88,30.13 462.52,33.85 471.55,35.62 480.59,37.48 503.63,42.12 525.91,46.68 534.27,48.37 547.35,50.98 556.89,52.92 568.88,55.29 583.23,58.16 596.48,60.77 600.11,61.53 614.88,64.49 627.46,66.94 642.48,69.89 652.61,71.83 665.19,74.28 681.65,77.32 703.17,81.37 727.23,85.76 740.48,88.21 749.01,89.73 769.77,93.53 779.14,95.21 791.64,97.49 802.52,99.94 810.54,102.47 813.33,103.57 825.91,110.07 830.38,113.36 837.64,121.97 838.82,124.59 840.42,131.17 840.76,138.6 840.42,143.58 839.83,147.46 838.23,153.46 830.13,169.33 827.51,172.7 820.93,179.71 812.65,187.14 808.09,190.85 801.17,195.83 794.5,200.47 788.34,204.78 780.49,210.26 773.15,215.58 766.4,220.56 751.96,231.96 745.13,237.78 734.74,247.66 725.63,257.62 722.5,261.42 710.43,277.2 704.69,285.56 699.29,294.08 695.24,300.75 688.99,311.05 683.93,318.73 678.61,325.57 672.28,332.32 659.11,342.7 656.92,343.97 649.24,347.51 636.07,350.64 621.38,351.4 603.91,350.97 596.73,350.89 579.85,351.82 568.88,353.68 559.85,356.29 551.83,359.33 535.71,367.77 530.89,371.06 524.73,375.88 518.15,382.04 508.78,392.93 501.35,403.14 497.81,408.46 491.98,417.57 486.83,426.02 480.25,437.16 473.58,448.55 469.11,455.73 464.8,462.31 460.83,467.8 453.24,477.59 449.1,482.65 447.5,484.43 438.21,492.7 431.38,495.82 427.15,496.83 421.08,497.17 418.12,496.5 412.55,492.78 410.27,489.83 407.99,486.11 404.79,479.19 403.35,474.97 402.42,471.17 401.24,460.79 401.24,454.71 401.58,449.14 402.08,443.74 403.18,435.55 404.28,428.46 406.47,416.65 407.4,412.26 409.34,403.56 412.05,390.99 414.16,381.36 416.86,368.62 421.25,349.62 422.85,342.79 425.64,330.8 429.43,313.24 431.38,303.71 434.08,289.69 436.27,276.44 437.62,267.49 439.73,248.25 440.32,239.39 440.32,226.3 439.82,218.96 438.3,209.93 436.1,201.32 429.52,184.18 424.54,174.81 421.08,169.83 415.17,162.66 408.67,156.41 405.04,153.54 400.99,150.84 393.98,147.63 388.49,146.37 382.76,146.62 378.37,148.31 376.09,150.0 373.72,152.53 372.12,154.72 370.68,157.42 368.91,161.48 368.07,164.09 366.8,168.65 365.96,171.94 365.2,175.83 364.44,180.13 363.85,184.01 363.26,188.32 362.75,192.54 361.82,200.05 360.81,210.18 360.22,215.75 359.46,223.77 358.78,231.62 358.36,238.03 357.52,249.94 356.5,265.21 356.08,272.73 355.32,285.22 354.98,291.13 354.39,302.27 353.72,313.58 353.3,322.11 352.28,342.7 351.78,352.24 351.27,363.72 350.26,385.5 349.5,400.69 349.08,408.96 348.06,431.84 347.05,455.05 346.29,472.36 345.36,492.45 344.18,516.59 342.83,544.69 342.24,557.61 341.56,570.69 340.89,585.13 339.79,606.06 339.28,616.53 338.69,626.99 337.34,651.3 336.75,662.28 336.25,674.85 335.99,689.46 336.25,698.24 337.09,707.1 339.45,720.35 341.39,727.19 343.84,733.52 350.34,743.56 360.56,751.58 377.27,758.5 382.08,759.77 397.44,761.12 405.21,760.28 420.23,756.48 439.82,747.02 446.65,742.47 455.85,734.79 459.99,730.82 467.25,722.71 477.72,707.86 488.6,686.33 492.32,677.47 499.07,660.08 503.71,648.69 510.8,634.68 520.76,619.31 532.33,605.13 543.64,594.58 547.27,591.88 562.97,582.51 571.24,578.71 589.39,572.3 598.17,570.19 629.82,568.84 636.66,569.93 650.16,573.31 659.03,576.6 667.72,580.4 695.15,593.99 703.6,598.04 720.14,605.81 730.52,611.13 738.88,615.85 746.98,621.34 753.31,626.49 759.98,633.49 764.88,641.01 768.25,649.95 769.52,655.27 770.28,660.5 770.62,665.65 770.28,672.66 767.41,683.97 763.86,691.31 759.98,697.22 754.24,703.89 749.18,708.7 744.7,712.5 735.59,719.17 728.75,723.47 720.73,727.95 712.12,732.59 704.1,736.81 695.91,741.12 686.55,746.01 680.47,749.13 670.59,754.2 657.76,760.95 640.71,769.98 632.02,774.63 623.24,779.35 608.21,787.46 593.27,795.64 586.01,799.61 565.08,811.26 555.46,816.58 549.04,820.12 528.45,831.52 508.69,842.49 506.5,843.76 493.08,851.27 481.85,857.52 460.24,869.59 447.24,876.85 433.23,884.61 423.95,889.85 411.03,896.94 399.3,903.52 388.75,909.43 366.3,922.01 354.39,928.67 342.58,935.43 329.49,942.94 325.95,944.96 303.75,957.63 282.31,969.87 280.2,971.05 255.47,984.98 251.16,987.25 240.44,992.66 234.45,995.1 226.34,997.72 219.68,999.07 211.91,999.92 206.51,1000.0 198.07,998.57 188.78,993.5 182.28,987.09 176.37,979.49 173.93,975.61 171.22,971.05 169.11,966.74 166.84,961.51 163.88,952.56 163.46,951.13 160.25,933.65 159.41,921.84 159.24,911.29 159.32,903.01 159.91,889.76 161.01,870.01 161.86,856.67 162.53,846.21 163.46,830.0 164.13,817.93 164.64,808.98 165.06,799.86 165.57,790.75 167.09,762.72 167.68,752.0 168.95,730.31 170.38,703.47 171.06,689.79 171.98,673.5 173.08,651.98 173.93,635.6 174.85,617.12 175.53,603.61 176.54,581.41 177.64,557.78 178.4,540.56 179.5,513.8 180.51,489.66 180.85,481.56 181.86,459.95 182.62,445.01 183.63,421.88 184.31,404.07 185.32,378.07 185.74,367.1 186.33,350.64 186.59,343.72 187.6,313.33 188.36,291.21 188.78,280.16 188.95,274.58 189.54,257.96 190.3,232.97 190.98,213.47 191.4,200.98 192.33,169.16 192.58,157.68 193.0,141.13 193.42,125.01 194.02,105.68 195.03,76.9 195.37,67.87 195.79,57.65 196.38,46.0 197.05,36.21 197.73,28.95 199.0,20.6 201.19,13.34 203.13,9.54 207.35,4.47 210.22,2.28 215.79,0.17 220.52,0.25 224.23,1.35 227.02,2.79 231.32,5.66 237.06,10.64 241.96,15.7 246.35,20.43 250.91,25.07 258.67,31.57 259.69,32.24 272.35,38.24 280.28,40.18 287.96,40.85 301.47,39.84 310.16,38.49 325.86,35.2 335.15,32.67 347.3,28.61 354.56,26.34 364.78,24.23 377.61,23.3 395.16,23.63 405.21,24.31 418.54,25.74 436.78,28.53 449.86,31.15 462.02,33.68 475.44,36.38 484.55,38.24 500.68,41.53 509.96,43.39 525.24,46.51 534.69,48.45 542.96,50.14 570.48,55.63 578.92,57.31 577.07,56.98 593.02,60.1 606.69,62.89 630.33,67.53 649.07,71.16 670.42,75.21 685.45,78.08 701.74,81.03 745.97,89.22 766.23,92.85 781.93,95.72 795.86,98.42 804.3,100.45 812.57,103.23 814.51,104.08 823.37,108.47 828.02,111.51 835.78,119.02 840.0,128.89 840.76,138.26 840.34,144.17 838.65,152.11 836.2,158.94 833.92,163.42 830.21,169.24 829.2,170.68 820.76,179.96 813.16,186.71 803.87,193.97 793.49,201.23 787.25,205.54 777.2,212.63 767.66,219.72 764.62,221.91 753.99,230.27 739.64,242.85 728.07,254.83 723.85,259.73 712.54,274.33 705.96,283.7 699.38,294.0 693.13,304.3 683.25,319.66 669.66,334.77 661.39,341.18 651.85,346.42 644.0,349.12 637.5,350.38 626.53,351.31 614.54,351.23 603.99,350.97 592.18,350.97 583.82,351.4 574.2,352.58 564.91,354.69 555.88,357.73 541.87,364.14 533.6,369.12 529.63,371.99 522.79,377.65 509.54,392.0 500.08,404.91 491.81,417.74 487.25,425.34 477.38,442.05 470.71,453.19 461.42,467.04 451.46,479.7 445.47,486.62 444.63,487.47 441.08,490.67 436.52,493.63 428.67,496.58 425.3,497.17 421.75,497.26 417.45,496.24 412.13,492.28 409.43,488.48 406.39,482.82 405.21,480.21 404.11,477.5 402.59,472.1 401.58,465.77 401.24,455.56 401.92,445.34 402.51,440.36 404.36,428.04 406.81,415.13 409.09,404.57 411.88,392.0 416.27,371.49 418.63,360.26 423.36,340.93 425.13,332.91 429.43,313.41 433.23,294.17 435.0,284.38 437.54,267.66 440.24,241.66 440.49,230.61 439.98,220.98 436.36,201.99 431.54,188.74 428.67,182.41 423.95,174.05 415.67,163.16 406.98,155.06 396.35,148.56 392.55,147.13 388.75,146.37 383.01,146.53 376.85,149.4 374.91,151.09 371.61,155.57 369.67,159.62 369.0,161.31 367.22,166.79 366.13,171.18 364.69,178.95 364.1,182.58 363.76,184.94 363.17,189.08 362.58,194.06 361.23,205.54 360.22,215.92 359.63,222.5 358.45,236.77 357.09,255.76 356.5,265.89 355.91,275.26 355.15,288.01 354.22,304.13 352.96,328.44 352.54,337.13 351.52,359.16 351.02,370.56 350.34,383.22 349.58,399.68 348.91,411.5 347.98,433.19 347.22,451.59 346.8,460.2 345.95,478.94 345.45,490.25 345.02,500.38 344.52,510.59 343.76,525.96 343.17,537.6 342.07,560.9 340.89,584.28 339.79,606.48 339.2,616.87 338.19,635.1 337.51,648.01 336.92,659.24 336.33,670.89 335.99,688.78 336.41,699.92 338.36,715.2 340.55,724.49 345.78,737.32 349.75,742.97 352.71,745.93 359.04,750.65 365.37,754.03 378.62,758.93 390.35,760.95 400.57,760.87 416.01,757.83 433.06,750.91 439.9,747.02 448.76,740.86 456.95,733.77 461.68,729.05 467.5,722.46 477.21,708.62 483.71,696.89 489.45,684.48 495.44,669.45 499.32,659.15 504.56,646.91 508.53,638.9 512.41,631.97 523.97,615.09 542.54,595.51 548.87,590.78 564.57,581.75 581.29,574.83 597.32,570.36 606.1,568.92 618.26,568.16 637.17,570.02 659.87,576.94 670.42,581.67 682.83,587.74 694.73,593.74 704.27,598.38 721.24,606.4 732.8,612.31 742.76,618.38 746.31,620.83 752.64,625.9 758.97,632.31 763.19,637.97 766.23,644.04 769.27,654.26 770.28,660.67 770.36,671.82 768.93,679.5 764.12,690.98 760.57,696.38 757.28,700.51 751.62,706.42 746.22,711.23 739.05,716.72 725.54,725.33 715.92,730.56 709.5,733.94 703.0,737.4 693.8,742.21 685.19,746.69 670.93,754.03 653.29,763.23 635.14,772.94 623.32,779.27 615.39,783.57 604.25,789.65 595.47,794.46 579.26,803.33 567.7,809.74 557.15,815.65 548.54,820.38 533.34,828.82 522.45,834.89 509.2,842.24 493.58,850.93 475.52,861.06 461.76,868.66 452.65,873.81 439.06,881.4 422.77,890.44 407.57,898.88 385.2,911.37 368.66,920.66 352.11,930.02 340.3,936.69 334.39,940.07 309.83,954.17 297.33,961.34 281.97,970.03 264.24,980.08 253.02,986.33 247.36,989.28 239.01,993.33 226.68,997.64 218.75,999.24 211.15,1000.0 205.24,999.92 201.78,999.49 195.45,997.64 187.94,992.83 184.65,989.7 178.4,982.19 173.84,975.44 168.86,966.32 165.06,956.44 163.04,949.52 160.93,938.97 159.75,929.1 159.41,922.43 159.24,914.07 159.32,904.2 160.17,885.2 160.84,873.22 162.11,852.62 162.87,839.79 163.54,828.9 164.3,814.55 165.15,798.77 165.91,784.92 166.75,769.73 168.02,747.11 168.95,730.14 170.04,709.04 170.63,698.49 171.98,672.15 172.74,658.23 173.59,642.78 174.35,627.25 174.85,616.95 175.7,598.97 176.2,588.42"
    fill="none"
    stroke="#888"
    stroke-width="4"
    stroke-linejoin="round"
    stroke-linecap="round"
  />
</svg>
