<svg xmlns="http://www.w3.org/2000/svg" viewBox="0 0 1000 1000">
  <polyline
    points="248.52,678.8 255.31,670.32 263.61,659.59 267.67,654.07 272.72,647.05 276.84,641.42 283.05,632.83 288.27,625.64 295.18,616.24 302.08,606.66 310.38,594.65 315.55,587.05 321.18,578.52 330.52,564.59 336.5,556.12 342.01,548.51 347.75,541.03 358.78,528.03 370.27,516.77 383.56,507.72 390.12,504.7 402.3,500.99 410.37,499.59 427.78,498.78 447.74,500.12 458.71,501.62 470.55,502.96 478.79,503.42 497.24,502.84 512.97,499.54 525.1,495.01 535.6,489.32 541.75,485.2 551.1,477.77 557.83,471.56 567.35,461.99 573.5,455.84 587.89,442.32 594.85,436.17 600.89,431.12 608.14,425.31 615.86,420.67 620.79,419.1 627.41,418.64 630.6,418.93 633.62,419.57 637.68,421.08 640.41,422.64 643.43,424.97 647.95,430.13 649.98,433.96 650.74,435.93 651.84,439.36 653.0,444.81 653.46,448.29 653.87,452.76 654.28,457.11 655.5,464.77 657.35,470.4 658.75,473.31 661.82,477.72 666.29,482.18 668.96,484.16 674.59,486.48 676.27,486.65 681.61,485.09 684.45,483.11 688.57,479.11 692.17,474.64 694.09,471.74 696.29,467.97 699.66,460.6 701.05,456.82 702.44,452.7 704.94,443.83 706.97,434.42 708.36,423.92 708.54,421.6 708.3,410.46 706.8,399.43 705.29,393.11 702.39,384.58 697.39,374.25 694.38,369.2 688.86,361.3 685.5,357.24 673.95,345.87 667.28,340.24 657.12,332.4 654.51,330.43 642.9,321.32 633.21,313.37 626.07,307.39 618.99,301.3 605.82,289.98 593.11,279.13 584.35,271.59 574.08,262.82 563.81,253.89 558.29,249.07 552.08,243.56 540.24,233.23 529.04,223.36 516.34,212.22 514.19,210.36 499.91,197.95 493.41,192.32 483.32,183.5 473.22,174.5 467.53,169.45 460.63,163.24 452.91,156.28 445.94,150.24 441.71,146.7 434.8,141.25 419.37,131.73 413.45,129.24 408.17,127.5 399.34,125.87 386.23,125.87 376.6,128.13 369.34,131.73 365.28,134.81 361.97,138.58 359.19,142.93 356.81,147.46 353.56,156.34 352.57,162.55 352.28,166.9 352.05,171.25 351.82,176.24 351.35,183.03 348.97,193.54 345.32,200.15 343.05,202.99 336.84,208.39 331.45,211.35 328.43,212.4 324.72,213.09 321.41,213.21 316.53,212.4 313.28,211.0 312.35,210.48 309.22,208.33 304.81,204.04 302.9,201.49 300.23,196.73 298.78,193.19 297.21,187.79 296.28,181.99 296.11,177.46 296.22,173.69 297.27,164.69 298.89,157.21 299.76,154.13 301.04,150.36 304.52,141.25 308.47,132.49 311.48,126.57 317.06,116.18 321.64,108.11 325.99,101.32 334.41,89.72 338.76,84.32 345.55,76.66 351.12,70.97 366.9,56.81 376.25,49.79 388.32,42.19 396.04,38.3 402.36,35.46 414.61,30.76 422.15,28.32 432.42,25.48 435.03,24.84 447.34,22.23 455.34,20.83 471.42,18.63 493.41,16.25 508.21,14.74 524.98,13.06 538.1,11.61 549.41,10.39 558.87,9.34 572.16,7.78 580.63,6.73 591.02,5.4 605.18,3.48 614.64,2.32 624.1,1.28 637.33,0.17 650.33,0.23 658.4,1.33 675.57,6.38 687.94,12.94 697.86,20.37 702.97,25.13 712.54,37.49 717.59,46.95 724.55,64.24 726.76,71.03 728.73,77.88 731.46,88.32 733.32,96.16 736.97,112.99 738.13,119.37 740.28,132.25 742.14,145.89 743.01,153.2 744.28,166.14 745.33,180.07 745.97,193.13 746.26,205.37 746.43,214.77 747.01,230.85 748.81,251.74 750.78,263.93 754.09,278.73 759.6,297.76 765.41,313.72 773.3,333.8 775.85,341.69 778.64,357.3 778.52,364.26 776.61,378.6 774.29,389.04 771.67,399.26 769.41,408.6 767.21,419.68 766.1,428.04 765.76,434.6 766.22,443.3 767.32,449.45 771.27,460.65 774.81,467.62 778.75,474.29 782.0,479.57 786.59,487.58 789.78,494.66 792.28,503.08 792.91,507.02 793.15,514.16 791.7,523.39 788.79,532.27 784.21,541.38 781.19,546.02 776.84,551.42 768.25,558.84 753.22,567.32 740.8,574.57 731.34,582.75 725.19,589.08 717.71,597.55 711.67,605.33 706.56,612.93 702.62,619.49 694.49,634.46 689.56,644.38 686.14,651.35 680.8,662.26 673.95,676.53 667.8,689.36 665.88,693.42 661.24,703.17 654.16,717.91 650.21,726.21 644.18,738.63 637.27,752.84 631.59,764.57 626.71,774.72 619.75,789.17 614.82,799.44 609.94,809.54 602.86,824.11 598.28,833.62 590.62,849.12 586.79,856.84 583.36,863.74 575.64,879.12 572.16,885.91 566.48,896.88 561.66,906.16 551.15,925.84 548.49,930.77 541.52,942.95 533.86,955.66 528.23,964.02 521.62,972.55 514.36,980.62 512.62,982.3 502.99,989.84 495.04,994.25 485.23,998.03 472.99,1000.0 466.2,999.71 453.55,996.92 444.2,992.75 434.92,986.42 428.59,980.56 421.05,971.62 416.06,964.19 410.08,953.46 402.71,939.65 396.15,928.68 392.55,923.28 386.81,915.22 378.34,903.73 372.82,896.3 362.73,882.72 353.38,870.76 341.95,857.24 337.08,851.61 331.45,845.29 323.21,836.06 315.78,827.88 308.58,821.09 304.64,818.42 299.3,815.75 297.15,815.05 291.58,814.12 285.08,814.3 283.8,814.53 281.42,815.29 277.65,817.03 271.79,821.2 266.68,825.15 259.02,828.69 252.35,828.98 248.11,828.11 239.53,824.8 233.37,820.97 230.65,818.65 224.26,811.28 221.36,807.63 216.72,801.01 216.14,800.02 210.74,787.49 208.83,780.87 207.9,775.82 206.91,766.48 206.85,759.69 208.25,747.1 211.38,735.14 214.4,728.24 217.59,722.14 225.31,709.9 251.89,674.56 256.64,668.64 263.9,659.18 269.53,651.52 273.59,645.89 278.75,638.81 285.49,629.47 289.2,624.42 298.78,611.25 307.19,599.35 310.32,594.77 319.09,581.71 326.28,570.8 335.92,556.93 339.22,552.34 346.59,542.48 351.35,536.56 362.09,524.43 369.57,517.35 376.77,511.78 385.36,506.79 392.09,503.95 402.77,500.87 410.08,499.65 421.28,498.84 429.64,498.78 442.46,499.54 452.56,500.75 462.71,502.15 479.37,503.42 486.8,503.42 498.81,502.61 513.43,499.42 521.5,496.58 528.23,493.5 542.51,484.68 551.91,477.08 565.72,463.67 572.63,456.71 579.53,450.03 586.79,443.3 591.31,439.24 596.65,434.66 601.12,430.94 605.82,427.11 612.67,422.3 618.47,419.74 622.65,418.81 628.92,418.76 631.24,419.05 634.49,419.8 638.72,421.66 644.24,425.66 647.2,429.03 648.59,431.23 650.45,435.12 651.49,438.08 654.1,455.14 654.86,461.64 655.26,463.85 657.35,470.46 658.92,473.54 661.82,477.77 664.2,480.33 664.72,480.79 669.42,484.39 673.89,486.36 678.36,486.42 679.93,485.9 684.74,482.88 686.89,480.91 689.15,478.53 691.42,475.68 693.39,472.84 695.48,469.48 696.76,467.04 698.79,462.69 700.12,459.38 702.27,453.23 704.01,447.25 705.58,441.27 706.39,437.62 707.38,432.1 708.54,421.37 708.59,416.55 707.43,403.15 706.45,397.86 705.0,392.0 700.76,380.86 698.9,376.97 690.72,363.86 684.57,356.2 678.13,349.64 675.28,347.03 668.03,340.88 662.34,336.41 655.96,331.48 648.13,325.5 642.96,321.38 637.16,316.62 628.57,309.42 621.43,303.39 615.57,298.34 603.67,288.18 597.0,282.44 588.93,275.53 582.14,269.73 573.26,262.07 565.72,255.57 551.27,242.86 542.97,235.61 532.53,226.44 522.02,217.21 510.76,207.35 500.78,198.7 495.04,193.77 480.07,180.59 462.02,164.46 458.48,161.33 447.92,151.93 437.99,143.74 427.72,136.37 422.21,133.18 415.65,130.05 405.03,126.68 375.26,128.66 367.83,132.72 363.42,136.78 358.78,143.57 356.23,148.56 353.15,158.19 352.45,164.0 351.99,172.35 351.53,180.42 350.48,188.78 349.61,191.62 348.16,195.22 345.61,199.74 338.64,207.11 333.42,210.42 329.42,212.11 327.56,212.63 323.21,213.21 319.9,213.09 317.23,212.57 312.12,210.36 310.44,209.26 307.77,207.11 302.32,200.56 300.98,198.29 298.78,193.3 297.79,190.23 296.63,184.89 296.11,179.26 296.11,178.33 296.4,171.14 297.38,164.0 298.89,157.32 301.39,149.2 306.55,136.66 310.5,128.48 315.26,119.43 318.62,113.28 329.24,96.68 336.09,87.57 349.2,72.95 356.75,65.63 364.12,59.13 369.92,54.43 372.59,52.4 380.19,47.12 394.93,38.82 405.26,34.3 411.76,31.8 421.86,28.44 441.71,23.33 453.2,21.18 460.39,20.08 473.1,18.45 485.0,17.18 509.02,14.68 522.08,13.35 571.29,7.89 586.55,5.98 592.24,5.22 605.65,3.48 615.11,2.26 627.52,0.93 641.22,0.0 647.02,0.0 658.75,1.39 665.88,3.08 675.92,6.56 682.19,9.58 694.72,17.82 704.47,26.69 711.38,35.57 716.66,44.97 720.37,53.1 722.99,59.77 725.6,67.37 727.92,75.09 730.7,85.54 732.45,92.56 734.53,101.32 736.04,108.46 738.77,122.74 739.93,129.99 741.27,139.1 743.65,159.41 744.28,165.91 745.15,177.05 745.79,189.24 746.31,207.17 746.43,214.72 746.78,225.16 747.13,233.69 747.71,241.93 749.16,254.24 751.13,265.49 755.25,283.14 758.1,293.12 763.67,309.19 772.37,331.13 776.72,345.06 778.29,353.59 778.64,362.23 775.5,383.82 771.91,398.5 769.93,406.22 767.79,416.49 765.76,435.82 766.05,442.2 769.99,457.69 774.11,466.28 782.12,479.75 786.24,486.94 792.33,503.19 793.2,513.64 792.39,520.19 791.0,526.06 785.49,539.17 781.48,545.61 775.21,553.04 770.4,557.28 758.39,564.65 750.26,568.88 739.35,575.67 730.07,584.03 723.39,591.05 715.04,600.86 707.72,611.13 703.78,617.51 700.3,623.61 693.56,636.32 688.98,645.54 684.05,655.58 678.71,666.55 676.44,671.37 670.64,683.38 666.41,692.26 662.05,701.37 658.92,707.99 652.19,722.03 646.56,733.69 642.5,742.05 637.22,753.02 631.06,765.61 626.6,774.95 618.82,791.2 612.61,804.03 605.99,817.66 600.6,828.86 596.36,837.45 590.85,848.71 586.09,858.23 580.05,870.3 572.22,885.74 567.46,895.02 558.12,912.84 550.92,926.24 545.47,936.11 541.7,942.66 532.99,957.0 526.14,966.86 521.56,972.61 516.39,978.53 509.89,984.74 499.45,991.99 496.66,993.5 489.06,996.81 480.3,999.19 470.61,1000.0 458.3,998.32 455.63,997.62 449.77,995.47 441.77,991.3 434.8,986.3 429.93,981.95 423.08,974.23 418.67,968.31 413.97,960.65 413.21,959.32 406.66,946.96 401.38,937.27 395.05,927.0 390.41,920.21 386.52,914.81 382.05,908.72 375.49,899.9 365.34,886.26 359.01,877.9 349.44,866.01 339.57,854.4 333.13,847.2 326.92,840.3 322.34,835.07 313.46,825.44 304.69,818.42 301.62,816.79 297.56,815.11 294.31,814.36 290.65,814.07 286.7,814.07 281.6,815.17 279.22,816.21 276.61,817.66 273.88,819.64 267.5,824.51 261.06,828.05 253.69,829.1 248.06,828.05 244.69,827.01 241.44,825.73 237.84,823.93 230.18,818.13 227.74,815.52 225.02,812.21 221.07,807.22 216.83,801.18 213.35,794.39 211.61,790.1 209.76,784.41 208.01,776.58 207.2,770.19 206.8,762.19 207.61,751.28 210.68,737.41 216.72,723.71 223.39,712.69 227.05,707.58 231.63,701.2 237.32,693.42 245.15,683.09 252.93,673.28 257.63,667.36 264.36,658.6 270.98,649.49 280.73,636.03 284.91,630.28 290.71,622.33 294.95,616.53 298.14,612.12 309.69,595.69 315.89,586.53 320.02,580.37 330.93,564.07 337.95,554.09 345.26,544.22 351.76,536.04 355.47,531.74 363.36,523.21 370.15,516.89 376.02,512.3 388.9,505.16 420.87,498.84 429.29,498.78 444.03,499.65 452.39,500.75 462.54,502.15 475.54,503.31 495.1,503.02 510.53,500.29 521.27,496.63 532.18,491.35 532.99,490.89 544.6,483.11 553.13,475.97 559.86,469.59 568.22,461.12 576.46,452.99 583.94,445.91 592.07,438.6 597.41,434.02 600.83,431.17 605.12,427.69 610.81,423.46 614.12,421.48 617.78,419.92 627.35,418.64 632.46,419.28 639.3,421.95 640.81,422.88 644.82,426.24 646.73,428.45 649.05,431.99 651.03,436.75 653.06,445.16 653.41,447.77 653.93,452.94 654.22,456.3 654.68,460.31 656.25,467.62 657.93,471.8 659.09,473.83 660.95,476.61 664.72,480.85 667.8,483.34 669.42,484.39 674.53,486.48 677.26,486.59 682.83,484.33 684.8,482.82 688.69,478.99 692.69,473.89 695.65,469.13 697.57,465.36 698.85,462.57 700.76,457.64 701.86,454.45 703.72,448.47 705.81,440.17 706.62,436.4 708.01,427.4 708.36,423.86 708.59,415.39 707.72,405.18 706.85,399.84 702.39,384.52 697.97,375.35 693.8,368.33 692.17,365.83 687.12,359.16 679.87,351.27 669.83,342.33 662.29,336.29 655.15,330.84 647.31,324.86 636.93,316.45 629.15,309.95 616.73,299.33 607.45,291.38 598.1,283.37 594.04,279.89 581.1,268.8 573.56,262.36 565.31,255.22 558.41,249.19 550.81,242.46 537.58,230.85 511.52,207.99 505.08,202.41 497.24,195.62 485.75,185.58 480.01,180.59 472.93,174.27 463.18,165.51 457.55,160.46 446.35,150.59 429.64,137.53 423.43,133.82 407.87,127.38 400.21,125.93 388.14,125.75 377.35,127.84 369.92,131.33 362.78,137.59 359.53,142.24 354.83,151.93 353.56,156.16 352.8,160.81 352.05,170.73 351.53,180.48 351.0,185.53 348.97,193.42 344.21,201.66 338.3,207.35 334.06,210.07 330.46,211.7 323.09,213.21 315.78,212.11 312.3,210.48 306.15,205.55 304.06,203.11 301.85,199.8 299.07,193.94 297.21,187.85 296.45,183.67 296.11,175.72 296.63,168.93 298.78,157.61 301.1,150.01 303.88,142.76 307.19,135.33 310.03,129.47 313.11,123.49 316.01,118.04 322.63,106.55 325.76,101.67 327.85,98.6 336.9,86.58 342.42,80.08 349.55,72.6 360.17,62.5 372.42,52.58 378.51,48.22 382.05,45.9 393.13,39.75 400.16,36.44 414.78,30.7 421.45,28.55 430.04,26.11 443.1,23.04 459.06,20.25 470.49,18.74 480.53,17.64 489.76,16.66 506.41,14.91 527.88,12.71 539.2,11.49 554.35,9.81 563.81,8.76 579.07,6.96 590.56,5.45 603.04,3.83 618.3,1.86 626.02,1.1 643.19,0.0 654.22,0.64 666.0,3.13 678.71,7.78 689.68,14.1 705.29,27.56 713.93,39.87 720.32,52.92 724.15,62.96 728.38,76.72 731.57,88.96 733.26,95.98 736.91,112.87 738.48,121.34 740.51,134.11 745.15,177.58 745.91,191.62 746.14,200.09 746.37,212.4 746.61,220.0 747.01,230.44 747.48,238.97 749.74,257.89 750.9,264.51 753.16,274.84 755.25,283.25 761.46,303.33 764.13,310.53 772.26,330.84 777.36,348.02 778.64,362.12 777.94,370.47 776.38,379.64 775.21,385.04 773.53,392.06 768.43,413.01 766.63,423.4 765.76,438.31 766.8,446.9 769.35,456.01 772.89,464.02 774.75,467.5 779.63,475.74 784.44,483.75 787.58,489.61 790.54,496.75 793.2,509.92 793.03,515.78 791.99,522.34 789.9,529.42 786.36,537.55 780.96,546.37 746.08,571.15 738.6,576.25 730.94,583.1 720.49,594.3 713.24,603.18 707.72,611.13 706.39,613.22 699.66,624.83 695.25,633.07 689.44,644.56 684.11,655.52 679.11,665.74 676.04,672.12 672.56,679.38 666.0,693.19 665.19,694.81 661.3,702.99 657.35,711.23 651.03,724.47 647.02,732.82 644.99,737.0 635.59,756.33 630.31,767.24 622.13,784.3 619.23,790.27 610.75,807.8 603.27,823.29 597.0,836.23 593.17,844.01 586.73,856.95 584.99,860.43 578.08,874.25 571.52,887.13 562.82,903.96 562.35,904.83 557.19,914.69 549.94,928.04 545.35,936.28 540.19,945.22 539.26,946.84 528.75,963.27 520.98,973.31 512.45,982.42 507.75,986.48 501.48,990.77 496.14,993.73 490.05,996.4 482.16,998.78 471.83,1000.0 462.31,999.19 453.78,996.98 441.36,991.06 437.3,988.28 431.26,983.17 423.78,975.16 418.09,967.39 414.9,962.22 408.98,951.43 401.96,938.31 398.71,932.74 392.55,923.22 384.31,911.79 375.73,900.24 369.17,891.36 361.57,881.27 355.82,873.84 351.58,868.56 343.4,858.87 336.38,850.8 330.0,843.72 320.31,832.75 317.11,829.21 312.99,824.98 309.8,822.08 305.16,818.71 302.26,817.08 297.67,815.17 293.84,814.3 291.06,814.07 287.58,814.07 283.17,814.71 277.07,817.37 272.02,821.03 266.28,825.38 257.86,828.92 254.9,829.16 250.26,828.63 243.36,826.54 239.18,824.69 233.08,820.74 231.34,819.29 228.38,816.27 220.61,806.64 217.71,802.58 213.3,794.45 210.22,785.86 208.88,781.05 207.84,775.36 206.91,766.07 206.91,757.95 208.42,746.11 210.1,739.15 212.02,733.58 219.21,719.3 221.59,715.41 229.89,703.63 235.64,695.74 240.92,688.6"
    fill="none"
    stroke="#888"
    stroke-width="4"
    stroke-linejoin="round"
    stroke-linecap="round"
  />
</svg>
