<svg xmlns="http://www.w3.org/2000/svg" viewBox="0 0 1000 1000">
  <polyline
    points="775.89,425.02 778.06,427.5 779.63,429.32 781.05,430.99 783.43,433.77 785.35,436.05 787.88,438.99 789.55,440.96 793.15,445.16 795.78,448.25 799.47,452.55 802.66,456.3 805.09,459.13 806.76,461.1 807.67,462.12 809.8,464.6 818.5,474.77 823.26,480.34 827.26,485.04 829.18,487.22 831.21,489.6 832.93,491.62 834.65,493.65 838.04,497.6 843.0,503.47 847.0,508.12 850.24,511.87 852.87,514.96 857.48,520.37 861.68,525.23 865.22,529.38 866.43,530.8 869.07,533.89 870.48,535.5 871.34,536.52 871.55,536.77 871.7,536.92 871.7,536.92 871.7,536.92 871.7,536.92 871.7,536.92 871.7,536.92 871.7,536.92 871.7,536.92 871.7,536.92 871.7,536.92 871.7,536.92 871.7,536.92 871.7,536.92 871.7,536.92 871.7,536.92 871.7,536.92 871.7,536.92 871.7,536.92 871.7,536.92 871.7,536.92 871.7,536.92 871.7,536.92 871.7,536.92 871.7,536.92 871.7,536.92 871.7,536.92 871.7,536.92 871.7,536.92 871.7,536.92 871.7,536.92 871.7,536.92 871.7,536.92 871.7,536.92 871.7,536.92 871.7,536.92 871.7,536.92 871.7,536.92 871.7,536.92 871.7,536.92 871.7,536.92 871.7,536.92 871.7,536.92 871.7,536.92 871.7,536.92 871.7,536.92 871.7,536.92 871.7,536.92 871.7,536.92 871.7,536.92 871.7,536.92 871.7,536.92 871.7,536.92 871.7,536.92 871.7,536.92 871.7,536.92 871.7,536.92 871.7,536.92 871.7,536.92 871.7,536.92 871.7,536.92 871.7,536.92 871.7,536.92 871.7,536.92 871.7,536.92 871.7,536.92 871.7,536.92 871.7,536.92 871.7,536.92 871.7,536.92 871.7,536.92 871.7,536.92 871.7,536.92 871.7,536.92 871.7,536.92 871.7,536.92 871.7,536.92 871.7,536.92 871.7,536.92 871.7,536.92 871.7,536.92 871.7,536.92 871.7,536.92 871.65,536.92 871.65,536.92 871.65,536.92 871.65,536.92 871.65,536.92 871.65,536.92 871.65,536.92 871.65,536.92 871.65,536.92 871.65,536.92 871.65,536.92 871.65,536.92 871.65,536.92 871.65,536.92 871.65,536.87 871.65,536.87 871.65,536.87 871.65,536.87 871.65,536.87 871.65,536.87 871.65,536.87 871.65,536.87 871.65,536.87 871.65,536.87 871.65,536.87 871.65,536.87 871.8,537.07 873.06,538.49 875.7,541.58 879.44,545.98 884.55,552.0 887.03,554.94 897.61,567.39 905.0,576.2 916.69,589.86 926.76,601.71 932.28,608.23 944.78,622.86 960.32,641.13 973.53,656.72 992.26,680.31 998.08,693.16 1000.0,707.89 998.53,718.57 993.37,736.89 986.84,747.42 976.06,754.4 969.03,756.23 960.32,756.53 949.49,753.9 936.38,743.57 927.62,730.67 916.89,711.89 909.66,699.39 899.84,685.27 884.15,669.98 869.02,663.45 852.01,661.68 840.87,660.06 828.47,654.24 820.43,647.0 811.87,628.99 808.53,617.29 804.03,602.11 796.34,589.46 786.37,581.26 776.75,576.85 767.18,574.88 753.77,573.97 738.49,572.35 723.25,566.43 712.42,557.82 708.88,553.98 701.34,540.26 700.07,529.28 702.3,519.41 706.09,509.95 710.75,498.36 716.72,481.5 716.98,468.39 712.88,457.56 707.87,450.43 696.43,441.16 684.53,435.39 674.76,431.04 659.99,426.08 645.16,423.25 628.5,422.13 612.06,422.94 590.19,429.12 576.68,435.55 562.61,444.3 549.7,456.35 540.54,468.19 532.19,479.43 524.55,489.55 508.1,509.74 498.99,519.76 483.96,525.48 463.36,529.03 447.41,531.46 438.4,532.16 423.83,530.85 414.26,525.18 409.76,517.69 407.63,510.86 406.67,504.02 405.61,494.71 403.18,483.07 400.7,471.78 398.72,462.47 395.69,448.55 392.5,433.77 387.64,410.34 385.16,397.43 382.78,378.76 386.12,356.89 392.55,341.2 398.17,329.46 400.85,322.33 401.71,314.78 400.24,310.03 395.28,305.17 390.98,304.16 386.78,304.71 383.19,306.48 380.4,308.86 376.61,314.02 373.17,320.45 368.66,329.06 363.09,338.82 357.48,347.94 345.78,365.6 336.42,378.0 315.16,396.52 300.03,403.76 286.21,406.59 269.16,408.27 244.31,407.51 228.72,404.77 213.18,400.52 193.29,393.44 183.77,389.59 158.11,375.62 149.81,369.45 130.38,349.81 123.44,340.14 112.61,318.93 104.21,299.14 97.58,283.81 91.66,271.97 80.52,254.3 68.07,246.05 26.98,246.46 19.54,249.14 8.45,256.38 1.62,267.82 0.0,276.98 1.11,286.44 8.71,303.24 17.21,313.27 31.08,325.46 45.55,336.34 59.47,346.26 75.67,356.94 85.33,362.92 101.68,372.48 115.35,379.92 124.66,384.88 146.57,395.61 167.98,404.87 182.71,410.44 203.61,417.78 224.11,424.71 247.04,432.46 268.65,439.64 294.26,448.25 309.04,453.21 327.82,459.54 356.16,469.05 375.9,475.63 396.45,482.56 415.22,488.84 432.53,490.61 456.17,483.53 482.69,470.57 495.85,462.02 511.74,449.72 525.41,437.11 540.59,422.79 552.84,410.59 568.73,394.65 576.32,387.21 582.25,382.2 589.38,377.8 593.33,376.28 604.01,375.16 608.77,377.09 613.68,381.24 621.77,385.44 627.49,385.54 634.63,383.01 639.64,379.11 644.3,374.56 652.75,367.83 664.79,363.02 681.04,362.11 701.13,365.7 716.57,371.42 726.14,376.53 736.71,383.62 746.38,392.12 761.36,407.86 772.6,421.12 789.45,440.86 798.36,451.29 809.9,464.75 829.39,487.47 844.92,505.69 858.59,521.64 872.41,537.73 889.97,558.38 905.76,577.06 918.67,592.24 934.81,611.17 943.42,621.24 955.71,635.72 973.73,657.03 981.93,666.89 993.32,682.03 999.09,697.62 999.6,712.8 996.51,726.92 992.96,737.9 982.74,750.91 971.51,755.77 963.26,756.63 952.98,755.16 942.3,749.6 935.11,742.0 929.75,734.01 923.52,723.68 918.51,714.77 911.07,701.77 906.77,694.88 895.08,679.6 879.74,667.35 863.65,662.54 853.73,661.78 840.87,660.06 833.18,657.13 819.21,645.54 813.29,633.79 810.41,623.82 805.6,607.17 800.23,594.37 787.83,582.17 770.83,575.39 762.12,574.43 747.04,573.51 736.51,571.95 726.09,568.0 714.24,559.6 705.74,549.63 700.48,536.62 700.73,524.57 704.32,514.3 711.15,497.29 714.8,487.88 717.48,476.04 714.39,460.65 701.49,444.45 687.06,436.56 673.3,430.43 657.25,425.42 643.18,422.99 620.1,422.34 598.19,426.18 585.03,431.34 567.21,441.06 548.94,457.21 538.92,470.42 526.17,487.37 513.56,503.21 504.05,514.55 488.31,524.62 471.15,527.71 460.27,529.48 443.11,531.91 427.73,531.56 420.23,529.63 407.83,511.77 406.72,504.33 405.05,491.52 402.87,481.75 399.89,467.89 396.55,452.55 392.45,433.37 387.69,410.44 383.79,389.18 383.69,366.81 388.6,350.06 393.31,339.63 397.26,331.44 400.5,323.44 401.71,315.14 399.89,309.42 396.14,305.67 390.73,304.16 385.16,305.37 380.15,309.17 376.56,314.23 373.01,320.86 369.12,328.2 363.04,338.93 358.89,345.66 349.83,359.53 342.14,370.76 330.75,384.02 320.02,393.08 311.32,398.85 296.34,404.77 278.27,407.51 257.47,408.52 241.37,407.1 203.92,397.38 184.18,389.74 165.76,380.63 149.71,369.39 140.75,361.4 123.85,340.75 116.0,326.63 107.3,306.53 98.14,284.97 90.6,269.94 81.99,255.92 70.2,246.96 55.12,243.42 40.44,243.83 28.29,246.05 13.21,252.53 8.25,256.58 1.82,267.16 0.0,277.38 2.43,290.69 6.12,298.99 12.1,307.7 18.17,314.23 29.0,323.84 36.54,329.66 45.96,336.65 56.79,344.39 74.3,356.08 90.6,366.05 112.87,378.56 127.34,386.3 147.13,395.86 163.43,403.05 180.74,409.73 201.64,417.07 217.48,422.49 242.69,430.99 264.25,438.18 286.31,445.57 301.09,450.53 319.06,456.6 337.89,462.93 352.87,467.94 369.47,473.5 393.21,481.5 410.52,487.32 430.05,490.81 461.84,481.2 483.2,470.27 503.29,456.6 517.97,444.1 529.71,433.07 544.74,418.74 562.66,400.77 572.53,390.9 585.74,379.77 590.8,377.19 598.29,375.11 607.15,376.18 611.4,379.21 620.2,385.08 625.97,385.69 633.57,383.62 640.55,378.2 651.58,368.64 678.11,362.01 690.61,363.12 703.26,366.36 717.43,371.77 725.23,375.97 741.67,387.72 753.01,398.75 769.46,417.43 778.27,427.75 790.87,442.48 806.81,461.1 818.96,475.33 827.66,485.45 838.5,498.15 853.63,515.87 866.33,530.7 878.02,544.36 893.36,562.38 907.78,579.39 925.5,600.29 936.89,613.6 952.07,631.42 970.85,653.63 982.89,668.06 992.31,680.41 1000.0,706.52 997.57,722.77 995.09,731.93 989.47,744.23 977.88,753.69 965.74,756.58 949.89,754.1 940.38,747.92 929.5,733.6 923.47,723.58 917.3,712.6 911.63,702.63 901.46,687.34 867.04,663.05 849.28,661.48 838.55,659.4 830.14,655.41 816.38,641.13 811.57,628.02 807.77,614.66 802.81,599.07 792.74,585.97 780.7,578.27 769.97,575.24 760.0,574.32 748.2,573.62 736.92,572.05 723.1,566.28 714.09,559.44 705.44,549.17 700.37,536.16 700.88,523.96 703.87,515.31 707.26,507.11 712.67,493.4 717.18,478.87 715.81,464.14 712.42,456.8 703.97,446.48 689.04,437.47 672.44,430.08 658.21,425.68 638.17,422.49 619.19,422.39 603.7,424.51 590.34,429.07 569.59,439.54 550.36,455.64 533.15,478.16 522.57,492.08 512.3,504.73 505.92,512.32 492.61,523.41 470.44,527.81 453.54,530.54 435.92,532.16 426.87,531.46 415.48,526.44 410.37,519.11 407.73,511.26 406.67,504.02 405.51,493.95 402.67,480.74 400.65,471.48 397.66,457.61 394.73,444.05 390.98,426.59 388.7,415.5 385.16,397.23 383.39,386.25 383.44,368.38 386.88,354.67 395.84,334.42 398.93,327.74 401.76,315.85 400.04,309.62 394.22,304.71 390.37,304.16 384.81,305.57 380.5,308.76 375.34,316.25 371.39,323.89 367.45,331.23 360.87,342.52 350.9,357.96 345.89,365.45 338.19,375.87 327.46,387.06 310.51,399.31 294.67,405.13 274.32,407.91 256.25,408.47 236.31,406.34 220.77,402.75 206.75,398.4 184.03,389.69 168.99,382.55 151.69,370.96 136.86,357.35 123.39,340.09 115.3,325.06 106.29,304.16 97.48,283.61 85.03,260.07 70.3,247.01 58.31,243.67 46.01,243.37 35.02,244.58 25.0,247.06 12.91,252.68 5.01,260.63 1.06,269.69 0.0,277.13 1.67,288.47 7.44,301.32 14.02,309.87 26.62,321.92 37.3,330.27 49.85,339.48 66.66,351.12 86.09,363.37 97.23,369.95 117.93,381.29 132.6,388.88 152.7,398.4 174.21,407.3 193.54,414.29 216.17,422.03 239.09,429.78 259.84,436.71 276.95,442.43 301.4,450.63 324.17,458.32 344.67,465.2 365.27,472.09 395.43,482.21 406.47,485.96 430.0,490.81 468.57,478.16 492.91,464.04 513.41,448.25 527.13,435.44 549.09,414.39 560.53,402.9 571.26,392.17 580.93,383.26 587.21,378.91 598.09,375.11 605.07,375.42 611.2,379.01 616.31,383.26 623.8,385.69 630.63,384.83 637.16,381.29 640.45,378.35 649.05,370.46 657.46,365.24 669.3,362.36 680.03,362.06 695.82,364.28 707.16,367.67 730.84,379.52 741.98,387.97 754.33,400.07 778.17,427.65"
    fill="none"
    stroke="#888"
    stroke-width="4"
    stroke-linejoin="round"
    stroke-linecap="round"
  />
</svg>
