<svg xmlns="http://www.w3.org/2000/svg" viewBox="0 0 1000 1000">
  <polyline
    points="436.74,565.22 445.44,564.23 453.68,563.29 457.88,562.82 465.65,561.95 479.26,560.37 492.52,558.85 502.22,557.8 512.09,556.69 522.08,555.52 530.61,554.59 536.92,553.89 543.17,553.13 561.51,551.08 568.75,550.27 575.24,549.51 592.3,547.58 603.51,546.41 612.45,545.71 616.25,545.36 623.78,544.42 629.21,543.26 640.49,538.29 645.45,533.56 648.96,527.25 650.18,523.45 650.88,519.95 651.35,515.68 651.64,509.61 651.64,506.57 651.29,497.98 650.77,492.26 649.72,484.67 649.07,480.46 647.61,472.17 647.15,469.89 645.86,463.52 644.69,458.2 640.72,442.61 638.97,436.12 636.92,428.82 635.17,422.81 633.42,417.37 631.49,412.0 622.85,395.12 614.84,387.11 606.14,381.8 602.69,380.28 586.04,374.73 578.8,372.33 571.5,369.76 557.01,364.62 551.23,362.11 544.28,357.26 538.14,351.36 536.28,349.26 530.38,341.32 526.46,334.25 524.24,329.11 523.31,326.42 521.96,321.69 521.2,318.07 520.68,314.85 520.33,310.82 520.21,304.11 520.45,299.26 520.68,296.45 521.03,292.77 521.61,288.28 522.26,283.54 522.84,279.51 524.18,271.22 525.12,265.44 525.99,260.35 527.45,251.77 528.62,245.52 529.56,240.2 530.32,236.05 531.49,229.16 532.48,223.44 533.82,214.21 534.58,208.19 535.22,201.94 535.69,195.57 536.04,187.63 536.16,177.35 536.16,165.43 535.92,151.76 535.52,140.25 535.22,132.78 534.64,120.8 534.29,115.25 533.53,104.91 532.65,92.65 531.89,82.89 531.54,78.98 530.78,69.81 530.38,64.72 529.67,57.66 528.97,50.65 528.21,44.51 527.57,39.66 526.46,33.47 525.47,29.09 524.65,25.88 523.48,22.2 521.85,17.99 519.8,13.9 516.71,9.35 515.3,7.65 513.2,5.61 511.39,4.09 509.76,2.92 507.36,1.64 502.92,0.23 499.24,0.18 495.79,0.93 493.98,1.64 489.43,4.32 487.91,5.49 484.58,8.59 483.0,10.4 480.78,13.49 478.27,17.76 476.87,20.68 476.05,22.61 475.47,24.01 474.01,27.81 468.51,44.51 465.3,54.85 463.37,60.98 462.26,64.43 460.51,70.16 456.77,81.96 454.9,87.86 452.04,97.14 449.18,106.14 445.97,116.13 443.45,123.66 439.89,134.12 434.69,148.96 430.84,159.88 428.79,165.9 424.7,177.52 420.85,188.56 418.04,196.57 415.47,203.87 409.4,221.16 407.06,227.88 402.91,239.73 396.96,256.85 393.33,267.31 390.01,276.89 385.97,288.39 381.3,301.77 374.35,321.57 369.91,334.31 367.05,342.54 364.13,350.78 360.27,361.88 357.64,369.36 351.45,387.06 350.75,388.92 345.84,403.18 341.81,414.57 336.44,429.93 333.4,438.58 322.48,469.65 317.51,483.32 314.3,492.14 309.33,505.93 306.47,513.76 302.91,523.57 294.91,545.65 291.23,555.41 288.25,563.23 280.36,584.32 278.26,590.34 274.69,600.91 271.19,611.78 268.91,619.78 266.93,630.99 266.58,636.37 266.63,639.46 267.51,645.6 269.38,650.51 271.66,653.13 273.7,654.19 275.57,654.54 277.91,654.54 280.54,654.19 282.99,653.72 285.33,653.25 287.78,652.78 290.47,652.37 291.81,652.2 294.56,652.14 298.18,652.67 300.4,653.48 302.97,655.06 305.19,657.28 307.41,660.73 309.33,665.11 310.15,667.5 311.26,670.95 312.08,673.93 313.6,679.77 315.12,686.02 316.17,690.29 317.28,694.67 318.68,700.22 320.96,708.39 322.95,714.64 324.81,719.9 327.44,726.44 330.01,732.4 332.82,738.36 334.92,742.16 342.57,755.07 345.08,758.86 352.27,768.97 358.75,777.03 366.29,785.56 379.32,798.35 391.47,809.04 398.65,815.18 413.43,827.62 420.97,833.99 429.2,840.94 439.66,849.82 448.07,856.88 456.6,864.13 465.89,871.96 473.83,878.61 485.4,888.43 501.52,901.86 511.27,909.75 518.11,915.07 528.27,922.54 534.64,926.98 541.88,931.95 548.37,936.21 558.3,942.4 567.59,947.89 577.93,953.5 584.12,956.6 600.3,964.02 614.78,970.44 639.26,980.84 649.19,984.64 661.57,989.49 674.72,994.68 684.88,998.42 692.36,999.94 699.14,999.82 705.74,998.42 714.32,994.8 720.81,990.42 724.49,986.86 729.98,978.91 732.67,971.14 733.37,965.89 733.37,962.09 733.02,957.77 731.56,950.76 729.63,944.92 727.0,939.13 724.72,935.04 721.1,929.61 714.32,921.67 709.01,917.17 701.71,913.2 692.36,910.74 682.43,909.46 669.58,908.29 662.39,906.83 656.49,905.72 646.74,904.26 633.71,902.97 617.82,901.75 615.43,901.57 607.31,900.99 600.06,900.4 589.26,899.53 579.27,898.48 571.85,897.37 564.55,895.55 557.48,893.04 545.15,886.91 537.74,882.53 530.78,878.09 521.09,871.14 513.9,865.41 507.48,859.16 498.31,846.43 494.51,837.9 491.59,828.49 490.24,822.95 488.84,816.05 487.32,805.89 486.86,799.35 486.86,793.91 487.09,789.82 487.73,784.57 489.02,779.6 490.19,777.03 495.21,771.89 497.49,770.9 500.58,770.08 503.56,769.61 514.95,769.85 519.39,770.31 524.53,770.66 528.97,770.37 532.95,769.44 537.44,767.39 542.41,763.95 547.43,759.68 551.81,754.6 555.26,746.36 555.79,743.68 556.37,739.12 556.84,733.45 557.13,726.62 557.01,722.12 556.37,716.81 554.56,710.67 551.35,704.42 549.07,701.56 545.56,698.11 542.41,695.6 536.57,691.98 533.59,690.64 527.98,688.94 520.21,688.18 513.55,688.42 504.15,689.47 498.66,690.29 496.79,690.58 487.91,691.92 480.72,692.91 471.84,694.08 464.78,694.96 457.59,695.95 448.07,697.47 446.61,697.76 438.37,699.16 420.09,702.2 407.0,703.08 399.53,702.2 389.77,699.4 377.15,693.26 364.59,681.11 359.98,673.93 358.23,671.07 354.49,664.76 350.34,657.87 344.91,648.87 340.59,641.1 336.5,632.63 334.28,626.79 332.53,621.12 330.6,612.3 329.55,594.02 329.84,590.69 330.19,588.7 331.42,584.03 335.8,577.43 337.72,576.03 342.28,574.04 348.24,572.81 357.29,572.05 362.2,571.65 364.19,571.35 369.85,570.54 376.39,569.89 381.54,569.54 386.15,569.31 394.8,568.9 406.71,568.26 412.73,567.97 418.1,567.56 424.76,566.68 433.41,565.57 445.21,564.23 456.6,562.94 463.61,562.18 473.83,561.01 490.77,559.09 495.74,558.5 508.24,557.1 515.83,556.22 525.99,555.11 537.09,553.83 549.13,552.49 561.28,551.08 572.61,549.8 587.45,548.16 602.23,546.47 612.68,545.71 621.97,544.66 629.86,543.08 640.78,538.06 643.76,535.49 647.73,530.05 650.77,520.82 651.29,516.91 651.64,508.97 651.41,500.26 651.06,495.47 650.13,487.06 648.49,476.96 646.8,468.13 643.99,455.05 640.84,442.9 638.15,433.2 636.57,427.48 634.18,419.59 630.56,409.6 627.11,401.95 621.91,393.95 620.45,392.2 611.57,384.84 605.38,381.39 590.78,376.13 582.95,373.74 571.32,369.71 565.07,367.49 560.34,365.85 548.72,360.65 544.1,357.21 532.83,345.11 525.35,332.32 521.85,322.16 521.15,318.94 520.04,309.95 519.98,304.05 520.97,292.25 521.79,286.35 523.07,278.0 525.53,262.87 527.4,251.88 529.27,241.66 531.13,231.21 532.89,220.69 534.99,204.68 535.81,193.82 536.16,182.9 536.16,165.43 535.98,153.34 535.34,135.81 535.11,129.56 534.64,121.15 533.76,108.13 532.54,91.3 531.49,78.33 530.9,71.03 530.03,61.34 529.21,53.04 527.81,41.3 526.4,33.0 524.94,26.64 523.31,21.44 522.2,18.69 518.58,11.8 515.83,8.12 512.5,4.85 510.46,3.27 507.24,1.46 499.24,0.0 494.74,1.17 492.93,1.99 489.54,4.15 487.5,5.72 484.4,8.65 481.07,12.97 478.33,17.64 475.35,24.07 473.01,30.49 471.55,35.05 469.97,39.84 468.22,45.45 466.76,50.24 464.66,56.9 464.13,58.59 461.68,66.36 458.99,75.06 457.53,79.5 455.49,86.04 452.98,94.11 449.71,104.5 446.49,114.55 440.53,132.19 439.25,135.99 433.35,152.81 428.21,167.42 425.4,175.48 421.72,186.05 417.64,197.68 413.25,210.23 409.69,220.46 406.65,229.04 401.22,244.7 400.29,247.33 397.83,254.34 394.15,264.97 389.19,279.22 386.68,286.41 383.81,294.58 380.31,304.52 377.74,311.82 373.94,322.8 370.09,333.84 366.81,343.07 362.61,355.16 358.99,365.44 356.07,373.91 352.44,384.19 349.17,393.6 343.86,408.73 339.54,421.05 335.56,432.44 333.87,437.23 329.55,449.62 326.22,459.2 321.78,471.64 316.87,485.08 314.42,491.79 311.67,499.5 308.17,509.2 303.9,520.77 298.64,535.31 297.94,537.24 291.93,553.6 288.31,563.12 283.75,575.09 282.81,577.72 277.79,591.68 274.46,601.73 273.0,606.23 270.72,613.35 269.09,619.14 267.33,627.67 266.81,632.4 266.63,637.3 266.93,642.09 267.45,645.25 268.5,648.69 270.14,651.56 271.6,653.08 273.76,654.19 276.51,654.59 279.43,654.42 282.64,653.83 286.38,653.08 291.52,652.26 292.8,652.14 295.96,652.26 299.29,653.02 302.03,654.36 304.6,656.58 307.29,660.49 309.1,664.41 310.39,667.97 311.9,673.29 314.07,681.76 315.06,685.79 316.93,693.32 317.8,696.94 319.21,702.26 321.84,711.2 324.41,718.73 326.51,724.11 329.25,730.77 332.41,737.48 337.32,746.6 340.64,752.03 343.68,756.82 346.49,760.97 356.71,774.52 360.51,779.13 371.84,791.28 380.31,799.29 387.9,806.01 393.74,811.03 400.99,817.16 408.99,823.88 415.07,829.02 428.03,839.94 438.43,848.76 445.44,854.66 456.71,864.19 463.08,869.56 470.97,876.22 480.31,884.16 488.32,890.88 493.46,895.15 503.91,903.85 509.29,908.17 515.36,912.9 531.02,924.47 537.44,928.91 546.44,934.93 560.63,943.81 567.47,947.84 577.93,953.5 586.8,957.88 598.6,963.32 619.11,972.37 635.35,979.26 647.03,983.82 665.37,991.0 673.14,994.04 680.33,996.85 688.21,999.24 697.32,1000.0 702.99,999.12 714.56,994.68 722.73,988.67 728.4,981.77 731.09,976.52 732.96,969.68 733.42,964.54 732.84,956.66 732.72,956.13 729.51,944.68 726.71,938.49 723.79,933.52 720.05,928.21 714.03,921.43 708.83,917.05 704.51,914.42 697.03,911.74 687.34,909.98 671.62,908.52 665.96,907.59 656.49,905.72 649.02,904.55 639.9,903.56 633.65,902.97 616.19,901.63 607.31,900.99 590.89,899.64 584.23,899.06 572.67,897.48 564.61,895.61 555.2,892.05 545.97,887.38 536.33,881.65 525.88,874.7 519.74,870.14 510.28,862.08 504.85,856.18 500.23,849.76 498.31,846.37 492.23,830.83 490.54,824.11 488.73,815.41 487.56,808.22 487.09,803.67 486.8,797.83 486.86,792.92 486.92,792.04 487.32,787.49 489.31,778.78 490.83,775.92 492.58,773.82 497.66,770.84 501.05,769.96 505.26,769.5 506.95,769.44 521.15,770.49 526.64,770.61 530.08,770.2 538.38,766.81 541.82,764.41 546.91,760.15 549.36,757.7 551.87,754.42 554.44,749.17 556.19,740.81 556.66,736.14 557.13,727.9 557.01,722.41 556.31,716.57 554.38,709.85 550.29,703.02 547.55,699.92 543.05,696.07 536.57,691.98 530.38,689.58 526.29,688.65 518.98,688.18 516.94,688.24 512.73,688.47 506.78,689.12 501.29,689.88 491.59,691.4 482.83,692.62 474.41,693.73 469.04,694.43 453.68,696.54 439.95,698.93 421.14,702.03 416.53,702.61 408.11,703.08 399.82,702.26 385.45,697.7 374.64,691.51 365.82,682.63 361.62,676.5 357.23,669.37 350.58,658.22 345.96,650.56 340.7,641.39 331.18,615.51 329.78,606.4 329.43,600.27 329.55,594.19 329.66,591.97 330.36,587.77 333.46,580.06 335.1,578.07 338.78,575.44 344.44,573.51 347.77,572.93 352.8,572.4 361.38,571.7 372.6,570.19 379.55,569.66 388.02,569.25 397.02,568.78 408.52,568.2 421.96,567.09 438.2,565.04 444.04,564.34 450.0,563.7 458.29,562.77 470.68,561.36 479.38,560.37 490.65,559.09 499.65,558.03 506.89,557.28 517.58,556.05 525.24,555.17 545.04,552.95 551.11,552.25 563.32,550.85 571.21,549.97 579.15,549.1 587.1,548.16 597.38,546.99 604.56,546.29 619.05,545.07 632.43,542.26 637.27,540.28 645.63,533.38 647.79,530.05 650.48,522.23 651.41,515.45 651.64,509.96 651.59,502.89 651.24,497.58 650.42,489.22 648.96,479.88 648.26,475.61 646.68,467.49 644.34,456.69 643.88,454.7 639.96,439.75 637.22,429.93 633.3,417.02 630.38,409.14 622.9,395.23 620.51,392.31 606.14,381.74 597.03,378.12 586.8,374.91 572.78,370.23 564.9,367.43 554.68,363.75 545.04,358.02 543.11,356.39 537.03,350.31 531.78,343.71 525.59,332.79 522.2,323.38 520.62,316.02 519.92,305.92 520.56,295.58 522.31,282.73 524.65,268.36 528.04,248.61 529.62,239.97 531.31,230.27 533.47,217.01 535.34,200.89 535.98,189.09 536.22,174.31 536.1,161.28 535.92,152.87 535.57,141.66 535.17,131.67 534.76,123.2 533.94,110.11 532.54,91.36 532.13,85.81 531.19,74.77 530.61,67.59 529.79,58.82 528.16,43.87 528.1,43.17 525.47,28.86 524.36,24.65 522.66,19.86 521.15,16.36 518.58,11.8 515.66,7.89 512.09,4.5 507.59,1.64 502.51,0.12 496.38,0.58 493.92,1.52 491.41,2.92 487.21,5.96 483.64,9.52 480.55,13.73 477.98,18.23 475.87,22.84 474.65,25.99 472.37,32.48 470.97,36.74 469.45,41.65 467.99,46.32 465.59,53.92 463.61,60.23 461.74,66.18 458.41,76.76 455.78,85.29 453.68,92.0 452.57,95.39 449.06,106.61 444.1,121.79 441.35,129.91 437.15,142.06 433.64,151.99 430.31,161.57 427.22,170.34 424.12,179.22 419.8,191.6 416.58,200.77 413.31,210.12 408.17,224.78 401.69,243.3 398.88,251.36 392.28,270.34 389.71,277.64 381.94,299.9 377.68,312.11 374.41,321.51 371.08,331.04 367.69,340.56 365.7,346.34 358.23,367.66 355.19,376.42 349.7,392.08 346.6,400.96 343.45,409.9 336.15,430.81 330.89,445.88 327.33,455.93 321.66,472.05 315.76,488.23 309.1,506.51 304.66,518.72 298.35,536.13 292.51,551.96 291.4,554.94 285.5,570.48 281.7,580.7 279.19,587.77 276.21,596.35 271.72,610.2 269.61,617.33 267.51,626.56 266.75,633.45 268.5,648.64 269.32,650.45 270.72,652.26 272.01,653.31 275.34,654.48 277.44,654.59 281.3,654.07 285.91,653.13 288.48,652.67 293.04,652.14 295.2,652.2 299.11,652.96 302.32,654.59 305.54,657.75 308.81,663.71 310.27,667.62 311.73,672.53 313.13,677.9 313.95,681.29 316.58,691.8 317.4,695.31 320.26,706.06 322.3,712.72 326.57,724.28 333.28,739.35 335.62,743.62 339.65,750.39 343.97,757.17 352.56,769.26 359.86,778.37 366.35,785.62 370.96,790.35 376.34,795.61 384.51,803.03 396.31,813.19 405.08,820.61 413.31,827.56 418.86,832.23 428.73,840.53 441.59,851.39 445.15,854.43 455.31,863.02 467.81,873.59 479.73,883.64 483.47,886.79 495.62,896.96 508.29,907.41 526.75,921.43 534.23,926.75 546.97,935.28 557.42,941.88 566.3,947.13 578.16,953.62 588.5,958.7 600.94,964.31 614.43,970.33 629.15,976.69 640.25,981.19 648.84,984.52 660.0,988.9 663.68,990.3 671.39,993.34 677.81,995.91 687.39,999.07 695.75,1000.0 703.75,998.95 714.15,994.92 718.65,992.06 726.06,984.99 731.85,974.18 732.78,970.44 733.37,965.13 733.07,958.82 732.37,954.38 731.15,949.47 729.28,944.16 725.25,935.98 720.63,928.97 715.26,922.66 709.42,917.46 698.67,912.2 692.65,910.8 676.53,908.99 665.43,907.53 658.19,906.01 647.79,904.43 643.23,903.85 636.22,903.21 625.18,902.33 615.54,901.57 605.85,900.87 601.7,900.52 585.93,899.23 567.7,896.43 558.94,893.69 548.78,888.9 540.48,884.22 531.08,878.32 523.48,872.95 509.7,861.5 505.43,856.83 500.76,850.58 493.87,836.09 490.13,822.42 487.79,809.74 487.15,804.37 486.8,797.48 487.09,789.53 488.49,781.18 490.54,776.39 492.58,773.82 494.74,772.18 498.25,770.66 501.75,769.9 504.73,769.55 510.63,769.5 511.62,769.55 515.6,769.9 519.63,770.37 525.12,770.66 527.16,770.61 535.75,768.27 542.35,763.95 546.32,760.68 549.3,757.75 554.09,750.16 555.73,743.91 556.14,741.16 556.55,736.96 556.9,733.16 557.07,724.28 556.55,717.86 554.15,709.45 553.39,707.81 549.77,702.38 547.32,699.69 539.49,693.62 533.41,690.58 526.64,688.71 518.69,688.18 513.38,688.42 509.11,688.83 504.85,689.35 497.14,690.52 492.29,691.28 484.4,692.45 474.24,693.73 464.31,695.02 451.81,696.83 442.52,698.46 432.24,700.27 425.46,701.38 422.43,701.85 410.98,703.02 404.96,702.96 392.23,700.27 386.97,698.29 379.32,694.61 367.81,685.03 364.24,680.53 359.28,672.82 354.31,664.47 350.52,658.22 345.96,650.62 342.69,644.96 339.3,638.65 335.62,630.41 332.35,620.6 331.01,614.58 329.84,606.69 329.43,597.64 329.72,591.8 329.66,591.86 330.54,586.95 331.59,583.56 334.34,578.89 337.02,576.49 340.35,574.74 347.6,572.99 352.15,572.46 357.35,572.11 368.1,570.77 377.91,569.78 382.7,569.48 391.87,569.02 399.47,568.61 405.49,568.32 414.77,567.85 417.81,567.56 427.8,566.33 440.01,564.81"
    fill="none"
    stroke="#888"
    stroke-width="4"
    stroke-linejoin="round"
    stroke-linecap="round"
  />
</svg>
