<svg xmlns="http://www.w3.org/2000/svg" viewBox="0 0 1000 1000">
  <polyline
    points="78.42,595.35 91.38,605.22 109.3,618.95 128.76,633.84 145.69,646.85 157.05,655.56 173.49,668.14 193.17,683.19 210.38,696.37 224.99,707.51 246.61,724.05 266.46,739.44 278.1,748.54 292.43,759.46 311.29,775.12 321.94,783.72 328.61,787.8 337.05,789.79 344.16,788.68 349.07,784.11 351.0,776.17 350.34,768.45 349.34,761.72 347.74,754.27 343.99,744.29 337.21,729.84 330.21,712.86 324.91,693.72 326.84,666.54 335.34,645.86 343.94,633.78 360.37,619.83 375.7,610.46 394.67,600.58 415.57,587.4 440.83,564.74 454.4,540.75 465.7,524.59 478.55,514.67 492.17,508.22 504.3,496.08 513.84,470.06 517.54,455.94 527.63,438.13 543.56,424.45 558.01,416.79 571.03,413.42 583.77,413.92 597.88,418.22 618.51,428.42 634.28,434.65 647.95,436.75 662.4,431.34 675.97,421.64 685.51,410.55 691.08,403.72 700.95,393.02 708.06,388.06 713.63,385.85 728.02,385.68 740.54,391.42 748.04,397.54 755.76,405.32 764.09,409.01 771.64,410.06 782.18,409.45 794.36,407.91 799.99,406.75 814.55,403.06 830.82,398.81 848.35,392.85 859.49,387.72 874.05,379.84 882.6,372.12 904.93,346.75 913.48,336.05 927.98,317.97 940.94,302.36 957.59,281.46 968.84,268.0 982.85,251.63 990.57,242.58 995.09,235.97 999.06,227.47 1000.0,221.3 998.4,216.33 993.88,212.42 989.8,210.87 983.73,210.21 976.73,210.82 967.3,212.58 958.09,215.45 946.01,219.81 931.9,224.99 920.98,228.96 907.52,233.76 891.92,239.16 872.01,245.95 847.91,253.39 834.45,257.25 825.14,259.9 813.78,263.04 796.02,267.84 791.22,269.05 781.35,271.64 773.52,273.63 761.88,276.55 755.82,278.04 740.49,281.74 734.2,283.22 725.1,285.32 718.93,286.75 710.27,288.68 700.67,290.78 689.97,293.1 684.35,294.31 678.67,295.47 671.94,296.85 663.73,298.5 658.21,299.66 648.89,301.42 642.0,302.75 630.36,304.9 621.65,306.55 613.82,307.93 606.21,309.25 597.17,310.74 590.71,311.85 579.46,313.78 568.71,315.48 556.69,317.19 548.91,318.13 532.76,320.01 521.67,321.27 509.65,322.49 500.55,323.43 487.32,324.75 473.59,326.07 459.14,327.45 450.15,328.33 439.56,329.38 428.26,330.54 417.67,331.64 408.62,332.52 399.08,333.3 387.61,334.45 377.52,335.78 370.24,338.65 363.74,343.61 361.14,348.85 360.7,353.65 361.59,358.33 362.91,361.97 366.22,368.15 369.03,372.34 372.5,376.59 379.62,383.81 385.3,389.21 389.99,393.63 396.0,399.42 403.5,407.14 408.85,413.59 413.04,419.87 417.34,431.01 417.72,441.77 416.07,447.12 409.12,455.77 404.27,457.87 396.88,458.53 391.36,458.42 386.4,457.54 379.07,454.34 370.68,447.56 361.14,435.04 357.34,428.26 350.01,414.47 346.53,409.73 338.65,401.18 331.31,395.06 321.77,390.48 314.16,389.54 307.43,390.76 302.91,393.07 297.84,398.7 297.12,405.92 298.61,411.44 302.03,418.05 305.06,422.47 309.14,428.2 313.78,434.21 318.79,440.66 332.69,458.42 337.65,466.86 341.51,475.74 344.22,485.33 346.09,496.75 345.98,512.3 343.11,524.59 336.22,539.65 328.28,549.41 319.07,556.52 304.01,563.91 291.44,567.94 281.68,569.26 274.46,569.26 264.42,568.32 257.53,567.22 245.56,563.8 234.48,559.01 218.21,548.58 211.32,541.47 205.36,534.19 195.43,518.75 190.31,509.76 184.96,500.55 179.17,491.4 169.85,479.76 164.39,473.97 153.08,465.53 142.27,460.9 131.41,459.96 124.79,460.52 115.58,462.56 109.13,465.2 103.84,467.63 100.09,469.39 95.51,471.55 91.27,473.53 85.09,476.4 79.96,478.82 72.35,482.3 63.47,486.16 54.76,489.69 45.83,493.27 37.5,496.69 30.66,499.61 20.07,504.36 11.42,509.43 5.51,514.78 2.15,519.3 0.0,526.36 1.16,533.2 3.58,538.11 9.6,545.88 14.12,550.24 19.58,554.54 27.52,560.16 33.58,564.08 42.96,569.92 53.1,576.43 62.48,582.99 75.6,593.2 88.4,602.96 99.87,611.72 111.5,620.6 120.49,627.5 133.45,637.42 147.46,648.23 162.68,659.87 179.61,672.77 192.62,682.75 213.74,698.91 229.24,710.76 239.77,718.82 255.27,730.67 263.65,737.18 277.54,748.1 289.18,756.98 300.6,766.02 310.14,774.18 321.16,783.17 326.24,786.59 333.96,789.24 342.23,789.35 345.26,787.97 349.78,782.67 350.83,778.76 350.89,774.4 350.45,769.55 349.95,765.58 348.35,756.92 346.64,750.8 342.29,740.71 339.47,734.64 335.23,725.43 330.48,713.58 328.22,706.74 326.68,701.11 324.36,688.54 324.69,679.33 328.0,662.35 332.08,652.03 337.87,641.89 346.37,631.47 355.41,623.64 365.72,616.41 372.12,612.5 385.19,605.55 398.15,598.76 413.31,589.06 420.76,583.49 434.54,572.24 442.59,561.43 448.16,551.56 456.71,536.78 463.38,527.35 471.88,518.97 485.66,511.53 496.36,505.35 503.86,496.58 510.53,482.85 514.89,465.31 520.24,449.87 545.72,423.07 559.45,416.29 571.52,413.42 584.81,414.14 593.2,416.51 609.08,423.18 619.22,428.81 637.15,435.31 651.59,436.2 659.87,432.78 672.05,424.89 681.76,415.24 688.71,406.36 699.96,393.96 706.35,389.05 715.45,385.46 726.15,385.35 736.57,388.94 743.63,393.85 748.21,397.76 755.87,405.37 763.26,408.73 783.06,409.29 793.32,408.02 804.73,405.54 811.18,403.88 821.22,401.35 828.39,399.47 840.08,396.05 848.19,392.85 857.45,388.66 866.77,384.2 874.32,379.51 884.86,369.8 898.26,355.08 905.48,346.04 912.21,337.71 918.11,330.26 927.98,318.02 932.12,313.11 940.77,302.58 949.27,292.16 955.17,284.55 964.16,273.57 970.33,266.24 978.49,256.53 984.67,249.53 990.02,243.24 994.87,236.35 997.79,230.56 999.67,225.27 999.94,221.13 999.01,217.6 995.31,213.36 992.94,212.03 988.81,210.71 983.51,210.32 978.71,210.6 974.63,211.15 969.23,212.14 964.49,213.41 960.35,214.73 953.46,217.11 949.32,218.59 944.14,220.52 938.35,222.62 932.28,224.83 926.77,226.81 918.94,229.68 910.55,232.66 900.68,236.13 890.04,239.83 878.18,243.85 868.75,247.05 855.52,251.19 840.3,255.6 823.65,260.34 807.43,264.75 786.86,270.21 769.77,274.57 749.53,279.59 735.69,282.89 718.87,286.75 704.97,289.84 686.78,293.76 668.74,297.51 649.33,301.37 633.62,304.35 615.58,307.65 594.96,311.18 576.49,314.22 565.29,316.04 552.5,317.75 538.66,319.4 514.78,321.99 499.94,323.48 478.27,325.58 465.59,326.84 450.15,328.33 434.05,329.99 421.47,331.26 412.87,332.14 402.83,332.97 392.85,333.96 385.68,334.68 377.74,335.72 370.74,338.43 365.5,341.9 362.96,344.6 360.7,351.66 361.14,356.84 362.8,361.75 365.67,367.32 369.69,373.17 373.94,378.07 379.34,383.53 384.47,388.44 392.96,396.49 396.05,399.47 404.27,407.96 408.02,412.54 413.81,421.14 416.4,427.21 417.89,434.98 417.94,439.67 416.73,445.3 414.91,449.21 410.55,454.62 405.76,457.43 399.36,458.37 394.78,458.53 386.35,457.48 381.27,455.44 372.84,449.6 368.98,445.79 363.02,438.4 358.11,429.58 351.49,417.01 346.15,409.29 341.24,403.83 336.72,399.42 328.17,393.18 317.14,389.65 311.18,389.88 305.67,391.47 300.21,395.39 296.96,402.01 297.56,408.35 299.27,413.04 301.31,416.95 305.61,423.29 310.85,430.35 315.32,436.2 319.51,441.55 324.53,447.61 332.03,457.43 337.32,466.31 339.64,470.83 343.44,482.52 345.98,495.81 346.42,506.78 344.1,521.29 341.35,529.39 335.45,540.86 326.18,551.45 316.81,557.74 306.05,563.09 285.1,569.1 272.75,569.21 254.0,566.45 238.17,560.77 223.5,552.44 209.61,539.54 199.85,526.75 193.17,514.67 189.59,508.6 180.99,494.04 175.86,487.1 169.24,479.04 164.99,474.58 160.86,470.99 156.67,467.91 151.87,464.87 147.73,462.89 142.66,461.12 135.6,460.07 130.25,460.07 126.23,460.41 122.64,460.85 119.61,461.45 115.03,462.83 111.45,464.21 107.48,465.98 102.29,468.4 96.94,470.88 89.61,474.3 82.61,477.56 75.71,480.81 68.16,484.17 62.59,486.49 57.13,488.75 50.84,491.23 44.12,493.99 36.4,497.19 31.71,499.17 24.59,502.26 18.64,505.07 13.35,508.11 9.43,511.03 5.4,514.94 2.26,519.25 0.83,522.5 0.11,527.46 0.61,531.16 2.92,536.89 5.57,540.86 7.67,543.62 11.97,548.25 14.12,550.18 18.64,553.82 22.61,556.69 26.8,559.67 32.2,563.2 35.18,565.07 38.99,567.39 46.05,571.85 48.42,573.34 53.71,576.82 59.28,580.57 63.69,584.04 69.76,588.67 77.2,594.35 82.55,598.49 96.23,608.91 108.64,618.45 119.0,626.34 134.22,638.03 151.76,651.48 161.96,659.31 181.98,674.59 197.92,686.83 212.47,697.97 230.45,711.7 241.81,720.41 255.71,731.0 274.29,745.67 292.05,759.18 299.88,765.36 313.06,776.55 318.13,780.74 323.7,785.04 329.38,788.02 335.61,789.51 340.13,789.68 346.86,786.64 349.9,782.29 350.94,776.11 350.67,771.59 349.78,764.42 348.35,756.81 347.08,752.07 343.88,744.18 341.13,738.23 335.67,726.43 331.92,717.49 328.61,708.23 325.52,696.59 324.2,686.11 325.91,671.28 329.99,656.5 336.88,643.32 343.44,634.44 354.75,624.08 370.19,613.6 388.72,603.73 404.99,594.96 419.21,584.65 426.93,578.8 442.7,561.49 452.63,543.9 465.7,524.65 475.96,516.16 494.76,506.56 506.51,492.22 512.19,476.51 515.39,463.22 521.29,447.67 527.63,438.18 539.21,427.54 547.37,422.02 555.37,417.94 579.3,413.42 591.38,415.85 603.89,420.7 611.94,424.73 627.33,432.5 645.2,436.64 652.92,435.87 663.01,430.96 674.92,422.63 683.8,412.71 691.79,402.89 697.58,396.55 706.57,388.94 718.54,385.08 725.65,385.35 729.68,386.18 737.23,389.32 745.17,395.11 749.48,399.19 756.09,405.48 764.7,409.07 772.03,409.95 780.69,409.51 786.7,408.9 791.61,408.29 795.08,407.74 803.63,405.81 810.36,404.1 818.96,401.9 825.25,400.3 831.97,398.48 837.21,396.99 844.22,394.51 853.65,390.37 859.93,387.5 869.2,382.87 874.99,378.96 881.88,372.61 889.16,365.34 892.91,361.31 896.6,357.01 906.42,344.82 911.66,338.31 917.45,331.15 923.68,323.37 931.51,313.83 940.88,302.47 946.73,295.36 953.13,287.14 963.44,274.4 972.1,264.14 978.77,256.26 986.1,247.82 990.18,243.08 994.38,237.18 996.64,232.99 999.5,225.93 999.83,220.41 998.84,217.16 996.08,213.91 992.5,211.81 981.2,210.38 975.68,210.98 969.34,212.14 964.65,213.36 961.45,214.35 956.55,216.0 954.01,216.89 949.49,218.54 945.9,219.86 940.88,221.68 932.28,224.88 926.6,226.92 918.0,230.01 904.82,234.7 888.61,240.32 873.55,245.4 861.31,249.48 849.4,253.01 828.11,259.07 814.93,262.71 804.57,265.52 797.23,267.51 781.52,271.59 770.54,274.35 764.37,275.95 746.55,280.3 729.18,284.38 710.76,288.57 696.1,291.77 675.53,296.13 650.99,301.04 634.61,304.12 618.73,307.05 602.57,309.86 588.4,312.29 572.52,314.88 550.29,318.02 530.77,320.28 495.31,323.98 482.57,325.19 465.7,326.84 454.84,327.89 437.41,329.6 426.33,330.76 413.7,332.03 406.69,332.69 398.53,333.35 392.8,333.96 385.85,334.68 381.38,335.17 375.32,336.38 369.86,338.92 364.12,343.17 361.31,348.19 360.87,355.58 362.8,361.75 365.45,366.88 369.36,372.78 372.95,377.08 376.92,381.11 383.42,387.45 390.7,394.29 396.0,399.42 404.65,408.4 410.33,415.74 416.01,425.94 418.05,436.64 417.23,444.03 415.24,448.66 410.78,454.4 406.2,457.32 395.83,458.53 389.6,458.31 384.58,456.82 378.07,453.73 372.84,449.6 370.35,447.12 366.38,442.92 363.52,439.12 361.26,435.15 358.28,429.8 355.8,425.39 353.59,421.03 350.23,414.86 347.14,410.61 343.99,406.86 339.69,402.28 335.06,397.93 331.04,394.89 326.13,392.19 321.83,390.59 315.87,389.6 311.51,389.88 306.22,391.31 301.64,394.12 299.49,396.22 297.34,400.35 297.29,406.58 298.5,411.11 299.71,413.97 303.02,419.54 305.28,422.8 309.8,429.03 312.29,432.23 315.82,436.86 321.61,444.08 328.22,452.19 333.41,459.58 336.66,465.09 338.98,469.56 342.01,477.61 344.16,485.33 345.59,492.33 346.15,498.95 346.37,505.68 345.76,513.46 343.39,523.44 340.91,530.16 337.76,536.84 334.07,542.46 330.04,547.37 325.47,551.95 320.67,555.48 317.69,557.13 311.4,560.33 309.64,561.32 303.79,563.91 297.73,566.06 289.57,568.32 284.05,568.99 277.99,569.32 270.65,568.93 263.65,568.16 256.31,566.89 252.34,566.01 244.35,563.31 241.81,562.31 235.58,559.5 231.11,557.13 226.04,553.93 220.75,550.51 216.72,547.09 214.51,544.94 210.49,540.37 207.46,536.78 204.15,532.48 200.67,527.85 197.92,523.33 195.71,519.08 192.4,513.35 187.11,504.3 182.64,496.64 175.09,486.1 165.21,474.74 151.87,464.82 140.12,460.41 123.58,460.63 113.65,463.16 106.49,466.31 94.19,472.15 76.32,480.53 62.04,486.77 51.56,490.96 35.68,497.46 22.72,503.09 16.32,506.29 6.07,514.12 0.66,522.61 0.0,527.41 1.21,533.47 3.81,538.49 9.1,545.33 15.39,551.34 24.43,558.07 32.92,563.69 51.06,575.05 60.71,581.61 70.25,589.0"
    fill="none"
    stroke="#888"
    stroke-width="4"
    stroke-linejoin="round"
    stroke-linecap="round"
  />
</svg>
