<svg xmlns="http://www.w3.org/2000/svg" viewBox="0 0 1000 1000">
  <polyline
    points="772.77,397.19 763.89,411.25 746.64,438.42 742.06,445.58 729.99,464.64 722.31,476.71 714.64,488.79 700.66,510.78 693.59,521.82 684.19,536.66 676.34,549.08 668.41,561.5 658.92,576.51 649.0,591.69 634.94,612.82 627.52,624.12 615.79,641.71 608.2,653.01 598.11,668.1 582.84,690.87 570.94,708.64 554.64,732.88 545.15,746.94 538.25,757.2 521.95,781.78 504.01,811.02 492.37,831.38 483.91,846.3 468.82,873.56 464.25,881.66 450.36,905.21 441.22,918.84 432.25,930.65 422.5,941.44 413.62,949.28 410.26,951.79 404.13,955.49 396.11,958.77 386.02,960.32 380.58,960.15 375.32,959.29 368.34,957.22 358.85,953.17 350.83,949.46 340.13,944.8 326.07,941.0 317.28,940.92 311.24,941.87 301.49,944.89 292.78,948.77 285.88,952.48 285.36,952.99 275.19,959.38 269.41,963.43 260.52,969.81 252.76,975.07 242.93,981.28 238.7,983.78 225.33,990.68 213.17,995.43 201.35,998.45 182.03,1000.0 157.02,996.38 143.05,991.55 129.85,984.65 111.74,969.38 106.82,963.34 95.87,944.97 90.61,931.09 87.85,919.87 85.26,897.71 85.17,885.8 85.69,876.23 88.8,851.04 90.09,843.88 93.37,828.88 98.89,809.82 105.96,792.39 113.29,778.94 122.35,764.71 135.11,746.59 142.79,735.81 151.67,722.87 162.45,704.33 177.46,679.75 189.37,661.64 198.08,648.96 205.75,638.0 210.07,632.31 223.52,617.3 236.89,607.64 246.2,603.85 252.33,602.38 260.44,601.78 270.36,602.98 275.36,604.45 284.07,608.25 291.49,613.16 299.08,620.75 302.96,625.58 307.18,631.88 311.58,640.24 316.59,655.6 318.4,667.67 318.31,680.52 315.29,697.52 307.96,716.15 304.17,722.96 297.96,732.36 289.59,744.26 279.58,758.06 269.92,771.26 262.68,781.18 255.35,791.19 244.57,806.02 236.46,817.41 231.63,824.74 227.4,831.55 224.04,837.67 221.36,843.11 216.36,857.08 215.15,869.5 217.4,879.08 221.71,886.15 227.75,891.41 234.47,894.51 241.55,895.98 246.03,896.24 251.73,895.81 289.24,881.15 295.11,877.87 302.01,874.16 305.63,872.18 317.88,865.71 324.44,862.52 333.84,858.2 346.43,852.77 348.33,851.99 371.1,842.25 378.69,838.45 391.97,830.86 405.86,821.37 421.64,807.92 429.92,799.55 436.99,791.53 442.94,783.94 448.81,776.09 463.9,754.44 473.48,740.3 477.96,733.22 484.0,719.94 485.29,714.08 486.24,701.22 486.24,699.07 485.21,687.77 483.91,682.85 480.81,675.95 477.1,670.78 473.39,666.81 462.78,658.44 452.86,651.29 446.05,645.59 441.31,640.93 432.59,630.15 427.42,621.53 422.33,611.18 415.86,596.86 406.72,577.37 399.73,562.79 395.59,553.99 386.02,533.81 375.06,510.95 372.3,504.57 366.87,489.56 363.33,466.79 363.59,455.93 364.37,448.51 366.18,438.16 371.44,420.3 376.01,409.95 381.71,400.21 390.24,390.03 412.15,375.97 418.45,373.3 428.02,369.5 448.03,361.14 485.81,343.54 495.73,338.88 506.94,333.62 525.06,325.0 538.77,318.44 554.99,310.76 571.63,302.48 582.07,297.05 596.04,289.63 606.56,284.03 624.25,274.62 643.22,264.45 662.37,254.27 677.98,245.9 693.68,237.71 709.2,230.03 719.73,225.38 737.84,217.96 745.95,214.77 754.23,211.32 763.2,207.43 773.55,202.0 779.84,197.6 786.4,190.87 790.19,183.97 792.0,177.25 791.83,168.54 789.93,160.86 788.9,158.27 783.38,148.53 779.07,143.35 773.81,138.52 768.72,135.07 762.08,131.96 750.78,128.95 739.13,127.65 733.18,127.65 717.83,129.64 707.48,132.65 693.76,138.78 680.14,147.15 671.68,153.1 657.45,162.5 641.5,169.66 627.87,173.11 619.16,173.97 603.72,172.5 596.64,170.0 587.67,163.79 582.76,158.01 579.91,153.1 576.38,143.09 575.25,131.62 575.6,126.1 578.62,113.08 579.91,109.71 583.62,101.78 589.74,92.38 591.04,90.74 601.56,79.52 608.03,73.83 614.5,68.57 626.06,59.51 636.15,51.58 642.62,45.97 656.24,34.41 666.42,25.79 676.51,18.03 688.07,10.35 706.79,2.5 721.97,-0.0 734.22,0.35 744.39,1.81 747.67,2.5 773.89,11.9 786.4,18.29 801.84,27.43 803.82,28.64 827.37,43.73 844.01,54.34 853.5,60.46 867.04,69.6 882.48,81.59 891.37,90.31 898.87,99.02 902.06,103.67 911.64,126.27 914.83,149.39 914.22,158.36 912.07,170.61 908.27,182.51 901.72,196.57 891.02,214.68 885.24,223.65 874.89,239.52 867.56,250.65 857.56,266.09 847.46,281.7 809.69,339.66 799.42,355.61 792.44,366.48 784.59,378.73 778.12,388.82 768.8,403.48 760.87,415.9 757.33,421.6 738.44,451.27 735.51,455.84 727.49,468.52 715.84,486.89 707.74,499.65 701.87,508.88 690.83,526.31 676.77,548.47 664.18,568.22 658.92,576.42 652.88,585.65 634.51,613.51 619.16,636.62 608.29,652.84 603.63,659.82 585.78,686.48 579.57,695.79 570.17,709.68 559.99,724.86 552.23,736.5 545.15,746.94 535.84,760.91 529.11,770.83 519.28,786.01 507.89,804.55 496.51,824.05 487.45,839.92 478.57,855.87 471.93,867.95 464.68,880.97 458.04,892.53 445.62,912.45 431.82,931.09 423.71,940.14 414.48,948.59 403.18,955.93 394.56,959.2 385.5,960.32 378.43,959.81 369.03,957.39 364.02,955.49 354.54,951.18 347.29,947.82 341.0,945.14 331.34,941.87 322.88,940.75 315.81,941.0 302.18,944.54 295.89,947.21 287.17,951.7 279.67,956.36 268.46,964.03 262.42,968.43 252.93,974.99 248.02,978.18 238.61,983.87 219.64,993.1 212.05,995.77 196.61,999.22 188.85,999.91 172.46,999.31 157.71,996.55 150.47,994.39 134.94,987.58 122.95,979.82 112.34,969.98 100.53,953.77 93.71,939.8 89.92,928.76 86.98,914.96 85.52,901.76 85.17,892.79 85.35,882.61 87.93,856.3 89.92,844.66 93.45,828.36 97.33,814.47 98.46,811.02 105.7,792.91 112.17,780.83 119.59,769.02 121.66,765.83 134.16,747.89 140.2,739.52 153.92,718.99 164.7,700.53 173.67,685.79 181.34,673.62 193.25,656.03 198.51,648.27 208.34,634.55 219.04,621.7 226.28,614.97 241.63,605.4 247.07,603.59 257.42,601.86 266.99,602.29 277.86,605.31 285.97,609.37 294.07,615.58 301.92,624.2 305.46,629.12 309.94,636.97 312.88,643.52 316.67,655.86 318.4,667.76 318.57,675.26 318.22,682.16 316.5,692.69 314.34,700.62 311.41,708.56 305.46,720.63 302.35,725.81 295.45,735.98 289.42,744.44 284.5,751.25 275.62,763.5 265.87,776.78 257.85,787.74 249.22,799.64 240.25,812.06 236.72,817.15 231.37,825.17 223.09,839.49 218.52,849.92 217.83,851.73 216.28,857.17 215.07,866.91 215.84,874.25 219.98,883.91 224.81,889.25 229.82,892.62 235.94,894.95 245.51,896.24 271.91,889.86 278.98,886.49 287.0,882.35 292.87,879.16 298.3,876.14 309.6,870.02 317.88,865.79 332.72,858.63 345.22,853.29 354.45,849.49 367.65,843.8 372.48,841.56 382.91,836.21 405.25,821.8 414.14,814.73 421.04,808.52 431.65,797.65 437.86,790.41 447.43,777.99 461.14,758.5 464.85,753.06 471.67,743.06 476.32,735.98 484.95,715.89 485.9,709.16 486.24,702.6 485.55,690.18 484.86,686.39 482.02,678.2 476.76,670.35 473.56,667.07 465.63,660.51 453.04,651.46 448.21,647.58 440.01,639.64 435.18,633.78 429.75,625.75 424.57,615.92 421.04,608.33 417.85,601.26 415.43,595.83 410.69,585.73 399.56,562.27 395.68,554.17 387.14,536.23 380.76,522.86 371.61,502.93 368.34,494.31 366.7,488.96 364.02,475.94 363.33,461.79 364.11,451.01 366.35,437.47 367.82,431.52 372.3,417.97 376.62,408.75 380.67,401.76 386.54,393.91 407.93,377.95 420.35,372.52 429.92,368.73 444.67,362.69 445.79,362.17 469.08,351.47 479.95,346.39 491.94,340.69 506.43,333.79 525.57,324.74 542.74,316.63 569.48,303.52 576.89,299.72 587.33,294.29 601.22,286.87 615.19,279.45 625.8,273.76 650.72,260.48 665.04,252.8 675.74,247.11 686.52,241.42 703.17,232.97 721.71,224.51 731.89,220.37 743.1,215.89 758.63,209.5 767.34,205.45 773.46,202.09 778.29,198.81 786.57,190.7 789.59,185.44 791.92,177.59 792.18,172.93 791.49,166.72 789.33,159.39 787.35,154.99 783.9,149.39 783.64,148.96 776.65,140.93 770.79,136.36 764.84,133.09 760.78,131.45 755.35,129.89 748.96,128.6 741.55,127.74 737.67,127.65 722.05,128.77 712.57,130.93 705.06,133.52 693.68,138.78 678.5,148.27 668.58,155.25 657.45,162.5 651.07,165.78 643.31,169.05 637.27,171.04 629.16,172.93 623.47,173.71 609.67,173.62 602.77,172.24 596.99,170.09 590.78,166.38 585.95,161.98 582.07,156.89 578.1,148.87 575.6,138.52 575.25,134.03 575.43,127.74 576.46,120.84 577.84,115.58 580.77,107.56 584.22,100.74 593.02,88.32 601.56,79.52 609.76,72.37 615.53,67.71 622.26,62.53 634.68,52.79 644.0,44.85 651.41,38.47 660.64,30.71 667.54,24.93 674.79,19.32 692.38,8.02 706.18,2.67 711.36,1.38 719.9,0.17 733.01,0.17 744.05,1.73 757.94,5.35 764.23,7.76 775.7,12.77 785.97,18.03 804.08,28.81 812.1,33.98 816.07,36.57 828.23,44.33 838.58,50.89 846.86,56.24 867.56,69.95 869.54,71.42 880.07,79.52 895.85,95.31 904.65,108.07 911.46,125.67 914.57,144.04 914.57,154.82 913.71,162.5 907.24,184.92 899.04,201.4 891.88,213.3 883.69,226.07 877.82,234.95 863.42,257.03 849.36,278.76 836.34,298.69 826.68,313.52 818.31,326.38 803.48,349.32 798.13,357.6 789.07,371.74 785.45,377.26 776.13,391.84 767.6,405.47 755.26,424.79 747.33,437.38 734.22,458.0 726.88,469.55 718.09,483.35 711.45,493.79 701.87,508.88 696.01,518.11 688.59,529.76 682.64,539.07 664.18,568.31 658.92,576.51 651.33,588.15 639.77,605.57 633.65,614.89 626.66,625.32 618.12,638.09 604.15,659.05 603.37,660.26 584.66,688.2 571.29,708.04 565.08,717.35 561.11,723.22 545.33,746.68 534.11,763.41 522.47,780.92 519.45,785.66 507.72,804.81 501.94,814.65 488.49,838.19 475.46,861.57 462.87,884.16 453.04,900.9 448.64,907.97 439.75,920.73 431.73,931.17 421.21,942.64 419.48,944.2 410.51,951.53 401.2,956.87 395.68,958.86 381.79,960.15 372.91,958.6 365.92,956.27 354.54,951.18 348.59,948.42 340.91,945.06 330.65,941.78 326.85,941.09 317.45,940.83 310.12,942.04 299.59,945.58 289.24,950.49 287.69,951.35 274.67,959.63 263.28,967.83 248.62,977.75 236.37,985.08 223.43,991.55 204.98,997.67 194.02,999.48 186.09,1000.0 164.35,998.1 148.48,993.7 143.13,991.55 126.23,982.15 117.17,974.9 108.38,965.33 99.32,951.79 93.54,939.45 88.02,920.91 86.38,911.16 85.17,894.34 85.52,878.39 86.64,865.71 87.24,861.14 89.23,848.28 91.64,836.29 97.85,812.92 103.37,798.0 114.41,777.21 123.38,763.33 129.94,753.84 140.37,739.26 158.06,711.83 165.47,699.24 175.82,682.34 184.45,668.88 200.15,645.94 206.44,637.14 213.6,627.91 224.38,616.53 229.3,612.47 236.98,607.64 254.4,602.12 265.87,602.21 278.38,605.57 288.47,610.92 296.23,617.65 299.77,621.53 306.24,630.41 309.08,635.24 311.58,640.33 315.21,650.08 316.5,655.17 317.88,663.02 318.48,669.48 318.48,678.89 317.19,689.32 316.24,693.72 312.7,705.19 308.56,714.85 304.42,722.53 292.44,740.3 286.92,747.89 277.0,761.6 271.82,768.59 267.34,774.8 254.83,791.88 245.08,805.33 234.82,819.91 226.97,832.33 222.4,840.87 218.09,851.22 216.88,854.84 215.07,867.0 215.33,871.4 216.28,875.97 220.5,884.68 225.16,889.51 233.27,894.08 236.8,895.2 243.96,896.15 247.93,896.15 252.5,895.72 260.35,894.0 265.27,892.44 273.03,889.34 280.53,885.72 287.09,882.27 300.46,874.94 315.29,867.09 335.3,857.51 342.29,854.49 356.95,848.46 377.65,838.97 384.21,835.52 401.89,824.31 416.12,813.01 424.57,805.07 432.68,796.53 445.45,780.66 451.83,771.86 462.61,756.34 467.1,749.78 471.93,742.71 477.62,733.83 484.78,716.32 485.9,708.73 486.16,696.31 485.04,686.99 481.93,678.02 477.01,670.69 466.75,661.29 459.85,656.37 453.98,652.15 441.13,640.85 436.22,635.16 428.54,623.51 423.11,612.82 418.02,601.52 412.33,589.1 409.31,582.89 403.96,571.68 399.91,563.05 391.97,546.4 387.23,536.4 375.41,511.64 372.13,504.14 365.15,482.49 364.71,480.25 363.33,462.65 364.89,445.23 377.82,406.59 391.02,389.25 406.89,378.47 420.26,372.52 432.85,367.6 447.43,361.48 460.02,355.7 472.79,349.66 493.4,340.0 503.23,335.35 511.0,331.64 521.09,326.89 536.87,319.39 556.19,310.16 565.42,305.59 582.07,297.05 601.65,286.7 614.5,279.8 627.35,272.9 654.52,258.41 673.49,248.32 690.14,239.52 702.39,233.31 718.6,225.89 737.49,218.13 745.6,214.85 756.47,210.45 769.32,204.42 783.03,194.76 789.93,184.75 791.66,179.14 792.18,173.37 791.4,165.95 788.81,158.1 785.88,152.32 782.0,146.71 779.41,143.7 775.19,139.64 770.36,136.02 764.4,132.91 763.46,132.48 751.04,128.95 745.6,128.17 734.65,127.57 724.99,128.34 716.19,129.98 708.0,132.4 697.39,136.88 690.49,140.59 682.9,145.25 674.7,150.94 666.16,156.98 660.99,160.43 655.38,163.62 648.22,167.07 636.58,171.21 630.63,172.59 622.61,173.8 610.79,173.71 604.75,172.76 594.66,168.88 590.61,166.29 586.21,162.24 580.17,153.7 576.55,143.78 575.6,138.35 575.34,129.46 575.77,125.06 578.19,114.46 580.26,108.85 584.66,100.14 589.66,92.63 593.63,87.63 603.98,77.28 614.33,68.66 619.59,64.52 632.78,54.34 642.79,45.89 649.43,40.19 657.71,33.12 663.23,28.55 669.53,23.37 683.16,13.46 701.01,4.31 708.25,2.16 724.47,0.09 726.19,0.26 739.39,1.04 763.37,7.33 774.06,11.99 784.5,17.25 805.11,29.5 810.2,32.69 819.43,38.64 828.66,44.59 845.57,55.37 857.04,62.79 859.11,64.17 873.94,74.61 883.86,82.97 891.28,90.31 897.92,97.9 902.84,104.97 909.65,119.72 914.14,139.9 914.48,156.12 914.14,159.39 902.23,195.88 895.68,207.18 891.97,213.13 883.17,226.84 876.7,236.76 870.15,246.77 862.82,257.98 857.47,266.17 852.12,274.45 837.8,296.53 827.37,312.4 817.53,327.5 807.7,342.68 797.7,358.2 789.16,371.49"
    fill="none"
    stroke="#888"
    stroke-width="4"
    stroke-linejoin="round"
    stroke-linecap="round"
  />
</svg>
