<svg xmlns="http://www.w3.org/2000/svg" viewBox="0 0 1000 1000">
  <polyline
    points="433.4,879.75 417.8,866.97 407.59,858.59 405.68,857.1 396.31,849.29 379.13,835.27 366.6,824.98 355.98,816.18 330.41,795.27 324.52,790.37 306.51,775.6 292.49,764.07 282.37,755.77 274.23,749.05 253.24,731.78 242.03,722.57 233.73,715.85 221.2,705.98 203.2,691.87 184.19,676.85 169.25,665.15 157.55,656.02 151.08,651.04 135.31,638.84 127.1,632.45 114.4,622.41 104.52,614.44 99.38,610.12 91.0,602.99 84.77,597.43 76.64,589.38 70.0,581.74 64.02,572.95 60.37,564.48 59.05,559.09 58.71,554.85 60.95,544.56 66.35,538.09 71.91,534.61 77.39,532.61 82.45,531.54 88.26,530.79 92.99,530.62 97.97,530.62 102.2,530.79 112.49,531.62 119.88,532.53 126.51,533.61 133.4,534.94 150.66,539.0 158.71,541.33 168.59,544.56 182.2,549.79 201.29,558.84 218.55,569.13 233.24,579.25 235.81,581.16 251.24,593.28 265.85,605.39 273.65,612.03 280.62,618.09 296.56,631.95 309.92,643.73 324.19,656.18 332.74,663.4 346.43,674.27 353.9,679.75 361.7,684.9 365.85,687.3 375.98,692.2 387.1,695.6 395.23,696.35 408.92,693.69 414.07,691.04 420.21,686.14 423.11,682.74 426.1,678.17 429.92,668.46 430.91,662.16 431.16,656.76 430.83,651.78 428.51,640.91 427.01,636.27 424.19,629.46 421.29,623.32 418.71,618.51 412.16,607.14 407.76,599.67 403.44,591.7 396.89,576.6 393.9,566.97 391.16,552.37 390.66,544.81 391.08,533.28 394.23,516.93 401.29,499.92 409.42,484.98 413.49,477.43 417.88,469.96 424.27,459.59 434.65,442.16 439.63,433.03 449.09,415.68 449.17,415.52 455.81,403.49 464.52,387.63 470.41,376.85 475.73,367.14 485.85,348.63 492.57,336.6 504.85,314.44 514.98,296.68 520.87,286.89 533.49,268.71 541.7,257.51 548.51,248.63 564.44,226.89 573.24,210.04 576.89,199.09 578.88,187.3 579.21,172.78 577.72,162.49 575.56,153.28 572.57,143.82 564.02,121.08 558.96,107.55 553.9,92.7 550.08,79.09 547.93,68.22 547.59,65.64 546.93,52.28 547.93,42.9 549.83,34.94 552.74,27.63 553.73,25.73 561.7,14.61 566.51,10.04 574.73,4.9 578.8,3.24 584.85,1.41 598.96,0.0 608.59,1.0 614.48,2.32 624.27,5.64 632.07,9.21 638.71,12.7 650.66,20.66 655.98,24.81 666.02,33.36 678.71,45.31 681.37,48.05 690.66,57.84 698.8,66.64 704.19,72.61 712.49,81.83 717.97,87.88 729.0,100.17 735.15,106.97 740.37,112.7 749.5,123.4 754.56,130.12 761.2,142.9 762.28,146.97 763.03,153.03 761.95,161.16 758.63,169.05 756.64,172.78 754.81,176.51 751.99,183.07 750.41,190.62 750.0,197.18 750.08,201.66 750.33,206.22 750.83,211.45 752.16,218.01 754.73,227.47 758.46,239.67 760.21,245.98 762.61,254.19 766.68,270.71 769.25,281.08 773.49,293.28 774.9,296.35 779.79,304.65 783.53,309.54 795.23,320.58 804.61,325.31 811.99,327.55 822.7,329.13 830.0,329.71 837.55,330.29 854.48,332.45 861.78,334.36 871.99,339.17 876.56,342.41 881.78,346.89 885.52,350.62 890.66,357.18 894.4,363.65 896.22,368.22 897.8,373.53 898.88,379.67 899.46,389.38 899.38,391.37 898.71,399.42 896.8,410.04 894.9,418.17 892.82,425.89 891.24,431.45 888.51,441.0 886.02,450.21 882.86,465.39 881.62,474.94 881.2,489.96 881.54,498.26 882.2,508.55 884.69,521.74 888.17,534.19 894.73,550.04 904.11,565.06 914.48,578.42 920.46,586.64 926.51,595.85 934.15,610.71 938.13,621.83 941.12,641.41 941.12,650.46 939.38,662.9 937.97,667.88 934.9,675.68 929.09,686.39 924.85,692.61 916.64,702.41 901.87,717.76 893.82,725.89 887.59,732.2 880.87,739.0 873.73,746.31 866.51,753.78 857.14,763.32 842.86,778.09 837.97,783.15 828.26,793.2 785.77,838.42 769.17,857.18 761.29,866.56 753.24,876.18 745.35,884.9 738.22,891.45 730.66,896.68 719.54,900.83 710.25,900.75 705.85,899.5 702.2,897.93 694.9,893.28 689.67,888.8 685.02,884.07 678.38,876.43 675.31,872.78 670.25,866.56 664.44,859.34 659.71,853.53 655.15,848.13 649.34,841.41 645.77,837.34 640.87,831.87 629.25,819.17 622.12,811.7 615.06,804.81 608.17,798.76 600.79,793.36 591.58,788.63 581.2,785.73 575.39,785.31 569.92,785.64 565.35,786.56 559.29,788.71 556.8,790.04 550.33,795.19 545.93,801.24 544.36,804.4 543.28,807.39 541.87,816.1 542.28,822.32 545.85,832.78 551.24,840.83 559.46,849.54 564.52,853.94 568.92,857.43 576.14,862.74 586.85,870.46 599.88,879.75 605.52,883.9 617.05,892.7 625.85,900.17 633.65,907.72 640.54,916.43 644.02,922.49 648.76,935.02 649.83,940.58 649.75,957.59 648.84,962.16 645.19,972.2 641.7,978.01 635.81,984.9 629.34,990.29 624.61,993.11 622.37,994.19 614.23,997.34 599.21,999.92 593.32,1000.0 588.51,999.5 577.88,997.1 557.22,986.47 551.66,982.49 541.2,974.27 535.64,969.54 529.17,963.98 516.89,953.03 508.01,944.98 496.64,934.52 488.92,927.39 475.31,915.19 468.42,909.13 459.96,901.83 444.19,888.55 420.62,869.38 407.68,858.67 398.38,851.04 384.19,839.34 373.65,830.71 361.04,820.41 353.32,814.02 338.55,801.91 326.68,792.12 312.74,780.66 296.64,767.47 286.51,759.17 272.49,747.63 262.28,739.25 245.85,725.73 235.56,717.26 222.95,707.3 207.1,694.94 198.63,688.22 188.09,679.92 173.24,668.22 161.45,659.09 142.61,644.48 129.34,634.19 114.56,622.57 106.6,616.1 96.31,607.55 89.83,601.99 84.69,597.26 74.07,586.56 66.35,576.68 64.52,573.78 61.78,568.38 59.21,560.17 58.71,553.28 58.8,551.95 59.63,547.72 64.36,539.92 69.09,536.1 71.16,535.02 75.64,533.2 80.71,531.87 84.77,531.2 89.83,530.71 92.41,530.62 100.71,530.71 110.66,531.45 116.56,532.12 127.43,533.86 137.63,535.85 141.37,536.68 151.74,539.34 159.13,541.49 164.85,543.32 176.06,547.39 182.12,549.79 190.75,553.61 194.48,555.44 203.2,559.83 208.09,562.66 222.45,571.7 254.81,596.18 261.2,601.49 274.48,612.78 283.36,620.5 290.33,626.56 294.56,630.29 312.24,645.73 319.88,652.45 328.51,659.83 340.62,669.88 349.25,676.43 363.44,685.89 371.74,690.29 377.97,692.95 385.85,695.27 390.5,696.1 399.71,696.02 402.03,695.68 409.5,693.36 414.4,690.87 418.96,687.3 423.53,682.07 426.1,678.09 428.59,672.78 430.66,664.48 431.16,656.76 430.66,650.46 428.92,642.32 424.94,631.2 421.04,622.82 417.39,616.1 410.08,603.65 402.53,589.88 397.97,579.42 395.06,570.79 393.82,566.14 396.22,511.12 400.54,501.41 409.75,484.23 414.56,475.6 419.71,467.05 428.67,452.53 436.06,439.59 441.7,429.21 446.85,419.83 460.12,395.6 466.02,384.81 473.82,370.62 479.79,359.67 484.11,351.95 495.15,331.87 505.19,313.86 512.82,300.33 520.71,287.14 530.33,273.28 544.02,254.44 553.32,242.57 554.81,240.66 562.7,229.63 568.59,219.83 572.16,212.61 575.56,203.57 579.46,179.42 577.88,163.15 576.56,156.76 573.49,146.64 564.61,122.49 561.7,114.85 558.13,105.15 551.41,84.15 548.34,70.87 547.18,61.16 547.1,49.63 549.09,37.59 552.49,28.13 556.89,20.5 561.95,14.36 567.1,9.71 571.74,6.56 580.04,2.82 582.37,2.07 589.59,0.58 600.04,0.08 609.34,1.16 613.65,2.16 619.38,3.9 628.17,7.39 639.71,13.36 645.52,17.1 657.88,26.39 664.44,32.03 671.74,38.51 682.28,48.96 688.17,55.19 698.13,65.98 707.01,75.77 720.29,90.46 727.84,98.84 737.47,109.46 742.7,115.44 749.0,122.82 753.65,128.8 758.05,135.68 761.2,142.82 762.95,151.29 762.61,157.93 760.54,164.98 758.13,169.96 755.98,174.02 751.16,186.14 750.17,193.2 750.08,201.58 750.33,206.22 750.83,211.37 752.32,218.67 754.56,226.97 758.3,239.34 760.37,246.56 765.19,264.81 767.34,273.36 769.09,280.17 771.83,289.13 774.32,295.1 778.05,301.99 783.36,309.38 790.0,316.35 797.63,322.07 799.46,323.07 815.15,328.13 825.02,329.38 833.07,329.88 836.8,330.21 847.51,331.29 857.47,333.11 864.36,335.35 869.42,337.76 877.47,343.24 884.11,349.13 889.34,355.19 895.31,365.73 897.72,373.11 899.21,382.82 899.46,388.22 898.22,402.9 895.56,415.44 891.41,431.04 889.25,438.42 887.1,446.06 884.44,456.68 882.78,465.98 881.37,476.68 881.04,487.55 881.62,501.16 884.19,519.59 885.44,524.9 887.84,533.2 898.63,556.85 909.75,572.53 913.4,577.1 925.27,593.86 934.4,611.12 937.14,618.76 940.79,636.02 941.29,645.81 940.87,653.2 938.63,665.89 931.91,681.58 923.94,693.78 914.07,705.23 904.02,715.6 897.47,722.24 885.44,734.36 875.64,744.4 866.51,753.69 850.75,769.88 839.54,781.49 825.68,795.85 819.05,802.82 784.94,839.34 771.49,854.52 763.44,863.9 757.05,871.62 750.08,879.83 739.71,890.21 734.9,893.94 727.18,898.51 720.95,900.58 716.31,901.16 710.25,900.75 704.85,899.17 700.04,896.76 696.64,894.61 693.49,892.12 687.1,886.22 678.88,877.1 672.24,869.05 668.09,863.9 664.11,859.0 659.05,852.78 650.33,842.57 643.2,834.44 638.71,829.46 631.58,821.66 622.12,811.7 616.8,806.47 606.1,797.1 598.88,792.2 586.43,786.8 579.96,785.56 572.07,785.31 565.85,786.39 561.7,787.72 556.22,790.37 550.83,794.69 548.26,797.59 546.68,799.92 544.85,803.15 542.95,808.55 541.87,817.34 542.2,821.41 543.2,825.98 547.84,836.02 550.17,839.42 553.98,843.98 557.88,847.97 569.0,857.43 576.64,863.15 586.18,869.96 591.24,873.61 603.86,882.66 612.82,889.38 618.38,893.78 628.09,902.24 638.22,913.28 642.37,919.42 646.6,927.97 649.42,937.51 650.41,949.88 650.08,954.77 648.84,962.16 647.1,967.88 642.45,976.93 633.15,987.3 623.69,993.53 616.97,996.43 609.75,998.51 604.11,999.5 597.72,1000.0 592.41,999.92 583.28,998.59 578.38,997.18 563.44,990.37 555.64,985.39 547.34,979.17 531.99,966.47 521.29,957.01 513.15,949.63 511.66,948.3 493.24,931.37 478.46,918.01 465.02,906.14 453.82,896.43 445.68,889.79 434.73,880.83 425.44,873.28 418.88,867.88 405.6,856.93 392.99,846.64 385.19,840.17 377.22,833.69 367.26,825.48 355.15,815.52 347.01,808.88 336.8,800.41 326.43,791.95 312.9,780.83 300.37,770.54 290.91,762.74 276.89,751.2 272.66,747.72 257.72,735.44 248.42,727.8 238.63,719.83 223.2,707.55 204.19,692.61 195.15,685.48 185.02,677.51 169.17,665.06 159.96,657.93 145.02,646.39 127.93,633.11 108.84,617.93 99.71,610.46 87.1,599.59 73.98,586.47 69.75,581.49 63.28,571.45 60.62,565.31 59.05,559.34 58.71,553.36 59.88,547.14 61.7,543.4 65.77,538.59 68.51,536.51 75.06,533.36 78.88,532.28 82.45,531.54 87.1,530.95 93.49,530.62 101.54,530.71 113.82,531.78 123.11,533.03 128.42,533.94 135.39,535.35 141.95,536.76 156.39,540.58 167.93,544.32 181.54,549.54 186.76,551.78 197.39,556.76 210.66,564.07 221.2,570.87 233.49,579.5 246.68,589.63 260.87,601.16 273.32,611.78 285.93,622.74 297.8,633.11 310.75,644.48 318.3,651.04 323.94,655.93 333.82,664.32 347.18,674.85 356.97,681.91 362.78,685.56 375.31,691.95 382.7,694.52 390.41,696.1 399.46,696.02 409.09,693.61 414.07,691.04 419.96,686.39 422.45,683.57 427.1,676.1 429.17,671.04 430.33,666.22 431.0,653.69 430.17,647.8 427.84,638.76 423.94,628.88 418.71,618.51 413.98,610.21 410.08,603.65 403.36,591.54 399.71,583.73 396.47,575.52 393.15,563.49 391.41,554.19 390.66,541.58 391.08,532.61 395.89,511.87 400.21,502.16 405.77,491.54 410.5,482.9 419.38,467.55 424.11,459.92 430.17,450.12 435.31,441.08 445.52,422.32 454.73,405.39 458.88,397.93 468.92,379.59 474.9,368.63 476.72,365.31 491.99,337.59 497.63,327.47 511.58,302.57 517.47,292.37 532.66,269.96 541.04,258.51 549.5,247.39 559.21,234.69 563.86,227.8 568.84,219.34 571.41,214.19 575.15,204.81 577.39,196.85 579.38,181.0 577.72,162.32 575.06,151.54 572.66,144.07 569.0,133.86 563.03,118.34 557.63,103.73 554.56,94.77 549.83,78.17 548.09,69.05 547.18,61.24 547.18,48.63 548.42,40.25 550.66,32.53 553.15,26.8 562.95,13.36 565.27,11.2 571.91,6.47 579.54,2.99 586.6,1.08 593.98,0.17 600.37,0.08 613.82,2.24 623.36,5.31 627.18,6.89 636.14,11.29 647.26,18.26 655.73,24.65 664.77,32.28 670.66,37.51 676.56,43.15 681.78,48.46 688.42,55.35 697.05,64.73 708.67,77.59 719.13,89.21 731.24,102.66 738.71,110.95 747.01,120.41 751.99,126.56 756.72,133.53 758.22,136.1 760.37,140.66 762.12,146.14 762.95,152.12 762.78,156.85 761.95,160.91 759.21,167.72 755.39,175.19 754.15,177.68 752.32,182.16 750.41,190.71 750.08,195.02 750.08,200.66 750.33,205.89 751.08,212.86 752.24,218.42 755.15,228.88 757.72,237.18 759.13,242.24 761.29,249.46 763.03,255.85 764.85,263.32 766.76,270.95 768.92,279.75 772.9,292.03 775.73,297.84 779.79,304.56 784.36,310.62 788.42,314.94 802.12,324.32 813.4,327.8 820.46,328.88 829.92,329.71 848.01,331.37 862.78,334.69 875.56,341.74 880.95,346.14 885.77,350.95 890.25,356.51 894.9,364.73 897.05,370.62 898.88,379.5 899.29,383.4 899.38,392.2 898.8,398.42 897.72,405.48 896.06,413.61 895.06,417.43 892.16,428.38 889.34,438.17 885.6,451.95 883.78,460.0 882.03,471.2 881.04,481.83 881.29,493.94 882.61,511.45 888.09,534.11 893.82,548.22 899.79,558.67 904.94,566.22 919.46,585.23 928.67,599.5 934.73,611.95 939.54,627.39 941.29,643.9 940.37,657.01 937.72,668.55 934.07,677.34 928.01,688.13 912.99,706.39 901.62,718.01 890.83,728.8 875.06,744.98 865.02,755.27 856.47,764.07 847.76,773.03 838.13,782.9 831.66,789.63 821.87,799.83 812.82,809.38 807.84,814.61 792.99,830.54 784.02,840.33 772.16,853.69 760.54,867.39 756.8,871.87 745.93,884.32 734.73,894.02 727.76,898.17 722.78,900.08 718.71,900.91 709.25,900.5 704.02,898.84 698.88,896.1 693.65,892.28 691.33,890.29 686.35,885.48 677.63,875.6 675.64,873.2 669.83,866.06 665.52,860.66 659.38,853.28 655.56,848.63 649.0,840.91 641.12,832.12 633.07,823.32 624.77,814.36 612.9,802.82 606.02,797.01 599.38,792.53 591.41,788.46 585.6,786.56 578.63,785.39 571.41,785.39 562.78,787.3 557.55,789.63 553.07,792.61 548.09,797.76 544.11,804.9 542.45,810.79 541.95,814.69 541.95,818.67 542.28,822.16 543.69,827.39 544.85,830.46 549.83,838.92 554.56,844.65 558.38,848.46 565.02,854.27 571.16,859.0 584.85,869.05 595.64,876.68 602.37,881.58 614.15,890.46 616.31,892.12 624.69,899.09 635.56,909.96 642.7,920.08 649.09,936.1 650.33,944.73 650.33,952.53 649.42,959.25 648.76,962.57 646.02,970.46 640.95,979.09 637.05,983.65 633.24,987.3 630.91,989.13 624.36,993.2 618.38,995.93 613.73,997.43 603.94,999.5 597.05,1000.0 588.42,999.42 575.15,996.1 565.93,991.87 551.99,982.74 543.2,975.85 536.97,970.71 526.43,961.58 508.67,945.56 503.36,940.66 485.35,924.23 478.88,918.34 468.84,909.46 457.97,900.08 439.54,884.73"
    fill="none"
    stroke="#888"
    stroke-width="4"
    stroke-linejoin="round"
    stroke-linecap="round"
  />
</svg>
