<svg xmlns="http://www.w3.org/2000/svg" viewBox="0 0 1000 1000">
  <polyline
    points="729.65,292.31 717.44,292.97 698.88,293.96 690.88,294.46 681.93,294.96 672.04,295.29 659.39,295.68 651.22,295.95 632.99,296.56 625.7,296.61 615.65,296.17 603.72,294.85 589.91,292.31 580.75,290.26 570.69,287.94 560.64,285.46 550.65,282.97 527.73,277.5 519.44,275.68 507.73,273.64 502.1,272.81 494.53,272.04 482.16,271.26 468.85,270.93 461.28,270.88 450.9,270.93 441.46,271.1 429.25,271.54 418.92,272.2 397.49,274.19 388.21,275.24 373.63,277.06 360.76,278.83 350.71,280.21 339.78,281.7 327.02,283.58 311.06,286.67 309.34,287.06 301.67,289.21 285.15,294.41 276.98,297.0 269.19,299.38 264.28,300.92 256.21,304.95 251.96,310.2 249.36,317.16 247.98,322.46 245.72,328.76 243.62,332.51 240.86,336.16 237.55,339.42 232.52,343.23 224.4,348.31 219.21,351.35 209.27,357.09 204.08,360.13 196.12,364.99 187.34,371.51 178.67,381.45 174.53,389.07 171.1,397.02 170.11,399.67 166.24,409.84 163.7,416.74 159.78,427.23 159.23,428.61 153.54,443.8 150.5,451.87 148.24,457.83 145.48,465.34 141.17,476.72 138.85,482.85 134.76,493.73 132.44,499.97 130.07,506.27 124.71,520.57 120.18,532.61 118.03,538.19 111.62,554.1 107.31,564.32 102.67,575.25 98.81,585.91 98.2,588.12 96.98,603.97 97.81,610.38 100.13,621.37 101.07,625.29 102.78,632.3 104.5,642.96 103.67,650.09 101.46,654.78 98.64,658.26 93.62,662.85 90.14,665.88 85.39,669.97 77.43,676.71 67.6,684.99 61.03,690.57 58.05,693.06 51.03,699.13 45.45,704.38 41.53,708.19 40.1,709.68 34.68,715.04 27.84,721.83 19.66,729.56 12.21,736.69 9.39,739.62 6.63,742.76 4.09,746.19 1.99,750.0 0.22,755.85 0.06,759.94 1.16,764.64 1.82,766.07 3.76,768.89 5.8,771.04 7.68,772.53 11.1,774.52 13.97,775.68 16.07,776.29 20.6,777.01 24.41,777.17 28.72,777.01 32.59,776.68 34.96,776.34 39.54,775.68 49.15,773.91 53.08,773.14 58.71,771.98 69.15,769.83 74.95,768.72 82.18,767.4 90.3,765.96 96.71,764.8 103.94,763.59 112.78,762.15 124.65,760.33 133.27,759.06 145.03,757.46 158.51,755.58 166.91,754.47 176.13,753.37 191.04,751.88 199.82,751.27 211.86,750.83 224.73,750.88 236.05,751.38 246.6,752.26 253.89,753.04 268.53,754.69 274.99,755.47 284.77,756.57 292.06,757.4 302.28,758.45 312.38,759.17 314.32,759.22 327.63,757.79 335.3,754.64 339.67,751.77 344.75,746.96 348.01,742.54 353.58,732.49 357.62,724.37 362.7,712.77 364.52,707.64 367.72,694.05 368.55,686.87 368.88,678.81 368.72,672.07 367.94,662.46 366.73,653.24 365.18,643.96 362.59,631.53 360.6,622.92 358.44,613.47 357.51,609.55 353.92,593.59 350.82,580.0 348.83,571.16 348.28,568.73 346.74,560.78 345.85,550.07 347.23,541.12 352.04,528.86 356.13,521.18 360.32,513.95 366.23,505.44 369.82,501.68 372.64,499.64 378.0,497.43 382.86,497.16 386.72,497.71 387.94,497.93 395.01,499.81 400.14,501.13 404.23,502.02 409.92,502.84 413.68,503.23 419.31,503.51 425.0,503.62 428.75,503.62 441.23,503.56 446.59,503.51 452.12,503.45 464.82,503.34 471.39,503.29 480.17,503.23 485.7,503.18 497.74,503.07 506.46,503.01 518.34,502.9 528.17,502.73 541.98,502.18 548.11,501.68 564.34,500.19 572.13,499.53 583.01,498.59 595.55,497.6 611.45,496.27 618.8,495.66 632.44,494.62 639.18,494.23 646.47,494.73 648.46,495.55 652.82,498.87 656.85,503.29 657.85,504.34 660.44,506.71 662.82,508.37 666.41,509.86 670.16,510.3 673.04,509.91 677.57,508.75 681.76,507.43 686.79,505.5 693.03,502.68 701.15,498.65 708.55,494.73 709.99,494.01 719.71,488.82 731.42,482.8 736.55,480.31 742.35,477.6 751.3,473.52 762.73,467.99 776.1,460.37 779.8,458.0 786.59,453.41 793.38,448.61 800.78,443.14 806.36,438.89 811.94,434.47 822.88,425.14 823.98,424.03 834.53,413.76 843.59,404.04 847.51,399.67 854.25,392.16 858.83,387.08 864.52,380.73 872.58,371.84 878.38,365.43 883.63,359.63 890.64,351.9 900.2,341.79 905.78,336.44 913.9,329.97 922.68,324.17 926.6,322.13 940.41,316.17 953.05,311.14 961.23,307.83 966.75,305.56 975.37,302.03 981.83,299.38 986.08,297.44 991.99,294.02 996.41,289.66 997.63,287.78 999.67,281.98 1000.0,278.44 1000.0,277.39 999.56,273.2 998.62,268.94 997.35,264.58 995.91,260.11 995.36,258.56 992.21,250.17 990.06,245.47 987.3,240.22 984.37,235.58 977.69,228.57 971.06,225.04 962.11,223.05 952.78,223.05 947.59,223.99 945.82,224.43 940.52,226.31 931.29,230.45 923.06,234.26 918.37,236.41 914.12,238.35 908.54,240.83 902.85,243.43 896.44,246.35 887.39,250.44 878.66,254.42 873.52,256.68 865.62,260.05 856.01,264.08 847.79,267.56 842.21,269.88 835.14,272.87 827.24,276.18 776.81,290.04 755.27,290.93 744.89,291.37 734.56,292.03 718.88,292.86 712.69,293.19 695.02,294.24 681.65,294.96 667.29,295.45 650.06,296.01 641.89,296.34 626.31,296.61 616.26,296.23 608.97,295.51 596.05,293.52 577.71,289.6 567.66,287.23 559.48,285.18 550.31,282.92 531.98,278.44 519.99,275.79 510.71,274.08 495.69,272.15 475.75,271.04 462.44,270.88 451.07,270.93 442.62,271.1 434.11,271.32 424.78,271.82 408.87,273.03 387.44,275.35 374.96,276.9 357.45,279.27 343.75,281.15 332.82,282.7 317.52,285.24 308.9,287.17 301.28,289.32 293.16,291.86 284.99,294.46 275.76,297.33 271.02,298.82 265.88,300.43 260.96,302.14 256.71,304.62 253.62,307.66 250.91,312.52 249.42,317.22 247.21,324.89 244.5,331.08 239.42,337.65 235.45,341.19 230.14,344.83 206.84,358.53 200.98,362.01 190.77,368.75 180.77,378.47 172.82,392.83 167.79,405.75 163.43,417.51 161.55,422.48 158.35,430.99 155.92,437.45 152.88,445.57 150.34,452.25 146.14,463.52 141.5,475.73 138.35,484.23 135.42,492.07 134.21,495.22 131.28,503.12 128.58,510.3 125.26,519.08 120.13,532.72 118.58,536.7 114.49,547.08 108.25,562.11 105.93,567.63 101.29,578.73 98.64,586.41 96.98,595.3 97.7,609.83 98.48,614.19 100.41,622.42 103.56,635.89 104.05,638.6 104.5,644.73 103.11,651.58 100.8,655.67 95.99,660.75 92.12,664.12 85.5,669.86 83.07,671.96 77.54,676.6 72.74,680.69 66.83,685.71 63.07,688.86 60.2,691.23 50.81,699.3 41.53,708.25 36.62,713.11 30.21,719.46 24.3,725.26 16.24,732.77 6.96,742.32 4.31,745.8 1.88,750.28 0.28,755.41 0.22,761.38 1.16,764.58 2.49,767.23 7.18,772.2 9.94,773.97 14.03,775.74 14.91,775.96 18.56,776.73 23.03,777.12 27.78,777.06 33.19,776.57 33.97,776.46 39.82,775.63 43.85,774.91 51.53,773.47 62.41,771.21 71.41,769.39 75.5,768.61 89.64,766.07 93.45,765.41 104.61,763.42 114.11,761.98 143.38,757.68 156.85,755.8 170.22,754.09 179.5,753.04 191.32,751.88 198.5,751.33 216.94,750.77 232.35,751.16 240.47,751.66 247.76,752.37 263.17,754.09 270.52,754.92 287.64,756.9 298.08,758.06 308.74,759.0 310.89,759.11 323.54,758.67 333.43,755.63 337.13,753.59 344.86,746.85 352.98,733.65 356.18,727.25 358.78,721.94 364.35,708.19 365.9,702.89 367.5,695.21 368.5,687.31 368.83,673.95 368.05,663.34 367.06,655.56 366.29,650.14 364.85,642.41 362.92,633.02 361.1,625.07 358.89,615.51 355.74,601.82 353.36,591.27 351.71,583.92 349.5,574.15 348.61,570.06 346.68,560.39 346.13,546.75 351.65,529.58 358.22,517.54 361.65,511.85 365.96,505.83 368.5,503.01 373.14,499.31 378.49,497.38 382.41,497.1 388.99,498.21 394.07,499.53 397.6,500.52 402.13,501.57 407.77,502.57 416.99,503.45 425.44,503.62 434.77,503.62 439.96,503.56 445.76,503.51 452.94,503.45 457.91,503.4 463.71,503.34 479.84,503.23 488.18,503.12 496.69,503.07 503.2,503.01 509.06,502.95 523.2,502.84 530.1,502.68 542.25,502.13 550.09,501.46 557.11,500.86 563.29,500.3 580.36,498.81 588.15,498.15 603.61,496.88 619.63,495.55 631.83,494.62 639.01,494.23 643.05,494.28 647.91,495.28 652.21,498.32 654.64,500.86 660.5,506.77 662.93,508.42 665.86,509.69 670.66,510.25 673.53,509.8 678.89,508.37 682.43,507.15 686.46,505.61 690.43,503.89 694.52,501.96 700.21,499.09 709.1,494.45 713.85,491.96 720.87,488.21 730.37,483.29 741.25,478.1 750.86,473.74 757.04,470.87 760.69,469.04 772.62,462.53 781.23,457.06 789.19,451.59 792.89,448.94 805.92,439.27 815.75,431.32 821.16,426.63 826.47,421.71 831.99,416.35 839.06,408.95 843.53,404.04 851.93,394.76 863.75,381.61 869.44,375.32 896.89,345.16 908.76,333.84 912.13,331.19 924.0,323.51 936.32,317.82 946.04,313.96 953.77,310.86 960.46,308.16 976.47,301.59 982.33,299.15 989.45,295.68 994.81,291.53 997.4,288.16 999.01,284.74 999.39,283.3 1000.0,279.27 999.67,273.8 998.62,268.78 996.85,262.98 995.91,260.05 994.42,255.91 991.16,247.79 987.68,240.89 986.19,238.35 983.76,234.7 981.28,231.83 977.13,228.24 971.23,225.09 969.13,224.37 964.54,223.32 959.85,222.88 953.33,222.99 948.14,223.88 947.26,224.1 938.8,227.02 934.22,229.07 926.88,232.49 921.68,234.92 915.33,237.79 908.59,240.83 904.01,242.93 896.94,246.13 893.9,247.51 889.04,249.72 878.33,254.53 867.94,259.11 863.25,261.05 845.02,268.67 840.05,270.77 831.49,274.41 821.39,278.61 815.48,280.93 799.4,286.12 790.68,288.16 784.22,289.27 775.88,290.1 762.56,290.76 750.41,291.09 742.74,291.53 734.95,291.98 726.28,292.47 714.02,293.13 703.41,293.74 690.1,294.52 672.21,295.29 666.8,295.45 648.74,296.06 637.8,296.45 629.57,296.61 616.81,296.28 605.82,295.12 599.36,294.13 579.2,289.93 573.73,288.66 560.04,285.35 544.52,281.48 535.4,279.27 517.95,275.41 508.67,273.75 494.64,272.04 478.46,271.1 470.84,270.93 456.64,270.88 444.38,271.04 430.3,271.48 427.48,271.65 405.0,273.42 396.61,274.3 387.27,275.35 374.52,276.95 366.23,278.06 349.72,280.32 341.49,281.48 332.38,282.81 324.2,284.02 317.08,285.35 303.27,288.72 295.1,291.26 284.82,294.52 276.32,297.17 265.33,300.59 255.16,305.95 251.57,310.86 249.03,318.43 247.43,324.17 244.67,330.8 243.9,332.07 240.58,336.49 232.96,342.95 222.85,349.25 215.01,353.78 206.78,358.58 200.43,362.34 191.81,367.97 183.86,374.82 177.4,383.49 170.55,398.51 168.73,403.26 163.04,418.45 159.34,428.39 155.53,438.5 151.11,450.32 148.24,457.78 143.71,469.93 141.11,476.78 138.24,484.51 135.04,493.07 132.66,499.42 129.68,507.32 124.6,520.96 120.62,531.34 118.47,536.98 112.12,552.94 108.09,562.44 104.44,571.11 99.58,583.43 97.98,589.06 96.93,596.13 97.7,609.88 98.64,614.85 101.29,626.12 102.45,630.87 103.67,636.56 104.5,643.3 103.28,651.25 100.96,655.5 96.32,660.53 91.79,664.45 89.75,666.27 79.2,675.16 70.25,682.78 65.61,686.76 61.31,690.3 52.47,697.81 48.33,701.62 38.66,711.06 31.37,718.35 23.53,726.03 15.08,733.87 8.84,740.22 3.87,746.52 1.6,750.94 0.0,758.17 1.1,764.47 4.97,770.27 7.29,772.2 11.32,774.63 16.02,776.23 22.81,777.12 26.51,777.12 32.2,776.68 34.08,776.46 39.43,775.68 45.62,774.58 49.43,773.86 55.73,772.59 60.97,771.48 71.03,769.44 78.04,768.12 93.45,765.41 97.32,764.69 107.26,763.03 111.34,762.37 123.16,760.6 138.3,758.4 147.19,757.12 154.76,756.08 164.64,754.75 172.48,753.81 185.02,752.43 196.9,751.44 204.9,750.99 215.4,750.77 225.06,750.88 231.58,751.1 241.3,751.77 255.16,753.15 268.97,754.75 272.23,755.14 280.4,756.08 293.38,757.51 305.09,758.73 313.65,759.22 324.26,758.56 334.14,755.25 338.84,752.37 340.77,750.88 350.27,738.73 351.82,735.86 355.68,728.29 358.83,721.83 362.81,712.55 365.74,703.33 367.45,695.71 368.61,686.37 368.88,680.47 368.72,672.24 368.33,666.11 367.39,657.82 366.12,649.32 364.85,642.3 363.58,636.0 361.04,624.96 359.05,616.18 355.52,600.88 353.53,591.93 350.77,579.72 349.99,576.52 347.12,562.77 345.91,552.72 346.24,546.03 348.45,537.14 354.52,524.0 358.5,517.09 361.48,512.12 366.23,505.44 370.98,500.8 374.41,498.7 379.76,497.16 386.56,497.65 391.25,498.76 394.79,499.7 400.75,501.3 402.85,501.74 412.18,503.07 419.42,503.56 423.56,503.62 426.21,503.62 437.37,503.56 444.88,503.51 454.66,503.4 461.67,503.34 473.6,503.29 482.44,503.18 489.45,503.12 492.99,503.12 500.17,503.07 516.35,502.9 522.37,502.84 533.8,502.57 545.68,501.85 557.49,500.8 566.83,499.97 572.24,499.48 589.42,498.09 597.21,497.43 610.13,496.33 623.94,495.22 630.07,494.78 635.2,494.39 643.1,494.28 648.4,495.55 652.21,498.32 654.2,500.3 657.08,503.56 661.16,507.26 666.08,509.75 670.99,510.19 675.08,509.42 679.06,508.31 682.7,507.04 684.91,506.21 687.56,505.16 691.65,503.34 695.79,501.35 701.54,498.43 703.69,497.32 710.37,493.79 715.62,490.97 723.24,486.99 733.51,481.75 738.59,479.32 745.66,476.06 752.95,472.74 762.84,467.99 769.69,464.24 775.21,460.98 781.9,456.62 791.73,449.77 800.4,443.42 810.89,435.3 816.41,430.77 821.83,426.07 829.45,418.84 839.61,408.35 848.56,398.46 855.85,390.34 869.55,375.21 877.66,366.26 879.98,363.66 889.32,353.34 895.28,346.93 900.7,341.3 908.26,334.28 915.99,328.43 924.39,323.29 937.59,317.33 945.6,314.12 957.03,309.54 966.86,305.51 979.29,300.43 985.2,297.88 991.11,294.63 993.65,292.69 996.74,289.21 998.51,285.9 999.17,284.19 999.89,280.54 1000.0,276.95 999.61,273.31 998.18,267.29 997.85,266.18 996.24,261.16 994.86,257.12 992.82,251.71 992.16,250.06 989.4,244.2 987.13,239.89 982.77,233.49 978.9,229.56 971.67,225.26 967.14,223.82 959.52,222.83 954.27,222.94 949.85,223.49 945.43,224.54 936.71,227.91 931.02,230.56 925.05,233.38 920.91,235.25 916.11,237.41 911.19,239.67 903.24,243.26 897.38,245.91 888.27,250.06 882.69,252.6 877.61,254.86 872.47,257.12 865.24,260.22 858.33,263.09 852.2,265.69 839.0,271.21 834.03,273.36 815.09,281.04 806.8,283.97 796.64,286.84 795.1,287.23 784.66,289.21 776.32,290.04 766.43,290.59 749.97,291.09 733.62,292.09"
    fill="none"
    stroke="#888"
    stroke-width="4"
    stroke-linejoin="round"
    stroke-linecap="round"
  />
</svg>
