<svg xmlns="http://www.w3.org/2000/svg" viewBox="0 0 1000 1000">
  <polyline
    points="712.22,934.86 720.22,925.83 730.79,914.03 736.95,907.21 747.82,895.06 758.44,883.21 765.93,874.79 770.44,869.77 776.6,863.05 782.96,856.02 786.08,852.43 790.55,846.02 792.39,841.61 793.37,836.74 793.32,832.38 792.29,827.71 789.73,822.48 786.44,818.32 784.08,816.12 781.67,814.37 779.62,813.19 776.9,811.91 773.62,810.83 769.88,810.01 766.18,809.55 762.03,809.4 756.95,809.86 753.05,810.68 745.72,813.24 736.48,818.53 728.28,824.58 723.87,828.43 716.74,835.56 708.99,842.89 703.4,847.1 699.66,849.1 691.65,851.56 687.45,852.12 679.75,851.87 673.65,850.64 662.16,846.53 658.52,844.63 650.83,839.76 649.08,838.38 644.77,834.43 637.9,825.86 635.08,821.14 631.23,812.06 629.33,804.52 628.46,799.24 627.54,791.19 626.67,782.31 626.21,776.72 626.0,773.9 625.03,758.77 624.2,746.15 623.54,734.05 623.08,723.89 622.77,715.99 622.46,708.76 622.15,700.66 621.69,689.99 621.08,674.14 620.77,667.37 620.05,646.85 619.54,632.85 619.13,620.49 618.31,597.2 617.74,581.81 617.43,572.73 616.77,553.55 616.41,542.57 615.84,526.93 615.59,519.54 615.18,508.46 614.87,499.23 614.36,484.41 613.95,473.43 613.69,465.43 613.38,456.86 613.13,449.22 612.77,438.5 612.56,432.6 612.2,422.34 612.0,416.96 611.84,412.44 611.69,408.19 611.48,403.11 611.33,397.93 611.38,393.21 612.56,384.18 614.97,376.03 616.66,372.28 618.56,369.26 620.15,367.36 621.18,366.38 623.38,364.79 628.31,363.0 630.82,362.64 633.69,362.43 635.49,362.38 639.49,362.38 642.11,362.38 644.77,362.38 647.95,362.38 653.7,362.38 658.31,362.38 663.19,362.33 659.75,362.33 670.73,362.23 675.86,362.18 681.19,362.18 690.17,362.13 695.45,362.07 700.27,362.07 710.84,361.87 722.89,360.28 733.3,357.25 737.82,355.56 744.69,352.43 752.08,348.23 757.46,344.79 766.44,338.12 769.0,335.81 777.42,326.68 782.24,320.22 789.93,307.35 793.88,297.91 796.75,287.39 797.42,283.65 797.73,280.06 797.73,276.67 797.37,273.13 796.45,269.23 795.06,265.75 793.93,263.64 792.65,261.75 789.57,258.77 787.78,257.75 785.83,256.87 780.54,255.23 777.47,254.05 775.21,252.77 773.36,251.28 771.67,249.49 769.88,246.77 768.95,244.61 768.18,241.33 768.29,236.15 769.62,231.38 770.65,228.87 772.34,225.58 773.77,222.97 777.26,216.97 780.6,210.76 781.47,208.81 783.83,201.53 784.34,197.58 784.29,194.35 783.98,192.04 783.31,189.06 782.08,186.14 781.11,184.4 778.24,181.37 775.52,179.88 772.65,179.06 768.29,178.65 760.23,178.75 756.23,178.91 754.64,178.96 751.0,179.01 743.61,179.11 738.02,179.27 736.48,179.32 727.71,179.47 721.76,179.58 717.61,179.68 710.38,179.83 704.99,179.93 699.5,180.09 693.24,180.24 678.22,180.4 664.62,180.4 656.16,180.34 649.03,180.29 630.98,180.24 623.59,180.19 614.56,179.93 608.51,179.58 604.0,179.06 594.1,177.47 582.5,175.22 571.07,171.83 557.52,166.39 542.65,158.14 536.19,153.26 528.49,146.08 524.13,141.26 516.39,130.9 512.49,124.74 507.87,116.23 502.69,105.2 498.03,94.89 493.2,84.38 490.38,78.27 484.38,66.06 480.12,58.73 474.28,50.32 468.84,43.8 461.09,36.06 455.45,31.13 446.32,24.26 440.89,20.77 435.29,17.64 419.7,11.03 407.8,7.54 396.52,5.03 392.11,4.1 387.64,3.23 381.18,2.0 376.87,1.23 372.92,0.56 368.87,0.05 363.48,0.36 360.2,1.69 358.51,2.87 355.64,5.74 353.12,9.64 351.58,13.59 350.97,15.95 350.3,19.29 349.79,21.54 348.15,27.34 346.92,30.72 344.71,35.75 342.3,40.78 340.76,44.06 337.99,49.75 335.63,54.83 332.86,60.88 330.71,65.45 326.91,73.3 323.01,80.73 320.04,86.17 316.3,92.89 313.37,97.97 307.68,107.87 303.88,114.49 299.78,121.92 296.34,128.18 292.6,135.31 289.16,141.82 282.13,155.06 276.24,165.88 271.11,175.57 247.15,230.0 245.2,235.59 242.28,244.41 237.77,260.0 234.23,272.41 230.84,284.16 228.69,291.75 226.84,298.52 223.3,312.32 220.38,324.48 216.99,340.27 214.94,350.94 211.61,370.74 210.94,375.26 209.25,388.03 208.17,397.21 207.04,408.24 205.91,422.04 205.71,424.86 204.68,443.58 204.43,452.96 204.22,463.33 204.17,473.74 204.17,485.13 204.17,495.85 204.32,515.9 204.38,521.59 204.53,542.73 204.68,558.17 204.73,568.83 204.89,584.43 204.99,601.05 204.99,612.79 204.94,630.49 204.84,647.26 204.73,665.06 204.63,677.93 204.58,682.91 204.48,701.84 204.43,712.81 204.32,730.77 204.27,738.77 204.22,750.82 204.17,758.82 204.07,771.8 204.07,776.83 203.86,797.7 203.61,817.55 203.45,829.4 203.35,838.27 203.14,856.89 202.94,874.85 202.89,878.23 202.68,895.67 202.53,908.08 202.43,916.6 202.32,926.75 202.27,932.7 202.22,937.17 202.27,942.19 202.68,950.45 203.61,956.3 204.48,959.32 205.2,961.33 206.48,964.04 209.4,968.92 211.04,970.92 213.4,973.02 217.76,975.43 220.38,976.2 223.66,976.76 227.82,977.33 231.92,978.41 235.41,980.1 237.72,981.59 241.15,984.15 244.9,987.18 247.31,989.13 252.28,992.87 257.16,995.74 260.85,997.28 264.28,998.2 272.65,999.23 277.47,999.38 282.96,999.54 290.29,999.74 300.29,1000.0 310.81,999.69 315.94,999.54 324.45,999.33 333.22,999.08 341.53,998.92 348.56,998.72 358.61,998.46 364.46,998.31 375.64,998.0 383.23,997.79 394.0,997.49 405.7,997.13 415.19,996.82 423.24,996.56 432.99,996.31 443.45,996.1 452.58,996.0 465.15,996.1 482.07,996.2 492.38,996.46 501.87,996.56 508.85,996.56 542.44,996.41 557.63,996.2 565.73,996.0 579.32,995.74 592.81,995.28 606.05,994.61 610.66,994.41 628.1,992.97 635.28,991.79 646.82,988.72 657.08,984.51 671.7,976.0 684.11,966.51 688.17,962.56 696.84,953.07 711.2,936.09 717.87,928.45 722.84,922.96 727.76,917.42 736.38,907.83 743.1,900.34 747.92,894.95 752.59,889.72 759.82,881.62 764.95,875.92 769.62,870.69 774.03,865.87 779.62,859.71 784.8,853.92 788.85,848.84 791.21,844.74 792.29,841.92 793.21,837.97 793.47,835.15 793.32,832.43 792.34,827.91 790.39,823.55 788.19,820.27 785.57,817.45 783.11,815.35 781.16,814.06 778.54,812.63 776.34,811.7 772.8,810.63 767.47,809.65 764.13,809.45 760.34,809.5 757.57,809.81 753.0,810.68 751.46,811.14 745.61,813.35 740.54,816.01 735.66,819.09 721.56,830.73 715.56,836.79 711.86,840.27 703.45,847.05 699.71,849.05 694.78,850.84 688.12,852.07 679.34,851.82 668.68,849.2 662.37,846.64 657.13,843.87 650.83,839.71 647.39,836.94 642.62,832.17 638.0,826.07 634.93,820.84 631.54,812.94 629.33,804.37 628.26,797.45 626.92,785.39 626.26,777.08 625.74,770.06 625.03,759.23 624.62,752.62 624.26,746.67 623.44,732.15 622.92,719.69 622.41,707.68 622.05,697.94 621.79,691.37 621.33,680.6 620.82,668.03 620.51,660.39 620.26,653.52 620.0,645.72 619.69,637.05 619.43,630.03 619.02,617.67 618.72,609.46 618.26,595.46 617.79,582.79 617.54,575.5 616.92,558.11 616.46,544.37 616.2,536.98 615.84,526.77 615.43,514.72 615.07,504.51 614.41,486.77 613.95,472.76 613.64,463.43 613.33,455.22 613.07,448.14 612.66,436.45 612.36,427.57 611.95,416.29 611.59,405.88 611.38,400.7 611.43,392.44 612.56,384.03 613.59,380.13 614.92,376.23 617.18,371.41 618.77,369.0 623.03,365.0 627.03,363.31 630.92,362.64 634.16,362.43 640.98,362.38 644.31,362.38 647.85,362.38 655.6,362.38 663.14,362.33 666.32,362.28 672.52,362.23 678.37,362.18 686.78,362.13 694.32,362.07 703.5,362.02 709.2,361.92 714.89,361.61 727.76,359.05 736.18,356.23 743.67,352.94 749.77,349.61 759.21,343.61 772.95,331.81 775.31,329.25 785.47,315.4 789.37,308.47 793.11,300.01 795.01,294.47 796.55,288.57 797.68,281.54 797.42,273.59 796.96,271.03 795.93,267.7 792.39,261.39 789.93,259.03 788.08,257.9 784.34,256.36 780.39,255.18 778.08,254.31 775.01,252.62 771.67,249.49 770.13,247.28 768.23,241.64 768.03,239.64 768.59,234.61 769.98,230.41 771.62,226.97 772.7,224.92 774.75,221.33 776.44,218.3 779.26,213.38 781.62,208.5 783.83,201.73 784.34,197.53 784.29,194.76 783.37,189.37 780.39,183.47 779.42,182.35 775.52,179.83 773.62,179.27 771.88,178.91 768.85,178.65 765.41,178.65 763.16,178.7 758.44,178.86 755.0,178.96 748.54,179.06 745.15,179.06 739.1,179.22 732.18,179.37 727.25,179.47 723.46,179.52 717.97,179.68 706.07,179.93 698.32,180.14 688.27,180.34 674.52,180.4 667.09,180.4 657.39,180.34 648.21,180.29 633.28,180.24 628.15,180.24 616.15,180.04 605.53,179.27 596.4,177.88 590.15,176.81 574.04,172.86 565.63,169.83 559.58,167.37 551.52,163.47 541.78,157.52 535.88,153.01 524.13,141.26 516.59,131.26 512.59,124.95 506.69,113.87 503.15,106.18 499.62,98.43 497.51,93.76 491.2,80.02 487.05,71.3 481.25,60.53 471.15,46.42 466.43,41.24 456.22,31.75 450.94,27.54 446.22,24.16 439.3,19.85 432.27,16.16 420.27,11.18 414.42,9.34 401.75,6.1 397.18,5.13 390.98,3.9 385.59,2.87 381.13,2.0 372.97,0.56 365.23,0.1 361.07,1.23 358.41,3.03 355.74,5.69 353.64,8.62 352.2,11.8 351.28,14.72 350.25,19.59 349.53,22.62 348.56,26.16 347.48,29.24 343.99,37.29 341.22,43.03 337.48,50.93 335.89,54.22 333.74,58.94 329.43,68.17 328.66,69.71 324.55,77.81 319.78,86.63 314.35,96.28 312.65,99.2 308.65,106.18 303.16,115.77 298.14,124.95 295.06,130.64 291.68,137.11 283.57,152.39 279.57,159.83 276.54,165.32 273.21,171.57 269.52,178.6 264.54,188.76 262.13,193.89 258.8,201.43 254.23,211.99 251.41,218.97 248.64,226.05 244.08,238.82 240.02,252.0 238.13,258.67 235.77,267.08 232.12,279.75 229.2,289.96 226.84,298.57 223.46,311.6 220.12,325.61 216.22,344.22 215.2,349.61 212.68,364.02 207.91,399.62 207.04,407.93 206.17,418.19 205.25,432.19 204.73,442.5 204.38,454.76 204.17,475.64 204.17,489.95 204.17,498.51 204.27,511.95 204.38,520.57 204.43,528.26 204.53,539.85 204.63,553.4 204.63,555.34 204.79,571.86 204.84,580.63 204.89,588.43 204.99,600.17 204.99,606.07 204.99,620.85 204.94,630.74 204.89,639.62 204.84,648.54 204.73,665.47 204.68,673.42 204.58,683.42 204.53,692.45 204.43,712.51 204.32,728.56 204.27,737.64 204.17,752.67 204.07,770.72 203.96,789.7 203.81,801.7 203.66,813.65 203.45,830.58 203.35,840.53 203.2,851.46 203.04,868.28 202.84,883.82 202.73,893.0 202.53,908.8 202.43,918.96 202.32,925.93 202.27,932.76 202.22,937.06 202.37,946.35 202.58,949.32 203.35,954.81 203.61,956.09 204.58,959.63 205.71,962.45 207.5,965.99 209.09,968.46 211.45,971.33 214.63,973.89 216.53,974.92 218.58,975.74 221.87,976.51 224.02,976.82 227.3,977.28 229.77,977.74 235.77,980.3 239.25,982.71 243.51,986.05 247.87,989.59 253.21,993.49 256.28,995.28 264.8,998.36 272.18,999.23 285.11,999.59 297.98,1000.0 303.52,999.9 314.96,999.59 325.53,999.28 335.02,999.08 337.12,999.03 351.23,998.67 360.66,998.41 371.74,998.1 382.21,997.85 392.98,997.54 407.08,997.08 415.8,996.82 427.91,996.46 436.01,996.26 443.4,996.1 452.53,996.0 460.02,996.05 468.43,996.1 478.59,996.15 486.23,996.31 498.23,996.56 499.97,996.56 513.05,996.56 520.9,996.56 529.72,996.51 541.26,996.41 552.86,996.31 572.6,995.9 587.12,995.54 605.02,994.67 613.28,994.26 630.46,992.61 642.77,989.95 658.78,983.69 669.14,977.69 676.73,972.51 685.29,965.48 691.24,959.27 696.17,953.84 702.58,946.25 706.63,941.42 718.43,927.83 727.51,917.73 731.71,913.01 739.56,904.29 744.38,898.9 750.85,891.67 755.36,886.64 763.57,877.46 770.39,869.82 779.11,860.23 785.11,853.56 786.55,851.87 788.6,849.15 791.57,843.87 793.16,838.58 793.47,834.38 792.19,827.55 789.37,821.91 787.57,819.5 784.34,816.32 780.65,813.76 773.72,810.88 771.52,810.32 764.39,809.45 757.82,809.76 756.64,809.91 751.1,811.24 746.13,813.04 741.66,815.35 736.69,818.42 730.43,822.89 726.69,825.91 719.87,832.43 714.17,838.12 706.12,845.3 701.5,848.17 695.96,850.48 686.88,852.17 678.22,851.66 672.27,850.33 663.96,847.4 660.42,845.71 651.18,840.02 646.62,836.22 639.54,828.27 635.13,821.3 631.74,813.6 629.33,804.63 627.69,793.14 626.62,781.9 626.46,779.75 625.9,772.57 624.77,754.98 623.9,740.56 623.08,724.25 622.87,718.71 622.41,707.48 622.15,701.02 621.69,689.58 621.23,678.86 620.77,667.16 620.36,656.19 620.1,649.42 619.54,633.05 619.18,621.77 618.77,611.36 618.46,602.53 618.26,595.51 617.84,584.94 617.54,576.12 617.13,563.71 616.92,558.42 616.41,543.24 616.1,534.31 615.64,520.93 615.33,512.87 614.92,500.26 614.51,489.49 614.2,480.46 613.84,470.56 613.54,460.66 613.13,449.22 612.72,437.73 612.46,430.81 612.25,423.88 611.89,413.93 611.54,404.65 611.38,400.18 611.28,396.54 611.38,393.16 612.05,387.41 612.36,385.26 613.54,380.33 614.31,377.87 615.69,374.44 617.13,371.51 618.97,368.69 621.02,366.54 624.26,364.33 630.0,362.69 632.62,362.48 637.08,362.38 644.16,362.38 647.8,362.38 655.9,362.38 659.65,362.33 667.5,362.28 674.32,362.23 679.24,362.18 684.94,362.13 693.81,362.07 701.14,362.02 708.74,361.92 714.53,361.61 720.28,360.79 730.59,358.18 731.87,357.71 745.77,351.87 751.82,348.38 764.64,339.61 772.85,331.91 781.57,321.19 784.19,317.35 788.19,310.73 791.11,304.73 793.06,300.11 794.6,295.75 795.88,291.19 797.11,285.6 797.63,281.49 797.78,278.06 797.32,272.88 796.55,269.7 795.83,268.0 795.32,266.52 793.68,263.28 790.09,259.18 786.39,257.13 785.67,256.82 780.49,255.18 775.62,253.03 773.16,251.08 769.21,245.28 768.18,241.43 768.03,238.46 768.34,235.69 769.72,230.97 771.26,227.64 773.57,223.33 775.98,219.12 778.7,214.35 780.39,211.12 782.29,206.76 783.37,203.48 784.29,197.78 784.29,195.01 784.08,192.86 783.21,188.96 781.67,185.37 779.62,182.6 777.36,180.76 773.83,179.27 771.31,178.81 765.82,178.6 760.28,178.75 754.49,178.96 747.46,179.06 745.77,179.06 740.13,179.22 732.07,179.37 728.74,179.42 718.17,179.68 706.07,179.93 701.14,180.04 694.22,180.24 684.53,180.4 677.86,180.4 668.32,180.4 662.73,180.4 654.98,180.34 649.9,180.29 629.08,180.24 615.59,179.99 607.33,179.47 596.56,177.93 589.63,176.7 583.43,175.47 573.53,172.65 567.42,170.55 559.11,167.16 549.78,162.55 542.29,157.88 534.08,151.47 525.62,142.95 519.57,135.41 511.26,122.64 506.85,114.07 504.08,108.23 495.1,88.48 491.56,80.89 487.97,73.19 480.74,59.76 471.81,47.24 470.74,45.96 457.97,33.24 446.58,24.42 443.09,22.11 427.34,13.95 415.75,9.75 408.78,7.8 406.78,7.28 400.42,5.8 390.05,3.74 386.26,2.97 380.82,1.95 377.08,1.28 371.18,0.31 367.59,0.0 366.15,0.0 363.59,0.36 361.02,1.28 358.25,3.18 355.53,5.95 353.53,8.87 353.02,9.9 351.02,15.7 350.05,20.47 348.61,26.06 346.05,32.78 340.92,43.7 338.25,49.24 333.58,59.29 330.97,64.94 327.63,71.81 325.17,76.63 321.07,84.32 315.06,94.99 312.09,100.23 309.01,105.51 306.29,110.28 298.7,123.82 291.52,137.36 286.7,146.54 279.47,159.98 272.08,173.73 269.16,179.32 265.62,186.5 262.23,193.78 258.9,201.12 253.1,214.76 251.26,219.33 248.85,225.53 246.49,231.84 241.51,247.08 237.92,259.39 233.66,274.31 231.25,282.62 228.43,292.73 224.58,307.14 219.87,326.89 217.4,338.22 214.63,352.59 213.25,360.54 210.02,381.98 208.68,392.8 208.07,398.24 207.15,407.31 205.3,431.11 204.89,439.42 204.53,447.73 204.38,455.12 204.22,467.17 204.17,482.1 204.17,487.07 204.17,496.61 204.38,519.18 204.43,529.54 204.58,548.42 204.73,568.32 204.84,580.73 204.89,586.43 204.99,601.66 204.99,609.3 204.99,618.84 204.89,637.0 204.79,653.26 204.68,666.6 204.58,684.55 204.53,695.94 204.43,714.86 204.38,722.4 204.27,739.38 204.22,746.0 204.12,762.0 204.07,776.98 204.02,780.72 203.96,789.19 203.71,809.81 203.55,821.96 203.45,833.15 203.25,848.94 203.09,860.02 203.04,868.23 202.89,877.56 202.84,884.8 202.63,899.93 202.48,915.98 202.37,924.45 202.27,933.58 202.22,937.94 202.37,946.5 203.25,954.25 204.63,959.84 205.55,962.09 207.66,966.3 210.33,970.1 210.84,970.71 213.09,972.81 215.15,974.25 217.25,975.28 219.76,976.1 222.84,976.66 229.3,977.64 234.59,979.64 238.43,982.1 241.1,984.1 244.08,986.51 249.82,991.08 254.95,994.56 256.9,995.64 265.82,998.51 277.93,999.38 284.55,999.54 294.34,999.9 299.16,1000.0 305.88,999.85 316.14,999.54 322.71,999.38 333.48,999.08 344.61,998.82 352.46,998.62 357.53,998.51 367.84,998.2 374.51,998.0 388.98,997.64 397.49,997.38 406.16,997.13 417.29,996.77 423.75,996.56 434.27,996.26 439.65,996.15 445.45,996.1 454.58,996.0 469.71,996.1 484.18,996.26 489.31,996.41 504.95,996.56 515.41,996.56 529.52,996.51 539.26,996.41 544.65,996.36 559.83,996.1 571.58,995.9 581.53,995.74 591.53,995.33 602.41,994.77 618.0,994.0 624.36,993.43 633.34,992.15 643.95,989.59 658.42,983.89 668.06,978.41 675.75,973.23 687.91,962.86 693.71,956.66 703.76,944.81"
    fill="none"
    stroke="#888"
    stroke-width="4"
    stroke-linejoin="round"
    stroke-linecap="round"
  />
</svg>
