<svg xmlns="http://www.w3.org/2000/svg" viewBox="0 0 1000 1000">
  <polyline
    points="303.63,753.63 295.73,739.25 287.48,724.32 280.25,711.3 270.3,693.23 256.19,667.8 245.96,649.26 234.58,628.67 223.6,608.83 212.15,588.59 203.42,573.25 196.26,560.57 187.67,545.5 177.11,526.83 168.38,511.49 158.84,494.65 150.66,480.26 144.11,468.81 134.23,451.29 119.09,425.59 105.8,403.16 98.51,390.55 93.39,380.8 87.46,368.74 82.62,358.37 76.83,343.58 75.19,337.92 73.62,328.65 73.42,322.11 74.24,314.61 76.56,306.77 82.62,297.43 87.4,292.52 94.01,287.68 99.12,285.09 106.89,282.64 113.57,281.75 122.91,282.16 133.07,284.75 141.39,288.36 150.73,293.61 160.75,300.09 176.22,310.38 195.04,322.79 211.06,333.15 218.83,338.06 231.1,345.15 239.35,348.63 249.57,350.6 259.73,349.92 266.41,348.01 272.21,345.29 282.36,337.45 288.02,330.22 290.61,325.45 293.89,314.54 294.7,307.66 294.91,297.09 294.84,288.64 294.63,278.96 294.29,266.14 293.95,254.41 293.68,242.55 293.75,221.01 295.38,208.26 302.41,187.95 317.2,165.38 334.04,145.34 345.63,132.8 351.69,126.05 359.74,117.12 370.1,105.67 386.32,87.74 395.53,77.58 410.39,61.15 426.82,43.02 443.93,24.2 457.56,10.23 466.49,4.16 479.79,0.34 485.17,0.0 496.35,1.09 505.22,3.54 512.92,7.16 518.71,10.77 532.48,21.75 543.05,31.84 551.23,40.77 556.82,48.67 560.64,56.04 564.39,68.31 565.55,79.01 565.21,85.9 562.41,95.85 558.32,102.53 553.0,108.87 545.37,116.64 535.82,125.84 525.6,135.73 515.17,145.82 502.62,158.36 486.67,176.15 475.22,189.11 466.36,201.17 461.59,209.22 458.11,217.53 457.09,223.67 460.02,234.24 464.65,238.53 470.45,241.12 475.15,242.08 482.79,241.87 488.45,240.85 495.6,238.8 501.47,236.62 513.67,231.99 521.44,228.99 538.69,222.1 549.94,217.33 567.73,209.35 583.41,201.92 608.29,190.61 631.67,180.45 647.01,174.25 654.65,171.52 661.53,169.54 674.21,167.97 683.89,169.2 689.28,170.84 699.5,176.09 707.34,182.9 711.5,188.08 714.16,192.51 718.79,208.74 718.52,217.06 716.14,225.85 709.66,237.3 698.07,248.55 686.28,260.14 674.55,273.98 665.21,287.41 653.15,308.75 645.92,325.11 641.76,336.97 635.35,360.15 628.54,374.39 617.36,387.76 612.24,391.51 597.86,398.05 590.7,400.3 561.25,407.53 546.39,410.12 528.39,413.53 510.87,417.75 499.15,425.05 493.63,432.07 490.08,439.23 488.72,443.45 487.49,451.29 487.9,457.22 489.26,462.27 491.58,467.45 494.78,472.49 499.08,478.15 505.76,485.99 515.58,495.88 523.48,502.62 530.92,508.21 547.14,518.92 558.05,525.05 573.86,532.62 596.91,541.14 606.59,543.94 627.1,548.3 651.17,550.34 669.85,550.41 685.19,549.8 706.73,547.82 726.84,545.57 743.06,543.66 755.95,542.16 774.29,539.98 791.53,537.6 812.87,534.39 832.91,533.98 849.82,537.26 863.86,543.39 873.0,549.32 881.59,556.68 890.99,567.25 896.58,575.02 900.4,580.95 907.22,592.81 910.49,599.02 914.85,607.74 918.47,615.45 922.01,624.17 925.42,636.04 926.72,648.65 925.9,658.46 922.01,671.76 916.35,683.82 907.63,698.68 896.99,714.3 887.59,727.73 879.2,739.79 871.23,750.77 861.34,759.83 851.73,764.74 841.64,767.67 830.19,768.15 821.73,767.47 807.49,765.63 798.42,763.86 784.31,760.72 766.72,756.63 754.18,753.7 734.81,749.47 720.57,746.61 701.21,742.79 680.21,739.25 665.55,737.54 646.87,739.86 632.29,747.36 620.08,759.15 613.47,768.63 608.7,776.47 603.38,785.94 599.02,794.74 594.45,804.35 590.5,813.08 585.93,823.03 578.02,840.28 570.52,856.57 560.57,877.16 554.78,888.81 546.59,904.9 536.51,924.4 526.48,943.35 516.67,961.48 506.99,977.44 497.72,988.55 480.13,998.57 470.79,1000.0 457.56,998.77 446.11,994.41 437.18,988.14 433.5,984.59 428.45,978.66 425.25,974.16 422.39,969.66 418.91,963.73 414.62,955.89 408.68,944.51 403.44,934.62 401.12,930.33 395.8,920.44 391.71,913.01 380.87,893.45 372.62,878.45 362.47,860.25 353.6,844.3 344.4,827.66 337.65,815.53 328.38,798.55 322.72,788.12 306.91,759.49 297.43,742.38 287.34,724.11 274.66,701.07 265.05,683.82 253.39,662.69 243.57,644.83 230.42,621.11 215.15,593.91 198.17,563.98 184.81,540.39 171.31,516.67 160.68,497.99 149.7,478.56 139.48,460.56 128.91,442.02 119.98,427.02 111.39,412.64 100.96,394.78 91.76,377.67 84.12,361.65 77.92,346.99 74.03,332.54 73.83,317.27 77.51,304.86 82.62,297.43 86.78,293.0 91.89,288.98 100.42,284.55 105.67,282.91 112.28,281.89 120.25,281.89 128.23,283.25 140.98,288.16 152.29,294.57 172.06,307.66 185.43,316.45 199.6,325.72 210.51,332.74 224.76,341.67 236.76,347.74 244.32,349.99 258.78,350.13 266.07,348.15 275.07,343.51 282.98,336.83 288.84,328.92 293.0,318.63 294.84,305.61 294.84,287.75 294.5,274.8 294.16,261.3 293.75,246.1 293.54,231.37 295.11,209.9 299.75,194.08 306.36,180.79 312.02,172.34 323.33,157.82 334.11,145.2 343.51,135.05 353.19,124.34 367.03,109.07 382.85,91.55 399.75,72.87 412.03,59.38 426.14,43.83 439.09,29.52 445.7,22.29 454.29,13.36 466.7,4.09 475.83,1.02 482.04,0.14 490.76,0.27 499.56,1.77 503.72,3.0 512.03,6.61 519.05,10.98 527.44,17.38 535.28,24.34 544.28,33.06 555.66,46.83 561.8,59.04 564.59,69.47 565.41,76.49 565.48,82.62 562.34,95.78 555.39,106.28 548.37,113.64 538.69,123.12 524.3,136.96 509.99,150.86 498.47,162.93 484.01,179.09 474.88,189.52 464.45,204.24 459.88,212.76 457.7,219.17 457.29,226.94 460.09,234.3 462.61,237.03 466.56,239.55 470.86,241.26 477.74,242.14 485.85,241.39 491.85,239.96 496.42,238.46 502.97,236.01 513.6,232.05 524.3,227.83 533.1,224.35 546.25,218.9 556.28,214.53 568.34,209.01 589.34,199.13 599.9,194.29 625.67,183.04 637.53,177.99 658.94,170.15 670.12,168.04 684.98,169.4 694.46,173.09 700.87,177.11 708.77,184.47 711.98,188.83 715.05,194.29 718.59,206.35 718.86,213.51 716.82,224.08 712.05,233.89 708.23,239.14 698.34,248.35 688.32,257.96 676.8,271.05 667.53,283.93 660.92,294.63 651.85,311.61 647.01,322.59 642.51,334.86 638.97,346.85 633.72,364.51 629.15,373.3 614.02,390.42 594.31,399.35 577.75,403.91 563.98,406.98 551.37,409.3 540.39,411.21 528.19,413.53 519.39,415.37 512.99,417.07 507.4,419.25 501.26,423.27 494.51,430.77 489.94,439.63 487.83,447.95 487.7,456.4 488.99,461.59 493.97,471.4 500.44,479.86 507.81,488.31 513.87,494.38 522.26,501.67 535.14,511.15 545.3,517.76 563.43,527.85 580.75,535.48 600.93,542.37 620.01,547.0 642.24,549.94 669.03,550.48 692.69,549.25 707.68,547.75 725.54,545.71 741.5,543.87 768.29,540.66 786.15,538.41 800.87,536.03 811.92,534.46 832.09,533.98 845.25,536.03 855.34,539.37 863.52,543.32 867.2,545.5 874.97,550.96 881.79,557.03 886.15,561.52 890.18,566.3 894.88,572.57 898.7,578.29 902.58,584.63 905.72,590.09 908.51,595.27 911.31,600.65 913.63,605.29 916.22,610.68 918.88,616.47 921.67,623.29 922.29,625.06 923.78,629.76 925.49,636.85 926.38,642.92 926.58,646.67 926.17,655.74 924.4,664.39 922.83,669.37 920.31,675.57 916.7,683.0 914.99,686.14 911.31,692.62 908.51,697.18 905.38,701.96 901.36,707.89 898.63,711.84 894.95,717.23 892.09,721.32 888.06,727.04 886.09,729.91 881.86,735.97 877.5,742.31 874.97,745.86 869.32,752.81 865.23,756.77 860.11,760.45 855.0,763.17 849.27,765.49 844.43,766.92 836.94,768.01 830.87,768.08 826.57,767.81 820.1,767.26 811.37,766.17 806.6,765.42 798.69,763.92 792.01,762.42 785.26,760.92 780.35,759.83 774.69,758.54 766.79,756.7 761.61,755.47 756.77,754.31 748.59,752.47 740.54,750.7 733.66,749.27 728.2,748.18 722.07,746.95 717.16,745.93 711.16,744.63 703.25,743.13 698.07,742.25 697.05,742.04 691.25,741.09 683.07,739.72 676.19,738.7 668.69,737.88 662.76,737.61 656.83,737.88 651.78,738.77 647.28,740.0 643.12,741.56 635.63,745.38 628.95,750.15 624.65,754.11 618.86,760.99 615.86,765.15 612.86,769.65 611.02,772.65 607.4,778.65 604.27,784.38 603.24,786.28 600.04,792.56 597.18,798.55 593.16,807.28 589.41,815.39 584.36,826.37 580.0,835.91 574.68,847.5 566.23,865.7 558.59,881.11 547.41,903.27 538.21,921.06 531.19,934.56 520.83,953.98 510.6,971.85 502.56,983.37 488.65,995.23 476.86,999.39 460.22,999.45 442.36,992.3 433.64,985.0 425.93,975.46 412.84,952.62 403.84,935.31 395.32,919.63 387.69,905.72 380.26,892.22 364.71,864.34 356.26,849.14 344.74,828.35 332.61,806.26 316.52,776.88 303.36,753.08 288.98,727.04 278.61,708.3 265.59,684.71 250.87,658.05 236.08,631.26 224.56,610.47 212.08,588.45 201.24,569.3 189.24,548.23 179.43,530.92 164.16,504.06 144.59,469.63 134.57,451.91 122.3,430.91 107.64,406.23 96.33,386.6 86.99,367.85 75.4,339.15 73.28,323.88 75.53,308.75 82.76,296.82 95.64,286.59 108.39,282.16 124.48,282.3 145.61,290.54 171.59,307.31 185.22,316.31 203.08,327.97 223.46,340.92 235.87,347.47 254.89,350.81 268.18,347.6 282.43,337.65 291.09,324.83 295.04,300.09 294.84,286.73 294.43,270.98 293.82,249.37 294.09,216.92 297.77,199.2 303.16,186.31 324.97,155.77 342.83,135.73 361.72,114.94 375.49,99.73 387.28,86.71 403.44,68.85 424.84,45.2 437.45,31.36 454.43,13.16 474.61,1.02 495.53,0.68 507.87,4.36 526.62,16.63 537.39,26.25 553.62,43.77 563.71,64.56 565.68,78.67 556.96,104.85 539.37,122.5 524.64,136.61 506.37,154.48 489.33,173.15 477.67,186.17 469.02,197.22 461.52,209.28 458.18,217.12 457.97,230.55 461.45,236.28 467.93,240.44 475.08,242.28 487.42,241.19 501.12,236.83 519.05,229.94 537.26,222.71 549.59,217.53 563.84,211.19 588.86,199.33 614.02,188.08 628.2,181.95 649.67,173.22 673.94,167.84 691.59,171.59 705.16,180.52 713.68,191.29 717.77,201.45 718.18,220.12 714.09,230.55 704.48,243.1 693.5,252.71 674.42,274.12 661.87,293.0 649.94,315.5 644.15,329.81 636.04,357.97 627.58,376.03 614.9,390.01 597.52,398.39 574.61,404.73 554.5,408.75 532.82,412.64 522.6,414.68 506.03,419.8 495.06,429.48 488.51,443.45 487.63,457.15 491.17,467.24 501.12,480.81 511.76,492.4 527.17,505.49 548.23,519.6 563.02,527.58 581.43,535.76 597.72,541.41 612.99,545.57 638.56,549.66 657.24,550.48 683.28,549.94 719.0,546.46 744.97,543.46 768.76,540.6 796.1,536.85 826.91,533.64 851.18,537.53 871.97,548.37 891.95,568.21 899.38,579.04 913.08,603.93 924.47,631.33 926.72,654.03 920.31,676.39 906.13,701.07 894.33,718.11 878.38,740.95 860.66,760.52 840.34,768.15 810.48,766.17 788.4,761.67 763.24,755.81 741.29,750.84 723.7,747.29 703.93,743.27 684.98,740.0 654.24,737.95 637.88,743.61 617.77,761.95 605.97,780.97 598.27,796.1 589.13,816.01 578.23,839.8 559.75,878.79 545.37,907.22 532.42,932.1 518.44,958.21 507.46,976.69 497.44,988.82 480.33,998.57 461.93,999.66 445.43,994.14 428.66,979.14 419.59,965.23 413.53,953.85 403.44,934.62 397.1,922.83 384.08,899.18 375.76,884.11 362.06,859.5 347.88,833.94 329.47,800.53 319.31,781.85 303.29,752.95"
    fill="none"
    stroke="#888"
    stroke-width="4"
    stroke-linejoin="round"
    stroke-linecap="round"
  />
</svg>
