<svg xmlns="http://www.w3.org/2000/svg" viewBox="0 0 1000 1000">
  <polyline
    points="640.01,845.46 640.06,846.25 640.59,855.92 640.53,869.84 640.27,875.83 639.75,883.09 638.59,894.8 637.91,900.79 637.17,906.94 636.7,910.88 635.65,920.6 635.23,924.91 634.91,929.38 634.7,934.74 634.75,938.89 634.91,941.73 635.38,945.4 636.49,950.03 639.27,956.12 640.85,958.28 644.47,962.17 646.21,963.69 648.05,965.11 650.31,966.69 654.56,969.21 657.72,970.89 660.08,972.26 662.97,974.36 665.13,976.77 666.07,978.98 666.39,980.56 666.18,984.92 665.91,986.18 665.44,987.86 663.81,991.7 663.34,992.43 662.29,993.96 659.5,996.69 657.72,997.74 655.35,998.69 653.36,999.21 650.57,999.68 647.05,999.95 644.58,1000.0 642.01,1000.0 637.01,999.84 632.02,999.32 628.29,998.74 625.35,998.16 623.04,997.58 617.2,996.01 613.21,994.75 609.06,993.43 603.17,991.44 599.55,990.12 596.66,989.02 589.04,985.76 584.73,983.55 578.58,980.03 570.81,975.15 566.13,971.94 558.04,966.16 553.15,962.53 543.01,954.6 536.44,949.29 528.93,943.2 527.03,941.67 518.94,935.05 515.0,931.59 512.22,928.85 510.38,926.91 508.43,924.75 506.75,922.55 504.02,918.45 502.71,915.66 501.92,913.35 501.39,909.67 501.39,907.26 501.76,903.79 502.44,898.32 502.65,894.38 502.55,890.7 501.71,884.4 501.23,882.24 500.13,878.78 499.13,876.52 497.24,873.26 493.41,867.9 490.88,864.64 487.52,860.44 486.84,859.54 482.95,854.71 481.11,852.45 478.96,849.77 476.12,846.36 473.44,843.2 468.97,838.21 463.56,832.8 460.46,829.96 457.1,827.12 451.37,822.45 448.69,820.29 440.65,813.99 434.92,809.05 431.24,805.37 429.25,803.06 425.15,797.17 422.47,792.18 419.21,784.51 415.22,772.48 413.96,766.8 413.06,758.55 412.75,751.3 412.7,743.79 412.8,736.06 413.17,725.76 413.59,717.51 414.01,711.94 414.32,703.17 413.96,696.44 413.59,693.66 412.27,687.4 410.59,682.73 409.33,680.31 408.07,678.37 405.18,675.21 402.45,673.38 400.19,672.38 398.09,671.8 395.14,671.43 393.46,671.38 390.73,671.48 390.31,671.48 387.95,671.69 387.53,671.69 385.21,671.85 382.17,672.01 380.22,672.01 378.17,671.96 375.55,671.69 371.81,670.85 369.55,670.01 364.51,667.17 362.93,666.02 359.31,662.81 357.47,660.87 355.53,658.5 353.16,655.19 351.64,652.72 349.48,648.63 348.59,646.73 346.91,642.37 345.91,639.17 344.6,634.28 343.7,630.34 342.65,624.56 341.6,617.52 340.97,612.42 340.39,607.59 339.45,599.71 338.76,593.03 338.19,587.15 337.29,578.06 336.56,569.12 335.98,561.72 335.19,550.84 334.66,542.22 334.14,531.34 333.82,523.67 333.67,517.37 333.56,507.33 333.61,498.55 333.82,489.67 334.14,481.43 334.45,475.38 334.98,467.76 335.77,458.57 336.66,450.06 338.24,436.81 339.5,428.14 342.02,413.33 343.54,405.92 346.33,393.36 348.17,385.53 350.17,377.23 350.69,375.18 352.85,365.82 355.0,356.26 356.05,351.58 356.94,347.91 358.05,343.75 359.83,338.08 360.99,335.3 362.3,332.72 364.72,329.52 366.51,327.99 369.29,326.52 380.85,323.26 383.01,322.32 384.48,321.63 387.37,320.0 390.94,317.53 393.15,315.7 395.25,313.59 396.83,311.86 398.67,309.55 400.56,306.82 402.4,303.56 404.18,300.04 405.65,296.57 407.28,292.15 408.02,290.0 409.59,284.8 411.28,278.65 413.12,271.24 414.17,267.04 415.43,261.78 416.79,256.21 418.95,247.18 420.58,239.5 421.68,233.99 423.2,225.58 425.15,214.28 427.62,198.52 428.3,193.84 429.3,186.96 430.77,175.03 430.98,172.88 431.82,163.52 432.61,150.23 432.98,138.98 433.08,135.2 433.19,119.65 433.14,111.13 432.72,101.78 432.24,95.53 429.88,79.4 427.78,69.52 426.99,66.21 424.31,54.6 422.63,47.45 420.89,39.93 419.79,34.84 418.63,29.32 416.95,20.76 416.37,16.81 416.01,10.51 416.37,7.62 417.27,5.1 418.42,3.36 419.47,2.31 420.89,1.31 423.05,0.42 424.94,0.0 428.04,0.21 429.14,0.63 430.98,1.68 432.87,3.57 433.45,4.36 434.61,6.1 435.5,7.78 436.45,9.93 437.55,12.98 438.44,15.92 438.97,17.97 439.55,20.81 440.07,24.12 440.49,27.17 440.96,32.74 441.23,35.78 441.49,39.36 442.02,44.56 443.01,51.28 443.33,52.86 444.38,57.7 446.53,64.89 450.69,76.09 452.58,80.76 455.68,88.17 458.15,93.9 461.83,102.57 463.93,107.61 467.13,115.08 470.18,122.17 473.6,130.05 476.54,136.72 479.95,144.66 482.79,151.07 484.79,155.64 490.78,169.67 494.51,178.6 497.35,185.54 499.34,190.48 502.5,198.31 507.86,212.02 512.16,223.9 513.48,227.68 519.31,246.02 521.99,255.32 523.99,262.41 526.51,271.98 529.19,282.38 540.85,331.41 542.8,339.71 544.37,346.33 546.32,354.63 548.05,362.15 552.57,381.43 555.72,394.88 557.88,404.18 562.5,424.47 565.24,436.34 567.13,444.8 568.13,449.06 571.49,463.82 574.48,476.64 577.53,489.41 580.74,502.71 582.89,511.8 585.41,522.36 588.3,534.5 589.56,539.91 590.67,544.43 591.67,548.74 594.03,558.67 594.87,562.29 595.97,566.97 597.71,575.27 598.34,578.85 598.92,583.21 599.13,587.2 599.02,589.83 598.39,593.56 597.71,595.66 596.24,598.81 595.97,599.29 594.08,602.44 592.87,604.38 590.77,608.38 589.62,611.37 589.04,613.53 588.41,617.41 588.15,621.77 588.2,624.51 588.3,627.61 588.57,630.45 588.93,633.76 589.3,636.49 590.09,641.11 590.67,644.05 591.72,648.63 592.56,652.2 594.24,658.45 594.4,658.92 597.13,668.54 599.18,675.48 601.28,682.78 601.7,684.36 605.33,697.81 607.01,704.32 609.22,712.84 612.05,724.19 613.89,731.33 615.42,737.27 617.52,745.36 621.04,759.02 622.35,763.86 624.19,770.95 626.82,780.99 628.92,789.03 630.81,796.38 632.13,801.53 634.23,810.47 636.01,818.82 636.96,823.55 638.22,830.8 639.96,844.99 640.69,862.33 640.43,872.63 639.59,884.82 638.27,897.75 637.12,907.62 636.91,909.15 636.12,916.03 635.8,918.82 635.28,924.18 634.81,931.48 634.7,934.16 635.96,948.19 636.59,950.34 638.54,954.81 640.32,957.6 641.85,959.49 643.84,961.59 645.11,962.74 648.0,965.06 650.25,966.63 654.62,969.21 658.82,971.52 660.97,972.83 663.18,974.52 665.18,976.88 666.07,979.09 666.44,981.19 666.39,983.5 666.18,984.81 665.44,987.81 664.55,990.12 663.92,991.49 663.13,992.8 661.76,994.59 660.92,995.53 659.77,996.48 657.09,998.06 656.72,998.21 651.83,999.53 646.94,999.95 643.63,1000.0 641.27,1000.0 636.49,999.79 632.02,999.32 627.29,998.53 624.4,997.9 623.04,997.58 614.31,995.11 611.74,994.27 607.17,992.8 599.44,990.12 592.56,987.34 587.3,984.92 580.26,981.03 572.91,976.56 569.18,974.04 562.08,969.1 558.25,966.32 549.37,959.64 542.96,954.55 537.33,949.98 531.29,945.09 524.62,939.73 519.73,935.74 516.58,933.0 512.22,928.85 507.86,924.02 507.49,923.55 505.07,920.18 503.34,917.08 502.23,914.46 501.55,911.78 501.34,907.62 501.55,905.42 502.23,900.16 502.55,897.06 502.65,892.6 502.39,889.13 501.81,884.87 500.66,880.25 498.98,876.2 497.03,872.89 494.51,869.37 492.46,866.69 489.2,862.54 486.68,859.39 484.05,856.08 480.32,851.51 476.07,846.3 472.02,841.63 466.19,835.32 463.14,832.43 454.73,825.18 446.9,818.93 440.44,813.78 435.66,809.68 430.88,804.95 426.78,799.75 424.73,796.44 420.05,786.66 418.0,781.3 414.64,770.32 414.06,767.48 412.75,751.67 412.64,745.47 412.8,737.43 413.06,728.76 413.38,721.87 413.59,717.46 414.01,711.94 414.22,708.53 414.32,704.53 414.06,697.44 413.59,693.66 412.54,688.3 411.85,685.99 410.96,683.52 409.07,679.84 407.76,677.89 404.39,674.58 401.66,672.95 399.77,672.22 396.88,671.59 395.41,671.43 393.73,671.38 391.78,671.43 388.68,671.59 388.37,671.64 385.79,671.85 383.11,672.01 380.48,672.01 376.02,671.75 370.5,670.38 366.56,668.49 364.62,667.28 361.36,664.7 358.52,662.03 356.73,659.98 354.95,657.77 353.32,655.4 351.43,652.41 349.43,648.57 348.59,646.68 347.17,643.0 345.8,638.8 345.07,636.17 343.81,630.66 342.86,625.61 341.97,619.88 340.71,610.48 339.81,602.91 338.66,592.19 337.82,583.63 337.5,580.11 336.45,567.86 335.51,555.04 334.61,541.01 334.14,532.03 333.82,522.88 333.72,519.99 333.61,513.48 333.56,501.02 333.77,491.3 333.98,484.53 334.24,479.22 335.24,464.61 336.56,450.63 337.61,442.02 339.55,427.78 341.02,419.05 342.28,411.96 343.49,406.07 345.96,394.78 349.38,380.64 351.79,370.5 357.31,346.38 358.89,340.97 359.1,340.34 360.73,335.87 361.73,333.72 362.88,331.77 365.09,329.15 367.19,327.57 369.55,326.41 371.76,325.68 375.86,324.73 379.38,323.79 382.32,322.63 384.58,321.58 386.84,320.32 392.89,315.91 395.62,313.23 397.4,311.18 398.88,309.28 401.08,305.92 402.03,304.29 403.66,301.09 405.86,296.04 407.28,292.26 408.6,288.21 408.7,287.79 410.07,283.12 411.96,276.02 412.38,274.24 413.43,270.09 414.69,264.83 416.69,256.74 418.11,250.85 418.37,249.75 420.0,242.5 421.63,234.25 423.62,223.21 424.83,216.23 425.99,209.03 426.94,203.09 427.83,196.99 429.4,186.01 430.82,174.71 431.35,168.99 432.14,159.53 432.61,149.97 432.82,145.45 433.14,132.68 433.19,128.11 433.19,118.07 432.98,106.41 432.24,95.42 430.51,82.86 426.83,65.47 423.83,52.49 422.89,48.5 420.21,36.89 419.53,33.68 418.63,29.37 417.48,23.49 416.58,18.55 416.27,15.92 416.01,12.66 416.16,8.88 417.0,5.67 418.48,3.31 420.31,1.68 421.31,1.1 423.36,0.32 425.1,0.0 427.36,0.11 429.46,0.79 431.24,1.94 432.61,3.31 434.03,5.2 435.39,7.62 436.13,9.2 436.76,10.72 437.76,13.61 438.44,15.87 439.02,18.23 439.44,20.44 440.02,23.7 440.28,25.59 440.7,29.43 440.96,32.53 441.17,35.52 441.44,38.73 442.23,46.29 442.8,50.02 443.38,53.12 445.54,61.85 446.9,66.05 449.69,73.56 451.32,77.66 454.21,84.6 456.68,90.43 458.83,95.53 460.83,100.26 463.82,107.35 466.19,112.97 469.18,119.91 472.54,127.63 474.65,132.52 478.48,141.19 480.43,145.6 483.47,152.65 484.58,155.27 491.99,172.56 493.98,177.34 496.82,184.28 501.71,196.21 503.97,201.93 507.33,210.6 510.85,220.11 513.69,228.36 519.73,247.44 520.26,249.17 524.88,265.67 530.19,286.48 532.97,297.83 534.29,303.5 536.81,314.12 538.38,320.69 540.7,330.57 542.43,338.03 543.59,343.02 548.05,362.15 549.79,369.66 551.15,375.49 553.15,383.85 557.25,401.5 559.4,410.75 562.29,423.41 564.03,431.03 565.97,439.55 567.71,447.17 570.02,457.46 572.17,466.82 574.59,477.06 577.43,488.99 580.84,503.34 582.05,508.17 584.89,520.2 588.25,534.18 589.83,541.01 592.66,552.83 594.5,560.87 595.82,566.39 596.87,571.07 597.97,576.53 598.6,580.58 598.92,583.31 599.13,587.41 599.08,589.51 598.08,594.66 596.29,598.65 594.98,601.02 592.35,605.22 590.09,609.95 589.09,613.32 588.62,615.84 588.25,619.25 588.2,624.88 588.57,630.39 589.25,636.12 590.14,641.43 591.61,648.36 593.35,655.19 594.29,658.66 596.55,666.6 597.71,670.59 600.13,678.79 602.6,687.56 603.38,690.4 605.07,696.81 608.64,710.63 610.37,717.57 612.84,727.29 615.73,738.58 617.52,745.42 619.83,754.35 620.2,755.77 624.3,771.32 627.13,782.14 628.08,785.82 632.44,802.9 634.39,811.26 637.07,824.23 638.64,833.59 639.43,839.95 640.43,851.93 640.59,868.16 639.9,881.19 638.8,892.86 637.96,900.37 637.75,902.21 636.96,908.83 636.07,916.35 635.33,923.65 635.12,925.96 634.75,932.43 634.7,938.94 634.96,942.25 635.28,944.98 635.96,948.29 638.59,954.92 641.32,958.86 643.69,961.48 645.21,962.85 647.21,964.48 651.31,967.26 654.56,969.16 657.61,970.84 659.92,972.15 662.08,973.62 664.13,975.51 665.34,977.14 666.07,978.93 666.39,980.45 666.44,982.08 666.23,984.76 666.12,985.29 665.7,987.07 664.86,989.44 664.55,990.17 663.34,992.49 662.55,993.64 661.03,995.43 660.66,995.74 657.66,997.79 656.77,998.21 654.46,998.95 650.25,999.68 646.58,999.95 644.37,1000.0 640.74,1000.0 638.59,999.89 633.18,999.47 628.03,998.69 622.09,997.37 618.99,996.53 615.36,995.43 611.27,994.11 605.75,992.33 601.33,990.8 596.76,989.07 593.4,987.7 589.56,985.97 584.31,983.34 578.48,980.03 573.49,976.88 566.44,972.15 562.14,969.1 556.25,964.85 551.36,961.17 546.84,957.65 542.85,954.44 536.13,948.98 531.66,945.4 529.56,943.67 525.93,940.78 519.47,935.47 514.53,931.11 512.58,929.27 508.01,924.23 501.34,908.41 501.97,902.26 502.34,899.48 502.6,896.64 502.65,892.12 502.23,887.55 501.76,884.61 500.29,879.09 498.87,875.89 498.55,875.36 494.04,868.69 492.56,866.8 488.26,861.33 486.84,859.54 483.32,855.13 479.74,850.77 475.96,846.2 470.55,839.95 465.98,835.11 459.2,828.86 458.3,828.12 452.95,823.71 449.21,820.71 441.65,814.72 436.18,810.15 429.72,803.58 426.3,799.06 422.63,792.55 420.52,787.77 416.69,777.26 414.32,768.69 413.33,761.91 412.7,751.04 412.7,744.21 412.8,736.54 412.96,730.97 413.48,719.67 414.17,709.58 414.27,701.22 414.01,697.07 413.06,690.45 412.27,687.3 411.07,683.78 408.39,678.79 405.5,675.48 403.18,673.74 398.03,671.75 396.3,671.48 393.1,671.38 391.15,671.43 389.21,671.54 384.27,671.9 378.96,672.01 375.7,671.69 372.97,671.17 370.24,670.27 367.14,668.86 364.46,667.17 360.83,664.28 358.94,662.39 356.68,659.92 354.58,657.24 352.16,653.57 350.38,650.47 347.54,644.11 346.12,639.96 344.33,633.12 343.23,627.77 342.02,620.2 341.44,616.05 340.97,612.68 340.13,605.59 339.13,596.45 338.4,589.67 338.13,586.78 337.4,579.06 336.71,571.02 335.87,560.09 335.3,552.15 334.56,539.91 333.98,528.03 333.82,522.31 333.61,513.64 333.56,507.75 333.67,495.88 333.88,487.57 334.66,472.28 336.08,455.2 337.82,440.28 338.87,432.4 340.08,424.41 342.65,410.12 343.12,407.91 344.7,400.4 348.17,385.63 350.48,376.12 352.32,368.14 354.37,359.1 355.74,352.95 357.63,345.28 358.94,340.81 359.78,338.24 360.73,335.87 362.36,332.62 364.14,330.09 365.72,328.57 367.98,327.1 374.23,325.1 377.44,324.37 381.43,323.0 384.16,321.79 388.94,319.01 392.46,316.27 395.57,313.33 398.98,309.13 401.03,306.03 402.29,303.82 403.34,301.77 405.18,297.72 407.28,292.31 408.7,287.9 410.91,280.02 412.01,275.81 413.22,270.93 414.22,266.72 416.06,259.37 417.69,252.59 418.21,250.43 419.21,246.12 420.47,240.19 422.84,227.89 424.89,216.02 425.31,213.44 426.57,205.61 427.67,198.26 429.04,188.69 429.83,183.12 430.82,174.61 431.82,163.73 432.45,154.12 432.82,145.87 432.93,141.35 433.19,129.89 433.19,123.75 433.19,118.44 433.08,109.09 432.5,98.1 431.45,88.64 430.82,84.7 429.67,78.4 427.88,70.15 426.62,64.42 424.94,57.27 423.52,51.18 421.94,44.51 419.68,34.42 418.21,27.43 417.21,22.12 416.32,16.6 416.01,12.4 416.01,11.24 416.58,6.73 417.9,3.99 419.58,2.21 421.89,0.79 423.36,0.32 426.67,0.0 429.09,0.58 430.56,1.37 432.29,2.89 434.03,5.2 434.76,6.46 435.82,8.46 436.66,10.46 436.5,10.04 437.39,12.45 438.02,14.56 438.86,17.66 438.92,17.92 439.81,22.38 440.12,24.43 440.6,28.48 440.96,32.26 441.33,37.1 441.54,39.72 442.02,44.4 442.59,48.92 443.07,51.71 443.75,54.96 445.9,62.95 449.21,72.3 451.58,78.29 454.36,85.07 457.94,93.43 460.2,98.84 462.3,103.83 466.71,114.13 467.19,115.34 471.39,124.95 473.81,130.52 476.01,135.62 479.53,143.61 482.95,151.44 485.79,158.01 490.99,170.2 494.72,179.18 497.29,185.43 500.5,193.26 501.92,196.84 505.07,204.77 508.7,214.33 513.01,226.31 515.79,234.67 516.26,236.19 519.36,246.28 520.99,251.8 524.3,263.68 528.09,278.13 530.5,287.79 532.5,295.94 535.44,308.23 537.39,316.48 538.91,323.1 542.8,339.71 544.59,347.22 548.11,362.25 552.99,383.27 554.15,388.37 556.36,397.61 559.3,410.33 561.45,419.68 563.76,429.88 565.29,436.71 567.81,447.8 569.54,455.36 571.49,463.93 573.33,471.6 575.32,480.16 577.37,488.78 579.0,495.61 580.89,503.34 584.2,517.21 585.78,523.99 588.93,537.07 589.83,541.01 592.24,551.1 594.45,560.56 595.66,565.81 596.76,570.7 597.71,575.22 598.81,582.05 599.08,585.15 598.87,591.3 597.92,594.92 596.45,598.39 595.19,600.6 593.51,603.33 591.77,606.27 589.77,610.79 589.56,611.58 588.78,614.84 588.36,617.73 588.15,622.14 588.2,624.88 588.25,626.14 588.62,631.29 588.93,634.02 589.46,637.43 589.93,640.32 591.35,647.21 592.19,650.57 593.19,654.56 595.08,661.5 597.08,668.44 598.23,672.27 600.02,678.37 601.18,682.57 603.33,690.19 605.75,699.39 608.38,709.58 610.9,719.51 613.68,730.44 616.05,739.69 617.62,745.73 620.46,756.66 623.56,768.59 624.51,772.16 626.98,781.51 630.02,793.13 633.12,805.79 634.65,812.41 636.12,819.24 637.75,828.02 638.75,834.32"
    fill="none"
    stroke="#888"
    stroke-width="4"
    stroke-linejoin="round"
    stroke-linecap="round"
  />
</svg>
