<svg xmlns="http://www.w3.org/2000/svg" viewBox="0 0 1000 1000">
  <polyline
    points="111.45,666.11 110.93,658.3 110.41,648.93 109.79,635.29 110.62,615.1 111.76,596.98 112.7,586.05 114.37,571.16 115.93,560.23 118.74,544.3 121.03,533.37 123.22,523.79 124.26,519.83 125.92,513.38 129.15,501.72 131.13,495.47 132.59,491.1 134.57,485.68 136.13,482.04 138.83,476.83 141.64,473.19 144.14,470.8 150.49,467.26 160.07,464.13 164.86,463.09 175.48,461.53 189.54,460.07 195.68,459.55 201.2,459.14 219.42,457.26 230.87,455.7 237.32,454.55 258.04,450.29 266.37,448.31 282.51,444.35 291.36,442.17 305.21,438.73 326.65,433.32 349.14,427.49 352.99,426.55 372.46,422.59 392.56,420.3 411.71,418.53 420.98,417.18 434.93,413.64 458.25,403.44 470.22,397.29 485.74,389.8 511.04,380.01 528.21,375.33 540.6,372.93 557.89,370.43 583.39,367.31 590.58,366.27 600.57,364.5 613.79,361.27 620.87,358.88 634.72,352.42 641.49,348.26 647.11,344.2 659.19,332.43 663.98,325.87 667.73,318.79 670.85,310.67 672.41,304.53 673.66,295.16 673.87,289.02 672.93,277.56 672.51,274.65 669.6,263.82 667.2,257.37 664.71,251.74 658.04,239.98 657.21,238.63 651.48,230.61 645.86,223.53 637.74,213.74 633.68,208.43 626.81,197.08 624.1,188.76 623.48,181.99 623.48,181.36 624.41,173.97 626.18,167.2 628.47,161.27 631.49,154.92 637.43,144.92 642.84,137.12 649.71,128.47 657.0,120.25 663.87,112.75 673.35,101.93 685.53,86.0 694.27,73.19 702.6,60.91 709.06,52.06 715.51,43.62 725.2,31.55 730.4,25.3 736.13,18.84 742.48,12.08 746.02,8.75 753.1,4.16 759.66,3.12 761.22,3.33 764.65,4.16 772.36,8.33 775.07,10.83 778.81,16.14 781.21,22.28 782.98,28.84 784.54,35.09 786.1,40.71 788.29,47.58 791.41,56.43 796.62,68.92 800.05,76.0 802.45,80.17 806.61,86.73 812.65,93.91 815.88,96.51 820.25,99.01 823.89,100.16 825.56,100.26 828.27,99.95 831.18,98.18 832.95,94.85 833.26,92.35 832.74,87.14 831.6,83.19 830.66,81.0 829.31,78.4 827.64,75.9 825.46,72.98 822.75,69.76 820.35,67.26 816.4,62.99 813.79,60.49 813.07,59.66 809.42,55.6 805.26,49.56 802.65,42.69 802.34,40.29 802.76,35.09 805.36,28.32 809.84,22.9 815.15,18.74 819.42,16.03 823.27,13.95 830.14,10.72 835.35,8.43 836.39,8.02 848.36,3.54 862.1,0.31 868.14,0.0 877.3,2.39 881.47,6.14 883.86,9.68 886.99,17.28 887.92,20.72 888.76,24.26 889.48,28.84 889.9,33.94 890.21,39.25 890.11,49.14 889.69,57.05 888.86,65.69 887.82,74.86 886.88,83.29 884.9,101.93 883.45,114.94 882.51,123.48 881.05,136.6 880.01,146.8 878.03,159.5 876.37,167.73 872.51,182.09 869.5,191.78 859.92,218.95 856.06,228.94 849.92,244.14 840.34,265.69 833.26,279.65 820.56,299.74 799.74,322.23 780.79,336.28 766.42,344.3 747.27,353.46 734.98,359.19 718.74,367.2 706.66,373.45 690.32,381.68 681.05,386.36 668.35,392.61 627.23,410.41 612.86,415.72 594.53,421.45 571.53,427.28 561.32,429.26 549.35,431.13 537.17,432.69 528.74,433.63 520.82,434.46 509.37,435.61 499.9,436.65 490.21,438.11 485.01,439.46 481.26,441.02 476.68,444.87 475.01,447.16 470.54,455.08 465.02,462.16 462.21,464.13 453.05,466.63 449.82,466.74 444.4,466.22 443.68,466.11 438.78,465.17 434.62,464.13 428.58,462.68 423.06,461.74 414.0,461.53 406.61,462.16 399.32,463.2 392.56,464.24 383.91,465.49 373.71,467.05 365.59,468.19 356.22,469.44 346.43,470.69 332.8,472.36 314.16,474.54 301.46,476.0 291.88,477.04 267.1,479.44 255.54,480.17 245.65,480.79 232.01,481.62 222.44,482.87 212.75,485.58 199.43,494.12 194.53,498.8 182.35,514.32 179.23,519.1 175.59,525.77 171.84,533.47 168.61,541.28 165.59,551.48 162.05,566.37 159.55,583.34 158.3,596.77 157.89,614.99 158.3,622.8 163.61,642.79 174.75,655.6 184.23,672.46 190.16,690.06 192.76,699.01 197.03,714.84 200.16,728.79 202.24,740.45 204.74,757.94 206.3,773.14 206.82,780.01 207.24,792.09 206.72,800.0 205.26,806.45 200.26,813.33 198.18,815.1 192.35,823.22 191.41,830.92 191.62,836.96 191.72,838.73 193.18,848.31 194.43,854.45 196.3,861.43 199.12,869.96 200.57,874.02 204.84,884.02 208.07,890.68 215.56,903.59 220.15,910.15 231.49,923.79 243.26,934.51 252.21,940.14 260.12,944.61 275.64,953.05 279.7,955.65 284.49,959.19 290.63,967.1 291.57,969.81 292.09,975.74 290.84,982.61 288.03,988.24 285.63,991.15 282.09,993.86 279.39,995.11 274.6,996.67 268.35,998.13 258.46,999.27 253.25,999.58 244.72,1000.0 237.64,1000.0 227.64,999.17 219.83,997.81 215.88,996.56 211.19,994.07 207.86,990.84 204.84,985.84 203.59,982.61 202.97,980.64 201.61,975.53 200.57,970.54 199.12,963.87 197.97,959.29 195.78,952.63 191.31,943.05 188.29,938.05 176.42,920.46 171.63,913.48 164.03,900.36 160.07,892.04 155.08,880.06 154.35,877.98 145.5,851.64 142.58,842.37 137.38,824.36 132.9,808.12 129.78,796.56 123.84,772.83 119.78,753.77 118.84,748.26 116.97,735.45 114.58,712.23 113.74,702.03 112.81,689.02 112.39,680.9 111.56,668.92 110.1,643.83 109.79,630.82 110.41,617.8 111.14,605.1 112.08,592.82 114.68,568.35 116.24,558.36 118.53,545.34 119.16,542.01 123.74,521.92 126.97,509.42 129.88,499.32 130.92,495.99 134.57,485.48 137.9,478.29 141.02,473.61 148.41,467.99 155.08,465.38 164.97,462.99 166.74,462.68 182.35,460.59 190.06,459.97 198.59,459.34 206.19,458.62 214.32,457.89 222.75,456.85 235.14,454.97 254.29,451.12 267.62,448.0 283.65,444.04 300.52,439.88 310.83,437.38 326.13,433.42 338.31,430.3 350.7,427.07 371.32,422.8 388.6,420.72 416.19,418.01 427.02,415.93 438.89,412.18 470.85,396.98 477.41,393.65 495.11,385.74 517.7,377.93 527.69,375.43 554.87,370.74 569.96,368.87 588.08,366.68 596.62,365.33 610.57,362.21 628.37,355.75 641.8,348.15 653.05,339.09 662.42,328.27 666.89,320.87 669.81,313.79 671.58,308.28 673.76,296.2 673.97,288.08 673.45,280.9 671.99,272.36 667.62,258.2 662.94,248.41 659.08,241.64 652.63,232.07 644.82,222.28 639.2,215.62 634.83,210.1 629.72,202.6 624.52,191.05 623.48,180.32 624.73,172.1 626.5,166.27 628.47,161.27 631.08,155.75 634.41,149.71 638.16,143.88 642.53,137.64 653.36,124.41 663.98,112.55 672.62,102.86 682.4,90.47 689.9,79.54 703.12,60.18 712.49,47.48 717.6,40.92 723.22,33.94 725.82,30.71 734.77,20.3 739.35,15.3 743.62,10.93 748.31,6.98 749.56,6.04 755.8,3.33 760.7,3.12 765.07,4.16 769.34,6.14 772.57,8.33 775.27,10.93 778.08,14.78 779.85,18.32 781.21,22.18 783.08,29.15 784.33,34.04 785.68,39.15 787.14,44.14 788.6,48.83 791.41,56.53 796.41,68.51 800.16,76.11 801.93,79.33 808.49,89.33 811.19,92.45 814.73,95.78 819.94,99.01 826.08,100.36 831.6,97.97 833.47,92.24 832.54,85.89 831.29,82.35 830.77,81.21 828.58,77.25 826.6,74.34 825.14,72.57 823.17,70.28 819.52,66.32 817.75,64.45 815.88,62.57 812.23,58.72 815.77,62.78 812.75,59.34 809.53,55.7 804.22,47.58 802.34,38.63 802.97,33.84 804.84,29.15 809.32,23.32 816.09,18.12 818.38,16.66 823.06,14.16 829.93,10.83 834.93,8.64 839.82,6.66 848.57,3.54 858.36,0.94 866.68,0.0 872.2,0.42 877.72,2.71 882.72,7.7 885.42,12.81 887.61,19.36 888.44,22.9 889.38,28.42 889.8,31.75 890.11,37.69 890.21,42.69 890.11,49.87 889.8,55.7 889.28,61.22 888.55,68.3 888.03,73.61 886.47,87.45 885.63,95.26 884.38,106.4 883.55,114.11 882.3,125.35 880.84,139.2 880.74,140.24 878.76,155.65 876.99,164.71 871.37,185.74 866.68,200.21 859.71,219.68 853.36,235.71 847.01,250.81 838.37,269.76 831.81,282.14 816.29,305.15 793.7,327.33 770.28,342.22 754.24,350.23 735.4,359.08 728.63,362.31 701.98,375.74 681.57,386.05 639.61,405.52 617.65,413.95 593.28,421.86 572.67,426.97 555.6,430.19 541.96,432.07 531.13,433.32 526.03,433.94 515.2,434.98 506.98,435.81 497.92,436.96 487.3,438.73 483.24,440.08 476.68,444.56 474.49,448.2 471.79,452.89 465.75,461.43 462.42,463.93 459.19,465.38 456.38,466.11 453.36,466.53 449.4,466.63 442.63,465.9 436.8,464.65 432.74,463.61 429.1,462.78 420.35,461.53 416.19,461.43 411.09,461.74 403.7,462.57 400.78,462.99 390.27,464.55 386.52,465.17 374.96,466.84 361.11,468.82 345.18,470.8 333.11,472.36 319.26,474.02 310.52,474.96 298.02,476.31 267.2,479.44 255.96,480.17 246.28,480.79 233.99,481.52 230.04,481.83 219.94,483.39 212.65,485.58 203.8,490.58 197.03,496.3 189.85,504.01 182.67,513.69 177.77,521.71 172.98,531.08 169.55,539.2 166.84,547.11 162.99,562.0 160.28,577.1 158.62,592.71 158.3,595.94 157.78,610.93 158.82,627.69 164.03,643.41 175.59,656.43 182.14,667.36 186.31,678.5 189.43,687.87 192.56,698.39 197.87,718.38 200.78,732.01 202.86,743.99 204.32,754.19 205.67,766.27 206.4,775.01 206.92,798.85 204.11,809.06 199.84,813.74 194.43,818.84 191.51,828.21 191.41,833.84 191.83,839.35 193.6,850.81 194.95,856.32 198.39,867.78 202.13,877.88 205.88,886.31 211.3,896.51 217.75,906.82 218.27,907.55 226.6,918.38 233.78,926.18 239.3,931.49 247.53,937.32 258.04,943.47 265.85,947.74 271.26,950.65 281.16,956.59 283.65,958.56 289.17,964.39 292.19,973.76 291.88,977.82 290.94,982.2 289.07,986.78 286.15,990.63 281.47,994.17 276.47,996.15 271.99,997.4 268.45,998.13 264.19,998.65 257.63,999.27 250.23,999.79 242.11,1000.0 238.57,1000.0 232.12,999.69 226.6,998.96 218.79,997.5 217.44,997.19 210.26,993.34 207.76,990.63 204.63,985.22 202.76,980.01 201.72,976.16 200.78,971.58 199.64,966.27 198.39,960.54 196.72,954.92 194.95,950.34 191.31,943.05 186.0,934.31 182.35,929.0 174.86,918.27 164.45,901.09 156.64,884.02 154.66,878.92 147.16,857.16 139.35,831.13 135.19,816.24 130.61,799.58 127.8,789.07 123.22,770.12 120.51,757.63 118.53,746.28 115.3,720.04 113.74,702.13 112.91,690.16 112.6,684.33 110.93,657.26 109.79,639.15 109.99,626.97 111.04,608.02 112.81,584.59 114.37,570.95 116.66,555.86 119.36,541.28 123.01,524.83 124.67,518.27 126.24,512.02 128.63,503.59 131.13,495.26 132.8,490.37 135.19,484.02 136.44,481.31 139.77,475.38 142.37,472.15 150.39,467.15 162.16,463.51 177.15,461.11 194.74,459.66 199.22,459.24 207.86,458.51 228.06,456.12 238.05,454.45 250.44,451.95 265.54,448.52 282.4,444.35 300.1,439.98 309.27,437.79 322.07,434.46 336.54,430.71 362.57,424.47 375.38,422.18 395.37,420.09 407.65,419.05 423.79,416.66 440.86,411.45 454.09,405.52 468.56,398.13 489.69,388.03 501.67,383.24 523.01,376.57 535.09,373.87 544.46,372.31 555.8,370.64 575.27,368.25 580.27,367.73 595.58,365.43 606.82,363.14 620.25,359.19 629.72,355.13 644.82,346.07 651.9,340.24 659.71,331.91 664.91,324.31 670.12,313.07 672.62,303.7 673.76,293.39 673.35,280.69 672.72,276.0 669.18,262.47 665.02,252.37 660.23,243.41 656.9,238.21 651.48,230.5 644.09,221.45 637.22,213.12 631.81,205.93 626.29,196.04 624.21,189.48 623.48,180.74 625.77,168.45 631.18,155.54 636.7,145.97 637.64,144.61 644.61,134.72 650.23,127.95 658.67,118.48 671.26,104.42 676.68,97.97 688.55,81.62 694.17,73.19 698.96,66.22 707.91,53.51 712.29,47.68 718.74,39.46 722.8,34.36 729.15,26.76 732.9,22.38 737.69,17.07 740.5,14.06 748.72,6.66 756.85,3.23 761.63,3.33 766.22,4.69 772.25,8.12 774.75,10.41 777.88,14.37 780.37,19.68 783.39,30.4 785.16,37.27 787.45,45.18 789.54,51.43 791.93,57.89 794.12,63.4 800.36,76.63 805.47,85.16 812.02,93.28 815.88,96.62 820.15,99.12 825.25,100.36 829.52,99.64 832.01,97.45 833.47,91.62 832.74,86.62 832.12,84.33 831.49,82.77 829.93,79.54 828.58,77.15 826.39,74.13 824.0,71.21 823.27,70.28 821.29,68.09 818.9,65.59 814.94,61.53 813.38,59.86 814.0,60.59 808.49,54.35 805.47,49.87 803.9,46.75 802.34,40.08 802.76,34.88 804.63,29.57 806.82,26.03 812.02,20.93 818.38,16.66 824.1,13.53 830.35,10.62 837.74,7.5 844.72,4.79 849.3,3.33 858.36,1.04 863.35,0.21 870.74,0.21 875.01,1.25 878.97,3.54 881.99,6.66 885.22,12.49 886.88,16.76 888.24,21.86 889.07,26.34 890.01,35.19 890.01,36.02 890.21,46.23 889.59,58.51 888.55,68.61 887.19,80.27 885.32,97.35 884.7,103.7 883.45,115.15 882.51,123.17 880.95,137.84 880.01,146.59 878.55,156.59 875.74,170.02 868.56,194.59 860.96,216.24 853.77,234.67 850.75,242.17 845.86,253.41 839.61,267.05 831.29,283.19 822.02,297.76 807.34,315.04 797.97,323.79 785.27,333.37 766.22,344.4 747.37,353.46 695.0,379.28 689.48,382.2 663.35,395.0 645.55,403.02 629.52,409.58 618.9,413.53 608.28,417.18 595.26,421.24 571.53,427.17 552.06,430.71 538.42,432.59 518.22,434.67 510.31,435.5 500.42,436.65 495.94,437.17 487.82,438.63 479.8,441.44 475.53,446.23 472.62,451.22 470.95,454.45 467.0,460.18 465.12,461.95 462.21,464.03 455.34,466.32 449.71,466.63 447.94,466.63 442.22,465.9 437.64,464.86 432.64,463.61 426.81,462.36 421.4,461.63 415.36,461.43 405.05,462.36 389.54,464.65 380.48,466.01 374.13,466.94 364.97,468.3 354.35,469.65 342.06,471.21 328.84,472.88 320.41,473.82 303.85,475.69 290.11,477.15 277.1,478.4 266.48,479.33 257.31,480.06 230.97,481.73 220.04,483.29 212.13,485.79 199.64,493.81 186.73,508.07 183.19,512.96 173.4,529.93 166.53,547.84 162.26,565.23 160.28,576.99 158.41,594.69 157.99,603.12 157.89,615.83 158.09,620.09 160.28,634.25 163.51,642.58 169.55,650.49 183.39,670.17 189.54,688.29 193.7,702.24 196.3,711.82 199.43,725.46 203.18,746.07 204.01,752.52 205.57,765.12 206.4,774.8 206.92,781.57 207.13,795.63 205.88,804.58 204.53,808.33 198.7,814.68 192.87,821.76 191.51,828.21 191.51,835.5 192.87,846.95 195.16,857.47 197.14,864.03 199.12,870.07 202.76,879.33 207.55,889.64 210.88,895.78 221.5,912.02 234.1,926.6 240.45,932.43 249.61,938.57 255.96,942.32 262.83,946.07 269.7,949.82 275.33,952.94 280.74,956.27 286.15,960.75 288.76,963.77 291.15,968.25 291.36,968.97 292.09,975.33 291.78,978.45 290.42,983.97 288.65,987.51 284.59,992.19 283.03,993.34 277.82,995.73 274.49,996.67 271.79,997.4 261.06,999.27 255.34,999.48 249.71,999.79 242.95,1000.0 240.03,1000.0 227.95,999.17 218.69,997.5 214.32,995.94 209.63,992.71 204.74,985.74 202.45,979.07 200.88,972.41 198.8,962.52 197.45,957.21 195.47,951.59 192.76,945.65 187.25,936.28 183.71,930.97 178.92,924.1 174.86,918.27 173.3,915.98 164.86,901.93 156.64,883.91 151.85,871.21 148.93,862.57 144.66,848.93 139.67,832.27 134.46,813.74 131.03,801.25 127.28,786.88 122.8,768.25 118.53,746.17 115.72,724.83 114.37,709.94 113.12,693.7 112.08,677.46"
    fill="none"
    stroke="#888"
    stroke-width="4"
    stroke-linejoin="round"
    stroke-linecap="round"
  />
</svg>
