<svg xmlns="http://www.w3.org/2000/svg" viewBox="0 0 1000 1000">
  <polyline
    points="557.04,770.37 540.16,774.73 518.19,780.08 498.19,784.94 483.95,788.4 473.25,791.03 461.23,793.91 446.75,797.53 429.71,801.81 411.19,806.42 392.51,811.03 373.83,815.72 357.45,819.75 344.86,822.8 312.26,830.7 299.84,833.83 289.79,836.21 266.09,841.98 249.79,846.01 234.49,849.63 221.73,852.43 206.67,855.23 190.21,857.04 170.45,856.79 158.35,854.98 148.07,852.18 138.35,848.23 124.2,839.92 115.47,832.59 109.55,826.34 102.63,816.87 96.87,805.43 95.14,800.25 92.92,790.86 92.1,782.3 93.0,769.47 94.4,763.05 96.46,757.12 101.07,748.07 104.36,743.37 108.15,739.18 110.12,737.37 116.95,732.35 124.61,728.97 129.63,727.65 131.93,727.33 142.14,727.82 150.45,730.86 156.63,735.14 162.14,742.63 164.69,749.14 165.43,752.76 165.76,758.44 165.6,761.89 164.94,766.34 163.54,773.17 162.22,783.21 162.47,787.98 163.7,794.4 166.01,799.67 168.72,803.62 172.67,807.33 179.84,810.78 185.93,811.69 189.3,811.44 191.85,811.03 198.02,808.81 202.55,806.01 207.98,801.23 210.53,798.27 215.47,790.62 219.51,780.74 221.15,774.24 222.06,768.31 222.55,761.4 222.39,754.73 221.65,747.9 219.59,737.78 216.05,726.67 210.78,715.31 209.14,712.26 199.42,697.53 191.19,687.33 185.6,680.82 177.86,672.1 171.28,664.77 161.73,654.4 159.01,651.44 142.39,633.5 138.02,628.81 122.3,611.85 114.73,603.7 96.79,583.37 90.53,575.47 79.84,561.32 70.37,547.41 65.76,539.84 55.64,521.65 53.5,517.28 44.12,497.37 32.84,470.12 25.84,451.36 21.65,439.59 16.21,424.53 11.93,412.18 5.6,394.4 3.62,388.56 1.32,380.82 0.16,374.32 0.08,367.98 2.06,360.33 5.1,355.06 11.28,349.63 17.04,347.49 21.65,346.83 27.49,347.24 33.83,348.97 37.12,350.29 43.79,353.66 44.53,354.16 49.71,357.61 55.97,362.63 64.28,370.37 67.82,373.99 74.07,380.99 79.09,387.16 84.94,395.14 88.15,399.75 94.81,410.29 99.09,417.86 104.2,427.41 108.72,436.63 110.29,440.08 115.14,450.62 119.09,459.67 122.8,467.98 129.14,482.22 131.69,487.9 136.95,499.51 143.62,513.09 148.31,521.81 153.42,530.53 166.01,548.07 171.28,554.07 194.81,573.99 198.77,576.38 212.02,583.13 222.63,587.08 240.08,591.03 255.56,592.1 273.09,590.45 286.91,587.08 295.06,584.03 310.62,575.8 316.05,572.1 335.97,553.17 342.06,545.19 350.12,531.85 354.32,523.87 363.05,504.69 372.84,486.26 387.08,468.23 392.43,463.37 405.27,454.57 411.93,451.36 420.33,448.31 429.55,446.34 440.0,445.68 451.77,446.91 455.31,447.74 469.14,453.17 481.89,461.81 484.61,464.2 490.04,470.04 494.9,476.54 499.84,484.94 503.95,494.16 507.0,502.39 510.86,512.18 515.64,521.48 524.77,532.59 529.22,536.13 538.02,540.74 546.34,542.8 549.14,543.05 553.5,542.96 559.59,541.98 564.2,540.58 570.95,537.2 573.91,535.14 578.44,531.28 584.53,524.61 590.04,516.71 591.52,513.99 597.45,498.85 598.35,495.56 599.67,487.9 599.92,478.52 597.78,465.02 594.81,454.73 592.18,447.65 586.01,434.65 577.7,420.41 569.47,407.49 559.26,391.69 548.81,375.31 541.07,362.8 533.74,350.86 526.91,339.67 515.88,321.56 506.58,305.93 501.32,296.87 496.05,287.82 489.47,276.21 483.13,265.27 476.05,252.59 470.95,243.46 464.77,232.26 457.04,218.19 450.78,207.0 446.01,198.35 442.47,192.02 436.79,182.06 429.3,170.04 426.67,166.5 421.07,160.49 413.91,155.88 409.71,154.32 406.01,153.5 401.65,153.25 397.37,153.91 393.0,155.39 390.95,156.38 385.43,159.84 382.72,162.14 378.02,166.58 373.83,170.29 369.63,173.33 363.62,176.54 359.09,178.11 355.47,178.77 347.49,178.85 340.25,177.53 331.11,173.66 326.83,170.78 320.82,165.27 313.58,154.98 311.85,151.44 309.79,146.01 307.41,135.8 306.83,130.53 307.16,119.67 308.31,112.67 311.11,103.46 313.5,97.86 320.41,86.42 326.26,79.59 329.22,76.63 338.6,69.22 343.79,66.09 351.77,62.14 360.33,59.01 373.17,56.05 395.64,54.98 407.08,56.71 424.53,61.81 433.74,65.93 440.91,69.79 448.56,74.73 455.97,80.49 466.75,90.62 474.57,99.59 482.96,111.11 491.52,124.03 504.69,145.19 525.27,177.94 532.26,189.05 543.95,207.49 554.24,223.95 559.75,232.84 577.12,260.33 583.05,269.88 594.32,287.82 600.99,298.35 603.62,302.63 619.18,327.41 628.64,342.47 634.73,352.18 643.05,365.35 649.96,376.3 658.35,389.55 670.95,409.55 680.08,424.03 697.78,452.02 701.98,458.68 714.24,478.02 721.4,489.47 728.64,500.91 739.51,518.02 749.71,534.07 758.52,547.82 770.04,566.26 781.65,584.53 786.83,592.59 795.72,606.42 802.39,616.79 814.98,636.38 826.26,653.66 835.97,668.81 845.68,683.87 852.43,694.32 866.75,716.54 887.33,748.48 894.57,759.59 908.23,780.58 919.01,797.2 931.93,817.04 941.23,831.11 947.65,840.49 956.95,854.32 963.54,864.2 968.64,871.85 973.25,878.68 981.23,890.62 990.62,905.1 992.35,907.82 996.3,914.73 998.11,918.68 999.84,925.68 1000.0,928.81 999.59,933.33 998.93,935.72 995.88,940.82 993.74,942.47 991.28,943.7 987.82,944.69 984.44,944.94 980.91,944.86 979.59,944.77 975.47,943.87 966.58,940.16 960.82,936.54 958.11,934.57 953.83,931.11 945.76,923.95 942.22,920.49 936.63,914.73 934.24,912.1 927.98,904.69 921.32,895.97 915.97,888.64 911.11,881.65 902.8,868.97 896.79,859.51 891.36,850.53 886.42,842.14 884.94,839.51 880.0,831.03 872.43,817.86 867.33,808.89 862.55,800.82 852.92,784.61 844.61,771.36 832.51,753.25 825.1,743.29 816.46,734.73 811.19,730.78 804.44,726.91 798.77,724.61 794.16,723.29 780.58,722.72 774.9,723.21 767.74,724.36 758.19,726.34 749.47,728.15 740.58,729.96 731.36,731.93 724.53,733.5 705.68,737.61 693.58,740.25 682.06,742.72 669.22,745.35 668.23,745.6 657.04,747.9 647.65,749.79 630.78,753.42 608.64,758.27 594.65,761.4 583.62,763.95 544.28,773.74 533.91,776.3 509.22,782.22 491.44,786.5 478.27,789.71 465.02,793.0 446.67,797.53 433.17,800.91 414.49,805.6 394.4,810.53 367.98,817.12 355.23,820.25 336.13,824.94 310.62,831.19 296.95,834.49 284.61,837.45 264.53,842.39 255.72,844.53 230.29,850.53 209.55,854.73 196.54,856.54 179.42,857.28 172.84,857.04 157.94,854.9 146.17,851.52 132.1,845.02 113.42,830.78 107.65,824.2 103.29,817.94 99.51,811.36 93.99,796.46 92.59,789.05 92.02,780.99 92.67,771.11 93.91,765.02 97.86,753.74 102.72,745.6 106.42,740.91 112.84,735.06 118.35,731.6 126.58,728.31 132.84,727.24 137.04,727.16 147.33,729.38 149.55,730.45 155.31,734.32 158.85,737.86 162.22,742.88 164.69,749.38 165.51,753.91 165.76,758.68 165.51,762.55 164.94,766.17 163.79,772.02 162.72,777.86 162.3,785.51 163.05,792.02 164.28,795.97 167.33,801.73 170.95,805.93 175.64,809.22 179.01,810.53 183.21,811.52 185.84,811.69 194.57,810.29 197.94,808.81 200.91,807.16 205.35,803.79 208.56,800.58 212.92,794.81 218.11,784.61 220.66,776.46 222.22,766.67 222.47,761.73 222.06,751.03 218.19,732.84 215.47,725.27 208.48,711.03 204.28,704.36 199.09,697.2 191.52,687.74 186.01,681.32 173.91,667.74 161.81,654.4 148.31,639.84 144.03,635.23 133.74,624.28 127.9,617.86 114.32,603.21 108.4,596.63 102.47,589.96 93.25,578.93 89.05,573.58 76.21,556.21 68.56,544.53 59.01,527.98 53.5,517.28 43.79,496.79 37.53,481.89 33.42,471.6 29.22,460.33 23.95,446.01 17.12,427.0 12.51,413.99 9.88,406.5 5.76,394.73 3.7,388.81 1.89,382.8 2.39,359.59 5.68,354.32 9.55,350.7 14.98,348.07 18.85,347.16 25.84,347.0 30.04,347.82 33.25,348.72 36.13,349.79 44.44,354.07 50.37,358.11 53.83,360.82 57.37,363.87 58.6,364.94 63.13,369.3 68.89,375.14 72.51,379.18 79.34,387.41 87.0,398.02 92.43,406.34 97.7,415.23 102.3,423.79 110.12,439.59 114.49,449.3 118.52,458.35 122.96,468.4 126.67,476.79 133.91,492.92 140.33,506.5 147.33,520.16 149.55,524.03 156.63,535.47 162.63,543.79 170.7,553.42 184.2,566.42 193.66,573.25 203.62,579.09 214.73,584.28 224.36,587.65 245.1,591.6 248.4,591.85 268.07,591.28 277.7,589.55 289.14,586.26 297.28,583.05 316.05,572.1 326.17,563.7 339.26,549.05 348.31,535.14 354.07,524.28 362.96,504.94 367.24,496.21 380.91,474.73 386.83,468.48 395.23,461.15 404.12,455.23 413.42,450.78 434.73,445.76 439.42,445.6 454.49,447.57 469.47,453.33 478.52,459.09 481.32,461.32 489.96,469.96 498.35,482.3 501.23,487.82 507.74,504.28 513.5,517.7 520.58,528.23 523.95,531.93 532.1,537.94 538.19,540.82 543.95,542.47 554.9,542.88 561.65,541.48 567.0,539.42 568.72,538.52 573.74,535.31 576.87,532.76 581.32,528.4 585.43,523.46 589.22,518.02 592.59,511.85 595.31,505.68 596.95,500.66 598.93,492.67 600.0,482.72 599.67,475.97 598.35,467.41 596.3,459.59 593.09,450.04 589.79,442.14 581.73,427.16 576.87,419.09 563.05,397.61 554.81,384.77 545.84,370.53 541.89,364.2 531.11,346.58 524.2,335.23 518.35,325.6 510.12,311.85 504.2,301.89 497.78,290.78 492.51,281.65 487.0,272.02 481.15,261.73 470.62,242.96 457.53,219.18 450.45,206.34 444.53,195.64 437.78,183.79 434.24,177.7 428.64,169.05 425.27,164.77 420.08,159.67 414.81,156.3 409.22,154.16 405.02,153.33 396.13,154.24 392.43,155.64 385.35,159.92 381.07,163.7 375.97,168.48 371.28,172.26 367.98,174.32 360.82,177.61 356.13,178.68 353.17,179.01 347.9,178.85 341.89,177.86 333.42,174.9 327.24,171.11 322.22,166.75 318.93,163.13 315.88,158.93 311.11,149.71 309.22,144.12 307.9,138.77 306.83,130.53 306.83,123.87 307.74,115.64 309.14,109.55 316.05,93.17 318.52,89.22 324.77,81.07 335.14,71.69 350.04,62.88 352.51,61.81 361.89,58.52 370.95,56.38 380.41,55.14 393.83,55.06 405.93,56.54 427.16,62.88 437.2,67.74 450.12,75.97 459.59,83.62 473.91,98.85 482.47,110.37 487.98,118.68 493.42,127.16 507.57,149.79 517.61,165.84 521.4,171.93 534.4,192.43 540.33,201.81 552.84,221.73 572.43,252.92 575.8,258.27 583.21,270.12 590.7,282.06 596.79,291.85 613.25,318.02 625.02,336.79 632.02,347.82 638.27,357.78 646.58,370.95 652.1,379.75 660.58,393.17 669.05,406.58 679.75,423.46 686.17,433.66 692.59,443.79 706.91,466.5 722.8,491.69 730.12,503.13 736.63,513.5 750.37,535.06 761.32,552.26 773.66,572.1 781.07,583.62 795.97,606.75 804.2,619.51 810.78,629.88 827.98,656.38 840.66,676.13 851.93,693.5 859.42,705.1 872.18,724.86 886.5,747.16 887.98,749.47 900.58,768.89 913.17,788.31 923.62,804.44 934.9,821.56 942.3,832.76 950.45,844.69 958.68,857.04 963.95,864.86 975.64,882.14 982.72,892.92 986.75,899.01 989.63,903.54 994.4,911.19 997.12,916.38 999.67,924.12 1000.0,928.56 999.67,933.09 998.27,937.45 997.04,939.59 993.33,942.8 991.44,943.7 984.77,944.94 982.8,944.94 975.72,943.87 972.59,942.8 969.38,941.48 965.76,939.59 962.55,937.61 957.45,933.99 949.71,927.49 946.01,924.2 937.94,916.13 931.44,908.89 927.24,903.79 922.06,896.95 918.19,891.69 914.32,886.26 906.91,875.39 900.99,866.26 894.07,855.06 887.08,843.29 883.13,836.38 874.98,822.3 869.79,813.25 858.52,793.83 852.26,783.54 842.22,767.65 834.4,755.88 827.82,746.67 817.37,735.39 807.33,728.23 797.12,724.03 786.83,722.47 773.58,723.46 759.26,726.09 738.19,730.45 724.28,733.58 710.7,736.54 700.41,738.77 684.94,742.06 669.88,745.19 658.6,747.57 647.08,749.96 639.59,751.52 629.88,753.58 617.94,756.21 592.76,761.89 567.0,767.9 547.41,772.92 521.23,779.34 507.98,782.47 498.27,784.86 487.33,787.57 463.87,793.33 453.91,795.8 442.63,798.52 430.12,801.73 420.0,804.2 399.67,809.22 383.13,813.42 370.29,816.63 339.26,824.2 309.88,831.36 294.24,835.14 283.87,837.7 259.01,843.79 240.58,848.15 223.95,851.93 201.32,855.97 191.69,856.95 166.09,856.38 154.07,853.99 138.11,848.15 128.48,842.8 119.18,836.05 108.97,825.68 100.33,812.92 97.53,807.0 92.92,791.36 92.1,783.95 92.43,773.17 95.56,759.59 98.6,752.26 101.98,746.67 109.14,738.19 113.25,734.73 120.41,730.53 131.28,727.41 133.66,727.16 142.06,727.82 144.61,728.4 149.38,730.37 153.0,732.51 155.97,734.81 158.19,737.12 160.33,740.0 162.3,743.21 165.76,759.67 165.35,763.7 164.36,769.3 162.8,777.04 162.22,785.6 163.54,793.74 165.35,798.6 167.24,801.73 173.17,807.65 178.77,810.53 184.61,811.6 190.7,811.28 193.83,810.45 198.27,808.64 200.25,807.57 204.36,804.61 209.55,799.42 211.52,796.87 214.73,791.85 217.86,785.27 219.59,780.41 220.91,775.23 221.81,770.29 222.47,763.7 222.55,760.0 222.3,754.07 221.23,745.1 219.09,735.72 214.16,722.22 210.86,715.47 204.36,704.44 197.94,695.64 189.63,685.6 184.69,679.84 178.27,672.59 169.71,663.13 158.68,651.11 149.47,641.15 139.26,630.12 130.37,620.58 121.32,610.78 115.14,604.12 105.27,593.17 97.78,584.44 89.79,574.57 82.72,565.27 77.94,558.6 70.04,546.83 60.82,531.36 51.44,513.0 49.3,508.56 41.23,490.7 32.92,470.37 25.68,450.95 22.47,442.06 19.01,432.35 14.73,420.25 11.52,411.11 8.89,403.79 4.86,392.1 2.63,385.6 0.58,376.79 0.0,370.7 0.33,366.5 1.56,361.48 3.37,357.7 5.84,354.16 8.72,351.28 9.63,350.62 14.07,348.4 20.0,347.0 24.36,346.91 29.55,347.65 32.35,348.48 38.52,350.86 47.16,355.8 50.53,358.27 57.94,364.36 63.37,369.47 67.24,373.42 73.5,380.33 78.52,386.34 83.87,393.5 88.81,400.74 92.76,407.0 100.58,420.58 104.77,428.64 109.3,437.94 113.33,446.67 114.9,450.21 123.05,468.56 127.24,477.94 133.66,492.43 141.07,507.98 148.15,521.65 154.49,532.18 160.91,541.48 171.11,553.91 182.39,564.94 200.58,577.45 207.82,581.23 231.52,589.47 245.93,591.69 263.54,591.69 273.33,590.45 286.09,587.24 293.25,584.77 306.83,578.11 324.28,565.35 333.58,556.05 344.2,541.98 349.38,533.33 357.94,516.13 362.55,505.76 365.93,498.77 375.31,482.22 383.79,471.6 394.07,462.06 405.1,454.65 411.28,451.69 420.58,448.31 429.22,446.34 438.52,445.6 445.43,446.01 451.28,446.83 463.13,450.37 472.76,455.23 481.89,461.81 493.0,473.83 500.25,485.84 503.05,492.02 508.07,505.1 512.76,516.3 514.9,520.08 521.98,529.88 530.29,536.87 540.0,541.4 547.0,542.88 549.47,543.05 555.72,542.72 564.44,540.49 570.37,537.53 576.71,532.84 582.47,527.0 596.21,502.96 598.11,496.38 599.75,487.33 599.67,475.56 598.35,467.82 596.63,460.82 594.4,453.58 592.35,448.07 587.33,437.2 583.05,429.3 574.65,415.64 567.82,405.02 562.47,396.71 554.81,384.77 549.79,376.87 541.98,364.36 529.55,344.03 521.56,330.78 514.49,319.18 508.07,308.4 502.8,299.42 497.53,290.37 488.81,275.14 477.53,255.31 465.43,233.42 458.19,220.25 453.25,211.28 446.91,200.0 440.41,188.31 431.69,173.58 427.49,167.57 419.59,159.34 416.79,157.37 411.28,154.81 406.67,153.58 402.14,153.25 394.9,154.65 391.44,156.13 385.93,159.42 385.35,159.92 382.39,162.47 376.3,168.15 369.14,173.58 364.12,176.3 359.18,178.11 351.85,178.93 342.3,177.94 338.02,176.79 333.58,174.98 329.79,172.84 326.17,170.21 323.37,167.82 318.35,162.39 314.4,156.54 309.63,145.51 308.15,139.84 306.75,125.27 307.33,118.6 308.89,110.37 311.11,103.37 315.23,94.49 319.42,87.82 322.3,84.03 328.97,76.79 336.13,70.95 342.63,66.75 354.65,60.99 358.93,59.42 366.01,57.37 377.2,55.47 396.87,55.14 410.29,57.45 418.93,59.84 426.42,62.63 435.56,66.83 442.63,70.86 450.37,76.13 457.78,81.98 467.65,91.6 481.23,108.56 489.14,120.49 493.99,127.98 501.73,140.41 510.21,154.07 518.93,167.9 525.84,178.93 538.68,199.18 554.24,223.95 568.07,245.93 574.57,256.3 580.49,265.76 585.76,274.24 592.35,284.77 602.47,300.74 608.48,310.45 615.97,322.3 622.72,333.17 630.29,345.1 636.46,354.9 646.01,370.04 652.92,381.07 664.86,399.92 670.45,408.81 684.61,431.19 697.37,451.44 705.27,463.95 716.79,482.06 727.57,499.18 745.93,528.15 753.66,540.33 765.76,559.26 772.02,569.47 779.84,581.73 792.18,600.91 800.91,614.49 812.59,632.59 814.81,636.05 832.43,663.29 839.75,674.73 848.56,688.31 853.74,696.3 868.4,719.18 885.19,745.19 891.6,755.06 899.59,767.33 905.35,776.21 913.33,788.56 924.36,805.51 930.21,814.4 945.27,837.12 952.43,847.57 959.01,857.37 967.9,870.7 970.62,874.73 980.08,888.89 986.26,898.35 989.63,903.46 993.58,909.88 996.38,914.81 998.52,919.75 1000.0,928.97 999.75,931.93 999.09,935.23 995.72,940.99 991.28,943.7 988.81,944.44 983.87,945.02 979.51,944.77 975.31,943.87 967.9,940.74 964.36,938.85 960.41,936.21 954.65,931.77 948.64,926.5 937.86,916.05 933.91,911.77 927.49,904.12 922.14,897.04 916.13,888.89 907.65,876.54 900.16,864.86 895.56,857.53 892.1,851.77 884.44,838.77 875.23,822.63 870.45,814.4 862.39,800.49 853.5,785.6 841.98,767.33 839.26,763.13 828.4,747.41 820.41,738.27 810.78,730.45 802.8,726.17 791.52,722.8 784.12,722.55 777.04,723.05 768.48,724.28 760.33,725.84 752.51,727.49 739.75,730.12 721.15,734.24 709.71,736.79 701.48,738.6 690.12,740.99 679.51,743.21 665.6,746.09 651.36,749.05 635.64,752.35 615.47,756.79 604.94,759.09 592.26,761.98 576.13,765.68"
    fill="none"
    stroke="#888"
    stroke-width="4"
    stroke-linejoin="round"
    stroke-linecap="round"
  />
</svg>
