<svg xmlns="http://www.w3.org/2000/svg" viewBox="0 0 1000 1000">
  <polyline
    points="374.0,149.42 368.1,140.57 357.37,124.27 344.47,104.83 337.29,93.96 328.23,80.27 317.6,64.28 308.4,50.35 300.77,38.73 289.3,16.93 288.56,8.81 290.68,3.4 295.11,0.39 301.41,0.25 308.99,2.41 316.86,5.66 326.61,10.38 334.43,14.37 347.08,20.82 363.18,29.14 376.71,36.62 389.36,44.44 402.99,53.99 418.1,65.71 437.59,83.33 447.19,93.02 465.35,111.92 476.03,123.24 488.93,137.07 508.42,158.33 523.13,175.02 539.13,191.26 566.15,206.76 581.7,220.59 595.04,250.07 598.93,272.27 604.54,287.97 615.32,306.67 624.42,320.55 634.91,334.63 646.72,350.48 655.48,362.44 671.52,385.52 686.58,410.97 694.21,426.96 699.04,439.02 706.66,461.41 712.37,478.64 722.66,509.7 728.52,527.17 741.26,565.41 746.43,580.72 752.78,599.67 762.03,627.03 770.89,653.31 777.64,673.44 783.49,690.82 793.68,721.63 797.91,734.23 805.3,755.88 809.04,768.53 810.96,787.77 807.22,798.31 801.06,806.03 796.04,811.3 787.23,823.9 785.56,833.25 786.54,843.59 789.69,853.92 795.01,868.24 797.37,876.81 797.81,888.82 792.94,903.39 784.43,914.76 774.14,922.83 763.71,929.87 757.06,934.39 741.71,945.22 728.47,955.11 715.87,964.76 705.53,972.73 689.68,984.99 680.19,990.99 663.6,999.21 657.94,1000.0 647.41,997.79 640.91,992.91 636.63,987.06 634.51,979.77 635.15,971.26 637.51,965.1 643.08,957.33 647.9,952.8 660.2,944.19 669.01,939.36 683.78,931.14 692.83,924.11 697.9,918.2 702.43,908.75 702.92,891.52 699.82,879.56 695.15,867.85 690.52,856.92 682.84,837.98 677.58,823.21 671.87,802.69 668.96,790.92 663.7,767.6 660.79,753.91 657.25,737.08 653.12,718.18 648.78,698.54 639.43,672.85 628.41,658.92 620.09,652.38 607.59,646.52 589.28,644.26 568.07,644.21 547.3,649.18 530.32,659.42 511.91,678.22 502.95,692.69 492.42,718.77 488.68,730.68 483.91,745.6 475.1,773.06 469.39,790.83 463.87,807.95 457.92,825.47 453.69,835.37 442.42,850.87 436.56,855.84 425.88,860.62 408.06,860.42 401.17,857.81 392.66,853.14 379.81,848.11 368.44,847.33 358.65,849.39 346.98,855.4 336.11,866.03 328.82,876.17 321.93,888.23 316.62,899.01 310.76,911.41 303.52,925.58 294.27,940.89 286.64,949.45 275.86,955.46 264.49,955.95 256.03,954.18 240.67,946.89 227.68,938.48 215.82,929.72 205.29,919.63 196.57,907.67 190.87,895.22 188.8,874.1 190.77,859.63 194.31,845.95 202.48,825.72 215.33,803.77 221.63,794.91 238.51,774.04 251.21,760.36 265.82,746.19 276.06,737.33 293.39,724.19 318.63,708.58 336.2,698.49 357.47,686.14 371.25,678.12 386.01,668.52 409.14,648.88 419.78,636.78 438.33,606.11 447.58,585.93 458.51,559.06 465.99,534.6 468.21,514.47 466.78,497.49 461.61,479.38 452.36,455.61 443.3,434.49 430.75,405.31 424.3,389.21 416.53,363.32 414.02,351.71 404.76,300.47 403.09,289.64 401.52,274.78 402.3,262.08 406.04,254.06 408.95,252.04 414.36,251.01 420.17,250.66 426.47,247.81 428.73,244.02 429.18,238.61 428.49,234.96 425.24,226.89 420.46,219.07 415.74,212.13 412.98,208.09 406.04,197.85 403.09,193.38 393.05,178.17 382.22,161.83 370.75,144.5 359.43,127.42 351.02,114.68 338.52,95.88 331.53,85.29 319.32,66.89 311.1,54.48 302.44,41.34 293.29,26.28 289.64,18.01 288.46,11.27 289.1,6.25 293.88,0.84 296.98,0.0 304.36,0.94 310.86,3.1 316.22,5.36 321.78,7.97 332.17,13.19 345.11,19.83 360.76,27.86 370.85,33.32 384.73,41.49 398.96,50.99 410.23,59.41 431.64,77.52 440.74,86.48 450.88,96.81 467.27,113.94 482.08,129.74 496.6,145.34 508.91,158.87 523.97,175.95 533.86,186.44 547.69,197.61 569.84,209.22 588.49,232.31 596.61,257.41 598.19,267.94 603.7,286.3 616.25,308.15 625.6,322.28 634.66,334.28 652.67,358.6 668.13,380.4 674.23,389.65 689.14,416.08 700.91,444.34 707.7,464.61 714.39,484.74 721.72,506.84 728.96,528.6 734.28,544.59 742.89,570.28 748.35,586.52 755.19,606.8 764.15,633.38 771.19,654.2 777.0,671.47 782.07,686.48 793.24,720.35 799.98,740.23 808.4,766.02 811.2,781.13 810.96,788.12 807.12,798.41 799.93,807.26 793.09,814.5 788.86,820.36 786.0,828.92 785.71,838.07 787.33,846.69 793.04,862.73 797.52,877.69 797.86,888.57 793.73,901.81 787.63,911.26 778.18,919.97 762.77,930.5 743.92,943.6 727.48,955.85 714.88,965.5 699.58,977.46 687.37,986.56 676.79,992.96 663.3,999.26 655.77,999.9 646.13,997.1 642.39,994.34 638.5,990.11 635.1,982.87 634.46,975.64 635.69,969.49 639.38,961.95 646.03,954.47 653.51,948.52 670.54,938.63 681.56,932.52 693.18,923.76 700.22,914.51 703.51,896.35 702.63,889.75 697.8,874.3 693.72,864.5 685.5,844.77 677.97,824.39 673.74,809.87 669.75,794.17 665.03,773.8 663.21,765.18 659.17,746.28 655.23,727.83 651.05,708.68 644.75,684.52 635.94,667.39 627.23,657.79 613.0,648.49 599.91,645.04 581.75,643.96 568.81,644.16 557.88,645.63 538.78,653.71 521.66,666.99 508.91,682.5 502.02,694.56 494.14,713.46 488.93,729.94 483.61,746.53 476.47,768.83 467.96,795.35 462.45,812.38 457.57,826.36 449.01,843.34 439.71,853.38 425.73,860.67 418.59,861.45 407.13,860.12 398.07,856.14 389.41,851.51 380.35,848.26 373.46,847.18 361.9,848.46 355.35,850.63 343.54,858.16 334.43,868.15 324.15,884.04 317.16,897.87 311.55,909.78 306.92,919.18 301.01,930.01 292.89,942.76 287.53,948.67 276.65,955.21 265.38,956.05 254.7,953.74 243.48,948.52 233.19,942.27 222.22,934.64 205.19,919.48 196.62,907.82 192.0,898.37 188.9,885.72 189.59,866.77 191.55,855.99 194.65,845.01 200.61,829.61 211.04,810.37 219.31,798.06 230.88,783.05 241.85,770.35 254.4,757.11 273.9,739.1 289.1,727.19 299.83,719.85 327.2,703.71 350.92,689.88 371.64,677.92 388.82,666.55 400.97,656.71 412.39,645.44 432.08,617.92 442.12,598.09 448.91,582.88 454.28,569.84 463.68,543.66 467.42,527.02 466.88,497.98 462.89,483.17 456.34,465.35 447.98,445.32 442.91,433.65 433.02,410.67 426.27,394.18 419.73,375.92 415.4,358.25 410.28,333.15 407.03,314.84 403.34,291.12 401.71,277.59 401.66,267.6 403.39,258.29 406.93,253.27 411.06,251.35 417.27,250.96 423.17,249.88 428.09,245.6 429.18,241.46 429.08,237.97 426.47,229.45 424.6,225.71 419.73,217.93 416.33,212.96 409.1,202.33 399.6,188.01 393.2,178.41 388.08,170.69 378.68,156.51 365.73,136.92 356.09,122.35 348.75,111.33 336.25,92.43 327.3,78.9 318.63,65.85 309.63,52.22 300.18,37.8 291.17,22.0 288.46,10.73 289.1,6.35 292.06,1.97 295.9,0.15 300.57,0.1 305.1,1.13 311.3,3.3 315.48,5.07 325.18,9.65 332.71,13.49 350.82,22.74 370.46,33.07 382.08,39.82 394.53,47.89 409.78,59.11 426.81,73.09 436.16,81.95 452.9,98.93 464.47,111.03 480.26,127.77 497.39,146.27 515.95,166.99 535.49,187.96 553.01,200.36 570.92,209.96 582.09,221.13 593.07,243.48 598.09,267.5 602.13,282.8 611.38,300.42 622.85,318.34 630.48,328.82 644.16,346.98 661.14,370.26 668.18,380.45 680.33,399.6 691.21,420.42 697.71,435.43 705.68,458.46 711.19,475.15 717.2,493.21 723.25,511.42 730.24,532.39 739.3,559.6 748.25,586.13 754.16,603.7 764.79,635.25 772.02,656.71 782.36,687.37 788.86,706.86 795.94,728.37 802.15,746.53 807.36,762.53 810.02,772.76 811.3,783.74 803.72,803.08 798.8,808.45 793.14,814.45 787.92,822.18 785.66,831.82 785.9,839.8 787.73,848.11 791.37,858.3 796.49,873.07 798.01,887.19 794.32,900.53 789.15,909.29 781.43,917.41 766.56,927.99 749.98,939.27 739.34,946.99 725.51,957.33 711.68,967.96 702.97,974.75 691.65,983.56 680.33,990.89 670.64,996.26 661.43,999.7 651.93,999.36 644.65,996.16 640.47,992.47 634.95,982.23 634.61,974.36 636.09,968.3 641.25,959.44 648.74,952.16 659.07,944.88 669.26,939.27 684.22,930.9 694.11,922.83 701.99,910.47 703.37,894.43 701.4,884.54 698.79,876.71 690.96,858.01 684.61,842.5 677.23,822.03 671.13,799.73 667.04,782.85 663.16,765.13 659.37,747.02 654.44,724.23 648.29,696.67 644.75,684.47 635.1,666.31 623.88,655.03 610.15,647.31 600.8,645.14 581.21,643.96 568.41,644.21 552.17,647.21 528.55,660.84 503.99,690.72 496.65,706.57 490.35,725.47 486.12,738.66 478.89,761.3 472.73,780.44 468.01,795.16 461.32,815.78 453.54,835.66 443.3,850.03 434.05,857.42 423.12,861.16 414.76,861.4 399.3,856.78 390.79,852.2 379.37,848.02 367.65,847.43 353.09,851.71 342.65,858.99 334.33,868.29 326.9,879.22 319.96,892.07 314.5,903.53 305.39,922.14 298.06,935.08 290.04,946.21 279.16,954.18 271.53,956.29 262.33,955.66 251.75,952.65 235.41,943.65 225.07,936.51 213.95,928.14 205.68,920.02 191.55,897.23 188.7,883.35 190.03,863.82 196.18,840.63 203.37,823.9 212.13,808.69 224.19,791.47 231.81,781.87 244.51,767.45 252.49,759.03 268.48,743.82 285.85,729.55 304.9,716.61 330.79,701.64 352.45,688.99 379.96,672.65 399.6,657.89 421.6,634.36 434.29,613.89 444.09,593.81 452.6,574.02 457.38,562.01 466.09,534.11 468.16,510.29 462.5,482.08 457.18,467.47 446.6,442.17 437.1,420.22 427.4,397.04 422.09,383.16 414.36,353.33 410.08,332.12 402.7,286.74 401.52,274.24 402.4,261.49 403.88,257.31 409.1,251.99 413.77,251.01 419.18,250.81 423.81,249.63 428.39,244.96 429.13,238.66 427.99,233.29 426.03,228.47 423.12,223.3 418.1,215.52 413.82,209.32 405.21,196.57 399.69,188.21 391.92,176.44 384.04,164.58 376.07,152.52"
    fill="none"
    stroke="#888"
    stroke-width="4"
    stroke-linejoin="round"
    stroke-linecap="round"
  />
</svg>
