<svg xmlns="http://www.w3.org/2000/svg" viewBox="0 0 1000 1000">
  <polyline
    points="733.55,738.4 713.04,743.93 700.94,747.22 697.25,748.18 675.13,754.19 662.79,757.55 649.17,761.24 640.44,763.56 630.42,766.29 606.46,772.78 587.63,777.83 578.89,780.15 567.67,783.2 540.35,790.81 532.98,792.89 518.15,797.06 508.37,799.7 491.55,804.35 480.09,807.48 469.51,810.36 460.77,812.61 454.36,814.29 450.2,815.25 435.13,817.41 427.04,817.33 418.3,815.97 412.61,814.05 407.81,811.56 403.4,808.6 397.23,802.83 392.02,794.82 388.73,788.56 385.05,781.59 381.68,775.5 377.59,768.53 372.79,761.48 369.02,756.19 364.77,749.94 360.13,743.13 351.55,730.31 347.46,724.06 339.93,712.76 331.12,699.37 325.43,690.72 321.9,685.43 314.85,674.77 303.39,657.3 294.01,643.2 286.48,631.74 282.71,625.89 277.03,617.08 267.49,601.77 261.96,592.48 255.47,580.86 244.01,559.14 237.76,546.88 233.27,537.9 225.34,522.12 216.36,503.85 209.15,488.78 198.89,467.22 190.08,448.31 185.59,438.86 181.1,429.32 175.9,418.66 168.68,404.56 162.83,394.22 155.06,381.72 148.49,371.62 140.88,360.81 130.38,347.18 110.27,324.83 103.29,317.61 84.86,298.94 65.71,280.11 53.29,268.09 45.84,260.96 36.06,251.74 30.05,245.97 19.47,235.96 13.22,230.03 7.29,223.94 3.21,218.25 0.8,212.48 0.0,206.63 0.64,202.78 2.8,198.53 5.21,195.97 9.06,193.32 13.46,191.24 16.83,190.2 20.19,189.4 21.4,189.16 29.09,187.88 34.7,187.07 41.91,186.19 54.81,184.75 63.39,184.03 75.01,183.31 80.94,182.99 88.39,182.75 100.25,182.51 106.9,182.51 114.59,182.67 127.01,183.07 135.27,183.55 153.38,184.91 173.33,186.99 194.01,189.72 216.6,193.24 227.66,195.09 241.04,197.57 251.22,199.5 266.05,202.46 277.59,204.78 292.73,207.83 312.93,211.84 327.35,214.72 338.25,216.88 362.69,221.61 371.34,223.05 395.06,226.58 406.44,228.18 416.62,229.63 444.51,233.39 457.17,234.91 480.89,237.16 494.83,238.04 507.49,238.6 518.87,238.92 539.79,239.64 550.44,239.96 566.71,240.36 577.29,240.6 587.95,240.84 600.29,241.25 611.51,242.29 616.08,243.33 620.32,244.77 628.18,248.86 629.06,249.42 634.03,253.59 637.47,258.71 639.79,267.13 640.2,272.34 640.04,277.55 638.27,284.6 636.51,288.93 633.86,294.21 628.74,302.55 624.33,308.56 616.88,317.45 608.22,326.19 597.0,335.4 592.11,338.77 578.49,346.7 571.12,350.31 552.53,357.36 538.1,361.21 518.07,364.89 499.16,365.69 487.22,365.13 467.43,363.05 454.12,361.21 441.94,359.2 430.8,357.2 408.45,352.95 389.21,349.51 381.36,348.31 367.9,346.54 319.74,349.91 311.64,352.95 302.19,358.24 296.34,362.81 286.24,374.43 281.67,382.76 277.75,396.07 276.62,405.36 276.38,411.37 277.51,427.0 280.39,440.38 283.44,450.08 287.12,458.81 292.17,468.43 297.3,477.08 302.91,486.22 308.84,495.75 313.81,503.77 320.94,515.23 330.31,529.01 337.21,538.06 349.95,551.61 360.29,559.7 366.54,563.47 378.96,568.43 383.2,569.32 392.82,569.88 407.0,567.55 416.38,564.27 422.87,561.14 435.29,553.29 442.66,547.36 454.2,537.02 462.22,529.73 472.55,520.35 481.13,512.5 494.91,500.96 504.53,493.99 507.25,492.23 526.72,482.45 548.76,476.68 602.69,473.24 613.51,472.99 629.22,472.67 646.29,472.43 661.03,472.27 673.45,472.19 688.44,472.11 703.58,472.03 718.49,471.87 745.33,471.39 756.87,471.15 771.06,470.83 790.37,470.27 803.19,469.87 809.68,469.63 826.27,469.15 836.53,468.83 858.24,468.27 872.11,468.43 881.72,468.75 895.99,469.63 909.69,471.39 922.19,474.2 935.49,479.08 949.68,487.74 959.61,496.87 962.1,499.76 970.83,514.58 977.16,535.42 980.37,546.24 983.33,556.01 987.98,571.08 990.46,579.09 995.11,594.16 997.84,604.66 999.84,617.08 1000.0,625.09 997.92,636.87 992.39,647.85 987.26,654.5 982.21,659.23 976.52,663.39 970.91,666.68 961.13,671.65 947.83,677.74 940.38,680.86 922.51,687.27 915.86,689.28 898.71,694.17 878.92,699.29 865.61,702.74 855.2,705.55 846.78,707.87 822.98,714.28 811.92,717.24 764.32,730.15 747.9,734.55 734.91,738.08 725.38,740.64 710.95,744.49 690.36,750.1 663.35,757.39 641.0,763.4 617.12,769.89 596.92,775.34 575.61,781.03 561.82,784.8 541.95,790.41 523.44,795.54 505.41,800.58 494.83,803.47 478.08,807.96 456.45,813.73 447.71,815.73 433.37,817.49 426.88,817.33 420.15,816.37 413.9,814.53 407.48,811.4 399.31,805.07 393.7,797.78 393.06,796.74 386.65,784.64 381.36,774.78 375.83,765.89 370.38,758.03 364.21,749.14 356.76,738.16 350.19,728.22 343.86,718.69 336.24,707.15 333.44,702.98 327.35,693.61 320.94,683.99 311.48,669.65 302.35,655.78 296.74,647.29 289.21,635.91 282.88,626.21 279.11,620.28 262.6,593.52 256.03,581.9 245.05,561.22 239.44,550.16 229.83,531.09 221.41,514.18 216.36,503.85 209.15,488.86 204.74,479.57 192.88,454.32 186.23,440.06 180.54,428.2 172.93,412.81 165.56,398.87 161.55,392.06 152.9,378.44 144.8,366.26 136.15,354.48 132.86,350.23 120.84,336.2 113.63,328.43 98.73,312.89 90.47,304.55 83.18,297.18 64.11,278.59 56.33,271.06 42.79,258.07 38.46,253.99 32.37,248.14 19.63,236.04 15.95,232.59 10.58,227.38 5.29,221.37 2.08,215.84 0.72,212.24 0.16,205.1 0.8,202.38 1.76,200.22 3.69,197.49 5.69,195.57 7.93,193.97 10.9,192.36 14.99,190.76 17.23,190.12 19.87,189.48 22.68,188.92 31.01,187.56 39.67,186.43 42.95,186.03 54.57,184.83 62.42,184.11 67.63,183.71 81.02,182.99 87.03,182.75 90.07,182.67 108.02,182.59 115.55,182.67 135.43,183.55 150.73,184.67 168.6,186.51 176.78,187.47 195.61,189.96 205.22,191.4 214.92,193.0 230.39,195.57 241.53,197.65 252.82,199.82 269.97,203.18 279.19,205.1 288.48,206.95 306.27,210.55 323.02,213.84 335.12,216.32 346.02,218.49 363.25,221.69 383.28,224.9 406.04,228.1 421.27,230.27 445.63,233.55 473.84,236.6 501.64,238.36 525.76,239.16 538.1,239.64 558.38,240.12 573.44,240.52 581.3,240.68 591.79,240.92 598.12,241.17 605.58,241.57 615.11,243.09 623.29,246.05 633.78,253.35 637.95,259.84 638.43,261.28 639.71,267.05 640.2,272.26 639.39,280.83 635.95,290.05 633.62,294.7 628.66,302.63 624.73,308.0 618.88,315.13 608.38,326.03 603.17,330.68 596.04,336.04 588.67,340.93 572.32,349.75 560.22,354.8 551.97,357.52 532.65,362.49 515.51,365.13 503.97,365.77 484.57,364.89 475.84,364.09 464.78,362.73 453.72,361.13 445.95,359.84 434.89,357.92 419.34,355.04 407.08,352.63 398.11,351.03 387.45,349.19 362.45,346.06 351.95,345.58 334.48,346.62 322.62,349.03 312.77,352.47 306.6,355.52 300.99,359.12 293.45,365.61 286.16,374.59 279.19,389.73 277.11,400.31 276.38,415.46 276.78,421.47 279.99,438.78 283.2,449.27 291.53,467.31 296.1,475.08 303.71,487.58 307.56,493.67 314.53,505.05 325.75,522.52 331.76,531.01 344.74,546.56 353.95,555.13 360.85,560.1 369.66,564.99 386.65,569.72 394.66,569.72 401.88,568.76 415.98,564.43 427.44,558.58 437.54,551.61 446.99,543.51 451.4,539.51 461.01,530.93 497.96,498.72 504.13,494.31 511.58,489.66 526.4,482.53 534.98,479.81 551.89,476.2 563.51,474.84 575.21,474.12 595.32,473.4 601.25,473.24 625.29,472.75 641.08,472.51 661.91,472.27 678.02,472.19 700.62,472.11 715.2,471.95 731.23,471.71 746.53,471.39 763.12,470.99 774.66,470.75 793.89,470.19 806.72,469.79 811.84,469.63 841.33,468.67 864.25,468.27 886.69,468.99 897.35,469.79 914.98,472.43 927.16,475.8 936.53,479.57 949.27,487.34 955.93,493.03 962.34,500.16 966.74,506.41 970.67,514.1 973.8,523.64 976.12,531.81 981.25,549.04 984.77,560.66 988.22,571.72 991.51,582.54 995.19,594.48 996.23,640.88 988.86,652.58 978.6,662.03 969.31,667.56 957.61,673.33 949.6,677.02 940.38,680.86 930.84,684.47 927.24,685.67 911.93,690.4 897.35,694.49 883.4,698.17 874.11,700.5 866.9,702.34 853.27,706.03 837.25,710.43 824.1,713.96 815.29,716.36 809.68,717.89 795.1,721.81 775.38,727.1 763.04,730.47 747.74,734.55 734.67,738.08 727.46,740.08 716.64,742.97 704.54,746.25 683.79,751.86 673.93,754.51 664.0,757.15 644.12,762.6 629.06,766.69 610.15,771.74 596.36,775.5 582.58,779.19 568.8,782.88 553.89,787.04 543.95,789.85 531.53,793.29 525.44,794.98 509.74,799.38 497.8,802.67 487.46,805.47 470.95,809.96 457.33,813.57 447.55,815.81 440.26,816.93 429.44,817.41 421.19,816.61 415.42,815.09 407.89,811.64 397.79,803.47 395.14,800.1 390.42,791.69 386.25,783.84 383.12,778.07 376.95,767.65 375.35,765.25 371.02,759.0 366.38,752.26 358.84,741.21 355.0,735.44 343.7,718.45 341.05,714.44 331.76,700.34 325.59,690.96 323.26,687.52 317.49,678.7 309.16,666.04 302.43,655.94 291.29,638.95 284.32,628.46 271.74,608.66 266.77,600.57 258.35,586.06 246.81,564.51 238.88,549.12 232.71,536.78 227.66,526.68 218.69,508.57 207.55,485.5 197.05,463.3 189.84,447.91 183.75,434.85 176.86,420.59 172.13,411.13 160.51,390.38 145.12,366.82 137.35,356.0 127.41,343.66 115.87,330.84 105.7,320.1 93.84,307.92 83.02,297.02 66.59,280.99 59.54,274.18 48.08,263.12 35.1,250.78 23.96,240.12 18.11,234.59 7.37,223.94 3.85,219.29 0.88,212.8 0.16,204.94 1.52,200.78 4.09,197.09 6.89,194.69 13.62,191.24 17.31,190.12 22.28,189.0 25.64,188.36 29.25,187.8 33.58,187.23 40.15,186.43 44.47,185.87 49.6,185.31 58.74,184.43 62.42,184.11 67.71,183.71 76.77,183.23 92.32,182.67 104.5,182.51 119.0,182.83 127.01,183.07 141.84,183.95 153.38,184.91 158.27,185.39 167.24,186.35 181.5,188.04 204.66,191.32 220.85,193.97 233.03,196.05 245.29,198.29 260.04,201.18 280.71,205.43 300.58,209.35 318.37,212.96 335.28,216.32 343.86,218.01 354.84,220.25 365.97,222.17 379.76,224.34 393.62,226.42 405.08,228.02 417.82,229.79 434.49,232.03 459.01,235.07 477.04,236.84 488.66,237.72 511.74,238.68 533.06,239.4 560.22,240.2 576.25,240.6 585.86,240.84 593.16,241.0 599.73,241.17 607.58,241.73 615.99,243.33 622.57,245.81 631.94,251.66 635.39,255.35 637.79,259.68 638.59,261.84 639.55,265.93 640.2,276.26 639.55,280.51 637.39,286.84 634.35,293.33 629.22,301.83 623.05,310.16 619.04,315.05 613.51,321.06 609.18,325.39 601.89,331.72 597.32,335.24 588.91,340.85 571.44,350.15 561.98,354.15 551.01,357.84 532.57,362.49 519.43,364.73 508.05,365.61 498.44,365.69 487.54,365.13 466.7,362.97 447.79,360.17 436.65,358.24 421.03,355.36 404.2,352.15 396.27,350.71 377.03,347.66 363.89,346.22 349.63,345.58 341.69,345.9 330.48,347.26 318.37,350.31 307.48,355.04 298.58,360.97 291.05,368.26 286.24,374.51 281.35,383.48 279.27,389.49 276.87,402.48 276.7,420.35 279.35,436.13 281.75,444.95 287.2,458.97 292.25,468.51 299.46,480.69 305.95,491.11 307.0,492.79 315.73,506.89 327.03,524.36 332.48,531.97 339.53,540.79 346.9,548.8 352.59,553.93 363.33,561.62 369.82,565.07 383.36,569.32 393.06,569.88 407.4,567.47 418.46,563.39 432.09,555.61 441.78,548.08 449.07,541.67 457.09,534.46 462.94,529.17 469.35,523.24 480.33,513.22 494.83,501.04 506.21,492.95 518.47,485.98 526.48,482.53 535.06,479.73 545.08,477.4 565.67,474.68 580.9,473.88 604.54,473.15 632.18,472.67 640.68,472.51 655.42,472.35 667.68,472.27 686.35,472.19 701.34,472.11 716.72,471.95 728.58,471.71 743.89,471.47 757.99,471.15 770.81,470.83 781.15,470.51 796.62,470.11 821.06,469.31 836.45,468.83 856.96,468.35 881.08,468.67 901.35,470.19 919.71,473.56 926.76,475.64 948.87,487.1 954.16,491.43 966.1,505.45 972.35,518.59 976.12,531.81 979.33,542.71 981.57,550.16 985.01,561.3 986.22,565.39 989.1,574.53 992.63,586.14 995.59,596.0 997.2,601.93 999.52,613.87 999.92,627.25 996.87,639.27 992.23,648.01 990.94,649.93 985.5,656.26 971.71,666.28 961.7,671.41 955.28,674.37 938.62,681.59 922.59,687.19 906.56,692.0 893.82,695.45 876.75,699.86 870.58,701.38 858.08,704.74 841.01,709.39 818.09,715.56 797.98,721.01 777.47,726.54 766.09,729.67 752.46,733.27 735.96,737.76"
    fill="none"
    stroke="#888"
    stroke-width="4"
    stroke-linejoin="round"
    stroke-linecap="round"
  />
</svg>
