<svg xmlns="http://www.w3.org/2000/svg" viewBox="0 0 1000 1000">
  <polyline
    points="178.53,320.02 188.21,296.46 196.65,275.88 206.94,250.57 223.91,208.38 231.84,184.91 237.7,164.54 244.8,138.51 250.05,121.12 253.04,112.57 258.28,100.84 264.66,90.97 270.43,84.28 271.66,83.25 282.88,76.04 295.23,72.75 301.61,72.55 312.62,74.5 318.28,76.76 326.2,82.32 332.06,89.52 337.31,99.4 339.68,107.94 340.5,114.43 339.68,130.07 338.24,137.48 334.53,150.96 331.14,161.04 330.83,161.97 326.82,173.29 323.83,181.0 319.92,190.88 316.01,199.94 307.37,218.87 303.05,228.65 297.8,240.89 293.89,251.39 290.29,263.33 288.33,271.97 286.99,282.16 286.48,295.33 287.61,314.16 289.26,332.37 289.26,354.6 287.61,363.14 276.19,383.1 265.8,391.95 249.33,400.91 237.91,405.54 224.43,410.58 222.47,411.2 205.19,417.99 191.71,424.68 182.75,431.47 180.9,433.32 173.39,445.36 170.82,458.32 171.33,466.45 177.4,480.96 183.58,486.83 194.38,493.11 205.08,495.78 214.24,495.99 233.48,491.87 248.82,487.34 259.31,484.15 270.12,480.35 275.67,478.08 285.04,474.58 303.46,468.0 312.62,464.91 323.01,461.62 337.52,457.6 352.44,454.21 366.54,452.05 387.22,450.09 402.76,449.58 420.66,450.09 431.88,451.02 459.05,454.83 480.65,458.94 483.54,459.46 501.13,462.85 535.6,467.89 561.33,468.51 573.57,467.48 597.76,462.54 611.03,458.12 624.0,452.67 640.87,444.02 664.13,430.23 676.27,422.72 694.18,412.43 714.24,403.07 743.05,394.32 761.68,391.54 784.21,389.79 801.81,389.17 827.43,388.87 848.63,388.97 870.14,389.48 889.48,390.41 904.92,391.85 920.77,394.53 942.99,402.24 956.16,409.86 965.12,416.75 976.33,428.28 980.86,434.04 987.45,444.33 995.99,464.5 999.28,481.27 999.79,501.34 998.35,513.79 996.19,523.67 986.01,548.57 977.98,562.36 970.16,574.81 962.96,586.13 955.13,598.58 948.65,608.97 937.74,626.88 930.85,639.12 922.51,655.59 914.08,673.9 912.95,676.58 903.99,696.85 897.0,711.77 891.34,722.06 887.63,727.62 881.56,734.92 866.33,746.14 848.22,752.42 840.71,753.76 832.06,754.78 819.92,755.4 806.44,755.09 792.76,754.06 775.26,751.49 763.53,748.92 745.94,743.88 732.04,738.53 722.06,733.9 705.19,723.81 703.75,722.68 694.79,715.37 689.44,710.64 685.02,705.91 677.51,696.03 672.46,685.12 671.43,679.15 672.15,671.33 675.24,663.92 680.59,656.1 686.56,649.52 690.47,645.81 695.82,641.49 705.19,635.11 713.42,630.58 724.22,625.64 732.97,622.45 743.67,619.26 745.22,618.85 743.98,619.06 753.45,617.1 762.81,615.35 778.76,613.09 780.82,612.88 826.3,603.0 833.5,600.64 844.0,596.21 850.17,592.92 864.58,580.37 868.49,573.27 870.55,566.99 871.68,560.71 871.89,554.54 871.06,546.51 869.01,538.9 866.74,533.44 863.45,527.58 859.02,521.71 855.22,517.7 845.13,510.29 839.37,507.41 833.2,505.04 815.5,500.62 806.44,499.18 792.76,497.22 778.86,495.37 767.13,493.83 757.87,492.8 752.52,492.28 742.85,491.46 731.73,490.84 712.08,490.43 704.98,490.53 679.15,491.97 654.87,494.34 624.92,498.87 612.99,501.23 588.91,507.0 575.43,510.5 554.95,516.36 544.14,519.86 516.77,529.53 487.34,540.54 457.71,549.91 435.07,556.9 429.62,558.76 412.02,564.83 391.34,572.96 380.33,577.59 374.36,580.26 359.13,587.36 347.09,593.33 339.37,597.14 330.52,600.95 323.93,602.8 311.9,601.87 305.72,598.27 297.28,590.76 290.18,584.89 285.66,582.12 280.82,580.06 275.88,578.51 264.56,577.49 262.71,577.59 257.25,578.31 249.95,580.47 241.2,585.51 233.69,593.74 230.09,601.77 228.75,608.56 228.54,614.02 229.47,624.1 230.71,632.13 231.84,638.92 233.28,648.08 235.23,658.78 236.78,667.63 238.73,678.74 240.58,689.55 243.98,709.1 246.24,722.06 249.43,740.07 249.95,743.57 253.04,761.27 254.99,772.18 259.52,798.31 263.63,821.47 266.0,835.46 267.85,847.4 268.99,857.38 269.4,868.29 267.75,882.79 259.93,901.52 249.64,913.56 241.61,919.43 232.35,923.75 220.0,926.63 195.31,927.25 169.89,925.91 161.56,925.5 140.87,923.85 119.78,920.25 96.21,913.36 73.06,903.58 61.33,896.89 51.14,889.9 41.57,881.87 29.02,868.8 25.42,864.48 9.78,838.96 3.19,821.57 0.0,800.47 1.03,782.57 4.53,765.08 15.33,737.19 24.8,714.14 32.93,692.84 39.62,675.76 46.31,658.37 54.23,637.99 60.51,621.73 66.27,606.92 71.41,593.54 81.19,568.02 86.95,552.99 95.7,530.46 103.93,509.06 112.16,487.55 118.13,472.11 128.94,444.23 136.14,425.6 136.86,423.75 144.47,404.3 154.56,378.47 164.23,355.01 173.29,332.99 188.82,295.02 195.93,277.63 200.45,266.52 210.23,242.54 216.71,226.69 226.28,201.79 233.28,180.18 237.6,164.85 242.64,146.43 245.63,135.73 248.82,124.92 251.8,115.97 258.08,101.36 262.19,94.05 267.34,87.47 271.97,82.84 280.61,77.07 292.65,73.16 299.24,72.55 311.59,74.3 313.54,74.91 324.76,81.09 329.18,85.72 335.36,95.18 335.87,96.32 339.68,108.25 340.61,116.07 340.09,126.57 339.37,131.61 337.83,139.33 336.08,145.61 333.3,154.66 326.2,174.83 322.7,184.09 319.92,190.88 315.5,200.97 306.24,221.55 303.35,227.93 297.39,242.03 292.86,254.58 287.51,277.53 286.48,292.86 287.1,308.71 288.23,320.75 289.77,340.5 288.02,361.29 283.91,372.2 275.16,384.13 263.74,393.29 253.76,398.85 234.72,406.77 213.52,414.59 198.7,420.87 189.13,426.12 183.06,431.06 177.4,437.74 171.85,450.2 170.82,461.82 172.26,470.57 179.77,483.54 184.4,487.45 190.68,491.36 205.49,495.78 214.14,495.88 221.55,494.85 231.63,492.39 242.03,489.3 252.93,486.01 260.34,483.84 273.72,478.91 274.23,478.6 287.71,473.55 303.97,467.79 318.79,462.96 334.23,458.43 352.44,454.21 368.8,451.74 385.68,450.2 396.17,449.68 422.0,450.2 443.1,452.36 457.4,454.62 471.8,457.19 489.3,460.59 504.12,463.37 527.99,467.17 549.19,468.72 572.13,467.69 584.28,465.84 597.86,462.54 612.78,457.5 641.39,443.82 656.51,434.86 672.98,424.78 686.66,416.65 706.52,406.36 721.34,400.39 746.04,393.81 761.37,391.44 771.15,390.62 788.54,389.59 801.19,389.17 836.59,388.87 862.11,389.17 883.72,390.1 899.88,391.23 918.71,394.11 936.2,399.36 952.25,407.29 971.7,423.13 985.29,440.52 992.9,455.86 998.35,474.48 999.07,479.42 1000.0,491.77 998.87,510.39 994.44,529.84 984.15,552.07 965.94,581.4 960.9,589.32 946.49,612.27 931.78,637.48 923.96,652.5 913.36,675.65 903.17,698.6 894.22,717.02 890.1,723.91 878.47,738.01 866.33,746.14 856.14,750.26 841.02,753.76 830.93,754.89 819.72,755.4 809.53,755.3 799.14,754.68 778.25,752.01 755.92,746.96 744.19,743.26 739.45,741.51 725.66,735.75 709.61,726.8 700.25,720.11 692.43,713.42 690.27,711.46 681.11,701.28 676.58,694.48 671.95,683.17 671.43,676.37 673.6,667.32 678.53,658.88 682.24,654.04 685.94,650.13 695.51,641.7 699.42,638.92 711.15,631.71 718.77,628.01 727.31,624.41 734.31,622.04 750.26,617.72 753.96,616.9 747.48,618.23 758.18,616.28 767.34,614.74 783.29,612.47 802.12,609.28 812.0,607.02 819.3,605.17 833.81,600.54 836.18,599.61 846.57,594.88 857.48,587.67 867.67,575.02 869.11,571.72 871.78,559.48 871.89,554.13 870.24,543.12 866.54,533.03 862.93,526.86 858.51,521.2 852.23,515.13 845.54,510.5 835.87,505.97 823.42,502.37 811.18,500.0 798.11,498.04 784.21,496.09 768.37,494.03 758.8,492.9 743.57,491.56 726.38,490.53 703.95,490.53 679.25,491.97 662.79,493.41 648.49,495.16 633.98,497.32 619.37,500.0 595.08,505.35 581.5,508.85 562.46,514.2 537.76,522.02 519.96,528.3 511.83,531.39 477.57,543.84 459.97,549.19 438.98,555.67 432.08,557.93 415.83,563.49 388.76,574.09 375.49,579.75 367.67,583.25 351.51,591.07 344.41,594.67 333.92,599.71 330.73,600.84 318.69,603.21 310.35,601.15 303.77,596.73 298.83,592.2 287.92,583.45 280.0,579.75 271.46,577.79 266.82,577.49 253.86,579.13 248.3,581.19 243.77,583.66 235.03,591.79 232.56,595.6 230.19,601.36 228.65,610.0 228.54,613.09 229.27,622.76 231.22,635.32 233.07,646.74 235.13,658.37 236.98,669.17 238.63,678.43 240.38,688.1 242.33,699.32 245.11,715.37 247.38,728.54 249.13,738.73 250.15,744.49 254.27,768.16 256.43,780.51 258.8,794.3 263.53,821.26 266.62,839.16 269.09,858.2 267.96,881.66 260.44,900.7 254.48,908.73 248.1,914.9 235.34,922.51 219.28,926.73 203.95,927.45 183.47,926.63 162.79,925.5 147.36,924.47 125.23,921.38 107.84,917.16 91.69,911.71 84.28,908.73 62.87,897.82 50.52,889.38 33.03,873.43 30.25,870.24 21.51,859.13 10.7,840.81 5.56,828.98 1.65,815.29 0.1,801.09 1.03,783.19 4.42,765.59 9.47,750.05 15.13,737.7 18.83,729.16 29.94,700.76 39.31,676.37 43.84,664.85 51.76,644.47 59.17,625.33 69.97,597.14 74.6,585.2 83.86,561.12 93.02,537.35 99.51,520.58 104.65,506.89 107.64,499.18 120.19,466.87 125.03,454.41 132.23,435.79 140.67,413.97 148.18,394.63 155.07,377.44 166.6,349.25 170.51,339.78 175.65,327.23 183.99,306.65 190.47,290.8 198.91,270.22 201.58,263.84 208.68,246.35 224.53,206.73 231.01,187.69 235.44,172.67 243.05,144.78 250.05,121.12 255.3,107.22 261.27,95.6 267.03,87.78 272.9,82.12 274.85,80.57 288.74,73.99 297.28,72.65 304.28,72.85 319.51,77.38 326.82,83.14 330.62,87.47 333.71,92.2 334.95,94.46 337.83,101.05 339.47,106.92 340.61,121.22 337.93,138.71 332.06,158.37 327.23,171.95 325.48,176.68 320.13,190.27 315.7,200.35 311.59,209.71 304.38,225.56 300.06,235.44 296.46,244.49 291.21,259.83 287.4,278.35 286.48,296.56 287.4,312.62 289.36,333.71 287.71,362.63 284.73,370.55 271.76,387.43 260.55,395.25 250.36,400.39 239.76,404.82 232.04,407.7 218.46,412.74 200.35,420.05 193.04,423.75 182.24,431.88 178.33,436.41 171.54,451.84 170.92,463.37 172.46,471.08 177.2,480.65 181.83,485.39 187.28,489.4 193.25,492.59 200.45,494.96 207.45,495.99 216.51,495.68 231.12,492.49 239.86,490.02 252.73,486.11 261.37,483.54 269.19,480.65 274.75,478.39 289.46,472.94 306.96,466.76 327.95,460.18 346.37,455.44 357.79,453.28 368.08,451.84 382.49,450.4 394.32,449.78 414.28,449.78 429.31,450.81 444.95,452.67 468.0,456.47 478.18,458.43 503.09,463.16 517.29,465.63 529.12,467.28 547.23,468.61 565.65,468.31 580.88,466.45 603.52,460.79 631.1,449.27 658.78,433.53 684.71,417.78 695.82,411.61 700.14,409.45 719.08,401.21 743.57,394.22 758.59,391.85 780.1,390.0 786.58,389.69 797.18,389.28 826.2,388.87 855.63,389.07 871.37,389.48 889.59,390.41 906.67,392.06 921.38,394.73 932.6,398.02 939.8,400.8 955.44,409.34 971.5,422.93 982.4,436.1 986.31,442.27 995.27,462.34 999.49,482.92 1000.0,492.8 999.18,508.03 993.31,532.83 985.59,549.5 975.92,565.65 968.0,578.21 961.41,588.5 952.05,603.42 943.4,617.51 931.98,636.96 921.69,657.23 914.49,672.98 907.8,688.21 900.39,704.77 895.45,714.55 887.12,728.24 883.1,733.38 872.3,742.64 863.76,747.38 854.29,750.87 845.65,752.93 822.08,755.3 802.63,754.89 786.17,753.24 774.23,751.29 751.59,745.63 727.0,736.26 712.9,728.85 704.05,723.09 703.23,722.27 695.41,715.89 688.93,710.02 685.02,705.91 680.59,700.56 674.83,691.19 672.67,685.43 671.43,678.95 671.54,674.93 674.11,666.19 677.81,659.81 683.58,652.6 688.1,647.97 691.5,644.89 697.26,640.46 702.72,636.65 715.58,629.45 722.37,626.36 736.57,621.32 742.13,619.67 746.24,618.65 765.18,615.04 774.95,613.6 789.36,611.55 803.15,609.08 817.25,605.68 837.11,599.2 844.0,596.21 853.57,590.76 858.72,586.54 863.96,580.78 868.9,571.83 869.83,569.25 871.58,561.43 871.37,548.36 869.62,541.06 868.39,537.46 863.14,527.17 860.05,522.95 856.45,518.93 847.4,511.63 844.31,509.88 835.67,505.97 821.47,501.85 808.19,499.38 796.87,497.84 784.01,496.09 775.37,494.85 761.37,493.21 750.77,492.08 740.89,491.36 729.68,490.74 712.18,490.43 698.91,490.74 695.31,490.94 683.06,491.66 666.7,493.0 647.25,495.27 634.18,497.32 628.83,498.15 604.96,503.09 582.12,508.75 572.65,511.32 561.74,514.41 542.6,520.37 519.45,528.61 495.06,537.66 489.61,539.72 463.98,547.95 447.21,553.1 430.54,558.45 403.58,568.12 378.27,578.51 362.93,585.51 348.01,592.82 336.39,598.58 325.89,602.39 322.39,603.0 312.62,602.18 303.66,596.62 296.77,590.24 285.86,582.22 273.2,578.0 266.1,577.49 257.87,578.21 247.17,581.7 240.58,586.03 237.39,588.91 235.65,590.97 230.29,601.05 228.65,610.72 228.75,618.13 229.78,626.57 232.35,642.11 234.82,656.62 236.26,664.64 239.86,685.43 241.3,693.46 243.77,708.07 247.07,726.69 249.02,738.11 251.7,753.34 254.17,767.65 256.33,780.0 260.03,801.4 263.74,822.08 265.9,835.15 268.88,856.35 269.4,864.17 267.85,882.38 263.02,896.07 250.98,912.33 241.3,919.63 227.72,925.19 210.13,927.45 198.6,927.35 185.84,926.73 163.2,925.6 144.78,924.26 136.14,923.24 125.03,921.38 99.51,914.49 83.25,908.31 75.94,905.02 60.51,896.38 46.0,885.68 35.71,876.21 23.77,862.21 18.11,853.98 10.39,840.19 3.6,822.91 1.03,811.79 0.1,794.3 1.13,782.36 5.04,763.33 10.91,746.45 16.88,733.9 22.54,719.9 25.21,712.9 37.35,681.52 43.53,665.57 49.19,651.06 59.37,624.61 65.65,608.36 70.28,596.52 80.68,569.46 91.69,540.75 97.04,527.06 103.52,510.19 112.88,485.7 114.12,482.61 122.45,461.0 129.66,442.37 136.65,424.37 140.87,413.36 146.33,399.36 158.78,368.49"
    fill="none"
    stroke="#888"
    stroke-width="4"
    stroke-linejoin="round"
    stroke-linecap="round"
  />
</svg>
